<svg width="700" height="206" viewBox="0 0 700 206" fill="none" xmlns="http://www.w3.org/2000/svg">
<g filter="url(#filter0_d_3_3)">
<mask id="path-1-outside-1_3_3" maskUnits="userSpaceOnUse" x="4" y="4" width="692" height="198" fill="black">
<rect fill="white" x="4" y="4" width="692" height="198"/>
<path d="M59.484 91.4703H24.3017L24.111 76.7008H56.0516C61.3274 76.7008 65.9357 75.8115 69.8766 74.0328C73.8175 72.2541 76.8686 69.7131 79.0297 66.4098C81.2544 63.043 82.3668 59.041 82.3668 54.4037C82.3668 49.3217 81.3816 45.1926 79.4111 42.0164C77.5042 38.7766 74.5485 36.4262 70.544 34.9652C66.6031 33.4406 61.5816 32.6783 55.4795 32.6783H28.4016V156.361H10V17.623H55.4795C62.5986 17.623 68.9549 18.3535 74.5485 19.8145C80.1421 21.2121 84.8776 23.4355 88.7549 26.4846C92.6958 29.4703 95.6833 33.2818 97.7173 37.9191C99.7514 42.5564 100.768 48.1148 100.768 54.5943C100.768 60.3115 99.3064 65.4887 96.3825 70.126C93.4586 74.6998 89.3905 78.4477 84.1784 81.3699C79.0297 84.292 72.9912 86.166 66.0628 86.9918L59.484 91.4703ZM58.6259 156.361H17.0555L27.4481 141.401H58.6259C64.4737 141.401 69.4317 140.384 73.4997 138.351C77.6313 136.319 80.7777 133.46 82.9389 129.776C85.1 126.028 86.1806 121.613 86.1806 116.531C86.1806 111.385 85.2589 106.939 83.4156 103.191C81.5723 99.4426 78.6801 96.5523 74.7392 94.5195C70.7983 92.4867 65.7132 91.4703 59.484 91.4703H33.2642L33.4549 76.7008H69.3045L73.2137 82.0369C79.8878 82.6086 85.545 84.5143 90.1851 87.7541C94.8252 90.9303 98.353 94.9959 100.768 99.9508C103.247 104.906 104.487 110.369 104.487 116.34C104.487 124.98 102.58 132.285 98.7661 138.256C95.0159 144.164 89.7084 148.674 82.8435 151.787C75.9787 154.836 67.9062 156.361 58.6259 156.361Z"/>
<path d="M189.821 138.733V85.6578C189.821 81.5922 188.994 78.0666 187.342 75.0809C185.752 72.0318 183.337 69.6814 180.095 68.0297C176.854 66.3781 172.849 65.5523 168.082 65.5523C163.632 65.5523 159.723 66.3145 156.354 67.8391C153.049 69.3637 150.443 71.3648 148.536 73.8422C146.693 76.3197 145.771 78.9877 145.771 81.8463H128.132C128.132 78.1619 129.086 74.5092 130.993 70.8883C132.9 67.2674 135.633 63.9959 139.192 61.0738C142.815 58.0881 147.138 55.7377 152.159 54.0225C157.244 52.2439 162.901 51.3545 169.131 51.3545C176.631 51.3545 183.242 52.625 188.962 55.166C194.747 57.707 199.26 61.5502 202.501 66.6957C205.807 71.7777 207.459 78.1619 207.459 85.8484V133.873C207.459 137.303 207.745 140.956 208.317 144.831C208.953 148.706 209.875 152.041 211.082 154.836V156.361H192.681C191.791 154.328 191.092 151.628 190.583 148.261C190.075 144.831 189.821 141.655 189.821 138.733ZM192.872 93.8525L193.062 106.24H175.233C170.211 106.24 165.73 106.653 161.789 107.478C157.848 108.241 154.543 109.416 151.873 111.004C149.204 112.592 147.17 114.593 145.771 117.007C144.373 119.358 143.674 122.121 143.674 125.297C143.674 128.537 144.405 131.491 145.867 134.159C147.328 136.827 149.521 138.955 152.445 140.543C155.433 142.068 159.088 142.83 163.41 142.83C168.813 142.83 173.58 141.686 177.712 139.4C181.843 137.113 185.117 134.318 187.532 131.014C190.011 127.711 191.346 124.503 191.537 121.39L199.069 129.871C198.624 132.539 197.416 135.493 195.446 138.733C193.475 141.972 190.838 145.085 187.532 148.071C184.291 150.993 180.413 153.439 175.9 155.408C171.451 157.314 166.429 158.266 160.836 158.266C153.844 158.266 147.71 156.901 142.434 154.169C137.222 151.437 133.154 147.785 130.23 143.211C127.37 138.574 125.939 133.397 125.939 127.679C125.939 122.153 127.02 117.293 129.181 113.1C131.342 108.844 134.457 105.319 138.525 102.524C142.593 99.665 147.487 97.5051 153.208 96.0441C158.929 94.583 165.317 93.8525 172.372 93.8525H192.872Z"/>
<path d="M300.23 136.35V10H317.964V156.361H301.755L300.23 136.35ZM230.819 105.954V103.953C230.819 96.0758 231.772 88.9293 233.679 82.5133C235.65 76.0338 238.415 70.4754 241.974 65.8381C245.597 61.2008 249.888 57.6434 254.846 55.166C259.867 52.625 265.461 51.3545 271.626 51.3545C278.11 51.3545 283.767 52.498 288.598 54.7848C293.492 57.0082 297.624 60.2797 300.993 64.5994C304.425 68.8555 307.127 74.001 309.097 80.0359C311.068 86.0707 312.434 92.8996 313.197 100.523V109.289C312.498 116.848 311.131 123.645 309.097 129.68C307.127 135.715 304.425 140.861 300.993 145.117C297.624 149.373 293.492 152.644 288.598 154.931C283.704 157.155 277.983 158.266 271.436 158.266C265.397 158.266 259.867 156.964 254.846 154.36C249.888 151.755 245.597 148.102 241.974 143.402C238.415 138.701 235.65 133.174 233.679 126.822C231.772 120.406 230.819 113.45 230.819 105.954ZM248.553 103.953V105.954C248.553 111.099 249.062 115.927 250.079 120.437C251.159 124.948 252.812 128.918 255.036 132.348C257.261 135.779 260.09 138.478 263.522 140.448C266.955 142.353 271.054 143.306 275.822 143.306C281.669 143.306 286.469 142.068 290.219 139.59C294.033 137.113 297.084 133.841 299.372 129.776C301.66 125.71 303.44 121.295 304.711 116.531V93.5666C303.948 90.0727 302.836 86.7059 301.374 83.4662C299.976 80.1629 298.132 77.2408 295.844 74.6998C293.619 72.0953 290.854 70.0307 287.549 68.5061C284.307 66.9816 280.462 66.2193 276.012 66.2193C271.182 66.2193 267.018 67.2357 263.522 69.2684C260.09 71.2377 257.261 73.9693 255.036 77.4631C252.812 80.8934 251.159 84.8955 250.079 89.4693C249.062 93.9795 248.553 98.8074 248.553 103.953Z"/>
<path d="M386.708 143.783C390.903 143.783 394.78 142.925 398.34 141.21C401.899 139.495 404.823 137.144 407.112 134.159C409.4 131.11 410.703 127.648 411.021 123.773H427.801C427.484 129.871 425.418 135.556 421.604 140.829C417.854 146.038 412.928 150.262 406.826 153.502C400.724 156.678 394.018 158.266 386.708 158.266C378.953 158.266 372.184 156.901 366.399 154.169C360.679 151.437 355.911 147.69 352.098 142.925C348.347 138.161 345.519 132.698 343.612 126.536C341.769 120.31 340.847 113.736 340.847 106.811V102.809C340.847 95.8852 341.769 89.3422 343.612 83.1803C345.519 76.9549 348.347 71.46 352.098 66.6957C355.911 61.9314 360.679 58.1834 366.399 55.4518C372.184 52.7203 378.953 51.3545 386.708 51.3545C394.78 51.3545 401.836 53.0061 407.874 56.3094C413.913 59.5492 418.648 63.9959 422.081 69.6496C425.577 75.2398 427.484 81.5922 427.801 88.707H411.021C410.703 84.4508 409.495 80.6076 407.398 77.1773C405.364 73.7469 402.567 71.0154 399.007 68.9826C395.511 66.8863 391.411 65.8381 386.708 65.8381C381.305 65.8381 376.76 66.918 373.073 69.0779C369.45 71.1742 366.558 74.0328 364.397 77.6537C362.3 81.2111 360.774 85.1814 359.821 89.5645C358.931 93.8842 358.486 98.2992 358.486 102.809V106.811C358.486 111.322 358.931 115.768 359.821 120.152C360.71 124.535 362.204 128.505 364.302 132.062C366.463 135.62 369.355 138.478 372.978 140.638C376.665 142.735 381.241 143.783 386.708 143.783Z"/>
<path d="M466.798 10V156.361H449.063V10H466.798Z"/>
<path d="M558.233 132.539V53.2602H575.967V156.361H559.091L558.233 132.539ZM561.57 110.814L568.912 110.623C568.912 117.484 568.181 123.836 566.719 129.68C565.321 135.461 563.032 140.48 559.854 144.736C556.676 148.992 552.513 152.327 547.364 154.741C542.215 157.091 535.954 158.266 528.581 158.266C523.56 158.266 518.951 157.536 514.756 156.075C510.624 154.614 507.065 152.359 504.077 149.309C501.09 146.26 498.77 142.29 497.117 137.399C495.528 132.507 494.734 126.631 494.734 119.77V53.2602H512.372V119.961C512.372 124.598 512.881 128.442 513.898 131.491C514.979 134.476 516.409 136.859 518.188 138.637C520.032 140.352 522.066 141.559 524.291 142.258C526.579 142.957 528.931 143.306 531.346 143.306C538.847 143.306 544.79 141.877 549.176 139.018C553.561 136.096 556.708 132.19 558.615 127.298C560.585 122.343 561.57 116.848 561.57 110.814Z"/>
<path d="M620.494 73.0799V196H602.759V53.2602H618.968L620.494 73.0799ZM690 103.953V105.954C690 113.45 689.11 120.406 687.33 126.822C685.551 133.174 682.945 138.701 679.512 143.402C676.143 148.102 671.98 151.755 667.022 154.36C662.064 156.964 656.375 158.266 649.955 158.266C643.408 158.266 637.624 157.186 632.602 155.027C627.581 152.867 623.322 149.722 619.826 145.593C616.33 141.464 613.533 136.509 611.436 130.728C609.402 124.948 608.003 118.436 607.241 111.195V100.523C608.003 92.8996 609.434 86.0707 611.531 80.0359C613.629 74.001 616.394 68.8555 619.826 64.5994C623.322 60.2797 627.549 57.0082 632.507 54.7848C637.465 52.498 643.186 51.3545 649.669 51.3545C656.153 51.3545 661.905 52.625 666.927 55.166C671.948 57.6434 676.175 61.2008 679.607 65.8381C683.04 70.4754 685.614 76.0338 687.33 82.5133C689.11 88.9293 690 96.0758 690 103.953ZM672.266 105.954V103.953C672.266 98.8074 671.726 93.9795 670.645 89.4693C669.564 84.8955 667.88 80.8934 665.592 77.4631C663.367 73.9693 660.507 71.2377 657.011 69.2684C653.515 67.2357 649.351 66.2193 644.52 66.2193C640.071 66.2193 636.194 66.9816 632.888 68.5061C629.647 70.0307 626.882 72.0953 624.593 74.6998C622.305 77.2408 620.43 80.1629 618.968 83.4662C617.57 86.7059 616.521 90.0727 615.822 93.5666V118.246C617.093 122.693 618.873 126.885 621.161 130.824C623.449 134.699 626.5 137.843 630.314 140.257C634.128 142.608 638.927 143.783 644.711 143.783C649.478 143.783 653.578 142.798 657.011 140.829C660.507 138.796 663.367 136.033 665.592 132.539C667.88 129.045 669.564 125.043 670.645 120.533C671.726 115.959 672.266 111.099 672.266 105.954Z"/>
</mask>
<path d="M59.484 91.4703H24.3017L24.111 76.7008H56.0516C61.3274 76.7008 65.9357 75.8115 69.8766 74.0328C73.8175 72.2541 76.8686 69.7131 79.0297 66.4098C81.2544 63.043 82.3668 59.041 82.3668 54.4037C82.3668 49.3217 81.3816 45.1926 79.4111 42.0164C77.5042 38.7766 74.5485 36.4262 70.544 34.9652C66.6031 33.4406 61.5816 32.6783 55.4795 32.6783H28.4016V156.361H10V17.623H55.4795C62.5986 17.623 68.9549 18.3535 74.5485 19.8145C80.1421 21.2121 84.8776 23.4355 88.7549 26.4846C92.6958 29.4703 95.6833 33.2818 97.7173 37.9191C99.7514 42.5564 100.768 48.1148 100.768 54.5943C100.768 60.3115 99.3064 65.4887 96.3825 70.126C93.4586 74.6998 89.3905 78.4477 84.1784 81.3699C79.0297 84.292 72.9912 86.166 66.0628 86.9918L59.484 91.4703ZM58.6259 156.361H17.0555L27.4481 141.401H58.6259C64.4737 141.401 69.4317 140.384 73.4997 138.351C77.6313 136.319 80.7777 133.46 82.9389 129.776C85.1 126.028 86.1806 121.613 86.1806 116.531C86.1806 111.385 85.2589 106.939 83.4156 103.191C81.5723 99.4426 78.6801 96.5523 74.7392 94.5195C70.7983 92.4867 65.7132 91.4703 59.484 91.4703H33.2642L33.4549 76.7008H69.3045L73.2137 82.0369C79.8878 82.6086 85.545 84.5143 90.1851 87.7541C94.8252 90.9303 98.353 94.9959 100.768 99.9508C103.247 104.906 104.487 110.369 104.487 116.34C104.487 124.98 102.58 132.285 98.7661 138.256C95.0159 144.164 89.7084 148.674 82.8435 151.787C75.9787 154.836 67.9062 156.361 58.6259 156.361Z" fill="white"/>
<path d="M189.821 138.733V85.6578C189.821 81.5922 188.994 78.0666 187.342 75.0809C185.752 72.0318 183.337 69.6814 180.095 68.0297C176.854 66.3781 172.849 65.5523 168.082 65.5523C163.632 65.5523 159.723 66.3145 156.354 67.8391C153.049 69.3637 150.443 71.3648 148.536 73.8422C146.693 76.3197 145.771 78.9877 145.771 81.8463H128.132C128.132 78.1619 129.086 74.5092 130.993 70.8883C132.9 67.2674 135.633 63.9959 139.192 61.0738C142.815 58.0881 147.138 55.7377 152.159 54.0225C157.244 52.2439 162.901 51.3545 169.131 51.3545C176.631 51.3545 183.242 52.625 188.962 55.166C194.747 57.707 199.26 61.5502 202.501 66.6957C205.807 71.7777 207.459 78.1619 207.459 85.8484V133.873C207.459 137.303 207.745 140.956 208.317 144.831C208.953 148.706 209.875 152.041 211.082 154.836V156.361H192.681C191.791 154.328 191.092 151.628 190.583 148.261C190.075 144.831 189.821 141.655 189.821 138.733ZM192.872 93.8525L193.062 106.24H175.233C170.211 106.24 165.73 106.653 161.789 107.478C157.848 108.241 154.543 109.416 151.873 111.004C149.204 112.592 147.17 114.593 145.771 117.007C144.373 119.358 143.674 122.121 143.674 125.297C143.674 128.537 144.405 131.491 145.867 134.159C147.328 136.827 149.521 138.955 152.445 140.543C155.433 142.068 159.088 142.83 163.41 142.83C168.813 142.83 173.58 141.686 177.712 139.4C181.843 137.113 185.117 134.318 187.532 131.014C190.011 127.711 191.346 124.503 191.537 121.39L199.069 129.871C198.624 132.539 197.416 135.493 195.446 138.733C193.475 141.972 190.838 145.085 187.532 148.071C184.291 150.993 180.413 153.439 175.9 155.408C171.451 157.314 166.429 158.266 160.836 158.266C153.844 158.266 147.71 156.901 142.434 154.169C137.222 151.437 133.154 147.785 130.23 143.211C127.37 138.574 125.939 133.397 125.939 127.679C125.939 122.153 127.02 117.293 129.181 113.1C131.342 108.844 134.457 105.319 138.525 102.524C142.593 99.665 147.487 97.5051 153.208 96.0441C158.929 94.583 165.317 93.8525 172.372 93.8525H192.872Z" fill="white"/>
<path d="M300.23 136.35V10H317.964V156.361H301.755L300.23 136.35ZM230.819 105.954V103.953C230.819 96.0758 231.772 88.9293 233.679 82.5133C235.65 76.0338 238.415 70.4754 241.974 65.8381C245.597 61.2008 249.888 57.6434 254.846 55.166C259.867 52.625 265.461 51.3545 271.626 51.3545C278.11 51.3545 283.767 52.498 288.598 54.7848C293.492 57.0082 297.624 60.2797 300.993 64.5994C304.425 68.8555 307.127 74.001 309.097 80.0359C311.068 86.0707 312.434 92.8996 313.197 100.523V109.289C312.498 116.848 311.131 123.645 309.097 129.68C307.127 135.715 304.425 140.861 300.993 145.117C297.624 149.373 293.492 152.644 288.598 154.931C283.704 157.155 277.983 158.266 271.436 158.266C265.397 158.266 259.867 156.964 254.846 154.36C249.888 151.755 245.597 148.102 241.974 143.402C238.415 138.701 235.65 133.174 233.679 126.822C231.772 120.406 230.819 113.45 230.819 105.954ZM248.553 103.953V105.954C248.553 111.099 249.062 115.927 250.079 120.437C251.159 124.948 252.812 128.918 255.036 132.348C257.261 135.779 260.09 138.478 263.522 140.448C266.955 142.353 271.054 143.306 275.822 143.306C281.669 143.306 286.469 142.068 290.219 139.59C294.033 137.113 297.084 133.841 299.372 129.776C301.66 125.71 303.44 121.295 304.711 116.531V93.5666C303.948 90.0727 302.836 86.7059 301.374 83.4662C299.976 80.1629 298.132 77.2408 295.844 74.6998C293.619 72.0953 290.854 70.0307 287.549 68.5061C284.307 66.9816 280.462 66.2193 276.012 66.2193C271.182 66.2193 267.018 67.2357 263.522 69.2684C260.09 71.2377 257.261 73.9693 255.036 77.4631C252.812 80.8934 251.159 84.8955 250.079 89.4693C249.062 93.9795 248.553 98.8074 248.553 103.953Z" fill="white"/>
<path d="M386.708 143.783C390.903 143.783 394.78 142.925 398.34 141.21C401.899 139.495 404.823 137.144 407.112 134.159C409.4 131.11 410.703 127.648 411.021 123.773H427.801C427.484 129.871 425.418 135.556 421.604 140.829C417.854 146.038 412.928 150.262 406.826 153.502C400.724 156.678 394.018 158.266 386.708 158.266C378.953 158.266 372.184 156.901 366.399 154.169C360.679 151.437 355.911 147.69 352.098 142.925C348.347 138.161 345.519 132.698 343.612 126.536C341.769 120.31 340.847 113.736 340.847 106.811V102.809C340.847 95.8852 341.769 89.3422 343.612 83.1803C345.519 76.9549 348.347 71.46 352.098 66.6957C355.911 61.9314 360.679 58.1834 366.399 55.4518C372.184 52.7203 378.953 51.3545 386.708 51.3545C394.78 51.3545 401.836 53.0061 407.874 56.3094C413.913 59.5492 418.648 63.9959 422.081 69.6496C425.577 75.2398 427.484 81.5922 427.801 88.707H411.021C410.703 84.4508 409.495 80.6076 407.398 77.1773C405.364 73.7469 402.567 71.0154 399.007 68.9826C395.511 66.8863 391.411 65.8381 386.708 65.8381C381.305 65.8381 376.76 66.918 373.073 69.0779C369.45 71.1742 366.558 74.0328 364.397 77.6537C362.3 81.2111 360.774 85.1814 359.821 89.5645C358.931 93.8842 358.486 98.2992 358.486 102.809V106.811C358.486 111.322 358.931 115.768 359.821 120.152C360.71 124.535 362.204 128.505 364.302 132.062C366.463 135.62 369.355 138.478 372.978 140.638C376.665 142.735 381.241 143.783 386.708 143.783Z" fill="white"/>
<path d="M466.798 10V156.361H449.063V10H466.798Z" fill="white"/>
<path d="M558.233 132.539V53.2602H575.967V156.361H559.091L558.233 132.539ZM561.57 110.814L568.912 110.623C568.912 117.484 568.181 123.836 566.719 129.68C565.321 135.461 563.032 140.48 559.854 144.736C556.676 148.992 552.513 152.327 547.364 154.741C542.215 157.091 535.954 158.266 528.581 158.266C523.56 158.266 518.951 157.536 514.756 156.075C510.624 154.614 507.065 152.359 504.077 149.309C501.09 146.26 498.77 142.29 497.117 137.399C495.528 132.507 494.734 126.631 494.734 119.77V53.2602H512.372V119.961C512.372 124.598 512.881 128.442 513.898 131.491C514.979 134.476 516.409 136.859 518.188 138.637C520.032 140.352 522.066 141.559 524.291 142.258C526.579 142.957 528.931 143.306 531.346 143.306C538.847 143.306 544.79 141.877 549.176 139.018C553.561 136.096 556.708 132.19 558.615 127.298C560.585 122.343 561.57 116.848 561.57 110.814Z" fill="white"/>
<path d="M620.494 73.0799V196H602.759V53.2602H618.968L620.494 73.0799ZM690 103.953V105.954C690 113.45 689.11 120.406 687.33 126.822C685.551 133.174 682.945 138.701 679.512 143.402C676.143 148.102 671.98 151.755 667.022 154.36C662.064 156.964 656.375 158.266 649.955 158.266C643.408 158.266 637.624 157.186 632.602 155.027C627.581 152.867 623.322 149.722 619.826 145.593C616.33 141.464 613.533 136.509 611.436 130.728C609.402 124.948 608.003 118.436 607.241 111.195V100.523C608.003 92.8996 609.434 86.0707 611.531 80.0359C613.629 74.001 616.394 68.8555 619.826 64.5994C623.322 60.2797 627.549 57.0082 632.507 54.7848C637.465 52.498 643.186 51.3545 649.669 51.3545C656.153 51.3545 661.905 52.625 666.927 55.166C671.948 57.6434 676.175 61.2008 679.607 65.8381C683.04 70.4754 685.614 76.0338 687.33 82.5133C689.11 88.9293 690 96.0758 690 103.953ZM672.266 105.954V103.953C672.266 98.8074 671.726 93.9795 670.645 89.4693C669.564 84.8955 667.88 80.8934 665.592 77.4631C663.367 73.9693 660.507 71.2377 657.011 69.2684C653.515 67.2357 649.351 66.2193 644.52 66.2193C640.071 66.2193 636.194 66.9816 632.888 68.5061C629.647 70.0307 626.882 72.0953 624.593 74.6998C622.305 77.2408 620.43 80.1629 618.968 83.4662C617.57 86.7059 616.521 90.0727 615.822 93.5666V118.246C617.093 122.693 618.873 126.885 621.161 130.824C623.449 134.699 626.5 137.843 630.314 140.257C634.128 142.608 638.927 143.783 644.711 143.783C649.478 143.783 653.578 142.798 657.011 140.829C660.507 138.796 663.367 136.033 665.592 132.539C667.88 129.045 669.564 125.043 670.645 120.533C671.726 115.959 672.266 111.099 672.266 105.954Z" fill="white"/>
<path d="M59.484 91.4703H24.3017L24.111 76.7008H56.0516C61.3274 76.7008 65.9357 75.8115 69.8766 74.0328C73.8175 72.2541 76.8686 69.7131 79.0297 66.4098C81.2544 63.043 82.3668 59.041 82.3668 54.4037C82.3668 49.3217 81.3816 45.1926 79.4111 42.0164C77.5042 38.7766 74.5485 36.4262 70.544 34.9652C66.6031 33.4406 61.5816 32.6783 55.4795 32.6783H28.4016V156.361H10V17.623H55.4795C62.5986 17.623 68.9549 18.3535 74.5485 19.8145C80.1421 21.2121 84.8776 23.4355 88.7549 26.4846C92.6958 29.4703 95.6833 33.2818 97.7173 37.9191C99.7514 42.5564 100.768 48.1148 100.768 54.5943C100.768 60.3115 99.3064 65.4887 96.3825 70.126C93.4586 74.6998 89.3905 78.4477 84.1784 81.3699C79.0297 84.292 72.9912 86.166 66.0628 86.9918L59.484 91.4703ZM58.6259 156.361H17.0555L27.4481 141.401H58.6259C64.4737 141.401 69.4317 140.384 73.4997 138.351C77.6313 136.319 80.7777 133.46 82.9389 129.776C85.1 126.028 86.1806 121.613 86.1806 116.531C86.1806 111.385 85.2589 106.939 83.4156 103.191C81.5723 99.4426 78.6801 96.5523 74.7392 94.5195C70.7983 92.4867 65.7132 91.4703 59.484 91.4703H33.2642L33.4549 76.7008H69.3045L73.2137 82.0369C79.8878 82.6086 85.545 84.5143 90.1851 87.7541C94.8252 90.9303 98.353 94.9959 100.768 99.9508C103.247 104.906 104.487 110.369 104.487 116.34C104.487 124.98 102.58 132.285 98.7661 138.256C95.0159 144.164 89.7084 148.674 82.8435 151.787C75.9787 154.836 67.9062 156.361 58.6259 156.361Z" stroke="black" stroke-width="12" mask="url(#path-1-outside-1_3_3)"/>
<path d="M189.821 138.733V85.6578C189.821 81.5922 188.994 78.0666 187.342 75.0809C185.752 72.0318 183.337 69.6814 180.095 68.0297C176.854 66.3781 172.849 65.5523 168.082 65.5523C163.632 65.5523 159.723 66.3145 156.354 67.8391C153.049 69.3637 150.443 71.3648 148.536 73.8422C146.693 76.3197 145.771 78.9877 145.771 81.8463H128.132C128.132 78.1619 129.086 74.5092 130.993 70.8883C132.9 67.2674 135.633 63.9959 139.192 61.0738C142.815 58.0881 147.138 55.7377 152.159 54.0225C157.244 52.2439 162.901 51.3545 169.131 51.3545C176.631 51.3545 183.242 52.625 188.962 55.166C194.747 57.707 199.26 61.5502 202.501 66.6957C205.807 71.7777 207.459 78.1619 207.459 85.8484V133.873C207.459 137.303 207.745 140.956 208.317 144.831C208.953 148.706 209.875 152.041 211.082 154.836V156.361H192.681C191.791 154.328 191.092 151.628 190.583 148.261C190.075 144.831 189.821 141.655 189.821 138.733ZM192.872 93.8525L193.062 106.24H175.233C170.211 106.24 165.73 106.653 161.789 107.478C157.848 108.241 154.543 109.416 151.873 111.004C149.204 112.592 147.17 114.593 145.771 117.007C144.373 119.358 143.674 122.121 143.674 125.297C143.674 128.537 144.405 131.491 145.867 134.159C147.328 136.827 149.521 138.955 152.445 140.543C155.433 142.068 159.088 142.83 163.41 142.83C168.813 142.83 173.58 141.686 177.712 139.4C181.843 137.113 185.117 134.318 187.532 131.014C190.011 127.711 191.346 124.503 191.537 121.39L199.069 129.871C198.624 132.539 197.416 135.493 195.446 138.733C193.475 141.972 190.838 145.085 187.532 148.071C184.291 150.993 180.413 153.439 175.9 155.408C171.451 157.314 166.429 158.266 160.836 158.266C153.844 158.266 147.71 156.901 142.434 154.169C137.222 151.437 133.154 147.785 130.23 143.211C127.37 138.574 125.939 133.397 125.939 127.679C125.939 122.153 127.02 117.293 129.181 113.1C131.342 108.844 134.457 105.319 138.525 102.524C142.593 99.665 147.487 97.5051 153.208 96.0441C158.929 94.583 165.317 93.8525 172.372 93.8525H192.872Z" stroke="black" stroke-width="12" mask="url(#path-1-outside-1_3_3)"/>
<path d="M300.23 136.35V10H317.964V156.361H301.755L300.23 136.35ZM230.819 105.954V103.953C230.819 96.0758 231.772 88.9293 233.679 82.5133C235.65 76.0338 238.415 70.4754 241.974 65.8381C245.597 61.2008 249.888 57.6434 254.846 55.166C259.867 52.625 265.461 51.3545 271.626 51.3545C278.11 51.3545 283.767 52.498 288.598 54.7848C293.492 57.0082 297.624 60.2797 300.993 64.5994C304.425 68.8555 307.127 74.001 309.097 80.0359C311.068 86.0707 312.434 92.8996 313.197 100.523V109.289C312.498 116.848 311.131 123.645 309.097 129.68C307.127 135.715 304.425 140.861 300.993 145.117C297.624 149.373 293.492 152.644 288.598 154.931C283.704 157.155 277.983 158.266 271.436 158.266C265.397 158.266 259.867 156.964 254.846 154.36C249.888 151.755 245.597 148.102 241.974 143.402C238.415 138.701 235.65 133.174 233.679 126.822C231.772 120.406 230.819 113.45 230.819 105.954ZM248.553 103.953V105.954C248.553 111.099 249.062 115.927 250.079 120.437C251.159 124.948 252.812 128.918 255.036 132.348C257.261 135.779 260.09 138.478 263.522 140.448C266.955 142.353 271.054 143.306 275.822 143.306C281.669 143.306 286.469 142.068 290.219 139.59C294.033 137.113 297.084 133.841 299.372 129.776C301.66 125.71 303.44 121.295 304.711 116.531V93.5666C303.948 90.0727 302.836 86.7059 301.374 83.4662C299.976 80.1629 298.132 77.2408 295.844 74.6998C293.619 72.0953 290.854 70.0307 287.549 68.5061C284.307 66.9816 280.462 66.2193 276.012 66.2193C271.182 66.2193 267.018 67.2357 263.522 69.2684C260.09 71.2377 257.261 73.9693 255.036 77.4631C252.812 80.8934 251.159 84.8955 250.079 89.4693C249.062 93.9795 248.553 98.8074 248.553 103.953Z" stroke="black" stroke-width="12" mask="url(#path-1-outside-1_3_3)"/>
<path d="M386.708 143.783C390.903 143.783 394.78 142.925 398.34 141.21C401.899 139.495 404.823 137.144 407.112 134.159C409.4 131.11 410.703 127.648 411.021 123.773H427.801C427.484 129.871 425.418 135.556 421.604 140.829C417.854 146.038 412.928 150.262 406.826 153.502C400.724 156.678 394.018 158.266 386.708 158.266C378.953 158.266 372.184 156.901 366.399 154.169C360.679 151.437 355.911 147.69 352.098 142.925C348.347 138.161 345.519 132.698 343.612 126.536C341.769 120.31 340.847 113.736 340.847 106.811V102.809C340.847 95.8852 341.769 89.3422 343.612 83.1803C345.519 76.9549 348.347 71.46 352.098 66.6957C355.911 61.9314 360.679 58.1834 366.399 55.4518C372.184 52.7203 378.953 51.3545 386.708 51.3545C394.78 51.3545 401.836 53.0061 407.874 56.3094C413.913 59.5492 418.648 63.9959 422.081 69.6496C425.577 75.2398 427.484 81.5922 427.801 88.707H411.021C410.703 84.4508 409.495 80.6076 407.398 77.1773C405.364 73.7469 402.567 71.0154 399.007 68.9826C395.511 66.8863 391.411 65.8381 386.708 65.8381C381.305 65.8381 376.76 66.918 373.073 69.0779C369.45 71.1742 366.558 74.0328 364.397 77.6537C362.3 81.2111 360.774 85.1814 359.821 89.5645C358.931 93.8842 358.486 98.2992 358.486 102.809V106.811C358.486 111.322 358.931 115.768 359.821 120.152C360.71 124.535 362.204 128.505 364.302 132.062C366.463 135.62 369.355 138.478 372.978 140.638C376.665 142.735 381.241 143.783 386.708 143.783Z" stroke="black" stroke-width="12" mask="url(#path-1-outside-1_3_3)"/>
<path d="M466.798 10V156.361H449.063V10H466.798Z" stroke="black" stroke-width="12" mask="url(#path-1-outside-1_3_3)"/>
<path d="M558.233 132.539V53.2602H575.967V156.361H559.091L558.233 132.539ZM561.57 110.814L568.912 110.623C568.912 117.484 568.181 123.836 566.719 129.68C565.321 135.461 563.032 140.48 559.854 144.736C556.676 148.992 552.513 152.327 547.364 154.741C542.215 157.091 535.954 158.266 528.581 158.266C523.56 158.266 518.951 157.536 514.756 156.075C510.624 154.614 507.065 152.359 504.077 149.309C501.09 146.26 498.77 142.29 497.117 137.399C495.528 132.507 494.734 126.631 494.734 119.77V53.2602H512.372V119.961C512.372 124.598 512.881 128.442 513.898 131.491C514.979 134.476 516.409 136.859 518.188 138.637C520.032 140.352 522.066 141.559 524.291 142.258C526.579 142.957 528.931 143.306 531.346 143.306C538.847 143.306 544.79 141.877 549.176 139.018C553.561 136.096 556.708 132.19 558.615 127.298C560.585 122.343 561.57 116.848 561.57 110.814Z" stroke="black" stroke-width="12" mask="url(#path-1-outside-1_3_3)"/>
<path d="M620.494 73.0799V196H602.759V53.2602H618.968L620.494 73.0799ZM690 103.953V105.954C690 113.45 689.11 120.406 687.33 126.822C685.551 133.174 682.945 138.701 679.512 143.402C676.143 148.102 671.98 151.755 667.022 154.36C662.064 156.964 656.375 158.266 649.955 158.266C643.408 158.266 637.624 157.186 632.602 155.027C627.581 152.867 623.322 149.722 619.826 145.593C616.33 141.464 613.533 136.509 611.436 130.728C609.402 124.948 608.003 118.436 607.241 111.195V100.523C608.003 92.8996 609.434 86.0707 611.531 80.0359C613.629 74.001 616.394 68.8555 619.826 64.5994C623.322 60.2797 627.549 57.0082 632.507 54.7848C637.465 52.498 643.186 51.3545 649.669 51.3545C656.153 51.3545 661.905 52.625 666.927 55.166C671.948 57.6434 676.175 61.2008 679.607 65.8381C683.04 70.4754 685.614 76.0338 687.33 82.5133C689.11 88.9293 690 96.0758 690 103.953ZM672.266 105.954V103.953C672.266 98.8074 671.726 93.9795 670.645 89.4693C669.564 84.8955 667.88 80.8934 665.592 77.4631C663.367 73.9693 660.507 71.2377 657.011 69.2684C653.515 67.2357 649.351 66.2193 644.52 66.2193C640.071 66.2193 636.194 66.9816 632.888 68.5061C629.647 70.0307 626.882 72.0953 624.593 74.6998C622.305 77.2408 620.43 80.1629 618.968 83.4662C617.57 86.7059 616.521 90.0727 615.822 93.5666V118.246C617.093 122.693 618.873 126.885 621.161 130.824C623.449 134.699 626.5 137.843 630.314 140.257C634.128 142.608 638.927 143.783 644.711 143.783C649.478 143.783 653.578 142.798 657.011 140.829C660.507 138.796 663.367 136.033 665.592 132.539C667.88 129.045 669.564 125.043 670.645 120.533C671.726 115.959 672.266 111.099 672.266 105.954Z" stroke="black" stroke-width="12" mask="url(#path-1-outside-1_3_3)"/>
</g>
<defs>
<filter id="filter0_d_3_3" x="0" y="0" width="700" height="206" filterUnits="userSpaceOnUse" color-interpolation-filters="sRGB">
<feFlood flood-opacity="0" result="BackgroundImageFix"/>
<feColorMatrix in="SourceAlpha" type="matrix" values="0 0 0 0 0 0 0 0 0 0 0 0 0 0 0 0 0 0 127 0" result="hardAlpha"/>
<feOffset/>
<feGaussianBlur stdDeviation="2"/>
<feComposite in2="hardAlpha" operator="out"/>
<feColorMatrix type="matrix" values="0 0 0 0 1 0 0 0 0 1 0 0 0 0 1 0 0 0 1 0"/>
<feBlend mode="normal" in2="BackgroundImageFix" result="effect1_dropShadow_3_3"/>
<feBlend mode="normal" in="SourceGraphic" in2="effect1_dropShadow_3_3" result="shape"/>
</filter>
</defs>
</svg>
