<svg width="680" height="186" viewBox="0 0 680 186" fill="none" xmlns="http://www.w3.org/2000/svg">
<path d="M49.484 81.4703H14.3017L14.111 66.7008H46.0516C51.3274 66.7008 55.9357 65.8115 59.8766 64.0328C63.8175 62.2541 66.8686 59.7131 69.0297 56.4098C71.2544 53.043 72.3668 49.041 72.3668 44.4037C72.3668 39.3217 71.3816 35.1926 69.4111 32.0164C67.5042 28.7766 64.5485 26.4262 60.544 24.9652C56.6031 23.4406 51.5816 22.6783 45.4795 22.6783H18.4016V146.361H0V7.62295H45.4795C52.5986 7.62295 58.9549 8.35348 64.5485 9.81455C70.1421 11.2121 74.8776 13.4355 78.7549 16.4846C82.6958 19.4703 85.6833 23.2818 87.7173 27.9191C89.7514 32.5564 90.7684 38.1148 90.7684 44.5943C90.7684 50.3115 89.3064 55.4887 86.3825 60.126C83.4586 64.6998 79.3905 68.4477 74.1784 71.3699C69.0297 74.292 62.9912 76.166 56.0628 76.9918L49.484 81.4703ZM48.6259 146.361H7.05552L17.4481 131.401H48.6259C54.4737 131.401 59.4317 130.384 63.4997 128.351C67.6313 126.319 70.7777 123.46 72.9389 119.776C75.1 116.028 76.1806 111.613 76.1806 106.531C76.1806 101.385 75.2589 96.9385 73.4156 93.1906C71.5723 89.4426 68.6801 86.5523 64.7392 84.5195C60.7983 82.4867 55.7132 81.4703 49.484 81.4703H23.2642L23.4549 66.7008H59.3045L63.2137 72.0369C69.8878 72.6086 75.545 74.5143 80.1851 77.7541C84.8252 80.9303 88.353 84.9959 90.7684 89.9508C93.2473 94.9057 94.4868 100.369 94.4868 106.34C94.4868 114.98 92.5799 122.285 88.7661 128.256C85.0159 134.164 79.7084 138.674 72.8435 141.787C65.9787 144.836 57.9062 146.361 48.6259 146.361Z" fill="white"/>
<path d="M179.821 128.733V75.6578C179.821 71.5922 178.994 68.0666 177.342 65.0809C175.752 62.0318 173.337 59.6814 170.095 58.0297C166.854 56.3781 162.849 55.5523 158.082 55.5523C153.632 55.5523 149.723 56.3145 146.354 57.8391C143.049 59.3637 140.443 61.3648 138.536 63.8422C136.693 66.3197 135.771 68.9877 135.771 71.8463H118.132C118.132 68.1619 119.086 64.5092 120.993 60.8883C122.9 57.2674 125.633 53.9959 129.192 51.0738C132.815 48.0881 137.138 45.7377 142.159 44.0225C147.244 42.2439 152.901 41.3545 159.131 41.3545C166.631 41.3545 173.242 42.625 178.962 45.166C184.747 47.707 189.26 51.5502 192.501 56.6957C195.807 61.7777 197.459 68.1619 197.459 75.8484V123.873C197.459 127.303 197.745 130.956 198.317 134.831C198.953 138.706 199.875 142.041 201.082 144.836V146.361H182.681C181.791 144.328 181.092 141.628 180.583 138.261C180.075 134.831 179.821 131.655 179.821 128.733ZM182.872 83.8525L183.062 96.2398H165.233C160.211 96.2398 155.73 96.6527 151.789 97.4785C147.848 98.2408 144.543 99.416 141.873 101.004C139.204 102.592 137.17 104.593 135.771 107.007C134.373 109.358 133.674 112.121 133.674 115.297C133.674 118.537 134.405 121.491 135.867 124.159C137.328 126.827 139.521 128.955 142.445 130.543C145.433 132.068 149.088 132.83 153.41 132.83C158.813 132.83 163.58 131.686 167.712 129.4C171.843 127.113 175.117 124.318 177.532 121.014C180.011 117.711 181.346 114.503 181.537 111.39L189.069 119.871C188.624 122.539 187.416 125.493 185.446 128.733C183.475 131.972 180.838 135.085 177.532 138.071C174.291 140.993 170.413 143.439 165.9 145.408C161.451 147.314 156.429 148.266 150.836 148.266C143.844 148.266 137.71 146.901 132.434 144.169C127.222 141.437 123.154 137.785 120.23 133.211C117.37 128.574 115.939 123.397 115.939 117.679C115.939 112.153 117.02 107.293 119.181 103.1C121.342 98.8443 124.457 95.3186 128.525 92.5236C132.593 89.665 137.487 87.5051 143.208 86.0441C148.929 84.583 155.317 83.8525 162.372 83.8525H182.872Z" fill="white"/>
<path d="M290.23 126.35V0H307.964V146.361H291.755L290.23 126.35ZM220.819 95.9539V93.9529C220.819 86.0758 221.772 78.9293 223.679 72.5133C225.65 66.0338 228.415 60.4754 231.974 55.8381C235.597 51.2008 239.888 47.6434 244.846 45.166C249.867 42.625 255.461 41.3545 261.626 41.3545C268.11 41.3545 273.767 42.498 278.598 44.7848C283.492 47.0082 287.624 50.2797 290.993 54.5994C294.425 58.8555 297.127 64.001 299.097 70.0359C301.068 76.0707 302.434 82.8996 303.197 90.5225V99.2889C302.498 106.848 301.131 113.645 299.097 119.68C297.127 125.715 294.425 130.861 290.993 135.117C287.624 139.373 283.492 142.644 278.598 144.931C273.704 147.155 267.983 148.266 261.436 148.266C255.397 148.266 249.867 146.964 244.846 144.36C239.888 141.755 235.597 138.102 231.974 133.402C228.415 128.701 225.65 123.174 223.679 116.822C221.772 110.406 220.819 103.45 220.819 95.9539ZM238.553 93.9529V95.9539C238.553 101.099 239.062 105.927 240.079 110.437C241.159 114.948 242.812 118.918 245.036 122.348C247.261 125.779 250.09 128.478 253.522 130.448C256.955 132.353 261.054 133.306 265.822 133.306C271.669 133.306 276.469 132.068 280.219 129.59C284.033 127.113 287.084 123.841 289.372 119.776C291.66 115.71 293.44 111.295 294.711 106.531V83.5666C293.948 80.0727 292.836 76.7059 291.374 73.4662C289.976 70.1629 288.132 67.2408 285.844 64.6998C283.619 62.0953 280.854 60.0307 277.549 58.5061C274.307 56.9816 270.462 56.2193 266.012 56.2193C261.182 56.2193 257.018 57.2357 253.522 59.2684C250.09 61.2377 247.261 63.9693 245.036 67.4631C242.812 70.8934 241.159 74.8955 240.079 79.4693C239.062 83.9795 238.553 88.8074 238.553 93.9529Z" fill="white"/>
<path d="M376.708 133.783C380.903 133.783 384.78 132.925 388.34 131.21C391.899 129.495 394.823 127.144 397.112 124.159C399.4 121.11 400.703 117.648 401.021 113.773H417.801C417.484 119.871 415.418 125.556 411.604 130.829C407.854 136.038 402.928 140.262 396.826 143.502C390.724 146.678 384.018 148.266 376.708 148.266C368.953 148.266 362.184 146.901 356.399 144.169C350.679 141.437 345.911 137.69 342.098 132.925C338.347 128.161 335.519 122.698 333.612 116.536C331.769 110.31 330.847 103.736 330.847 96.8115V92.8094C330.847 85.8852 331.769 79.3422 333.612 73.1803C335.519 66.9549 338.347 61.46 342.098 56.6957C345.911 51.9314 350.679 48.1834 356.399 45.4518C362.184 42.7203 368.953 41.3545 376.708 41.3545C384.78 41.3545 391.836 43.0061 397.874 46.3094C403.913 49.5492 408.648 53.9959 412.081 59.6496C415.577 65.2398 417.484 71.5922 417.801 78.707H401.021C400.703 74.4508 399.495 70.6076 397.398 67.1773C395.364 63.7469 392.567 61.0154 389.007 58.9826C385.511 56.8863 381.411 55.8381 376.708 55.8381C371.305 55.8381 366.76 56.918 363.073 59.0779C359.45 61.1742 356.558 64.0328 354.397 67.6537C352.3 71.2111 350.774 75.1814 349.821 79.5645C348.931 83.8842 348.486 88.2992 348.486 92.8094V96.8115C348.486 101.322 348.931 105.768 349.821 110.152C350.71 114.535 352.204 118.505 354.302 122.062C356.463 125.62 359.355 128.478 362.978 130.638C366.665 132.735 371.241 133.783 376.708 133.783Z" fill="white"/>
<path d="M456.798 0V146.361H439.063V0H456.798Z" fill="white"/>
<path d="M548.233 122.539V43.2602H565.967V146.361H549.091L548.233 122.539ZM551.57 100.814L558.912 100.623C558.912 107.484 558.181 113.836 556.719 119.68C555.321 125.461 553.032 130.48 549.854 134.736C546.676 138.992 542.513 142.327 537.364 144.741C532.215 147.091 525.954 148.266 518.581 148.266C513.56 148.266 508.951 147.536 504.756 146.075C500.624 144.614 497.065 142.359 494.077 139.309C491.09 136.26 488.77 132.29 487.117 127.399C485.528 122.507 484.734 116.631 484.734 109.77V43.2602H502.372V109.961C502.372 114.598 502.881 118.442 503.898 121.491C504.979 124.476 506.409 126.859 508.188 128.637C510.032 130.352 512.066 131.559 514.291 132.258C516.579 132.957 518.931 133.306 521.346 133.306C528.847 133.306 534.79 131.877 539.176 129.018C543.561 126.096 546.708 122.19 548.615 117.298C550.585 112.343 551.57 106.848 551.57 100.814Z" fill="white"/>
<path d="M610.494 63.0799V186H592.759V43.2602H608.968L610.494 63.0799ZM680 93.9529V95.9539C680 103.45 679.11 110.406 677.33 116.822C675.551 123.174 672.945 128.701 669.512 133.402C666.143 138.102 661.98 141.755 657.022 144.36C652.064 146.964 646.375 148.266 639.955 148.266C633.408 148.266 627.624 147.186 622.602 145.027C617.581 142.867 613.322 139.722 609.826 135.593C606.33 131.464 603.533 126.509 601.436 120.728C599.402 114.948 598.003 108.436 597.241 101.195V90.5225C598.003 82.8996 599.434 76.0707 601.531 70.0359C603.629 64.001 606.394 58.8555 609.826 54.5994C613.322 50.2797 617.549 47.0082 622.507 44.7848C627.465 42.498 633.186 41.3545 639.669 41.3545C646.153 41.3545 651.905 42.625 656.927 45.166C661.948 47.6434 666.175 51.2008 669.607 55.8381C673.04 60.4754 675.614 66.0338 677.33 72.5133C679.11 78.9293 680 86.0758 680 93.9529ZM662.266 95.9539V93.9529C662.266 88.8074 661.726 83.9795 660.645 79.4693C659.564 74.8955 657.88 70.8934 655.592 67.4631C653.367 63.9693 650.507 61.2377 647.011 59.2684C643.515 57.2357 639.351 56.2193 634.52 56.2193C630.071 56.2193 626.194 56.9816 622.888 58.5061C619.647 60.0307 616.882 62.0953 614.593 64.6998C612.305 67.2408 610.43 70.1629 608.968 73.4662C607.57 76.7059 606.521 80.0727 605.822 83.5666V108.246C607.093 112.693 608.873 116.885 611.161 120.824C613.449 124.699 616.5 127.843 620.314 130.257C624.128 132.608 628.927 133.783 634.711 133.783C639.478 133.783 643.578 132.798 647.011 130.829C650.507 128.796 653.367 126.033 655.592 122.539C657.88 119.045 659.564 115.043 660.645 110.533C661.726 105.959 662.266 101.099 662.266 95.9539Z" fill="white"/>
<path d="M49.484 81.4703H14.3017L14.111 66.7008H46.0516C51.3274 66.7008 55.9357 65.8115 59.8766 64.0328C63.8175 62.2541 66.8686 59.7131 69.0297 56.4098C71.2544 53.043 72.3668 49.041 72.3668 44.4037C72.3668 39.3217 71.3816 35.1926 69.4111 32.0164C67.5042 28.7766 64.5485 26.4262 60.544 24.9652C56.6031 23.4406 51.5816 22.6783 45.4795 22.6783H18.4016V146.361H0V7.62295H45.4795C52.5986 7.62295 58.9549 8.35348 64.5485 9.81455C70.1421 11.2121 74.8776 13.4355 78.7549 16.4846C82.6958 19.4703 85.6833 23.2818 87.7173 27.9191C89.7514 32.5564 90.7684 38.1148 90.7684 44.5943C90.7684 50.3115 89.3064 55.4887 86.3825 60.126C83.4586 64.6998 79.3905 68.4477 74.1784 71.3699C69.0297 74.292 62.9912 76.166 56.0628 76.9918L49.484 81.4703ZM48.6259 146.361H7.05552L17.4481 131.401H48.6259C54.4737 131.401 59.4317 130.384 63.4997 128.351C67.6313 126.319 70.7777 123.46 72.9389 119.776C75.1 116.028 76.1806 111.613 76.1806 106.531C76.1806 101.385 75.2589 96.9385 73.4156 93.1906C71.5723 89.4426 68.6801 86.5523 64.7392 84.5195C60.7983 82.4867 55.7132 81.4703 49.484 81.4703H23.2642L23.4549 66.7008H59.3045L63.2137 72.0369C69.8878 72.6086 75.545 74.5143 80.1851 77.7541C84.8252 80.9303 88.353 84.9959 90.7684 89.9508C93.2473 94.9057 94.4868 100.369 94.4868 106.34C94.4868 114.98 92.5799 122.285 88.7661 128.256C85.0159 134.164 79.7084 138.674 72.8435 141.787C65.9787 144.836 57.9062 146.361 48.6259 146.361Z" stroke="white"/>
<path d="M179.821 128.733V75.6578C179.821 71.5922 178.994 68.0666 177.342 65.0809C175.752 62.0318 173.337 59.6814 170.095 58.0297C166.854 56.3781 162.849 55.5523 158.082 55.5523C153.632 55.5523 149.723 56.3145 146.354 57.8391C143.049 59.3637 140.443 61.3648 138.536 63.8422C136.693 66.3197 135.771 68.9877 135.771 71.8463H118.132C118.132 68.1619 119.086 64.5092 120.993 60.8883C122.9 57.2674 125.633 53.9959 129.192 51.0738C132.815 48.0881 137.138 45.7377 142.159 44.0225C147.244 42.2439 152.901 41.3545 159.131 41.3545C166.631 41.3545 173.242 42.625 178.962 45.166C184.747 47.707 189.26 51.5502 192.501 56.6957C195.807 61.7777 197.459 68.1619 197.459 75.8484V123.873C197.459 127.303 197.745 130.956 198.317 134.831C198.953 138.706 199.875 142.041 201.082 144.836V146.361H182.681C181.791 144.328 181.092 141.628 180.583 138.261C180.075 134.831 179.821 131.655 179.821 128.733ZM182.872 83.8525L183.062 96.2398H165.233C160.211 96.2398 155.73 96.6527 151.789 97.4785C147.848 98.2408 144.543 99.416 141.873 101.004C139.204 102.592 137.17 104.593 135.771 107.007C134.373 109.358 133.674 112.121 133.674 115.297C133.674 118.537 134.405 121.491 135.867 124.159C137.328 126.827 139.521 128.955 142.445 130.543C145.433 132.068 149.088 132.83 153.41 132.83C158.813 132.83 163.58 131.686 167.712 129.4C171.843 127.113 175.117 124.318 177.532 121.014C180.011 117.711 181.346 114.503 181.537 111.39L189.069 119.871C188.624 122.539 187.416 125.493 185.446 128.733C183.475 131.972 180.838 135.085 177.532 138.071C174.291 140.993 170.413 143.439 165.9 145.408C161.451 147.314 156.429 148.266 150.836 148.266C143.844 148.266 137.71 146.901 132.434 144.169C127.222 141.437 123.154 137.785 120.23 133.211C117.37 128.574 115.939 123.397 115.939 117.679C115.939 112.153 117.02 107.293 119.181 103.1C121.342 98.8443 124.457 95.3186 128.525 92.5236C132.593 89.665 137.487 87.5051 143.208 86.0441C148.929 84.583 155.317 83.8525 162.372 83.8525H182.872Z" stroke="white"/>
<path d="M290.23 126.35V0H307.964V146.361H291.755L290.23 126.35ZM220.819 95.9539V93.9529C220.819 86.0758 221.772 78.9293 223.679 72.5133C225.65 66.0338 228.415 60.4754 231.974 55.8381C235.597 51.2008 239.888 47.6434 244.846 45.166C249.867 42.625 255.461 41.3545 261.626 41.3545C268.11 41.3545 273.767 42.498 278.598 44.7848C283.492 47.0082 287.624 50.2797 290.993 54.5994C294.425 58.8555 297.127 64.001 299.097 70.0359C301.068 76.0707 302.434 82.8996 303.197 90.5225V99.2889C302.498 106.848 301.131 113.645 299.097 119.68C297.127 125.715 294.425 130.861 290.993 135.117C287.624 139.373 283.492 142.644 278.598 144.931C273.704 147.155 267.983 148.266 261.436 148.266C255.397 148.266 249.867 146.964 244.846 144.36C239.888 141.755 235.597 138.102 231.974 133.402C228.415 128.701 225.65 123.174 223.679 116.822C221.772 110.406 220.819 103.45 220.819 95.9539ZM238.553 93.9529V95.9539C238.553 101.099 239.062 105.927 240.079 110.437C241.159 114.948 242.812 118.918 245.036 122.348C247.261 125.779 250.09 128.478 253.522 130.448C256.955 132.353 261.054 133.306 265.822 133.306C271.669 133.306 276.469 132.068 280.219 129.59C284.033 127.113 287.084 123.841 289.372 119.776C291.66 115.71 293.44 111.295 294.711 106.531V83.5666C293.948 80.0727 292.836 76.7059 291.374 73.4662C289.976 70.1629 288.132 67.2408 285.844 64.6998C283.619 62.0953 280.854 60.0307 277.549 58.5061C274.307 56.9816 270.462 56.2193 266.012 56.2193C261.182 56.2193 257.018 57.2357 253.522 59.2684C250.09 61.2377 247.261 63.9693 245.036 67.4631C242.812 70.8934 241.159 74.8955 240.079 79.4693C239.062 83.9795 238.553 88.8074 238.553 93.9529Z" stroke="white"/>
<path d="M376.708 133.783C380.903 133.783 384.78 132.925 388.34 131.21C391.899 129.495 394.823 127.144 397.112 124.159C399.4 121.11 400.703 117.648 401.021 113.773H417.801C417.484 119.871 415.418 125.556 411.604 130.829C407.854 136.038 402.928 140.262 396.826 143.502C390.724 146.678 384.018 148.266 376.708 148.266C368.953 148.266 362.184 146.901 356.399 144.169C350.679 141.437 345.911 137.69 342.098 132.925C338.347 128.161 335.519 122.698 333.612 116.536C331.769 110.31 330.847 103.736 330.847 96.8115V92.8094C330.847 85.8852 331.769 79.3422 333.612 73.1803C335.519 66.9549 338.347 61.46 342.098 56.6957C345.911 51.9314 350.679 48.1834 356.399 45.4518C362.184 42.7203 368.953 41.3545 376.708 41.3545C384.78 41.3545 391.836 43.0061 397.874 46.3094C403.913 49.5492 408.648 53.9959 412.081 59.6496C415.577 65.2398 417.484 71.5922 417.801 78.707H401.021C400.703 74.4508 399.495 70.6076 397.398 67.1773C395.364 63.7469 392.567 61.0154 389.007 58.9826C385.511 56.8863 381.411 55.8381 376.708 55.8381C371.305 55.8381 366.76 56.918 363.073 59.0779C359.45 61.1742 356.558 64.0328 354.397 67.6537C352.3 71.2111 350.774 75.1814 349.821 79.5645C348.931 83.8842 348.486 88.2992 348.486 92.8094V96.8115C348.486 101.322 348.931 105.768 349.821 110.152C350.71 114.535 352.204 118.505 354.302 122.062C356.463 125.62 359.355 128.478 362.978 130.638C366.665 132.735 371.241 133.783 376.708 133.783Z" stroke="white"/>
<path d="M456.798 0V146.361H439.063V0H456.798Z" stroke="white"/>
<path d="M548.233 122.539V43.2602H565.967V146.361H549.091L548.233 122.539ZM551.57 100.814L558.912 100.623C558.912 107.484 558.181 113.836 556.719 119.68C555.321 125.461 553.032 130.48 549.854 134.736C546.676 138.992 542.513 142.327 537.364 144.741C532.215 147.091 525.954 148.266 518.581 148.266C513.56 148.266 508.951 147.536 504.756 146.075C500.624 144.614 497.065 142.359 494.077 139.309C491.09 136.26 488.77 132.29 487.117 127.399C485.528 122.507 484.734 116.631 484.734 109.77V43.2602H502.372V109.961C502.372 114.598 502.881 118.442 503.898 121.491C504.979 124.476 506.409 126.859 508.188 128.637C510.032 130.352 512.066 131.559 514.291 132.258C516.579 132.957 518.931 133.306 521.346 133.306C528.847 133.306 534.79 131.877 539.176 129.018C543.561 126.096 546.708 122.19 548.615 117.298C550.585 112.343 551.57 106.848 551.57 100.814Z" stroke="white"/>
<path d="M610.494 63.0799V186H592.759V43.2602H608.968L610.494 63.0799ZM680 93.9529V95.9539C680 103.45 679.11 110.406 677.33 116.822C675.551 123.174 672.945 128.701 669.512 133.402C666.143 138.102 661.98 141.755 657.022 144.36C652.064 146.964 646.375 148.266 639.955 148.266C633.408 148.266 627.624 147.186 622.602 145.027C617.581 142.867 613.322 139.722 609.826 135.593C606.33 131.464 603.533 126.509 601.436 120.728C599.402 114.948 598.003 108.436 597.241 101.195V90.5225C598.003 82.8996 599.434 76.0707 601.531 70.0359C603.629 64.001 606.394 58.8555 609.826 54.5994C613.322 50.2797 617.549 47.0082 622.507 44.7848C627.465 42.498 633.186 41.3545 639.669 41.3545C646.153 41.3545 651.905 42.625 656.927 45.166C661.948 47.6434 666.175 51.2008 669.607 55.8381C673.04 60.4754 675.614 66.0338 677.33 72.5133C679.11 78.9293 680 86.0758 680 93.9529ZM662.266 95.9539V93.9529C662.266 88.8074 661.726 83.9795 660.645 79.4693C659.564 74.8955 657.88 70.8934 655.592 67.4631C653.367 63.9693 650.507 61.2377 647.011 59.2684C643.515 57.2357 639.351 56.2193 634.52 56.2193C630.071 56.2193 626.194 56.9816 622.888 58.5061C619.647 60.0307 616.882 62.0953 614.593 64.6998C612.305 67.2408 610.43 70.1629 608.968 73.4662C607.57 76.7059 606.521 80.0727 605.822 83.5666V108.246C607.093 112.693 608.873 116.885 611.161 120.824C613.449 124.699 616.5 127.843 620.314 130.257C624.128 132.608 628.927 133.783 634.711 133.783C639.478 133.783 643.578 132.798 647.011 130.829C650.507 128.796 653.367 126.033 655.592 122.539C657.88 119.045 659.564 115.043 660.645 110.533C661.726 105.959 662.266 101.099 662.266 95.9539Z" stroke="white"/>
</svg>
