<svg width="692" height="198" viewBox="0 0 692 198" fill="none" xmlns="http://www.w3.org/2000/svg">
<g filter="url(#filter0_i_3_3)">
<mask id="path-1-outside-1_3_3" maskUnits="userSpaceOnUse" x="0" y="0" width="692" height="198" fill="black">
<rect fill="white" width="692" height="198"/>
<path d="M55.484 87.4703H20.3017L20.111 72.7008H52.0516C57.3274 72.7008 61.9357 71.8115 65.8766 70.0328C69.8175 68.2541 72.8686 65.7131 75.0297 62.4098C77.2544 59.043 78.3668 55.041 78.3668 50.4037C78.3668 45.3217 77.3816 41.1926 75.4111 38.0164C73.5042 34.7766 70.5485 32.4262 66.544 30.9652C62.6031 29.4406 57.5816 28.6783 51.4795 28.6783H24.4016V152.361H6V13.623H51.4795C58.5986 13.623 64.9549 14.3535 70.5485 15.8145C76.1421 17.2121 80.8776 19.4355 84.7549 22.4846C88.6958 25.4703 91.6833 29.2818 93.7173 33.9191C95.7514 38.5564 96.7684 44.1148 96.7684 50.5943C96.7684 56.3115 95.3064 61.4887 92.3825 66.126C89.4586 70.6998 85.3905 74.4477 80.1784 77.3699C75.0297 80.292 68.9912 82.166 62.0628 82.9918L55.484 87.4703ZM54.6259 152.361H13.0555L23.4481 137.401H54.6259C60.4737 137.401 65.4317 136.384 69.4997 134.351C73.6313 132.319 76.7777 129.46 78.9389 125.776C81.1 122.028 82.1806 117.613 82.1806 112.531C82.1806 107.385 81.2589 102.939 79.4156 99.1906C77.5723 95.4426 74.6801 92.5523 70.7392 90.5195C66.7983 88.4867 61.7132 87.4703 55.484 87.4703H29.2642L29.4549 72.7008H65.3045L69.2137 78.0369C75.8878 78.6086 81.545 80.5143 86.1851 83.7541C90.8252 86.9303 94.353 90.9959 96.7684 95.9508C99.2473 100.906 100.487 106.369 100.487 112.34C100.487 120.98 98.5799 128.285 94.7661 134.256C91.0159 140.164 85.7084 144.674 78.8435 147.787C71.9787 150.836 63.9062 152.361 54.6259 152.361Z"/>
<path d="M185.821 134.733V81.6578C185.821 77.5922 184.994 74.0666 183.342 71.0809C181.752 68.0318 179.337 65.6814 176.095 64.0297C172.854 62.3781 168.849 61.5523 164.082 61.5523C159.632 61.5523 155.723 62.3145 152.354 63.8391C149.049 65.3637 146.443 67.3648 144.536 69.8422C142.693 72.3197 141.771 74.9877 141.771 77.8463H124.132C124.132 74.1619 125.086 70.5092 126.993 66.8883C128.9 63.2674 131.633 59.9959 135.192 57.0738C138.815 54.0881 143.138 51.7377 148.159 50.0225C153.244 48.2439 158.901 47.3545 165.131 47.3545C172.631 47.3545 179.242 48.625 184.962 51.166C190.747 53.707 195.26 57.5502 198.501 62.6957C201.807 67.7777 203.459 74.1619 203.459 81.8484V129.873C203.459 133.303 203.745 136.956 204.317 140.831C204.953 144.706 205.875 148.041 207.082 150.836V152.361H188.681C187.791 150.328 187.092 147.628 186.583 144.261C186.075 140.831 185.821 137.655 185.821 134.733ZM188.872 89.8525L189.062 102.24H171.233C166.211 102.24 161.73 102.653 157.789 103.478C153.848 104.241 150.543 105.416 147.873 107.004C145.204 108.592 143.17 110.593 141.771 113.007C140.373 115.358 139.674 118.121 139.674 121.297C139.674 124.537 140.405 127.491 141.867 130.159C143.328 132.827 145.521 134.955 148.445 136.543C151.433 138.068 155.088 138.83 159.41 138.83C164.813 138.83 169.58 137.686 173.712 135.4C177.843 133.113 181.117 130.318 183.532 127.014C186.011 123.711 187.346 120.503 187.537 117.39L195.069 125.871C194.624 128.539 193.416 131.493 191.446 134.733C189.475 137.972 186.838 141.085 183.532 144.071C180.291 146.993 176.413 149.439 171.9 151.408C167.451 153.314 162.429 154.266 156.836 154.266C149.844 154.266 143.71 152.901 138.434 150.169C133.222 147.437 129.154 143.785 126.23 139.211C123.37 134.574 121.939 129.397 121.939 123.679C121.939 118.153 123.02 113.293 125.181 109.1C127.342 104.844 130.457 101.319 134.525 98.5236C138.593 95.665 143.487 93.5051 149.208 92.0441C154.929 90.583 161.317 89.8525 168.372 89.8525H188.872Z"/>
<path d="M296.23 132.35V6H313.964V152.361H297.755L296.23 132.35ZM226.819 101.954V99.9529C226.819 92.0758 227.772 84.9293 229.679 78.5133C231.65 72.0338 234.415 66.4754 237.974 61.8381C241.597 57.2008 245.888 53.6434 250.846 51.166C255.867 48.625 261.461 47.3545 267.626 47.3545C274.11 47.3545 279.767 48.498 284.598 50.7848C289.492 53.0082 293.624 56.2797 296.993 60.5994C300.425 64.8555 303.127 70.001 305.097 76.0359C307.068 82.0707 308.434 88.8996 309.197 96.5225V105.289C308.498 112.848 307.131 119.645 305.097 125.68C303.127 131.715 300.425 136.861 296.993 141.117C293.624 145.373 289.492 148.644 284.598 150.931C279.704 153.155 273.983 154.266 267.436 154.266C261.397 154.266 255.867 152.964 250.846 150.36C245.888 147.755 241.597 144.102 237.974 139.402C234.415 134.701 231.65 129.174 229.679 122.822C227.772 116.406 226.819 109.45 226.819 101.954ZM244.553 99.9529V101.954C244.553 107.099 245.062 111.927 246.079 116.437C247.159 120.948 248.812 124.918 251.036 128.348C253.261 131.779 256.09 134.478 259.522 136.448C262.955 138.353 267.054 139.306 271.822 139.306C277.669 139.306 282.469 138.068 286.219 135.59C290.033 133.113 293.084 129.841 295.372 125.776C297.66 121.71 299.44 117.295 300.711 112.531V89.5666C299.948 86.0727 298.836 82.7059 297.374 79.4662C295.976 76.1629 294.132 73.2408 291.844 70.6998C289.619 68.0953 286.854 66.0307 283.549 64.5061C280.307 62.9816 276.462 62.2193 272.012 62.2193C267.182 62.2193 263.018 63.2357 259.522 65.2684C256.09 67.2377 253.261 69.9693 251.036 73.4631C248.812 76.8934 247.159 80.8955 246.079 85.4693C245.062 89.9795 244.553 94.8074 244.553 99.9529Z"/>
<path d="M382.708 139.783C386.903 139.783 390.78 138.925 394.34 137.21C397.899 135.495 400.823 133.144 403.112 130.159C405.4 127.11 406.703 123.648 407.021 119.773H423.801C423.484 125.871 421.418 131.556 417.604 136.829C413.854 142.038 408.928 146.262 402.826 149.502C396.724 152.678 390.018 154.266 382.708 154.266C374.953 154.266 368.184 152.901 362.399 150.169C356.679 147.437 351.911 143.69 348.098 138.925C344.347 134.161 341.519 128.698 339.612 122.536C337.769 116.31 336.847 109.736 336.847 102.811V98.8094C336.847 91.8852 337.769 85.3422 339.612 79.1803C341.519 72.9549 344.347 67.46 348.098 62.6957C351.911 57.9314 356.679 54.1834 362.399 51.4518C368.184 48.7203 374.953 47.3545 382.708 47.3545C390.78 47.3545 397.836 49.0061 403.874 52.3094C409.913 55.5492 414.648 59.9959 418.081 65.6496C421.577 71.2398 423.484 77.5922 423.801 84.707H407.021C406.703 80.4508 405.495 76.6076 403.398 73.1773C401.364 69.7469 398.567 67.0154 395.007 64.9826C391.511 62.8863 387.411 61.8381 382.708 61.8381C377.305 61.8381 372.76 62.918 369.073 65.0779C365.45 67.1742 362.558 70.0328 360.397 73.6537C358.3 77.2111 356.774 81.1814 355.821 85.5645C354.931 89.8842 354.486 94.2992 354.486 98.8094V102.811C354.486 107.322 354.931 111.768 355.821 116.152C356.71 120.535 358.204 124.505 360.302 128.062C362.463 131.62 365.355 134.478 368.978 136.638C372.665 138.735 377.241 139.783 382.708 139.783Z"/>
<path d="M462.798 6V152.361H445.063V6H462.798Z"/>
<path d="M554.233 128.539V49.2602H571.967V152.361H555.091L554.233 128.539ZM557.57 106.814L564.912 106.623C564.912 113.484 564.181 119.836 562.719 125.68C561.321 131.461 559.032 136.48 555.854 140.736C552.676 144.992 548.513 148.327 543.364 150.741C538.215 153.091 531.954 154.266 524.581 154.266C519.56 154.266 514.951 153.536 510.756 152.075C506.624 150.614 503.065 148.359 500.077 145.309C497.09 142.26 494.77 138.29 493.117 133.399C491.528 128.507 490.734 122.631 490.734 115.77V49.2602H508.372V115.961C508.372 120.598 508.881 124.442 509.898 127.491C510.979 130.476 512.409 132.859 514.188 134.637C516.032 136.352 518.066 137.559 520.291 138.258C522.579 138.957 524.931 139.306 527.346 139.306C534.847 139.306 540.79 137.877 545.176 135.018C549.561 132.096 552.708 128.19 554.615 123.298C556.585 118.343 557.57 112.848 557.57 106.814Z"/>
<path d="M616.494 69.0799V192H598.759V49.2602H614.968L616.494 69.0799ZM686 99.9529V101.954C686 109.45 685.11 116.406 683.33 122.822C681.551 129.174 678.945 134.701 675.512 139.402C672.143 144.102 667.98 147.755 663.022 150.36C658.064 152.964 652.375 154.266 645.955 154.266C639.408 154.266 633.624 153.186 628.602 151.027C623.581 148.867 619.322 145.722 615.826 141.593C612.33 137.464 609.533 132.509 607.436 126.728C605.402 120.948 604.003 114.436 603.241 107.195V96.5225C604.003 88.8996 605.434 82.0707 607.531 76.0359C609.629 70.001 612.394 64.8555 615.826 60.5994C619.322 56.2797 623.549 53.0082 628.507 50.7848C633.465 48.498 639.186 47.3545 645.669 47.3545C652.153 47.3545 657.905 48.625 662.927 51.166C667.948 53.6434 672.175 57.2008 675.607 61.8381C679.04 66.4754 681.614 72.0338 683.33 78.5133C685.11 84.9293 686 92.0758 686 99.9529ZM668.266 101.954V99.9529C668.266 94.8074 667.726 89.9795 666.645 85.4693C665.564 80.8955 663.88 76.8934 661.592 73.4631C659.367 69.9693 656.507 67.2377 653.011 65.2684C649.515 63.2357 645.351 62.2193 640.52 62.2193C636.071 62.2193 632.194 62.9816 628.888 64.5061C625.647 66.0307 622.882 68.0953 620.593 70.6998C618.305 73.2408 616.43 76.1629 614.968 79.4662C613.57 82.7059 612.521 86.0727 611.822 89.5666V114.246C613.093 118.693 614.873 122.885 617.161 126.824C619.449 130.699 622.5 133.843 626.314 136.257C630.128 138.608 634.927 139.783 640.711 139.783C645.478 139.783 649.578 138.798 653.011 136.829C656.507 134.796 659.367 132.033 661.592 128.539C663.88 125.045 665.564 121.043 666.645 116.533C667.726 111.959 668.266 107.099 668.266 101.954Z"/>
</mask>
<path d="M55.484 87.4703H20.3017L20.111 72.7008H52.0516C57.3274 72.7008 61.9357 71.8115 65.8766 70.0328C69.8175 68.2541 72.8686 65.7131 75.0297 62.4098C77.2544 59.043 78.3668 55.041 78.3668 50.4037C78.3668 45.3217 77.3816 41.1926 75.4111 38.0164C73.5042 34.7766 70.5485 32.4262 66.544 30.9652C62.6031 29.4406 57.5816 28.6783 51.4795 28.6783H24.4016V152.361H6V13.623H51.4795C58.5986 13.623 64.9549 14.3535 70.5485 15.8145C76.1421 17.2121 80.8776 19.4355 84.7549 22.4846C88.6958 25.4703 91.6833 29.2818 93.7173 33.9191C95.7514 38.5564 96.7684 44.1148 96.7684 50.5943C96.7684 56.3115 95.3064 61.4887 92.3825 66.126C89.4586 70.6998 85.3905 74.4477 80.1784 77.3699C75.0297 80.292 68.9912 82.166 62.0628 82.9918L55.484 87.4703ZM54.6259 152.361H13.0555L23.4481 137.401H54.6259C60.4737 137.401 65.4317 136.384 69.4997 134.351C73.6313 132.319 76.7777 129.46 78.9389 125.776C81.1 122.028 82.1806 117.613 82.1806 112.531C82.1806 107.385 81.2589 102.939 79.4156 99.1906C77.5723 95.4426 74.6801 92.5523 70.7392 90.5195C66.7983 88.4867 61.7132 87.4703 55.484 87.4703H29.2642L29.4549 72.7008H65.3045L69.2137 78.0369C75.8878 78.6086 81.545 80.5143 86.1851 83.7541C90.8252 86.9303 94.353 90.9959 96.7684 95.9508C99.2473 100.906 100.487 106.369 100.487 112.34C100.487 120.98 98.5799 128.285 94.7661 134.256C91.0159 140.164 85.7084 144.674 78.8435 147.787C71.9787 150.836 63.9062 152.361 54.6259 152.361Z" stroke="white" stroke-width="12" mask="url(#path-1-outside-1_3_3)"/>
<path d="M185.821 134.733V81.6578C185.821 77.5922 184.994 74.0666 183.342 71.0809C181.752 68.0318 179.337 65.6814 176.095 64.0297C172.854 62.3781 168.849 61.5523 164.082 61.5523C159.632 61.5523 155.723 62.3145 152.354 63.8391C149.049 65.3637 146.443 67.3648 144.536 69.8422C142.693 72.3197 141.771 74.9877 141.771 77.8463H124.132C124.132 74.1619 125.086 70.5092 126.993 66.8883C128.9 63.2674 131.633 59.9959 135.192 57.0738C138.815 54.0881 143.138 51.7377 148.159 50.0225C153.244 48.2439 158.901 47.3545 165.131 47.3545C172.631 47.3545 179.242 48.625 184.962 51.166C190.747 53.707 195.26 57.5502 198.501 62.6957C201.807 67.7777 203.459 74.1619 203.459 81.8484V129.873C203.459 133.303 203.745 136.956 204.317 140.831C204.953 144.706 205.875 148.041 207.082 150.836V152.361H188.681C187.791 150.328 187.092 147.628 186.583 144.261C186.075 140.831 185.821 137.655 185.821 134.733ZM188.872 89.8525L189.062 102.24H171.233C166.211 102.24 161.73 102.653 157.789 103.478C153.848 104.241 150.543 105.416 147.873 107.004C145.204 108.592 143.17 110.593 141.771 113.007C140.373 115.358 139.674 118.121 139.674 121.297C139.674 124.537 140.405 127.491 141.867 130.159C143.328 132.827 145.521 134.955 148.445 136.543C151.433 138.068 155.088 138.83 159.41 138.83C164.813 138.83 169.58 137.686 173.712 135.4C177.843 133.113 181.117 130.318 183.532 127.014C186.011 123.711 187.346 120.503 187.537 117.39L195.069 125.871C194.624 128.539 193.416 131.493 191.446 134.733C189.475 137.972 186.838 141.085 183.532 144.071C180.291 146.993 176.413 149.439 171.9 151.408C167.451 153.314 162.429 154.266 156.836 154.266C149.844 154.266 143.71 152.901 138.434 150.169C133.222 147.437 129.154 143.785 126.23 139.211C123.37 134.574 121.939 129.397 121.939 123.679C121.939 118.153 123.02 113.293 125.181 109.1C127.342 104.844 130.457 101.319 134.525 98.5236C138.593 95.665 143.487 93.5051 149.208 92.0441C154.929 90.583 161.317 89.8525 168.372 89.8525H188.872Z" stroke="white" stroke-width="12" mask="url(#path-1-outside-1_3_3)"/>
<path d="M296.23 132.35V6H313.964V152.361H297.755L296.23 132.35ZM226.819 101.954V99.9529C226.819 92.0758 227.772 84.9293 229.679 78.5133C231.65 72.0338 234.415 66.4754 237.974 61.8381C241.597 57.2008 245.888 53.6434 250.846 51.166C255.867 48.625 261.461 47.3545 267.626 47.3545C274.11 47.3545 279.767 48.498 284.598 50.7848C289.492 53.0082 293.624 56.2797 296.993 60.5994C300.425 64.8555 303.127 70.001 305.097 76.0359C307.068 82.0707 308.434 88.8996 309.197 96.5225V105.289C308.498 112.848 307.131 119.645 305.097 125.68C303.127 131.715 300.425 136.861 296.993 141.117C293.624 145.373 289.492 148.644 284.598 150.931C279.704 153.155 273.983 154.266 267.436 154.266C261.397 154.266 255.867 152.964 250.846 150.36C245.888 147.755 241.597 144.102 237.974 139.402C234.415 134.701 231.65 129.174 229.679 122.822C227.772 116.406 226.819 109.45 226.819 101.954ZM244.553 99.9529V101.954C244.553 107.099 245.062 111.927 246.079 116.437C247.159 120.948 248.812 124.918 251.036 128.348C253.261 131.779 256.09 134.478 259.522 136.448C262.955 138.353 267.054 139.306 271.822 139.306C277.669 139.306 282.469 138.068 286.219 135.59C290.033 133.113 293.084 129.841 295.372 125.776C297.66 121.71 299.44 117.295 300.711 112.531V89.5666C299.948 86.0727 298.836 82.7059 297.374 79.4662C295.976 76.1629 294.132 73.2408 291.844 70.6998C289.619 68.0953 286.854 66.0307 283.549 64.5061C280.307 62.9816 276.462 62.2193 272.012 62.2193C267.182 62.2193 263.018 63.2357 259.522 65.2684C256.09 67.2377 253.261 69.9693 251.036 73.4631C248.812 76.8934 247.159 80.8955 246.079 85.4693C245.062 89.9795 244.553 94.8074 244.553 99.9529Z" stroke="white" stroke-width="12" mask="url(#path-1-outside-1_3_3)"/>
<path d="M382.708 139.783C386.903 139.783 390.78 138.925 394.34 137.21C397.899 135.495 400.823 133.144 403.112 130.159C405.4 127.11 406.703 123.648 407.021 119.773H423.801C423.484 125.871 421.418 131.556 417.604 136.829C413.854 142.038 408.928 146.262 402.826 149.502C396.724 152.678 390.018 154.266 382.708 154.266C374.953 154.266 368.184 152.901 362.399 150.169C356.679 147.437 351.911 143.69 348.098 138.925C344.347 134.161 341.519 128.698 339.612 122.536C337.769 116.31 336.847 109.736 336.847 102.811V98.8094C336.847 91.8852 337.769 85.3422 339.612 79.1803C341.519 72.9549 344.347 67.46 348.098 62.6957C351.911 57.9314 356.679 54.1834 362.399 51.4518C368.184 48.7203 374.953 47.3545 382.708 47.3545C390.78 47.3545 397.836 49.0061 403.874 52.3094C409.913 55.5492 414.648 59.9959 418.081 65.6496C421.577 71.2398 423.484 77.5922 423.801 84.707H407.021C406.703 80.4508 405.495 76.6076 403.398 73.1773C401.364 69.7469 398.567 67.0154 395.007 64.9826C391.511 62.8863 387.411 61.8381 382.708 61.8381C377.305 61.8381 372.76 62.918 369.073 65.0779C365.45 67.1742 362.558 70.0328 360.397 73.6537C358.3 77.2111 356.774 81.1814 355.821 85.5645C354.931 89.8842 354.486 94.2992 354.486 98.8094V102.811C354.486 107.322 354.931 111.768 355.821 116.152C356.71 120.535 358.204 124.505 360.302 128.062C362.463 131.62 365.355 134.478 368.978 136.638C372.665 138.735 377.241 139.783 382.708 139.783Z" stroke="white" stroke-width="12" mask="url(#path-1-outside-1_3_3)"/>
<path d="M462.798 6V152.361H445.063V6H462.798Z" stroke="white" stroke-width="12" mask="url(#path-1-outside-1_3_3)"/>
<path d="M554.233 128.539V49.2602H571.967V152.361H555.091L554.233 128.539ZM557.57 106.814L564.912 106.623C564.912 113.484 564.181 119.836 562.719 125.68C561.321 131.461 559.032 136.48 555.854 140.736C552.676 144.992 548.513 148.327 543.364 150.741C538.215 153.091 531.954 154.266 524.581 154.266C519.56 154.266 514.951 153.536 510.756 152.075C506.624 150.614 503.065 148.359 500.077 145.309C497.09 142.26 494.77 138.29 493.117 133.399C491.528 128.507 490.734 122.631 490.734 115.77V49.2602H508.372V115.961C508.372 120.598 508.881 124.442 509.898 127.491C510.979 130.476 512.409 132.859 514.188 134.637C516.032 136.352 518.066 137.559 520.291 138.258C522.579 138.957 524.931 139.306 527.346 139.306C534.847 139.306 540.79 137.877 545.176 135.018C549.561 132.096 552.708 128.19 554.615 123.298C556.585 118.343 557.57 112.848 557.57 106.814Z" stroke="white" stroke-width="12" mask="url(#path-1-outside-1_3_3)"/>
<path d="M616.494 69.0799V192H598.759V49.2602H614.968L616.494 69.0799ZM686 99.9529V101.954C686 109.45 685.11 116.406 683.33 122.822C681.551 129.174 678.945 134.701 675.512 139.402C672.143 144.102 667.98 147.755 663.022 150.36C658.064 152.964 652.375 154.266 645.955 154.266C639.408 154.266 633.624 153.186 628.602 151.027C623.581 148.867 619.322 145.722 615.826 141.593C612.33 137.464 609.533 132.509 607.436 126.728C605.402 120.948 604.003 114.436 603.241 107.195V96.5225C604.003 88.8996 605.434 82.0707 607.531 76.0359C609.629 70.001 612.394 64.8555 615.826 60.5994C619.322 56.2797 623.549 53.0082 628.507 50.7848C633.465 48.498 639.186 47.3545 645.669 47.3545C652.153 47.3545 657.905 48.625 662.927 51.166C667.948 53.6434 672.175 57.2008 675.607 61.8381C679.04 66.4754 681.614 72.0338 683.33 78.5133C685.11 84.9293 686 92.0758 686 99.9529ZM668.266 101.954V99.9529C668.266 94.8074 667.726 89.9795 666.645 85.4693C665.564 80.8955 663.88 76.8934 661.592 73.4631C659.367 69.9693 656.507 67.2377 653.011 65.2684C649.515 63.2357 645.351 62.2193 640.52 62.2193C636.071 62.2193 632.194 62.9816 628.888 64.5061C625.647 66.0307 622.882 68.0953 620.593 70.6998C618.305 73.2408 616.43 76.1629 614.968 79.4662C613.57 82.7059 612.521 86.0727 611.822 89.5666V114.246C613.093 118.693 614.873 122.885 617.161 126.824C619.449 130.699 622.5 133.843 626.314 136.257C630.128 138.608 634.927 139.783 640.711 139.783C645.478 139.783 649.578 138.798 653.011 136.829C656.507 134.796 659.367 132.033 661.592 128.539C663.88 125.045 665.564 121.043 666.645 116.533C667.726 111.959 668.266 107.099 668.266 101.954Z" stroke="white" stroke-width="12" mask="url(#path-1-outside-1_3_3)"/>
</g>
<defs>
<filter id="filter0_i_3_3" x="0" y="0" width="692" height="202" filterUnits="userSpaceOnUse" color-interpolation-filters="sRGB">
<feFlood flood-opacity="0" result="BackgroundImageFix"/>
<feBlend mode="normal" in="SourceGraphic" in2="BackgroundImageFix" result="shape"/>
<feColorMatrix in="SourceAlpha" type="matrix" values="0 0 0 0 0 0 0 0 0 0 0 0 0 0 0 0 0 0 127 0" result="hardAlpha"/>
<feOffset dy="4"/>
<feGaussianBlur stdDeviation="2"/>
<feComposite in2="hardAlpha" operator="arithmetic" k2="-1" k3="1"/>
<feColorMatrix type="matrix" values="0 0 0 0 0 0 0 0 0 0 0 0 0 0 0 0 0 0 0.25 0"/>
<feBlend mode="normal" in2="shape" result="effect1_innerShadow_3_3"/>
</filter>
</defs>
</svg>
