<svg width="690" height="196" viewBox="0 0 690 196" fill="none" xmlns="http://www.w3.org/2000/svg">
<mask id="path-1-outside-1_3_3" maskUnits="userSpaceOnUse" x="0" y="0" width="690" height="196" fill="black">
<rect fill="white" width="690" height="196"/>
<path d="M54.484 86.4703H19.3017L19.111 71.7008H51.0516C56.3274 71.7008 60.9357 70.8115 64.8766 69.0328C68.8175 67.2541 71.8686 64.7131 74.0297 61.4098C76.2544 58.043 77.3668 54.041 77.3668 49.4037C77.3668 44.3217 76.3816 40.1926 74.4111 37.0164C72.5042 33.7766 69.5485 31.4262 65.544 29.9652C61.6031 28.4406 56.5816 27.6783 50.4795 27.6783H23.4016V151.361H5V12.623H50.4795C57.5986 12.623 63.9549 13.3535 69.5485 14.8145C75.1421 16.2121 79.8776 18.4355 83.7549 21.4846C87.6958 24.4703 90.6833 28.2818 92.7173 32.9191C94.7514 37.5564 95.7684 43.1148 95.7684 49.5943C95.7684 55.3115 94.3064 60.4887 91.3825 65.126C88.4586 69.6998 84.3905 73.4477 79.1784 76.3699C74.0297 79.292 67.9912 81.166 61.0628 81.9918L54.484 86.4703ZM53.6259 151.361H12.0555L22.4481 136.401H53.6259C59.4737 136.401 64.4317 135.384 68.4997 133.351C72.6313 131.319 75.7777 128.46 77.9389 124.776C80.1 121.028 81.1806 116.613 81.1806 111.531C81.1806 106.385 80.2589 101.939 78.4156 98.1906C76.5723 94.4426 73.6801 91.5522 69.7392 89.5195C65.7983 87.4867 60.7132 86.4703 54.484 86.4703H28.2642L28.4549 71.7008H64.3045L68.2137 77.0369C74.8878 77.6086 80.545 79.5143 85.1851 82.7541C89.8252 85.9303 93.353 89.9959 95.7684 94.9508C98.2473 99.9057 99.4868 105.369 99.4868 111.34C99.4868 119.98 97.5799 127.285 93.7661 133.256C90.0159 139.164 84.7084 143.674 77.8435 146.787C70.9787 149.836 62.9062 151.361 53.6259 151.361Z"/>
<path d="M184.821 133.733V80.6578C184.821 76.5922 183.994 73.0666 182.342 70.0809C180.752 67.0318 178.337 64.6814 175.095 63.0297C171.854 61.3781 167.849 60.5523 163.082 60.5523C158.632 60.5523 154.723 61.3145 151.354 62.8391C148.049 64.3637 145.443 66.3648 143.536 68.8422C141.693 71.3197 140.771 73.9877 140.771 76.8463H123.132C123.132 73.1619 124.086 69.5092 125.993 65.8883C127.9 62.2674 130.633 58.9959 134.192 56.0738C137.815 53.0881 142.138 50.7377 147.159 49.0225C152.244 47.2439 157.901 46.3545 164.131 46.3545C171.631 46.3545 178.242 47.625 183.962 50.166C189.747 52.707 194.26 56.5502 197.501 61.6957C200.807 66.7777 202.459 73.1619 202.459 80.8484V128.873C202.459 132.303 202.745 135.956 203.317 139.831C203.953 143.706 204.875 147.041 206.082 149.836V151.361H187.681C186.791 149.328 186.092 146.628 185.583 143.261C185.075 139.831 184.821 136.655 184.821 133.733ZM187.872 88.8525L188.062 101.24H170.233C165.211 101.24 160.73 101.653 156.789 102.478C152.848 103.241 149.543 104.416 146.873 106.004C144.204 107.592 142.17 109.593 140.771 112.007C139.373 114.358 138.674 117.121 138.674 120.297C138.674 123.537 139.405 126.491 140.867 129.159C142.328 131.827 144.521 133.955 147.445 135.543C150.433 137.068 154.088 137.83 158.41 137.83C163.813 137.83 168.58 136.686 172.712 134.4C176.843 132.113 180.117 129.318 182.532 126.014C185.011 122.711 186.346 119.503 186.537 116.39L194.069 124.871C193.624 127.539 192.416 130.493 190.446 133.733C188.475 136.972 185.838 140.085 182.532 143.071C179.291 145.993 175.413 148.439 170.9 150.408C166.451 152.314 161.429 153.266 155.836 153.266C148.844 153.266 142.71 151.901 137.434 149.169C132.222 146.437 128.154 142.785 125.23 138.211C122.37 133.574 120.939 128.397 120.939 122.679C120.939 117.153 122.02 112.293 124.181 108.1C126.342 103.844 129.457 100.319 133.525 97.5236C137.593 94.665 142.487 92.5051 148.208 91.0441C153.929 89.583 160.317 88.8525 167.372 88.8525H187.872Z"/>
<path d="M295.23 131.35V5H312.964V151.361H296.755L295.23 131.35ZM225.819 100.954V98.9529C225.819 91.0758 226.772 83.9293 228.679 77.5133C230.65 71.0338 233.415 65.4754 236.974 60.8381C240.597 56.2008 244.888 52.6434 249.846 50.166C254.867 47.625 260.461 46.3545 266.626 46.3545C273.11 46.3545 278.767 47.498 283.598 49.7848C288.492 52.0082 292.624 55.2797 295.993 59.5994C299.425 63.8555 302.127 69.001 304.097 75.0359C306.068 81.0707 307.434 87.8996 308.197 95.5225V104.289C307.498 111.848 306.131 118.645 304.097 124.68C302.127 130.715 299.425 135.861 295.993 140.117C292.624 144.373 288.492 147.644 283.598 149.931C278.703 152.155 272.983 153.266 266.436 153.266C260.397 153.266 254.867 151.964 249.846 149.36C244.888 146.755 240.597 143.102 236.974 138.402C233.415 133.701 230.65 128.174 228.679 121.822C226.772 115.406 225.819 108.45 225.819 100.954ZM243.553 98.9529V100.954C243.553 106.099 244.062 110.927 245.079 115.438C246.159 119.948 247.812 123.918 250.036 127.348C252.261 130.779 255.09 133.478 258.522 135.448C261.955 137.353 266.054 138.306 270.822 138.306C276.669 138.306 281.469 137.068 285.219 134.59C289.033 132.113 292.084 128.841 294.372 124.776C296.66 120.71 298.44 116.295 299.711 111.531V88.5666C298.948 85.0727 297.836 81.7059 296.374 78.4662C294.976 75.1629 293.132 72.2408 290.844 69.6998C288.619 67.0953 285.854 65.0307 282.549 63.5061C279.307 61.9816 275.462 61.2193 271.012 61.2193C266.182 61.2193 262.018 62.2357 258.522 64.2684C255.09 66.2377 252.261 68.9693 250.036 72.4631C247.812 75.8934 246.159 79.8955 245.079 84.4693C244.062 88.9795 243.553 93.8074 243.553 98.9529Z"/>
<path d="M381.708 138.783C385.903 138.783 389.78 137.925 393.34 136.21C396.899 134.495 399.823 132.144 402.112 129.159C404.4 126.11 405.703 122.648 406.021 118.773H422.801C422.484 124.871 420.418 130.556 416.604 135.829C412.854 141.038 407.928 145.262 401.826 148.502C395.724 151.678 389.018 153.266 381.708 153.266C373.953 153.266 367.184 151.901 361.399 149.169C355.679 146.437 350.911 142.69 347.098 137.925C343.347 133.161 340.519 127.698 338.612 121.536C336.769 115.31 335.847 108.736 335.847 101.811V97.8094C335.847 90.8852 336.769 84.3422 338.612 78.1803C340.519 71.9549 343.347 66.46 347.098 61.6957C350.911 56.9313 355.679 53.1834 361.399 50.4518C367.184 47.7203 373.953 46.3545 381.708 46.3545C389.78 46.3545 396.836 48.0061 402.874 51.3094C408.913 54.5492 413.648 58.9959 417.081 64.6496C420.577 70.2398 422.484 76.5922 422.801 83.707H406.021C405.703 79.4508 404.495 75.6076 402.398 72.1773C400.364 68.7469 397.567 66.0154 394.007 63.9826C390.511 61.8863 386.412 60.8381 381.708 60.8381C376.305 60.8381 371.76 61.918 368.073 64.0779C364.45 66.1742 361.558 69.0328 359.397 72.6537C357.3 76.2111 355.774 80.1813 354.821 84.5645C353.931 88.8842 353.486 93.2992 353.486 97.8094V101.811C353.486 106.322 353.931 110.768 354.821 115.152C355.71 119.535 357.204 123.505 359.302 127.062C361.463 130.62 364.355 133.478 367.978 135.638C371.665 137.735 376.241 138.783 381.708 138.783Z"/>
<path d="M461.798 5V151.361H444.063V5H461.798Z"/>
<path d="M553.233 127.539V48.2602H570.967V151.361H554.091L553.233 127.539ZM556.57 105.814L563.912 105.623C563.912 112.484 563.181 118.836 561.719 124.68C560.321 130.461 558.032 135.48 554.854 139.736C551.676 143.992 547.513 147.327 542.364 149.741C537.215 152.091 530.954 153.266 523.581 153.266C518.56 153.266 513.951 152.536 509.756 151.075C505.624 149.614 502.065 147.359 499.077 144.309C496.09 141.26 493.77 137.29 492.117 132.399C490.528 127.507 489.734 121.631 489.734 114.77V48.2602H507.372V114.961C507.372 119.598 507.881 123.442 508.898 126.491C509.979 129.476 511.409 131.859 513.188 133.637C515.032 135.352 517.066 136.559 519.291 137.258C521.579 137.957 523.931 138.306 526.346 138.306C533.847 138.306 539.79 136.877 544.176 134.018C548.561 131.096 551.708 127.19 553.615 122.298C555.585 117.343 556.57 111.848 556.57 105.814Z"/>
<path d="M615.494 68.0799V191H597.759V48.2602H613.968L615.494 68.0799ZM685 98.9529V100.954C685 108.45 684.11 115.406 682.33 121.822C680.551 128.174 677.945 133.701 674.512 138.402C671.143 143.102 666.98 146.755 662.022 149.36C657.064 151.964 651.375 153.266 644.955 153.266C638.408 153.266 632.624 152.186 627.602 150.027C622.581 147.867 618.322 144.722 614.826 140.593C611.33 136.464 608.533 131.509 606.436 125.728C604.402 119.948 603.003 113.436 602.241 106.195V95.5225C603.003 87.8996 604.434 81.0707 606.531 75.0359C608.629 69.001 611.394 63.8555 614.826 59.5994C618.322 55.2797 622.549 52.0082 627.507 49.7848C632.465 47.498 638.186 46.3545 644.669 46.3545C651.153 46.3545 656.905 47.625 661.927 50.166C666.948 52.6434 671.175 56.2008 674.607 60.8381C678.04 65.4754 680.614 71.0338 682.33 77.5133C684.11 83.9293 685 91.0758 685 98.9529ZM667.266 100.954V98.9529C667.266 93.8074 666.726 88.9795 665.645 84.4693C664.564 79.8955 662.88 75.8934 660.592 72.4631C658.367 68.9693 655.507 66.2377 652.011 64.2684C648.515 62.2357 644.351 61.2193 639.521 61.2193C635.071 61.2193 631.194 61.9816 627.888 63.5061C624.647 65.0307 621.882 67.0953 619.593 69.6998C617.305 72.2408 615.43 75.1629 613.968 78.4662C612.57 81.7059 611.521 85.0727 610.822 88.5666V113.246C612.093 117.693 613.873 121.885 616.161 125.824C618.449 129.699 621.5 132.843 625.314 135.257C629.128 137.608 633.927 138.783 639.711 138.783C644.478 138.783 648.578 137.798 652.011 135.829C655.507 133.796 658.367 131.033 660.592 127.539C662.88 124.045 664.564 120.043 665.645 115.533C666.726 110.959 667.266 106.099 667.266 100.954Z"/>
</mask>
<path d="M19.3017 86.4703L14.3022 86.5348L14.3659 91.4703H19.3017V86.4703ZM19.111 71.7008V66.7008H14.0461L14.1115 71.7654L19.111 71.7008ZM74.0297 61.4098L69.8582 58.6534L69.8519 58.6629L69.8456 58.6724L74.0297 61.4098ZM74.4111 37.0164L70.1021 39.5526L70.1316 39.6028L70.1623 39.6522L74.4111 37.0164ZM65.544 29.9652L63.74 34.6284L63.785 34.6458L63.8303 34.6623L65.544 29.9652ZM23.4016 27.6783V22.6783H18.4016V27.6783H23.4016ZM23.4016 151.361V156.361H28.4016V151.361H23.4016ZM5 151.361H0V156.361H5V151.361ZM5 12.623V7.62295H0V12.623H5ZM69.5485 14.8145L68.2849 19.6522L68.3107 19.659L68.3365 19.6654L69.5485 14.8145ZM83.7549 21.4846L80.6641 25.4149L80.6996 25.4428L80.7356 25.47L83.7549 21.4846ZM91.3825 65.126L95.5952 67.8191L95.6036 67.806L95.612 67.7928L91.3825 65.126ZM79.1784 76.3699L76.7332 72.0085L76.7218 72.0149L76.7104 72.0214L79.1784 76.3699ZM61.0628 81.9918L60.471 77.0269L59.2585 77.1715L58.2492 77.8586L61.0628 81.9918ZM12.0555 151.361L7.94915 148.508L2.49398 156.361H12.0555V151.361ZM22.4481 136.401V131.401H19.8335L18.3417 133.548L22.4481 136.401ZM68.4997 133.351L66.2924 128.865L66.2785 128.872L66.2647 128.879L68.4997 133.351ZM77.9389 124.776L82.2517 127.305L82.2611 127.289L82.2704 127.273L77.9389 124.776ZM28.2642 86.4703L23.2646 86.4057L23.1992 91.4703H28.2642V86.4703ZM28.4549 71.7008V66.7008H23.519L23.4553 71.6363L28.4549 71.7008ZM64.3045 71.7008L68.338 68.746L66.8398 66.7008H64.3045V71.7008ZM68.2137 77.0369L64.1802 79.9917L65.523 81.8247L67.7869 82.0186L68.2137 77.0369ZM85.1851 82.7541L82.3227 86.8537L82.3417 86.867L82.3608 86.88L85.1851 82.7541ZM95.7684 94.9508L91.2739 97.1417L91.2852 97.1649L91.2968 97.188L95.7684 94.9508ZM93.7661 133.256L89.5522 130.565L89.5448 130.576L93.7661 133.256ZM77.8435 146.787L79.8732 151.356L79.8908 151.349L79.9083 151.341L77.8435 146.787ZM182.342 70.0809L177.908 72.3917L177.937 72.4474L177.967 72.5024L182.342 70.0809ZM151.354 62.8391L149.293 58.2839L149.277 58.2913L149.26 58.2989L151.354 62.8391ZM143.536 68.8422L139.574 65.7925L139.549 65.8248L139.525 65.8575L143.536 68.8422ZM140.771 76.8463V81.8463H145.771V76.8463H140.771ZM123.132 76.8463H118.132V81.8463H123.132V76.8463ZM134.192 56.0738L137.365 59.9384L137.372 59.9324L134.192 56.0738ZM147.159 49.0225L148.775 53.7541L148.793 53.7482L148.81 53.7421L147.159 49.0225ZM183.962 50.166L181.933 54.7355L181.942 54.7396L181.951 54.7437L183.962 50.166ZM197.501 61.6957L193.271 64.3609L193.29 64.3915L193.31 64.4218L197.501 61.6957ZM203.317 139.831L198.371 140.561L198.377 140.601L198.383 140.64L203.317 139.831ZM206.082 149.836H211.082V148.802L210.672 147.853L206.082 149.836ZM206.082 151.361V156.361H211.082V151.361H206.082ZM187.681 151.361L183.101 153.366L184.412 156.361H187.681V151.361ZM185.583 143.261L180.637 143.994L180.639 144.008L185.583 143.261ZM187.872 88.8525L192.871 88.7755L192.795 83.8525H187.872V88.8525ZM188.062 101.24V106.24H193.14L193.062 101.163L188.062 101.24ZM156.789 102.478L157.739 107.387L157.777 107.38L157.815 107.372L156.789 102.478ZM140.771 112.007L145.068 114.564L145.083 114.539L145.098 114.513L140.771 112.007ZM147.445 135.543L145.059 139.937L145.115 139.967L145.173 139.997L147.445 135.543ZM182.532 126.014L178.533 123.013L178.514 123.038L178.496 123.063L182.532 126.014ZM186.537 116.39L190.275 113.07L182.282 104.071L181.546 116.085L186.537 116.39ZM194.069 124.871L199.001 125.693L199.394 123.337L197.807 121.551L194.069 124.871ZM182.532 143.071L185.88 146.785L185.884 146.781L182.532 143.071ZM170.9 150.408L172.869 155.004L172.884 154.997L172.9 154.991L170.9 150.408ZM137.434 149.169L135.113 153.598L135.124 153.603L135.135 153.609L137.434 149.169ZM125.23 138.211L120.974 140.836L120.996 140.87L121.017 140.904L125.23 138.211ZM124.181 108.1L128.625 110.391L128.632 110.378L128.639 110.364L124.181 108.1ZM133.525 97.5236L136.356 101.645L136.378 101.63L136.4 101.615L133.525 97.5236ZM295.23 131.35H290.23V131.541L290.244 131.73L295.23 131.35ZM295.23 5V0H290.23V5H295.23ZM312.964 5H317.964V0H312.964V5ZM312.964 151.361V156.361H317.964V151.361H312.964ZM296.755 151.361L291.77 151.741L292.122 156.361H296.755V151.361ZM228.679 77.5133L223.896 76.0586L223.891 76.0737L223.886 76.0889L228.679 77.5133ZM236.974 60.8381L233.034 57.7598L233.021 57.7767L233.008 57.7936L236.974 60.8381ZM249.846 50.166L252.081 54.6387L252.092 54.633L252.103 54.6273L249.846 50.166ZM283.598 49.7848L281.459 54.304L281.494 54.3209L281.53 54.3371L283.598 49.7848ZM295.993 59.5994L292.05 62.6743L292.075 62.7064L292.101 62.7382L295.993 59.5994ZM308.197 95.5225H313.197V95.273L313.172 95.0247L308.197 95.5225ZM308.197 104.289L313.176 104.749L313.197 104.52V104.289H308.197ZM304.097 124.68L299.359 123.083L299.351 123.106L299.344 123.128L304.097 124.68ZM295.993 140.117L292.101 136.978L292.086 136.996L292.072 137.014L295.993 140.117ZM283.598 149.931L285.666 154.484L285.69 154.473L285.714 154.461L283.598 149.931ZM249.846 149.36L247.52 153.786L247.532 153.792L247.544 153.798L249.846 149.36ZM236.974 138.402L232.988 141.42L233.001 141.437L233.014 141.454L236.974 138.402ZM228.679 121.822L223.886 123.246L223.895 123.275L223.904 123.303L228.679 121.822ZM245.079 115.438L240.201 116.537L240.208 116.57L240.216 116.602L245.079 115.438ZM258.522 135.448L256.034 139.785L256.064 139.802L256.095 139.819L258.522 135.448ZM285.219 134.59L282.495 130.397L282.479 130.408L282.463 130.418L285.219 134.59ZM299.711 111.531L304.542 112.82L304.711 112.186V111.531H299.711ZM299.711 88.5666H304.711V88.0272L304.596 87.5001L299.711 88.5666ZM296.374 78.4662L291.77 80.4154L291.793 80.4694L291.817 80.5228L296.374 78.4662ZM290.844 69.6998L287.042 72.9472L287.085 72.9971L287.129 73.0457L290.844 69.6998ZM282.549 63.5061L280.421 68.0307L280.438 68.0386L280.455 68.0464L282.549 63.5061ZM258.522 64.2684L261.01 68.6054L261.023 68.5981L261.035 68.5908L258.522 64.2684ZM250.036 72.4631L254.231 75.1838L254.243 75.1663L254.254 75.1487L250.036 72.4631ZM245.079 84.4693L240.212 83.3196L240.207 83.3445L240.201 83.3694L245.079 84.4693ZM402.112 129.159L406.08 132.2L406.096 132.18L406.111 132.16L402.112 129.159ZM406.021 118.773V113.773H401.414L401.038 118.364L406.021 118.773ZM422.801 118.773L427.795 119.033L428.069 113.773H422.801V118.773ZM416.604 135.829L412.553 132.898L412.546 132.907L416.604 135.829ZM401.826 148.502L404.134 152.937L404.152 152.928L404.17 152.918L401.826 148.502ZM361.399 149.169L359.245 153.681L359.255 153.686L359.264 153.69L361.399 149.169ZM347.098 137.925L343.169 141.018L343.181 141.034L343.194 141.05L347.098 137.925ZM338.612 121.536L333.818 122.955L333.826 122.985L333.835 123.014L338.612 121.536ZM338.612 78.1803L333.831 76.7159L333.826 76.7316L333.822 76.7473L338.612 78.1803ZM347.098 61.6957L343.194 58.5711L343.181 58.587L343.169 58.6031L347.098 61.6957ZM361.399 50.4518L359.264 45.9306L359.255 45.9352L359.245 45.9398L361.399 50.4518ZM402.874 51.3094L400.475 55.696L400.493 55.7057L400.511 55.7154L402.874 51.3094ZM417.081 64.6496L412.807 67.2444L412.824 67.2727L412.842 67.3007L417.081 64.6496ZM422.801 83.707V88.707H428.03L427.797 83.4838L422.801 83.707ZM406.021 83.707L401.035 84.0793L401.38 88.707H406.021V83.707ZM402.398 72.1773L398.097 74.7274L398.114 74.7567L398.132 74.7857L402.398 72.1773ZM394.007 63.9826L391.436 68.2707L391.482 68.2981L391.528 68.3244L394.007 63.9826ZM368.073 64.0779L370.578 68.4057L370.589 68.3989L370.601 68.392L368.073 64.0779ZM359.397 72.6537L355.104 70.0911L355.097 70.1026L355.09 70.1141L359.397 72.6537ZM354.821 84.5645L349.935 83.5018L349.929 83.5287L349.923 83.5557L354.821 84.5645ZM359.302 127.062L354.995 129.602L355.011 129.63L355.029 129.659L359.302 127.062ZM367.978 135.638L365.418 139.933L365.462 139.959L365.507 139.985L367.978 135.638ZM461.798 5H466.798V0H461.798V5ZM461.798 151.361V156.361H466.798V151.361H461.798ZM444.063 151.361H439.063V156.361H444.063V151.361ZM444.063 5V0H439.063V5H444.063ZM553.233 127.539H548.233V127.629L548.237 127.719L553.233 127.539ZM553.233 48.2602V43.2602H548.233V48.2602H553.233ZM570.967 48.2602H575.967V43.2602H570.967V48.2602ZM570.967 151.361V156.361H575.967V151.361H570.967ZM554.091 151.361L549.095 151.541L549.268 156.361H554.091V151.361ZM556.57 105.814L556.441 100.815L551.57 100.942V105.814H556.57ZM563.912 105.623H568.912V100.491L563.782 100.625L563.912 105.623ZM561.719 124.68L556.869 123.467L556.864 123.486L556.859 123.505L561.719 124.68ZM542.364 149.741L544.44 154.289L544.464 154.279L544.487 154.268L542.364 149.741ZM509.756 151.075L508.089 155.789L508.1 155.793L508.112 155.797L509.756 151.075ZM492.117 132.399L487.362 133.943L487.371 133.971L487.38 133.999L492.117 132.399ZM489.734 48.2602V43.2602H484.734V48.2602H489.734ZM507.372 48.2602H512.372V43.2602H507.372V48.2602ZM508.898 126.491L504.155 128.073L504.175 128.133L504.196 128.192L508.898 126.491ZM513.188 133.637L509.654 137.174L509.717 137.237L509.782 137.298L513.188 133.637ZM519.291 137.258L517.792 142.028L517.811 142.034L517.83 142.04L519.291 137.258ZM544.176 134.018L546.906 138.207L546.927 138.193L546.948 138.179L544.176 134.018ZM553.615 122.298L548.969 120.451L548.962 120.466L548.956 120.482L553.615 122.298ZM615.494 68.0799H620.494V67.8878L620.479 67.6962L615.494 68.0799ZM615.494 191V196H620.494V191H615.494ZM597.759 191H592.759V196H597.759V191ZM597.759 48.2602V43.2602H592.759V48.2602H597.759ZM613.968 48.2602L618.953 47.8765L618.598 43.2602H613.968V48.2602ZM682.33 121.822L687.145 123.171L687.148 123.158L682.33 121.822ZM674.512 138.402L670.474 135.453L670.461 135.471L670.448 135.489L674.512 138.402ZM606.436 125.728L601.719 127.388L601.727 127.411L601.736 127.434L606.436 125.728ZM602.241 106.195H597.241V106.457L597.268 106.718L602.241 106.195ZM602.241 95.5225L597.265 95.0247L597.241 95.273V95.5225H602.241ZM614.826 59.5994L610.94 56.4539L610.934 56.4606L614.826 59.5994ZM627.507 49.7848L629.553 54.3471L629.577 54.3362L629.601 54.3251L627.507 49.7848ZM661.927 50.166L659.669 54.6273L659.692 54.6387L659.714 54.6499L661.927 50.166ZM682.33 77.5133L677.497 78.7935L677.505 78.8217L677.512 78.8498L682.33 77.5133ZM665.645 84.4693L660.779 85.6189L660.781 85.6265L660.783 85.6342L665.645 84.4693ZM660.592 72.4631L656.374 75.1487L656.403 75.1935L656.432 75.2378L660.592 72.4631ZM652.011 64.2684L649.497 68.5908L649.527 68.608L649.557 68.6248L652.011 64.2684ZM627.888 63.5061L625.794 58.9659L625.777 58.9736L625.761 58.9816L627.888 63.5061ZM619.593 69.6998L623.309 73.0457L623.329 73.023L623.35 72.9999L619.593 69.6998ZM613.968 78.4662L609.396 76.4426L609.387 76.4636L609.377 76.4847L613.968 78.4662ZM610.822 88.5666L605.919 87.5854L605.822 88.0712V88.5666H610.822ZM610.822 113.246H605.822V113.947L606.014 114.62L610.822 113.246ZM616.161 125.824L611.838 128.336L611.847 128.351L611.856 128.366L616.161 125.824ZM625.314 135.257L622.64 139.482L622.665 139.498L622.691 139.514L625.314 135.257ZM652.011 135.829L654.499 140.166L654.511 140.159L654.524 140.151L652.011 135.829ZM660.592 127.539L656.409 124.799L656.391 124.826L656.374 124.853L660.592 127.539ZM665.645 115.533L670.507 116.698L670.509 116.69L670.511 116.682L665.645 115.533ZM54.484 81.4703H19.3017V91.4703H54.484V81.4703ZM24.3013 86.4057L24.1106 71.6363L14.1115 71.7654L14.3022 86.5348L24.3013 86.4057ZM19.111 76.7008H51.0516V66.7008H19.111V76.7008ZM51.0516 76.7008C56.8839 76.7008 62.2201 75.7175 66.9335 73.5901L62.8197 64.4755C59.6513 65.9055 55.7708 66.7008 51.0516 66.7008V76.7008ZM66.9335 73.5901C71.6564 71.4585 75.4821 68.3227 78.2138 64.1472L69.8456 58.6724C68.2551 61.1036 65.9786 63.0497 62.8197 64.4755L66.9335 73.5901ZM78.2013 64.1663C81.0436 59.8648 82.3668 54.8709 82.3668 49.4037H72.3668C72.3668 53.211 71.4653 56.2212 69.8582 58.6534L78.2013 64.1663ZM82.3668 49.4037C82.3668 43.714 81.2679 38.5844 78.6599 34.3805L70.1623 39.6522C71.4952 41.8008 72.3668 44.9294 72.3668 49.4037H82.3668ZM78.7201 34.4801C76.1466 30.1078 72.1973 27.0703 67.2578 25.268L63.8303 34.6623C66.8997 35.7822 68.8618 37.4454 70.1021 39.5526L78.7201 34.4801ZM67.348 25.302C62.6368 23.4793 56.9478 22.6783 50.4795 22.6783V32.6783C56.2154 32.6783 60.5695 33.4018 63.74 34.6284L67.348 25.302ZM50.4795 22.6783H23.4016V32.6783H50.4795V22.6783ZM18.4016 27.6783V151.361H28.4016V27.6783H18.4016ZM23.4016 146.361H5V156.361H23.4016V146.361ZM10 151.361V12.623H0V151.361H10ZM5 17.623H50.4795V7.62295H5V17.623ZM50.4795 17.623C57.2664 17.623 63.186 18.3204 68.2849 19.6522L70.8121 9.97686C64.7239 8.38658 57.9309 7.62295 50.4795 7.62295V17.623ZM68.3365 19.6654C73.3604 20.9206 77.4269 22.8691 80.6641 25.4149L86.8457 17.5544C82.3282 14.0018 76.9238 11.5036 70.7605 9.96366L68.3365 19.6654ZM80.7356 25.47C83.9795 27.9277 86.4384 31.0517 88.1384 34.9275L97.2962 30.9106C94.9282 25.5118 91.4122 21.0129 86.7743 17.4992L80.7356 25.47ZM88.1384 34.9275C89.8287 38.7811 90.7684 43.6203 90.7684 49.5943H100.768C100.768 42.6092 99.674 36.3316 97.2962 30.9106L88.1384 34.9275ZM90.7684 49.5943C90.7684 54.4102 89.5513 58.6556 87.153 62.4593L95.612 67.7928C99.0615 62.3219 100.768 56.2128 100.768 49.5943H90.7684ZM87.1698 62.4329C84.7323 66.2458 81.3017 69.4473 76.7332 72.0085L81.6235 80.7312C87.4793 77.4482 92.1849 73.1538 95.5952 67.8191L87.1698 62.4329ZM76.7104 72.0214C72.2336 74.5622 66.8554 76.266 60.471 77.0269L61.6546 86.9567C69.1271 86.066 75.8258 84.0218 81.6463 80.7183L76.7104 72.0214ZM58.2492 77.8586L51.6704 82.3371L57.2977 90.6035L63.8765 86.125L58.2492 77.8586ZM53.6259 146.361H12.0555V156.361H53.6259V146.361ZM16.1619 154.213L26.5545 139.253L18.3417 133.548L7.94915 148.508L16.1619 154.213ZM22.4481 141.401H53.6259V131.401H22.4481V141.401ZM53.6259 141.401C60.0349 141.401 65.8032 140.288 70.7347 137.824L66.2647 128.879C63.0601 130.48 58.9126 131.401 53.6259 131.401V141.401ZM70.7071 137.838C75.6452 135.408 79.5564 131.9 82.2517 127.305L73.6261 122.246C71.999 125.02 69.6175 127.229 66.2924 128.865L70.7071 137.838ZM82.2704 127.273C84.9406 122.642 86.1806 117.335 86.1806 111.531H76.1806C76.1806 115.89 75.2595 119.413 73.6074 122.278L82.2704 127.273ZM86.1806 111.531C86.1806 105.794 85.1525 100.559 82.9023 95.9839L73.9289 100.397C75.3653 103.318 76.1806 106.976 76.1806 111.531H86.1806ZM82.9023 95.9839C80.5559 91.2131 76.8621 87.5676 72.0313 85.0758L67.4471 93.9631C70.4982 95.5369 72.5886 97.6721 73.9289 100.397L82.9023 95.9839ZM72.0313 85.0758C67.1537 82.5599 61.2071 81.4703 54.484 81.4703V91.4703C60.2193 91.4703 64.4428 92.4135 67.4471 93.9631L72.0313 85.0758ZM54.484 81.4703H28.2642V91.4703H54.484V81.4703ZM33.2637 86.5348L33.4544 71.7654L23.4553 71.6363L23.2646 86.4057L33.2637 86.5348ZM28.4549 76.7008H64.3045V66.7008H28.4549V76.7008ZM60.2711 74.6557L64.1802 79.9917L72.2471 74.082L68.338 68.746L60.2711 74.6557ZM67.7869 82.0186C73.7474 82.5292 78.5251 84.2022 82.3227 86.8537L88.0475 78.6545C82.5648 74.8265 76.0282 72.688 68.6404 72.0551L67.7869 82.0186ZM82.3608 86.88C86.301 89.5772 89.2461 92.9819 91.2739 97.1417L100.263 92.7599C97.4598 87.0099 93.3494 82.2835 88.0094 78.6281L82.3608 86.88ZM91.2968 97.188C93.4017 101.395 94.4868 106.084 94.4868 111.34H104.487C104.487 104.654 103.093 98.4163 100.24 92.7137L91.2968 97.188ZM94.4868 111.34C94.4868 119.236 92.7502 125.558 89.5523 130.565L97.98 135.947C102.41 129.012 104.487 120.723 104.487 111.34H94.4868ZM89.5448 130.576C86.3564 135.599 81.8292 139.49 75.7787 142.233L79.9083 151.341C87.5875 147.859 93.6754 142.729 97.9874 135.936L89.5448 130.576ZM75.8139 142.217C69.7198 144.924 62.3672 146.361 53.6259 146.361V156.361C63.4451 156.361 72.2376 154.748 79.8732 151.356L75.8139 142.217ZM189.821 133.733V80.6578H179.821V133.733H189.821ZM189.821 80.6578C189.821 75.9072 188.851 71.5162 186.716 67.6595L177.967 72.5024C179.138 74.617 179.821 77.2773 179.821 80.6578H189.821ZM186.776 67.7702C184.677 63.7432 181.477 60.6694 177.365 58.5746L172.826 67.4848C175.197 68.6933 176.828 70.3203 177.908 72.3917L186.776 67.7702ZM177.365 58.5746C173.237 56.4712 168.402 55.5523 163.082 55.5523V65.5523C167.296 65.5523 170.47 66.2849 172.826 67.4848L177.365 58.5746ZM163.082 55.5523C158.063 55.5523 153.427 56.4128 149.293 58.2839L153.416 67.3944C156.019 66.2163 159.201 65.5523 163.082 65.5523V55.5523ZM149.26 58.2989C145.342 60.1063 142.049 62.5767 139.574 65.7925L147.498 71.8919C148.837 70.1528 150.757 68.6212 153.449 67.3794L149.26 58.2989ZM139.525 65.8575C137.094 69.1243 135.771 72.8244 135.771 76.8463H145.771C145.771 75.151 146.292 73.515 147.548 71.8269L139.525 65.8575ZM140.771 71.8463H123.132V81.8463H140.771V71.8463ZM128.132 76.8463C128.132 74.0605 128.846 71.2016 130.417 68.2182L121.569 63.5585C119.326 67.8169 118.132 72.2633 118.132 76.8463H128.132ZM130.417 68.2182C131.976 65.2567 134.256 62.4904 137.365 59.9383L131.02 52.2092C127.009 55.5014 123.823 59.2781 121.569 63.5585L130.417 68.2182ZM137.372 59.9324C140.474 57.376 144.25 55.2999 148.775 53.7541L145.543 44.2909C140.026 46.1755 135.157 48.8003 131.013 52.2151L137.372 59.9324ZM148.81 53.7421C153.289 52.1755 158.377 51.3545 164.131 51.3545V41.3545C157.426 41.3545 151.2 42.3122 145.508 44.3029L148.81 53.7421ZM164.131 51.3545C171.068 51.3545 176.965 52.5289 181.933 54.7355L185.992 45.5965C179.519 42.7211 172.194 41.3545 164.131 41.3545V51.3545ZM181.951 54.7437C186.859 56.8997 190.583 60.0944 193.271 64.3609L201.732 59.0305C197.936 53.006 192.634 48.5143 185.973 45.5882L181.951 54.7437ZM193.31 64.4218C195.963 68.5004 197.459 73.8718 197.459 80.8484H207.459C207.459 72.4519 205.651 65.0549 201.693 58.9696L193.31 64.4218ZM197.459 80.8484V128.873H207.459V80.8484H197.459ZM197.459 128.873C197.459 132.579 197.768 136.478 198.371 140.561L208.264 139.101C207.723 135.434 207.459 132.027 207.459 128.873H197.459ZM198.383 140.64C199.067 144.809 200.084 148.558 201.493 151.819L210.672 147.853C209.666 145.524 208.839 142.603 208.252 139.022L198.383 140.64ZM201.082 149.836V151.361H211.082V149.836H201.082ZM206.082 146.361H187.681V156.361H206.082V146.361ZM192.261 149.356C191.614 147.878 191.001 145.652 190.527 142.515L180.639 144.008C181.182 147.604 181.968 150.778 183.101 153.366L192.261 149.356ZM190.529 142.528C190.05 139.297 189.821 136.369 189.821 133.733H179.821C179.821 136.94 180.099 140.365 180.637 143.994L190.529 142.528ZM182.872 88.9294L183.063 101.317L193.062 101.163L192.871 88.7755L182.872 88.9294ZM188.062 96.2398H170.233V106.24H188.062V96.2398ZM170.233 96.2398C164.947 96.2398 160.112 96.6735 155.764 97.5848L157.815 107.372C161.348 106.632 165.475 106.24 170.233 106.24V96.2398ZM155.84 97.5695C151.489 98.411 147.604 99.7516 144.317 101.707L149.43 110.301C151.482 109.08 154.207 108.071 157.739 107.387L155.84 97.5695ZM144.317 101.707C140.999 103.681 138.318 106.268 136.445 109.501L145.098 114.513C146.021 112.919 147.408 111.504 149.43 110.301L144.317 101.707ZM136.474 109.451C134.546 112.692 133.674 116.368 133.674 120.297H143.674C143.674 117.874 144.2 116.023 145.068 114.564L136.474 109.451ZM133.674 120.297C133.674 124.32 134.59 128.109 136.482 131.562L145.251 126.756C144.219 124.872 143.674 122.753 143.674 120.297H133.674ZM136.482 131.562C138.448 135.15 141.374 137.935 145.059 139.937L149.832 131.149C147.669 129.975 146.209 128.504 145.251 126.756L136.482 131.562ZM145.173 139.997C149.037 141.969 153.519 142.83 158.41 142.83V132.83C154.657 132.83 151.828 132.166 149.718 131.089L145.173 139.997ZM158.41 142.83C164.536 142.83 170.159 141.527 175.133 138.774L170.29 130.025C167.001 131.846 163.089 132.83 158.41 132.83V142.83ZM175.133 138.774C179.802 136.19 183.663 132.939 186.568 128.966L178.496 123.063C176.57 125.697 173.884 128.036 170.29 130.025L175.133 138.774ZM186.531 129.016C189.411 125.179 191.26 121.055 191.527 116.696L181.546 116.085C181.432 117.951 180.612 120.243 178.533 123.013L186.531 129.016ZM182.798 119.711L190.331 128.191L197.807 121.551L190.275 113.07L182.798 119.711ZM189.137 124.048C188.83 125.89 187.937 128.236 186.174 131.134L194.718 136.331C196.896 132.749 198.418 129.188 199.001 125.693L189.137 124.048ZM186.174 131.134C184.494 133.896 182.188 136.644 179.181 139.36L185.884 146.781C189.487 143.526 192.457 140.049 194.718 136.331L186.174 131.134ZM179.185 139.357C176.39 141.876 172.983 144.044 168.9 145.825L172.9 154.991C177.844 152.833 182.191 150.11 185.88 146.785L179.185 139.357ZM168.932 145.812C165.194 147.413 160.857 148.266 155.836 148.266V158.266C162.002 158.266 167.708 157.214 172.869 155.004L168.932 145.812ZM155.836 148.266C149.502 148.266 144.183 147.033 139.733 144.729L135.135 153.609C141.237 156.769 148.185 158.266 155.836 158.266V148.266ZM139.755 144.74C135.247 142.378 131.859 139.297 129.443 135.518L121.017 140.904C124.449 146.272 129.197 150.497 135.113 153.598L139.755 144.74ZM129.486 135.586C127.136 131.778 125.939 127.517 125.939 122.679H115.939C115.939 129.276 117.603 135.37 120.974 140.836L129.486 135.586ZM125.939 122.679C125.939 117.813 126.887 113.763 128.625 110.391L119.737 105.81C117.153 110.823 115.939 116.492 115.939 122.679H125.939ZM128.639 110.364C130.409 106.879 132.953 103.983 136.356 101.645L130.693 93.4026C125.961 96.6543 122.276 100.809 119.723 105.837L128.639 110.364ZM136.4 101.615C139.889 99.1628 144.204 97.2272 149.445 95.8885L146.971 86.1996C140.771 87.7831 135.297 90.1671 130.65 93.4326L136.4 101.615ZM149.445 95.8885C154.692 94.5485 160.656 93.8525 167.372 93.8525V83.8525C159.978 83.8525 153.165 84.6175 146.971 86.1996L149.445 95.8885ZM167.372 93.8525H187.872V83.8525H167.372V93.8525ZM300.23 131.35V5H290.23V131.35H300.23ZM295.23 10H312.964V0H295.23V10ZM307.964 5V151.361H317.964V5H307.964ZM312.964 146.361H296.755V156.361H312.964V146.361ZM301.741 150.981L300.215 130.97L290.244 131.73L291.77 151.741L301.741 150.981ZM230.819 100.954V98.9529H220.819V100.954H230.819ZM230.819 98.9529C230.819 91.4753 231.724 84.8182 233.472 78.9378L223.886 76.0889C221.82 83.0404 220.819 90.6763 220.819 98.9529H230.819ZM233.463 78.9681C235.286 72.9736 237.8 67.9743 240.94 63.8826L233.008 57.7936C229.03 62.9765 226.013 69.094 223.896 76.0586L233.463 78.9681ZM240.914 63.9164C244.109 59.8279 247.828 56.7635 252.081 54.6387L247.611 45.6933C241.947 48.5234 237.086 52.5737 233.034 57.7598L240.914 63.9164ZM252.103 54.6273C256.36 52.4734 261.169 51.3545 266.626 51.3545V41.3545C259.753 41.3545 253.375 42.7766 247.588 45.7046L252.103 54.6273ZM266.626 51.3545C272.525 51.3545 277.424 52.3939 281.459 54.304L285.737 45.2656C280.111 42.602 273.695 41.3545 266.626 41.3545V51.3545ZM281.53 54.3371C285.675 56.2201 289.168 58.9786 292.05 62.6743L299.935 56.5245C296.08 51.5808 291.31 47.7963 285.666 45.2325L281.53 54.3371ZM292.101 62.7382C295.096 66.4525 297.532 71.0384 299.344 76.5878L308.85 73.4839C306.721 66.9637 303.754 61.2585 299.885 56.4606L292.101 62.7382ZM299.344 76.5878C301.183 82.2186 302.488 88.6848 303.222 96.0204L313.172 95.0247C312.381 87.1143 310.952 79.9228 308.85 73.4839L299.344 76.5878ZM303.197 95.5225V104.289H313.197V95.5225H303.197ZM303.218 103.828C302.548 111.072 301.248 117.479 299.359 123.083L308.835 126.277C311.014 119.812 312.447 112.624 313.176 104.749L303.218 103.828ZM299.344 123.128C297.532 128.678 295.096 133.264 292.101 136.978L299.885 143.256C303.754 138.458 306.721 132.753 308.85 126.232L299.344 123.128ZM292.072 137.014C289.183 140.664 285.668 143.445 281.481 145.401L285.714 154.461C291.316 151.844 296.064 148.082 299.913 143.22L292.072 137.014ZM281.53 145.379C277.411 147.25 272.422 148.266 266.436 148.266V158.266C273.544 158.266 279.996 157.059 285.666 154.484L281.53 145.379ZM266.436 148.266C261.143 148.266 256.41 147.132 252.148 144.921L247.544 153.798C253.324 156.796 259.652 158.266 266.436 158.266V148.266ZM252.171 144.933C247.888 142.683 244.145 139.514 240.934 135.349L233.014 141.454C237.05 146.69 241.887 150.827 247.52 153.786L252.171 144.933ZM240.96 135.383C237.793 131.2 235.275 126.209 233.455 120.34L223.904 123.303C226.024 130.14 229.036 136.201 232.988 141.42L240.96 135.383ZM233.472 120.397C231.718 114.495 230.819 108.024 230.819 100.954H220.819C220.819 108.875 221.827 116.316 223.886 123.246L233.472 120.397ZM238.553 98.9529V100.954H248.553V98.9529H238.553ZM238.553 100.954C238.553 106.428 239.094 111.628 240.201 116.537L249.956 114.338C249.029 110.226 248.553 105.77 248.553 100.954H238.553ZM240.216 116.602C241.412 121.592 243.269 126.102 245.841 130.069L254.231 124.628C252.355 121.734 250.907 118.303 249.941 114.273L240.216 116.602ZM245.841 130.069C248.484 134.143 251.889 137.407 256.034 139.785L261.01 131.111C258.291 129.55 256.039 127.414 254.231 124.628L245.841 130.069ZM256.095 139.819C260.414 142.217 265.386 143.306 270.822 143.306V133.306C266.723 133.306 263.496 132.49 260.949 131.076L256.095 139.819ZM270.822 143.306C277.358 143.306 283.194 141.921 287.975 138.762L282.463 130.418C279.743 132.215 275.981 133.306 270.822 133.306V143.306ZM287.943 138.783C292.451 135.854 296.055 131.978 298.729 127.228L290.015 122.323C288.112 125.704 285.614 128.371 282.495 130.397L287.943 138.783ZM298.729 127.228C301.235 122.776 303.169 117.967 304.542 112.82L294.88 110.242C293.711 114.623 292.085 118.644 290.015 122.323L298.729 127.228ZM304.711 111.531V88.5666H294.711V111.531H304.711ZM304.596 87.5001C303.759 83.6678 302.538 79.969 300.932 76.4096L291.817 80.5228C293.134 83.4428 294.137 86.4776 294.826 89.6331L304.596 87.5001ZM300.979 76.517C299.374 72.7272 297.238 69.3277 294.56 66.3538L287.129 73.0457C289.027 75.1539 290.577 77.5986 291.77 80.4154L300.979 76.517ZM294.646 66.4523C291.923 63.2646 288.563 60.7737 284.643 58.9659L280.455 68.0464C283.146 69.2878 285.316 70.926 287.042 72.9472L294.646 66.4523ZM284.677 58.9816C280.629 57.0776 276.024 56.2193 271.012 56.2193V66.2193C274.9 66.2193 277.986 66.8855 280.421 68.0307L284.677 58.9816ZM271.012 56.2193C265.471 56.2193 260.404 57.3902 256.009 59.946L261.035 68.5908C263.632 67.0811 266.892 66.2193 271.012 66.2193V56.2193ZM256.034 59.9315C251.867 62.3222 248.457 65.6344 245.819 69.7776L254.254 75.1487C256.065 72.3041 258.313 70.1532 261.01 68.6054L256.034 59.9315ZM245.841 69.7425C243.262 73.7201 241.406 78.2697 240.212 83.3196L249.945 85.6189C250.913 81.5213 252.362 78.0667 254.231 75.1838L245.841 69.7425ZM240.201 83.3694C239.094 88.2785 238.553 93.4783 238.553 98.9529H248.553C248.553 94.1364 249.029 89.6805 249.956 85.5691L240.201 83.3694ZM381.708 143.783C386.607 143.783 391.232 142.776 395.51 140.714L391.169 131.706C388.328 133.075 385.199 133.783 381.708 133.783V143.783ZM395.51 140.714C399.739 138.677 403.291 135.839 406.08 132.2L398.143 126.117C396.355 128.45 394.06 130.313 391.169 131.706L395.51 140.714ZM406.111 132.16C408.977 128.341 410.611 123.976 411.004 119.181L401.038 118.364C400.795 121.319 399.823 123.878 398.113 126.158L406.111 132.16ZM406.021 123.773H422.801V113.773H406.021V123.773ZM417.808 118.512C417.544 123.584 415.841 128.353 412.553 132.898L420.655 138.759C424.995 132.76 427.423 126.157 427.795 119.033L417.808 118.512ZM412.546 132.907C409.278 137.446 404.958 141.178 399.481 144.086L404.17 152.918C410.898 149.346 416.429 144.629 420.662 138.75L412.546 132.907ZM399.517 144.067C394.172 146.849 388.266 148.266 381.708 148.266V158.266C389.77 158.266 397.275 156.508 404.134 152.937L399.517 144.067ZM381.708 148.266C374.537 148.266 368.525 147.004 363.534 144.648L359.264 153.69C365.843 156.797 373.369 158.266 381.708 158.266V148.266ZM363.554 144.657C358.486 142.237 354.325 138.954 351.001 134.801L343.194 141.05C347.497 146.426 352.871 150.638 359.245 153.681L363.554 144.657ZM351.026 134.833C347.679 130.58 345.126 125.672 343.388 120.058L333.835 123.014C335.912 129.724 339.016 135.742 343.169 141.018L351.026 134.833ZM343.406 120.116C341.708 114.381 340.847 108.287 340.847 101.811H330.847C330.847 109.184 331.829 116.24 333.818 122.955L343.406 120.116ZM340.847 101.811V97.8094H330.847V101.811H340.847ZM340.847 97.8094C340.847 91.3335 341.708 85.2761 343.402 79.6133L333.822 76.7473C331.829 83.4084 330.847 90.437 330.847 97.8094H340.847ZM343.393 79.6447C345.132 73.9661 347.686 69.0323 351.026 64.7883L343.169 58.6031C339.009 63.8877 335.906 69.9438 333.831 76.7159L343.393 79.6447ZM351.001 64.8203C354.325 60.6674 358.486 57.3836 363.554 54.9639L359.245 45.9398C352.871 48.9832 347.497 53.1953 343.194 58.5711L351.001 64.8203ZM363.534 54.9731C368.525 52.6165 374.537 51.3545 381.708 51.3545V41.3545C373.369 41.3545 365.843 42.824 359.264 45.9306L363.534 54.9731ZM381.708 51.3545C389.087 51.3545 395.29 52.8597 400.475 55.696L405.274 46.9229C398.382 43.1526 390.474 41.3545 381.708 41.3545V51.3545ZM400.511 55.7154C405.792 58.5488 409.855 62.3825 412.807 67.2444L421.355 62.0548C417.442 55.6093 412.034 50.5496 405.238 46.9035L400.511 55.7154ZM412.842 67.3007C415.844 72.1021 417.524 77.6052 417.806 83.9301L427.797 83.4838C427.443 75.5792 425.309 68.3774 421.32 61.9984L412.842 67.3007ZM422.801 78.707H406.021V88.707H422.801V78.707ZM411.007 83.3346C410.634 78.3365 409.201 73.7183 406.663 69.5688L398.132 74.7857C399.79 77.4969 400.772 80.5651 401.035 84.0793L411.007 83.3346ZM406.698 69.6271C404.21 65.4305 400.776 62.0904 396.487 59.6407L391.528 68.3244C394.357 69.9403 396.517 72.0633 398.097 74.7274L406.698 69.6271ZM396.579 59.6944C392.193 57.0645 387.176 55.8381 381.708 55.8381V65.8381C385.647 65.8381 388.83 66.7081 391.436 68.2707L396.579 59.6944ZM381.708 55.8381C375.648 55.8381 370.177 57.0506 365.546 59.7637L370.601 68.392C373.343 66.7855 376.962 65.8381 381.708 65.8381V55.8381ZM365.569 59.7501C361.204 62.2761 357.698 65.7447 355.104 70.0911L363.691 75.2162C365.419 72.3208 367.697 70.0722 370.578 68.4057L365.569 59.7501ZM355.09 70.1141C352.7 74.1676 350.992 78.6433 349.935 83.5018L359.706 85.6273C360.556 81.7194 361.899 78.2545 363.704 75.1933L355.09 70.1141ZM349.923 83.5557C348.964 88.2148 348.486 92.968 348.486 97.8094H358.486C358.486 93.6304 358.898 89.5537 359.718 85.5734L349.923 83.5557ZM348.486 97.8094V101.811H358.486V97.8094H348.486ZM348.486 101.811C348.486 106.653 348.964 111.433 349.92 116.146L359.721 114.157C358.898 110.104 358.486 105.99 358.486 101.811H348.486ZM349.92 116.146C350.912 121.029 352.593 125.528 354.995 129.602L363.609 124.523C361.816 121.482 360.509 118.041 359.721 114.157L349.92 116.146ZM355.029 129.659C357.619 133.923 361.103 137.361 365.418 139.933L370.538 131.344C367.607 129.596 365.306 127.317 363.575 124.466L355.029 129.659ZM365.507 139.985C370.134 142.616 375.619 143.783 381.708 143.783V133.783C376.863 133.783 373.196 132.853 370.45 131.292L365.507 139.985ZM456.798 5V151.361H466.798V5H456.798ZM461.798 146.361H444.063V156.361H461.798V146.361ZM449.063 151.361V5H439.063V151.361H449.063ZM444.063 10H461.798V0H444.063V10ZM558.233 127.539V48.2602H548.233V127.539H558.233ZM553.233 53.2602H570.967V43.2602H553.233V53.2602ZM565.967 48.2602V151.361H575.967V48.2602H565.967ZM570.967 146.361H554.091V156.361H570.967V146.361ZM559.088 151.181L558.23 127.359L548.237 127.719L549.095 151.541L559.088 151.181ZM556.7 110.812L564.042 110.621L563.782 100.625L556.441 100.815L556.7 110.812ZM558.912 105.623C558.912 112.13 558.219 118.07 556.869 123.467L566.57 125.894C568.143 119.602 568.912 112.837 568.912 105.623H558.912ZM556.859 123.505C555.601 128.707 553.576 133.091 550.848 136.744L558.86 142.727C562.489 137.868 565.041 132.215 566.579 125.856L556.859 123.505ZM550.848 136.744C548.196 140.295 544.699 143.124 540.241 145.214L544.487 154.268C550.326 151.53 555.156 147.689 558.86 142.727L550.848 136.744ZM540.288 145.192C535.956 147.17 530.446 148.266 523.581 148.266V158.266C531.463 158.266 538.474 157.013 544.44 154.289L540.288 145.192ZM523.581 148.266C519.047 148.266 515.003 147.608 511.401 146.353L508.112 155.797C512.9 157.464 518.072 158.266 523.581 158.266V148.266ZM511.423 146.361C507.991 145.147 505.088 143.3 502.649 140.81L495.506 147.809C499.042 151.417 503.258 154.08 508.089 155.789L511.423 146.361ZM502.649 140.81C500.287 138.399 498.316 135.124 496.854 130.798L487.38 133.999C489.224 139.456 491.893 144.121 495.506 147.809L502.649 140.81ZM496.873 130.854C495.489 126.596 494.734 121.27 494.734 114.77H484.734C484.734 121.992 485.567 128.418 487.362 133.943L496.873 130.854ZM494.734 114.77V48.2602H484.734V114.77H494.734ZM489.734 53.2602H507.372V43.2602H489.734V53.2602ZM502.372 48.2602V114.961H512.372V48.2602H502.372ZM502.372 114.961C502.372 119.919 502.911 124.342 504.155 128.073L513.641 124.909C512.851 122.541 512.372 119.277 512.372 114.961H502.372ZM504.196 128.192C505.463 131.693 507.238 134.759 509.654 137.174L516.723 130.101C515.579 128.958 514.494 127.26 513.599 124.789L504.196 128.192ZM509.782 137.298C512.127 139.479 514.801 141.089 517.792 142.028L520.789 132.488C519.33 132.03 517.937 131.226 516.594 129.977L509.782 137.298ZM517.83 142.04C520.596 142.885 523.441 143.306 526.346 143.306V133.306C524.421 133.306 522.561 133.029 520.751 132.476L517.83 142.04ZM526.346 143.306C534.416 143.306 541.428 141.778 546.906 138.207L541.445 129.83C538.152 131.976 533.277 133.306 526.346 133.306V143.306ZM546.948 138.179C552.185 134.69 555.992 129.966 558.273 124.114L548.956 120.482C547.424 124.413 544.938 127.502 541.403 129.857L546.948 138.179ZM558.261 124.146C560.494 118.531 561.57 112.398 561.57 105.814H551.57C551.57 111.298 550.677 116.156 548.969 120.451L558.261 124.146ZM610.494 68.0799V191H620.494V68.0799H610.494ZM615.494 186H597.759V196H615.494V186ZM602.759 191V48.2602H592.759V191H602.759ZM597.759 53.2602H613.968V43.2602H597.759V53.2602ZM608.983 48.644L610.508 68.4636L620.479 67.6962L618.953 47.8765L608.983 48.644ZM680 98.9529V100.954H690V98.9529H680ZM680 100.954C680 108.054 679.157 114.555 677.512 120.485L687.148 123.158C689.063 116.256 690 108.846 690 100.954H680ZM677.516 120.473C675.876 126.326 673.51 131.295 670.474 135.453L678.55 141.35C682.379 136.107 685.225 130.022 687.145 123.171L677.516 120.473ZM670.448 135.489C667.518 139.578 663.942 142.703 659.697 144.933L664.347 153.786C670.018 150.807 674.769 146.627 678.576 141.314L670.448 135.489ZM659.697 144.933C655.555 147.109 650.684 148.266 644.955 148.266V158.266C652.066 158.266 658.573 156.819 664.347 153.786L659.697 144.933ZM644.955 148.266C638.956 148.266 633.865 147.277 629.578 145.433L625.627 154.62C631.383 157.096 637.861 158.266 644.955 158.266V148.266ZM629.578 145.433C625.259 143.576 621.633 140.895 618.642 137.362L611.01 143.824C615.011 148.55 619.902 152.158 625.627 154.62L629.578 145.433ZM618.642 137.362C615.577 133.743 613.059 129.322 611.136 124.023L601.736 127.434C604.008 133.696 607.083 139.186 611.01 143.824L618.642 137.362ZM611.152 124.069C609.269 118.717 607.942 112.596 607.213 105.671L597.268 106.718C598.064 114.277 599.534 121.179 601.719 127.388L611.152 124.069ZM607.241 106.195V95.5225H597.241V106.195H607.241ZM607.216 96.0204C607.947 88.7127 609.307 82.2776 611.254 76.6774L601.808 73.3943C599.56 79.8638 598.06 87.0865 597.265 95.0247L607.216 96.0204ZM611.254 76.6774C613.194 71.0961 615.702 66.4784 618.718 62.7382L610.934 56.4606C607.086 61.2327 604.063 66.906 601.808 73.3943L611.254 76.6774ZM618.713 62.7449C621.727 59.021 625.328 56.2418 629.553 54.3471L625.461 45.2226C619.77 47.7746 614.918 51.5384 610.94 56.4539L618.713 62.7449ZM629.601 54.3251C633.791 52.3926 638.775 51.3545 644.669 51.3545V41.3545C637.596 41.3545 631.139 42.6033 625.413 45.2446L629.601 54.3251ZM644.669 51.3545C650.488 51.3545 655.447 52.4908 659.669 54.6273L664.184 45.7046C658.363 42.7592 651.817 41.3545 644.669 41.3545V51.3545ZM659.714 54.6499C664 56.7643 667.615 59.7951 670.589 63.8128L678.626 57.8634C674.735 52.6066 669.896 48.5225 664.139 45.682L659.714 54.6499ZM670.589 63.8128C673.589 67.8666 675.917 72.8277 677.497 78.7935L687.164 76.2331C685.311 69.2399 682.491 63.0842 678.626 57.8634L670.589 63.8128ZM677.512 78.8498C679.152 84.7597 680 91.4475 680 98.9529H690C690 90.7042 689.069 83.0989 687.148 76.1768L677.512 78.8498ZM672.266 100.954V98.9529H662.266V100.954H672.266ZM672.266 98.9529C672.266 93.4572 671.689 88.2351 670.507 83.3043L660.783 85.6342C661.762 89.7239 662.266 94.1575 662.266 98.9529H672.266ZM670.511 83.3196C669.313 78.2465 667.413 73.6781 664.751 69.6884L656.432 75.2378C658.347 78.1087 659.816 81.5445 660.779 85.6189L670.511 83.3196ZM664.809 69.7776C662.158 65.6135 658.701 62.2981 654.465 59.912L649.557 68.6248C652.313 70.1773 654.576 72.325 656.374 75.1487L664.809 69.7776ZM654.524 59.946C650.128 57.3902 645.062 56.2193 639.521 56.2193V66.2193C643.641 66.2193 646.901 67.0811 649.497 68.5908L654.524 59.946ZM639.521 56.2193C634.505 56.2193 629.885 57.0788 625.794 58.9659L629.983 68.0464C632.502 66.8844 635.637 66.2193 639.521 66.2193V56.2193ZM625.761 58.9816C621.919 60.7883 618.594 63.2623 615.837 66.3997L623.35 72.9999C625.17 70.9283 627.374 69.2732 630.016 68.0307L625.761 58.9816ZM615.878 66.3538C613.216 69.3092 611.06 72.6835 609.396 76.4426L618.54 80.4897C619.8 77.6424 621.394 75.1723 623.309 73.0457L615.878 66.3538ZM609.377 76.4847C607.839 80.0492 606.686 83.7515 605.919 87.5854L615.724 89.5478C616.356 86.394 617.3 83.3627 618.559 80.4477L609.377 76.4847ZM605.822 88.5666V113.246H615.822V88.5666H605.822ZM606.014 114.62C607.397 119.459 609.338 124.034 611.838 128.336L620.484 123.312C618.407 119.737 616.788 115.927 615.629 111.872L606.014 114.62ZM611.856 128.366C614.548 132.925 618.159 136.646 622.64 139.482L627.988 131.032C624.842 129.041 622.351 126.472 620.466 123.281L611.856 128.366ZM622.691 139.514C627.492 142.473 633.266 143.783 639.711 143.783V133.783C634.588 133.783 630.764 132.742 627.937 131.001L622.691 139.514ZM639.711 143.783C645.173 143.783 650.168 142.651 654.499 140.166L649.522 131.492C646.988 132.946 643.784 133.783 639.711 133.783V143.783ZM654.524 140.151C658.728 137.707 662.166 134.375 664.809 130.224L656.374 124.853C654.568 127.69 652.285 129.885 649.497 131.506L654.524 140.151ZM664.774 130.278C667.411 126.253 669.307 121.707 670.507 116.698L660.783 114.368C659.821 118.38 658.349 121.838 656.409 124.799L664.774 130.278ZM670.511 116.682C671.689 111.698 672.266 106.45 672.266 100.954H662.266C662.266 105.749 661.763 110.22 660.779 114.383L670.511 116.682Z" fill="white" mask="url(#path-1-outside-1_3_3)"/>
</svg>
