<svg width="190" height="73" viewBox="0 0 190 73" fill="none" xmlns="http://www.w3.org/2000/svg">
<path d="M5.9734 66.2646L6.52337 9.04981L6.53346 8L27.914 8.20552L42.1273 12.5418L46.9906 19.9379L49.0322 35.7062L46.7131 48.8078L41.6934 57.6837L33.9578 63.9088L24.0646 66.4385L5.9734 66.2646Z" fill="#3399FF"/>
<path d="M22 71H0.454544V1.18182H22.9545C29.7273 1.18182 35.5227 2.57954 40.3409 5.375C45.1591 8.14772 48.8523 12.1364 51.4205 17.3409C53.9886 22.5227 55.2727 28.7273 55.2727 35.9545C55.2727 43.2273 53.9773 49.4886 51.3864 54.7386C48.7955 59.9659 45.0227 63.9886 40.0682 66.8068C35.1136 69.6023 29.0909 71 22 71ZM8.90909 63.5H21.4545C27.2273 63.5 32.0114 62.3864 35.8068 60.1591C39.6023 57.9318 42.4318 54.7614 44.2955 50.6477C46.1591 46.5341 47.0909 41.6364 47.0909 35.9545C47.0909 30.3182 46.1705 25.4659 44.3295 21.3977C42.4886 17.3068 39.7386 14.1705 36.0795 11.9886C32.4205 9.78409 27.8636 8.68182 22.4091 8.68182H8.90909V63.5Z" fill="#3399FF"/>
<path d="M124.818 1.18182V71H116.636L78.5909 16.1818H77.9091V71H69.4545V1.18182H77.6364L115.818 56.1364H116.5V1.18182H124.818Z" fill="#3399FF"/>
<path d="M179.918 18.6364C179.509 15.1818 177.849 12.5 174.94 10.5909C172.031 8.68182 168.463 7.72727 164.236 7.72727C161.145 7.72727 158.44 8.22727 156.122 9.22727C153.827 10.2273 152.031 11.6023 150.736 13.3523C149.463 15.1023 148.827 17.0909 148.827 19.3182C148.827 21.1818 149.27 22.7841 150.156 24.125C151.065 25.4432 152.224 26.5455 153.634 27.4318C155.043 28.2955 156.52 29.0114 158.065 29.5795C159.611 30.125 161.031 30.5682 162.327 30.9091L169.418 32.8182C171.236 33.2955 173.259 33.9545 175.486 34.7955C177.736 35.6364 179.884 36.7841 181.929 38.2386C183.997 39.6705 185.702 41.5114 187.043 43.7614C188.384 46.0114 189.054 48.7727 189.054 52.0455C189.054 55.8182 188.065 59.2273 186.088 62.2727C184.134 65.3182 181.27 67.7386 177.497 69.5341C173.747 71.3295 169.19 72.2273 163.827 72.2273C158.827 72.2273 154.497 71.4205 150.838 69.8068C147.202 68.1932 144.338 65.9432 142.247 63.0568C140.179 60.1705 139.009 56.8182 138.736 53H147.463C147.69 55.6364 148.577 57.8182 150.122 59.5455C151.69 61.25 153.668 62.5227 156.054 63.3636C158.463 64.1818 161.054 64.5909 163.827 64.5909C167.054 64.5909 169.952 64.0682 172.52 63.0227C175.088 61.9545 177.122 60.4773 178.622 58.5909C180.122 56.6818 180.872 54.4545 180.872 51.9091C180.872 49.5909 180.224 47.7045 178.929 46.25C177.634 44.7955 175.929 43.6136 173.815 42.7045C171.702 41.7955 169.418 41 166.963 40.3182L158.372 37.8636C152.918 36.2955 148.599 34.0568 145.418 31.1477C142.236 28.2386 140.645 24.4318 140.645 19.7273C140.645 15.8182 141.702 12.4091 143.815 9.5C145.952 6.56818 148.815 4.29545 152.406 2.68182C156.02 1.04545 160.054 0.22727 164.509 0.22727C169.009 0.22727 173.009 1.03409 176.509 2.64772C180.009 4.23863 182.781 6.42045 184.827 9.19318C186.895 11.9659 187.986 15.1136 188.099 18.6364H179.918Z" fill="#3399FF"/>
</svg>
