<svg width="218" height="69" viewBox="0 0 218 69" fill="current" xmlns="http://www.w3.org/2000/svg">
<path d="M0.8 0.799995L0.805731 -1.2L-1.2 -1.20574V0.799995H0.8ZM0.8 68H-1.2V70H0.8V68ZM58.016 58.112L56.6018 56.6978L56.5962 56.7034L56.5907 56.709L58.016 58.112ZM59.936 56.096L61.4545 57.3976L61.458 57.3935L59.936 56.096ZM34.304 0.895994L34.2983 2.89599H34.304V0.895994ZM12.704 12.896V10.896H10.704V12.896H12.704ZM12.704 56.096H10.704V58.096H12.704V56.096ZM-1.2 0.799995V68H2.8V0.799995H-1.2ZM0.8 70H34.4V66H0.8V70ZM34.4 70C44.1704 70 53.0305 66.0276 59.4413 59.515L56.5907 56.709C50.9055 62.4844 43.0616 66 34.4 66V70ZM59.4302 59.5262C60.0903 58.8662 60.8193 58.1386 61.4545 57.3976L58.4175 54.7944C57.9007 55.3974 57.2858 56.0138 56.6018 56.6978L59.4302 59.5262ZM61.458 57.3935C66.7498 51.1859 69.904 43.1449 69.904 34.4H65.904C65.904 42.1671 63.1062 49.2941 58.414 54.7985L61.458 57.3935ZM69.904 34.4C69.904 14.76 53.9291 -1.10401 34.304 -1.10401V2.89599C51.7349 2.89599 65.904 16.984 65.904 34.4H69.904ZM34.3097 -1.104L0.805731 -1.2L0.79427 2.79999L34.2983 2.89599L34.3097 -1.104ZM12.704 14.896H34.304V10.896H12.704V14.896ZM34.304 14.896C45.1034 14.896 53.904 23.6966 53.904 34.496H57.904C57.904 21.4874 47.3126 10.896 34.304 10.896V14.896ZM53.904 34.496C53.904 45.2954 45.1034 54.096 34.304 54.096V58.096C47.3126 58.096 57.904 47.5046 57.904 34.496H53.904ZM34.304 54.096H12.704V58.096H34.304V54.096ZM14.704 56.096V12.896H10.704V56.096H14.704ZM132.781 0.799995L132.797 -1.19994L130.781 -1.21607V0.799995H132.781ZM132.781 43.616L131.56 45.1998L134.781 47.6838V43.616H132.781ZM89.5813 10.304L90.8025 8.72019L90.7994 8.71781L89.5813 10.304ZM77.5813 1.088L78.7994 -0.498193L75.5813 -2.96977V1.088H77.5813ZM77.5813 68.096H75.5813V70.096H77.5813V68.096ZM89.5813 68.096V70.096H91.5813V68.096H89.5813ZM89.5813 25.568L90.8025 23.9842L87.5813 21.5002V25.568H89.5813ZM132.781 58.88L131.56 60.4638L131.563 60.4662L132.781 58.88ZM144.781 68.096L143.563 69.6822L146.781 72.1538V68.096H144.781ZM144.781 0.895994H146.781V-1.08807L144.797 -1.10394L144.781 0.895994ZM130.781 0.799995V43.616H134.781V0.799995H130.781ZM134.003 42.0322L90.8025 8.72019L88.36 11.8878L131.56 45.1998L134.003 42.0322ZM90.7994 8.71781L78.7994 -0.498193L76.3631 2.67419L88.3631 11.8902L90.7994 8.71781ZM75.5813 1.088V68.096H79.5813V1.088H75.5813ZM77.5813 70.096H89.5813V66.096H77.5813V70.096ZM91.5813 68.096V25.568H87.5813V68.096H91.5813ZM88.36 27.1518L131.56 60.4638L134.003 57.2962L90.8025 23.9842L88.36 27.1518ZM131.563 60.4662L143.563 69.6822L145.999 66.5098L133.999 57.2938L131.563 60.4662ZM146.781 68.096V0.895994H142.781V68.096H146.781ZM144.797 -1.10394L132.797 -1.19994L132.765 2.79993L144.765 2.89593L144.797 -1.10394ZM217.915 19.328L217.931 21.3279L219.915 21.3121V19.328H217.915ZM157.627 29.6L159.314 28.5262L159.29 28.4891L159.265 28.4531L157.627 29.6ZM159.931 32.48L158.516 33.8942L158.527 33.9048L158.538 33.9152L159.931 32.48ZM166.459 46.784H168.459V44.784H166.459V46.784ZM154.459 46.784V44.784H152.459V46.784H154.459ZM213.115 33.344L214.664 32.0797L214.6 32.0013L214.529 31.9298L213.115 33.344ZM212.347 32.48L210.867 33.8253L210.899 33.8606L210.932 33.8942L212.347 32.48ZM205.915 19.424H203.915V21.4401L205.931 21.4239L205.915 19.424ZM219.915 19.328V18.944H215.915V19.328H219.915ZM219.915 18.944C219.915 7.85543 210.859 -1.2 199.771 -1.2V2.8C208.65 2.8 215.915 10.0646 215.915 18.944H219.915ZM199.771 -1.2H172.507V2.8H199.771V-1.2ZM172.507 -1.2C161.404 -1.2 152.459 7.86927 152.459 18.944H156.459C156.459 10.0507 163.641 2.8 172.507 2.8V-1.2ZM152.459 18.944V19.328H156.459V18.944H152.459ZM152.459 19.328C152.459 23.5714 153.733 27.5251 155.988 30.7469L159.265 28.4531C157.488 25.9149 156.459 22.7646 156.459 19.328H152.459ZM155.939 30.6738C156.688 31.8498 157.547 32.9245 158.516 33.8942L161.345 31.0658C160.586 30.3075 159.909 29.4621 159.314 28.5262L155.939 30.6738ZM158.538 33.9152C162.162 37.4334 167.073 39.568 172.507 39.568V35.568C168.148 35.568 164.227 33.8626 161.323 31.0448L158.538 33.9152ZM172.507 39.568H196.699V35.568H172.507V39.568ZM196.699 39.568C200.709 39.568 204.01 42.8274 204.01 46.784H208.01C208.01 40.5646 202.864 35.568 196.699 35.568V39.568ZM204.01 46.784C204.01 50.7406 200.709 54 196.699 54V58C202.864 58 208.01 53.0034 208.01 46.784H204.01ZM196.699 54H175.675V58H196.699V54ZM175.675 54C171.691 54 168.459 50.7674 168.459 46.784H164.459C164.459 52.9766 169.482 58 175.675 58V54ZM166.459 44.784H154.459V48.784H166.459V44.784ZM152.459 46.784C152.459 59.6006 162.858 70 175.675 70V66C165.067 66 156.459 57.3914 156.459 46.784H152.459ZM175.675 70H196.699V66H175.675V70ZM196.699 70C209.515 70 219.915 59.6006 219.915 46.784H215.915C215.915 57.3914 207.306 66 196.699 66V70ZM219.915 46.784C219.915 41.2132 217.917 36.0672 214.664 32.0797L211.565 34.6082C214.264 37.9168 215.915 42.1788 215.915 46.784H219.915ZM214.529 31.9298C214.458 31.8592 214.393 31.7829 214.267 31.6316C214.153 31.4949 213.978 31.2832 213.761 31.0658L210.932 33.8942C211.003 33.9648 211.068 34.0411 211.194 34.1924C211.308 34.3291 211.483 34.5408 211.7 34.7582L214.529 31.9298ZM213.826 31.1347C209.624 26.5121 203.526 23.568 196.699 23.568V27.568C202.351 27.568 207.389 29.9999 210.867 33.8253L213.826 31.1347ZM196.699 23.568H172.507V27.568H196.699V23.568ZM172.507 23.568C170.251 23.568 168.363 21.6794 168.363 19.424H164.363C164.363 23.8886 168.042 27.568 172.507 27.568V23.568ZM168.363 19.424V19.04H164.363V19.424H168.363ZM168.363 19.04C168.363 16.7846 170.251 14.896 172.507 14.896V10.896C168.042 10.896 164.363 14.5754 164.363 19.04H168.363ZM172.507 14.896H199.771V10.896H172.507V14.896ZM199.771 14.896C202.026 14.896 203.915 16.7846 203.915 19.04H207.915C207.915 14.5754 204.235 10.896 199.771 10.896V14.896ZM203.915 19.04V19.424H207.915V19.04H203.915ZM205.931 21.4239L217.931 21.3279L217.899 17.3281L205.899 17.4241L205.931 21.4239Z" fill="current"/>
</svg>
