<svg width="166" height="71" viewBox="0 0 166 71" fill="none" xmlns="http://www.w3.org/2000/svg">
<path d="M0.16 1.8L0.00403948 0.812232L-0.84 0.9455V1.8H0.16ZM4.192 1.41599L4.23544 2.41505L4.25527 2.41419L4.27504 2.41254L4.192 1.41599ZM8.896 1.224V2.224H8.91522L8.93443 2.22326L8.896 1.224ZM13.696 1.128V2.128H13.716L13.736 2.1272L13.696 1.128ZM32.032 3.528L31.6399 4.44794L31.6453 4.45019L32.032 3.528ZM41.824 10.536L41.0624 11.1842L41.0694 11.1922L41.824 10.536ZM47.488 21.192L46.5281 21.4726L46.5322 21.4861L47.488 21.192ZM47.584 48.072L46.623 47.7953L46.6203 47.8051L47.584 48.072ZM42.016 59.208L42.7969 59.8327L42.8029 59.8251L42.016 59.208ZM32.032 66.984L32.4565 67.8895L32.4679 67.884L32.032 66.984ZM13.12 69.768L13.1584 68.7687L13.1392 68.768H13.12V69.768ZM8.128 69.576L8.20187 68.5787L8.18346 68.5774L8.16501 68.5767L8.128 69.576ZM3.328 69.384L3.37144 68.3849L3.37144 68.3849L3.328 69.384ZM0.16 69.096H-0.84V69.9158L-0.0361159 70.0766L0.16 69.096ZM9.952 8.424L9.8753 7.42692L9.86896 7.42745L9.952 8.424ZM8.128 8.616L7.98657 7.62605L7.128 7.74871V8.616H8.128ZM8.128 62.376H7.128V63.1958L7.93188 63.3566L8.128 62.376ZM9.952 62.568L9.88075 63.5655L9.91633 63.568H9.952V62.568ZM12.736 62.664L12.6695 63.6618L12.7027 63.664H12.736V62.664ZM15.52 62.76L15.4488 63.7575L15.4843 63.76H15.52V62.76ZM28.576 60.456L28.1288 59.5615L28.1212 59.5654L28.576 60.456ZM35.872 54.312L35.0556 53.7345L35.0528 53.7385L35.872 54.312ZM39.808 45.384L40.7824 45.6089L40.7833 45.6048L39.808 45.384ZM39.904 25.512L38.9273 25.7269L38.9283 25.731L39.904 25.512ZM36.256 16.872L37.0849 16.3125L37.0849 16.3125L36.256 16.872ZM29.248 10.632L28.7477 11.4979L28.759 11.5044L28.7705 11.5106L29.248 10.632ZM0.315961 2.78776C1.4883 2.60265 2.79406 2.47772 4.23544 2.41505L4.14856 0.416939C2.64594 0.482273 1.2637 0.613341 0.00403948 0.812232L0.315961 2.78776ZM4.27504 2.41254C5.7824 2.28693 7.32267 2.224 8.896 2.224V0.223997C7.26933 0.223997 5.6736 0.289063 4.10896 0.419449L4.27504 2.41254ZM8.93443 2.22326C10.5867 2.15971 12.1738 2.128 13.696 2.128V0.127998C12.1462 0.127998 10.5333 0.160285 8.85757 0.224736L8.93443 2.22326ZM13.736 2.1272C15.3251 2.06364 16.7836 2.032 18.112 2.032V0.0319996C16.7524 0.0319996 15.2669 0.0643627 13.656 0.128797L13.736 2.1272ZM18.112 2.032C23.3879 2.032 27.8882 2.84883 31.6399 4.44792L32.4241 2.60807C28.3678 0.879169 23.5881 0.0319996 18.112 0.0319996V2.032ZM31.6453 4.45019C35.4817 6.05903 38.613 8.30604 41.0625 11.1841L42.5855 9.88788C39.915 6.74995 36.5183 4.32496 32.4187 2.6058L31.6453 4.45019ZM41.0694 11.1922C43.5246 14.0157 45.3481 17.4356 46.5282 21.4726L48.4478 20.9114C47.1959 16.6284 45.2434 12.9443 42.5786 9.87982L41.0694 11.1922ZM46.5322 21.4861C47.779 25.538 48.408 30.0133 48.408 34.92H50.408C50.408 29.8427 49.757 25.166 48.4438 20.8979L46.5322 21.4861ZM48.408 34.92C48.408 39.3736 47.8123 43.6643 46.623 47.7954L48.545 48.3486C49.7877 44.0317 50.408 39.5544 50.408 34.92H48.408ZM46.6203 47.8051C45.5021 51.8431 43.7043 55.435 41.2291 58.5909L42.8029 59.8251C45.4477 56.453 47.3619 52.6209 48.5477 48.3389L46.6203 47.8051ZM41.2351 58.5833C38.778 61.6547 35.573 64.1577 31.5961 66.084L32.4679 67.884C36.683 65.8423 40.134 63.1613 42.7969 59.8327L41.2351 58.5833ZM31.6076 66.0785C27.6768 67.9211 22.8699 68.864 17.152 68.864V70.864C23.0821 70.864 28.1952 69.8869 32.4564 67.8895L31.6076 66.0785ZM17.152 68.864C16.1462 68.864 14.8165 68.8325 13.1584 68.7687L13.0816 70.7673C14.7515 70.8315 16.1098 70.864 17.152 70.864V68.864ZM13.12 68.768C11.5466 68.768 9.90729 68.7051 8.20187 68.5787L8.05413 70.5733C9.80471 70.7029 11.4934 70.768 13.12 70.768V68.768ZM8.16501 68.5767C6.4388 68.5128 4.84097 68.4488 3.37144 68.3849L3.28456 70.3831C4.75903 70.4472 6.3612 70.5112 8.09099 70.5753L8.16501 68.5767ZM3.37144 68.3849C1.9033 68.3211 0.91428 68.2271 0.356116 68.1154L-0.0361159 70.0766C0.685721 70.2209 1.8087 70.3189 3.28456 70.3831L3.37144 68.3849ZM1.16 69.096V1.8H-0.84V69.096H1.16ZM18.304 7.136C18.3024 7.136 18.3008 7.136 18.2991 7.136C18.2975 7.136 18.2959 7.136 18.2942 7.136C18.2926 7.136 18.291 7.136 18.2894 7.136C18.2877 7.136 18.2861 7.136 18.2845 7.136C18.2829 7.136 18.2812 7.136 18.2796 7.136C18.278 7.136 18.2763 7.136 18.2747 7.136C18.2731 7.136 18.2715 7.136 18.2698 7.136C18.2682 7.136 18.2666 7.136 18.2649 7.136C18.2633 7.136 18.2617 7.136 18.26 7.136C18.2584 7.136 18.2568 7.136 18.2551 7.136C18.2535 7.136 18.2519 7.136 18.2502 7.136C18.2486 7.136 18.247 7.136 18.2453 7.136C18.2437 7.136 18.2421 7.136 18.2404 7.136C18.2388 7.136 18.2372 7.136 18.2355 7.136C18.2339 7.136 18.2323 7.136 18.2306 7.136C18.229 7.136 18.2274 7.136 18.2257 7.136C18.2241 7.136 18.2224 7.136 18.2208 7.136C18.2192 7.136 18.2175 7.136 18.2159 7.136C18.2143 7.136 18.2126 7.136 18.211 7.136C18.2093 7.136 18.2077 7.136 18.2061 7.136C18.2044 7.136 18.2028 7.136 18.2011 7.136C18.1995 7.136 18.1979 7.136 18.1962 7.136C18.1946 7.136 18.1929 7.136 18.1913 7.136C18.1897 7.136 18.188 7.136 18.1864 7.136C18.1847 7.136 18.1831 7.136 18.1814 7.136C18.1798 7.136 18.1782 7.136 18.1765 7.136C18.1749 7.136 18.1732 7.136 18.1716 7.136C18.1699 7.136 18.1683 7.136 18.1666 7.136C18.165 7.136 18.1633 7.136 18.1617 7.136C18.1601 7.136 18.1584 7.136 18.1568 7.136C18.1551 7.136 18.1535 7.136 18.1518 7.136C18.1502 7.136 18.1485 7.136 18.1469 7.136C18.1452 7.136 18.1436 7.136 18.1419 7.136C18.1403 7.136 18.1386 7.136 18.137 7.136C18.1353 7.136 18.1337 7.136 18.132 7.136C18.1304 7.136 18.1287 7.136 18.1271 7.136C18.1254 7.136 18.1238 7.136 18.1221 7.136C18.1205 7.136 18.1188 7.136 18.1172 7.136C18.1155 7.136 18.1139 7.136 18.1122 7.136C18.1106 7.136 18.1089 7.136 18.1072 7.136C18.1056 7.136 18.1039 7.136 18.1023 7.136C18.1006 7.136 18.099 7.136 18.0973 7.136C18.0957 7.136 18.094 7.136 18.0923 7.136C18.0907 7.136 18.089 7.136 18.0874 7.136C18.0857 7.136 18.0841 7.136 18.0824 7.136C18.0807 7.136 18.0791 7.136 18.0774 7.136C18.0758 7.136 18.0741 7.136 18.0724 7.136C18.0708 7.136 18.0691 7.136 18.0675 7.136C18.0658 7.136 18.0641 7.136 18.0625 7.136C18.0608 7.136 18.0592 7.136 18.0575 7.136C18.0558 7.136 18.0542 7.136 18.0525 7.136C18.0509 7.136 18.0492 7.136 18.0475 7.136C18.0459 7.136 18.0442 7.136 18.0425 7.136C18.0409 7.136 18.0392 7.136 18.0375 7.136C18.0359 7.136 18.0342 7.136 18.0326 7.136C18.0309 7.136 18.0292 7.136 18.0276 7.136C18.0259 7.136 18.0242 7.136 18.0226 7.136C18.0209 7.136 18.0192 7.136 18.0176 7.136C18.0159 7.136 18.0142 7.136 18.0126 7.136C18.0109 7.136 18.0092 7.136 18.0075 7.136C18.0059 7.136 18.0042 7.136 18.0025 7.136C18.0009 7.136 17.9992 7.136 17.9975 7.136C17.9959 7.136 17.9942 7.136 17.9925 7.136C17.9908 7.136 17.9892 7.136 17.9875 7.136C17.9858 7.136 17.9842 7.136 17.9825 7.136C17.9808 7.136 17.9791 7.136 17.9775 7.136C17.9758 7.136 17.9741 7.136 17.9724 7.136C17.9708 7.136 17.9691 7.136 17.9674 7.136C17.9657 7.136 17.9641 7.136 17.9624 7.136C17.9607 7.136 17.959 7.136 17.9574 7.136C17.9557 7.136 17.954 7.136 17.9523 7.136C17.9507 7.136 17.949 7.136 17.9473 7.136C17.9456 7.136 17.944 7.136 17.9423 7.136C17.9406 7.136 17.9389 7.136 17.9372 7.136C17.9356 7.136 17.9339 7.136 17.9322 7.136C17.9305 7.136 17.9288 7.136 17.9272 7.136C17.9255 7.136 17.9238 7.136 17.9221 7.136C17.9204 7.136 17.9187 7.136 17.9171 7.136C17.9154 7.136 17.9137 7.136 17.912 7.136C17.9103 7.136 17.9087 7.136 17.907 7.136C17.9053 7.136 17.9036 7.136 17.9019 7.136C17.9002 7.136 17.8985 7.136 17.8969 7.136C17.8952 7.136 17.8935 7.136 17.8918 7.136C17.8901 7.136 17.8884 7.136 17.8867 7.136C17.8851 7.136 17.8834 7.136 17.8817 7.136C17.88 7.136 17.8783 7.136 17.8766 7.136C17.8749 7.136 17.8732 7.136 17.8716 7.136C17.8699 7.136 17.8682 7.136 17.8665 7.136C17.8648 7.136 17.8631 7.136 17.8614 7.136C17.8597 7.136 17.858 7.136 17.8564 7.136C17.8547 7.136 17.853 7.136 17.8513 7.136C17.8496 7.136 17.8479 7.136 17.8462 7.136C17.8445 7.136 17.8428 7.136 17.8411 7.136C17.8394 7.136 17.8377 7.136 17.836 7.136C17.8344 7.136 17.8327 7.136 17.831 7.136C17.8293 7.136 17.8276 7.136 17.8259 7.136C17.8242 7.136 17.8225 7.136 17.8208 7.136C17.8191 7.136 17.8174 7.136 17.8157 7.136C17.814 7.136 17.8123 7.136 17.8106 7.136C17.8089 7.136 17.8072 7.136 17.8055 7.136C17.8038 7.136 17.8021 7.136 17.8004 7.136C17.7987 7.136 17.797 7.136 17.7953 7.136C17.7936 7.136 17.7919 7.136 17.7902 7.136C17.7885 7.136 17.7868 7.136 17.7851 7.136C17.7834 7.136 17.7817 7.136 17.78 7.136C17.7783 7.136 17.7766 7.136 17.7749 7.136C17.7732 7.136 17.7715 7.136 17.7698 7.136C17.7681 7.136 17.7664 7.136 17.7647 7.136C17.763 7.136 17.7613 7.136 17.7596 7.136C17.7579 7.136 17.7562 7.136 17.7545 7.136C17.7528 7.136 17.751 7.136 17.7493 7.136C17.7476 7.136 17.7459 7.136 17.7442 7.136C17.7425 7.136 17.7408 7.136 17.7391 7.136C17.7374 7.136 17.7357 7.136 17.734 7.136C17.7323 7.136 17.7306 7.136 17.7288 7.136C17.7271 7.136 17.7254 7.136 17.7237 7.136C17.722 7.136 17.7203 7.136 17.7186 7.136C17.7169 7.136 17.7152 7.136 17.7135 7.136C17.7117 7.136 17.71 7.136 17.7083 7.136C17.7066 7.136 17.7049 7.136 17.7032 7.136C17.7015 7.136 17.6998 7.136 17.698 7.136C17.6963 7.136 17.6946 7.136 17.6929 7.136C17.6912 7.136 17.6895 7.136 17.6878 7.136C17.686 7.136 17.6843 7.136 17.6826 7.136C17.6809 7.136 17.6792 7.136 17.6775 7.136C17.6757 7.136 17.674 7.136 17.6723 7.136C17.6706 7.136 17.6689 7.136 17.6672 7.136C17.6654 7.136 17.6637 7.136 17.662 7.136C17.6603 7.136 17.6586 7.136 17.6568 7.136C17.6551 7.136 17.6534 7.136 17.6517 7.136C17.65 7.136 17.6482 7.136 17.6465 7.136C17.6448 7.136 17.6431 7.136 17.6414 7.136C17.6396 7.136 17.6379 7.136 17.6362 7.136C17.6345 7.136 17.6327 7.136 17.631 7.136C17.6293 7.136 17.6276 7.136 17.6259 7.136C17.6241 7.136 17.6224 7.136 17.6207 7.136C17.619 7.136 17.6172 7.136 17.6155 7.136C17.6138 7.136 17.6121 7.136 17.6103 7.136C17.6086 7.136 17.6069 7.136 17.6051 7.136C17.6034 7.136 17.6017 7.136 17.6 7.136C17.5982 7.136 17.5965 7.136 17.5948 7.136C17.5931 7.136 17.5913 7.136 17.5896 7.136C17.5879 7.136 17.5861 7.136 17.5844 7.136C17.5827 7.136 17.581 7.136 17.5792 7.136C17.5775 7.136 17.5758 7.136 17.574 7.136C17.5723 7.136 17.5706 7.136 17.5688 7.136C17.5671 7.136 17.5654 7.136 17.5636 7.136C17.5619 7.136 17.5602 7.136 17.5584 7.136C17.5567 7.136 17.555 7.136 17.5532 7.136C17.5515 7.136 17.5498 7.136 17.548 7.136C17.5463 7.136 17.5446 7.136 17.5428 7.136C17.5411 7.136 17.5394 7.136 17.5376 7.136C17.5359 7.136 17.5341 7.136 17.5324 7.136C17.5307 7.136 17.5289 7.136 17.5272 7.136C17.5255 7.136 17.5237 7.136 17.522 7.136C17.5202 7.136 17.5185 7.136 17.5168 7.136C17.515 7.136 17.5133 7.136 17.5115 7.136C17.5098 7.136 17.5081 7.136 17.5063 7.136C17.5046 7.136 17.5028 7.136 17.5011 7.136C17.4994 7.136 17.4976 7.136 17.4959 7.136C17.4941 7.136 17.4924 7.136 17.4906 7.136C17.4889 7.136 17.4872 7.136 17.4854 7.136C17.4837 7.136 17.4819 7.136 17.4802 7.136C17.4784 7.136 17.4767 7.136 17.475 7.136C17.4732 7.136 17.4715 7.136 17.4697 7.136C17.468 7.136 17.4662 7.136 17.4645 7.136C17.4627 7.136 17.461 7.136 17.4592 7.136C17.4575 7.136 17.4557 7.136 17.454 7.136C17.4522 7.136 17.4505 7.136 17.4487 7.136C17.447 7.136 17.4453 7.136 17.4435 7.136C17.4418 7.136 17.44 7.136 17.4383 7.136C17.4365 7.136 17.4348 7.136 17.433 7.136C17.4312 7.136 17.4295 7.136 17.4277 7.136C17.426 7.136 17.4242 7.136 17.4225 7.136C17.4207 7.136 17.419 7.136 17.4172 7.136C17.4155 7.136 17.4137 7.136 17.412 7.136C17.4102 7.136 17.4085 7.136 17.4067 7.136C17.405 7.136 17.4032 7.136 17.4014 7.136C17.3997 7.136 17.3979 7.136 17.3962 7.136C17.3944 7.136 17.3927 7.136 17.3909 7.136C17.3891 7.136 17.3874 7.136 17.3856 7.136C17.3839 7.136 17.3821 7.136 17.3804 7.136C17.3786 7.136 17.3768 7.136 17.3751 7.136C17.3733 7.136 17.3716 7.136 17.3698 7.136C17.368 7.136 17.3663 7.136 17.3645 7.136C17.3628 7.136 17.361 7.136 17.3592 7.136C17.3575 7.136 17.3557 7.136 17.354 7.136C17.3522 7.136 17.3504 7.136 17.3487 7.136C17.3469 7.136 17.3451 7.136 17.3434 7.136C17.3416 7.136 17.3399 7.136 17.3381 7.136C17.3363 7.136 17.3346 7.136 17.3328 7.136C17.331 7.136 17.3293 7.136 17.3275 7.136C17.3257 7.136 17.324 7.136 17.3222 7.136C17.3204 7.136 17.3187 7.136 17.3169 7.136C17.3151 7.136 17.3134 7.136 17.3116 7.136C17.3098 7.136 17.3081 7.136 17.3063 7.136C17.3045 7.136 17.3028 7.136 17.301 7.136C17.2992 7.136 17.2975 7.136 17.2957 7.136C17.2939 7.136 17.2921 7.136 17.2904 7.136C17.2886 7.136 17.2868 7.136 17.2851 7.136C17.2833 7.136 17.2815 7.136 17.2797 7.136C17.278 7.136 17.2762 7.136 17.2744 7.136C17.2726 7.136 17.2709 7.136 17.2691 7.136C17.2673 7.136 17.2656 7.136 17.2638 7.136C17.262 7.136 17.2602 7.136 17.2585 7.136C17.2567 7.136 17.2549 7.136 17.2531 7.136C17.2514 7.136 17.2496 7.136 17.2478 7.136C17.246 7.136 17.2442 7.136 17.2425 7.136C17.2407 7.136 17.2389 7.136 17.2371 7.136C17.2354 7.136 17.2336 7.136 17.2318 7.136C17.23 7.136 17.2282 7.136 17.2265 7.136C17.2247 7.136 17.2229 7.136 17.2211 7.136C17.2193 7.136 17.2176 7.136 17.2158 7.136C17.214 7.136 17.2122 7.136 17.2104 7.136C17.2087 7.136 17.2069 7.136 17.2051 7.136C17.2033 7.136 17.2015 7.136 17.1997 7.136C17.198 7.136 17.1962 7.136 17.1944 7.136C17.1926 7.136 17.1908 7.136 17.189 7.136C17.1873 7.136 17.1855 7.136 17.1837 7.136C17.1819 7.136 17.1801 7.136 17.1783 7.136C17.1765 7.136 17.1748 7.136 17.173 7.136C17.1712 7.136 17.1694 7.136 17.1676 7.136C17.1658 7.136 17.164 7.136 17.1622 7.136C17.1605 7.136 17.1587 7.136 17.1569 7.136C17.1551 7.136 17.1533 7.136 17.1515 7.136C17.1497 7.136 17.1479 7.136 17.1461 7.136C17.1443 7.136 17.1426 7.136 17.1408 7.136C17.139 7.136 17.1372 7.136 17.1354 7.136C17.1336 7.136 17.1318 7.136 17.13 7.136C17.1282 7.136 17.1264 7.136 17.1246 7.136C17.1228 7.136 17.121 7.136 17.1193 7.136C17.1175 7.136 17.1157 7.136 17.1139 7.136C17.1121 7.136 17.1103 7.136 17.1085 7.136C17.1067 7.136 17.1049 7.136 17.1031 7.136C17.1013 7.136 17.0995 7.136 17.0977 7.136C17.0959 7.136 17.0941 7.136 17.0923 7.136C17.0905 7.136 17.0887 7.136 17.0869 7.136C17.0851 7.136 17.0833 7.136 17.0815 7.136C17.0797 7.136 17.0779 7.136 17.0761 7.136C17.0743 7.136 17.0725 7.136 17.0707 7.136C17.0689 7.136 17.0671 7.136 17.0653 7.136C17.0635 7.136 17.0617 7.136 17.0599 7.136C17.0581 7.136 17.0563 7.136 17.0545 7.136C17.0527 7.136 17.0509 7.136 17.0491 7.136C17.0473 7.136 17.0455 7.136 17.0437 7.136C17.0419 7.136 17.0401 7.136 17.0383 7.136C17.0365 7.136 17.0347 7.136 17.0328 7.136C17.031 7.136 17.0292 7.136 17.0274 7.136C17.0256 7.136 17.0238 7.136 17.022 7.136C17.0202 7.136 17.0184 7.136 17.0166 7.136C17.0148 7.136 17.013 7.136 17.0112 7.136C17.0094 7.136 17.0075 7.136 17.0057 7.136C17.0039 7.136 17.0021 7.136 17.0003 7.136C16.9985 7.136 16.9967 7.136 16.9949 7.136C16.9931 7.136 16.9912 7.136 16.9894 7.136C16.9876 7.136 16.9858 7.136 16.984 7.136C16.9822 7.136 16.9804 7.136 16.9786 7.136C16.9767 7.136 16.9749 7.136 16.9731 7.136C16.9713 7.136 16.9695 7.136 16.9677 7.136C16.9659 7.136 16.964 7.136 16.9622 7.136C16.9604 7.136 16.9586 7.136 16.9568 7.136C16.955 7.136 16.9532 7.136 16.9513 7.136C16.9495 7.136 16.9477 7.136 16.9459 7.136C16.9441 7.136 16.9422 7.136 16.9404 7.136C16.9386 7.136 16.9368 7.136 16.935 7.136C16.9332 7.136 16.9313 7.136 16.9295 7.136C16.9277 7.136 16.9259 7.136 16.9241 7.136C16.9222 7.136 16.9204 7.136 16.9186 7.136C16.9168 7.136 16.9149 7.136 16.9131 7.136C16.9113 7.136 16.9095 7.136 16.9077 7.136C16.9058 7.136 16.904 7.136 16.9022 7.136C16.9004 7.136 16.8985 7.136 16.8967 7.136C16.8949 7.136 16.8931 7.136 16.8912 7.136C16.8894 7.136 16.8876 7.136 16.8858 7.136C16.8839 7.136 16.8821 7.136 16.8803 7.136C16.8785 7.136 16.8766 7.136 16.8748 7.136C16.873 7.136 16.8712 7.136 16.8693 7.136C16.8675 7.136 16.8657 7.136 16.8638 7.136C16.862 7.136 16.8602 7.136 16.8584 7.136C16.8565 7.136 16.8547 7.136 16.8529 7.136C16.851 7.136 16.8492 7.136 16.8474 7.136C16.8455 7.136 16.8437 7.136 16.8419 7.136C16.8401 7.136 16.8382 7.136 16.8364 7.136C16.8346 7.136 16.8327 7.136 16.8309 7.136C16.8291 7.136 16.8272 7.136 16.8254 7.136C16.8236 7.136 16.8217 7.136 16.8199 7.136C16.8181 7.136 16.8162 7.136 16.8144 7.136C16.8125 7.136 16.8107 7.136 16.8089 7.136C16.807 7.136 16.8052 7.136 16.8034 7.136C16.8015 7.136 16.7997 7.136 16.7979 7.136C16.796 7.136 16.7942 7.136 16.7923 7.136C16.7905 7.136 16.7887 7.136 16.7868 7.136C16.785 7.136 16.7831 7.136 16.7813 7.136C16.7795 7.136 16.7776 7.136 16.7758 7.136C16.7739 7.136 16.7721 7.136 16.7703 7.136C16.7684 7.136 16.7666 7.136 16.7647 7.136C16.7629 7.136 16.7611 7.136 16.7592 7.136C16.7574 7.136 16.7555 7.136 16.7537 7.136C16.7518 7.136 16.75 7.136 16.7482 7.136C16.7463 7.136 16.7445 7.136 16.7426 7.136C16.7408 7.136 16.7389 7.136 16.7371 7.136C16.7352 7.136 16.7334 7.136 16.7316 7.136C16.7297 7.136 16.7279 7.136 16.726 7.136C16.7242 7.136 16.7223 7.136 16.7205 7.136C16.7186 7.136 16.7168 7.136 16.7149 7.136C16.7131 7.136 16.7112 7.136 16.7094 7.136C16.7075 7.136 16.7057 7.136 16.7038 7.136C16.702 7.136 16.7001 7.136 16.6983 7.136C16.6964 7.136 16.6946 7.136 16.6927 7.136C16.6909 7.136 16.689 7.136 16.6872 7.136C16.6853 7.136 16.6835 7.136 16.6816 7.136C16.6798 7.136 16.6779 7.136 16.6761 7.136C16.6742 7.136 16.6723 7.136 16.6705 7.136C16.6686 7.136 16.6668 7.136 16.6649 7.136C16.6631 7.136 16.6612 7.136 16.6594 7.136C16.6575 7.136 16.6557 7.136 16.6538 7.136C16.6519 7.136 16.6501 7.136 16.6482 7.136C16.6464 7.136 16.6445 7.136 16.6427 7.136C16.6408 7.136 16.6389 7.136 16.6371 7.136C16.6352 7.136 16.6334 7.136 16.6315 7.136C16.6296 7.136 16.6278 7.136 16.6259 7.136C16.6241 7.136 16.6222 7.136 16.6203 7.136C16.6185 7.136 16.6166 7.136 16.6148 7.136C16.6129 7.136 16.611 7.136 16.6092 7.136C16.6073 7.136 16.6054 7.136 16.6036 7.136C16.6017 7.136 16.5999 7.136 16.598 7.136C16.5961 7.136 16.5943 7.136 16.5924 7.136C16.5905 7.136 16.5887 7.136 16.5868 7.136C16.5849 7.136 16.5831 7.136 16.5812 7.136C16.5793 7.136 16.5775 7.136 16.5756 7.136C16.5737 7.136 16.5719 7.136 16.57 7.136C16.5681 7.136 16.5663 7.136 16.5644 7.136C16.5625 7.136 16.5607 7.136 16.5588 7.136C16.5569 7.136 16.5551 7.136 16.5532 7.136C16.5513 7.136 16.5495 7.136 16.5476 7.136C16.5457 7.136 16.5438 7.136 16.542 7.136C16.5401 7.136 16.5382 7.136 16.5364 7.136C16.5345 7.136 16.5326 7.136 16.5307 7.136C16.5289 7.136 16.527 7.136 16.5251 7.136C16.5232 7.136 16.5214 7.136 16.5195 7.136C16.5176 7.136 16.5158 7.136 16.5139 7.136C16.512 7.136 16.5101 7.136 16.5083 7.136C16.5064 7.136 16.5045 7.136 16.5026 7.136C16.5007 7.136 16.4989 7.136 16.497 7.136C16.4951 7.136 16.4932 7.136 16.4914 7.136C16.4895 7.136 16.4876 7.136 16.4857 7.136C16.4838 7.136 16.482 7.136 16.4801 7.136C16.4782 7.136 16.4763 7.136 16.4745 7.136C16.4726 7.136 16.4707 7.136 16.4688 7.136C16.4669 7.136 16.465 7.136 16.4632 7.136C16.4613 7.136 16.4594 7.136 16.4575 7.136C16.4556 7.136 16.4538 7.136 16.4519 7.136C16.45 7.136 16.4481 7.136 16.4462 7.136C16.4443 7.136 16.4425 7.136 16.4406 7.136C16.4387 7.136 16.4368 7.136 16.4349 7.136C16.433 7.136 16.4312 7.136 16.4293 7.136C16.4274 7.136 16.4255 7.136 16.4236 7.136C16.4217 7.136 16.4198 7.136 16.4179 7.136C16.4161 7.136 16.4142 7.136 16.4123 7.136C16.4104 7.136 16.4085 7.136 16.4066 7.136C16.4047 7.136 16.4028 7.136 16.401 7.136C16.3991 7.136 16.3972 7.136 16.3953 7.136C16.3934 7.136 16.3915 7.136 16.3896 7.136C16.3877 7.136 16.3858 7.136 16.3839 7.136C16.382 7.136 16.3802 7.136 16.3783 7.136C16.3764 7.136 16.3745 7.136 16.3726 7.136C16.3707 7.136 16.3688 7.136 16.3669 7.136C16.365 7.136 16.3631 7.136 16.3612 7.136C16.3593 7.136 16.3574 7.136 16.3555 7.136C16.3536 7.136 16.3517 7.136 16.3498 7.136C16.348 7.136 16.3461 7.136 16.3442 7.136C16.3423 7.136 16.3404 7.136 16.3385 7.136C16.3366 7.136 16.3347 7.136 16.3328 7.136C16.3309 7.136 16.329 7.136 16.3271 7.136C16.3252 7.136 16.3233 7.136 16.3214 7.136C16.3195 7.136 16.3176 7.136 16.3157 7.136C16.3138 7.136 16.3119 7.136 16.31 7.136C16.3081 7.136 16.3062 7.136 16.3043 7.136C16.3024 7.136 16.3005 7.136 16.2986 7.136C16.2967 7.136 16.2948 7.136 16.2929 7.136C16.291 7.136 16.2891 7.136 16.2871 7.136C16.2852 7.136 16.2833 7.136 16.2814 7.136C16.2795 7.136 16.2776 7.136 16.2757 7.136C16.2738 7.136 16.2719 7.136 16.27 7.136C16.2681 7.136 16.2662 7.136 16.2643 7.136C16.2624 7.136 16.2605 7.136 16.2586 7.136C16.2567 7.136 16.2547 7.136 16.2528 7.136C16.2509 7.136 16.249 7.136 16.2471 7.136C16.2452 7.136 16.2433 7.136 16.2414 7.136C16.2395 7.136 16.2376 7.136 16.2356 7.136C16.2337 7.136 16.2318 7.136 16.2299 7.136C16.228 7.136 16.2261 7.136 16.2242 7.136C16.2223 7.136 16.2204 7.136 16.2184 7.136C16.2165 7.136 16.2146 7.136 16.2127 7.136C16.2108 7.136 16.2089 7.136 16.207 7.136C16.205 7.136 16.2031 7.136 16.2012 7.136C16.1993 7.136 16.1974 7.136 16.1955 7.136C16.1936 7.136 16.1916 7.136 16.1897 7.136C16.1878 7.136 16.1859 7.136 16.184 7.136C16.1821 7.136 16.1801 7.136 16.1782 7.136C16.1763 7.136 16.1744 7.136 16.1725 7.136C16.1705 7.136 16.1686 7.136 16.1667 7.136C16.1648 7.136 16.1629 7.136 16.1609 7.136C16.159 7.136 16.1571 7.136 16.1552 7.136C16.1533 7.136 16.1513 7.136 16.1494 7.136C16.1475 7.136 16.1456 7.136 16.1437 7.136C16.1417 7.136 16.1398 7.136 16.1379 7.136C16.136 7.136 16.134 7.136 16.1321 7.136C16.1302 7.136 16.1283 7.136 16.1263 7.136C16.1244 7.136 16.1225 7.136 16.1206 7.136C16.1186 7.136 16.1167 7.136 16.1148 7.136C16.1129 7.136 16.1109 7.136 16.109 7.136C16.1071 7.136 16.1052 7.136 16.1032 7.136C16.1013 7.136 16.0994 7.136 16.0974 7.136C16.0955 7.136 16.0936 7.136 16.0917 7.136C16.0897 7.136 16.0878 7.136 16.0859 7.136C16.0839 7.136 16.082 7.136 16.0801 7.136C16.0782 7.136 16.0762 7.136 16.0743 7.136C16.0724 7.136 16.0704 7.136 16.0685 7.136C16.0666 7.136 16.0646 7.136 16.0627 7.136C16.0608 7.136 16.0588 7.136 16.0569 7.136C16.055 7.136 16.053 7.136 16.0511 7.136C16.0492 7.136 16.0472 7.136 16.0453 7.136C16.0434 7.136 16.0414 7.136 16.0395 7.136C16.0376 7.136 16.0356 7.136 16.0337 7.136C16.0317 7.136 16.0298 7.136 16.0279 7.136C16.0259 7.136 16.024 7.136 16.0221 7.136C16.0201 7.136 16.0182 7.136 16.0162 7.136C16.0143 7.136 16.0124 7.136 16.0104 7.136C16.0085 7.136 16.0066 7.136 16.0046 7.136C16.0027 7.136 16.0007 7.136 15.9988 7.136C15.9969 7.136 15.9949 7.136 15.993 7.136C15.991 7.136 15.9891 7.136 15.9871 7.136C15.9852 7.136 15.9833 7.136 15.9813 7.136C15.9794 7.136 15.9774 7.136 15.9755 7.136C15.9735 7.136 15.9716 7.136 15.9697 7.136C15.9677 7.136 15.9658 7.136 15.9638 7.136C15.9619 7.136 15.9599 7.136 15.958 7.136C15.956 7.136 15.9541 7.136 15.9521 7.136C15.9502 7.136 15.9483 7.136 15.9463 7.136C15.9444 7.136 15.9424 7.136 15.9405 7.136C15.9385 7.136 15.9366 7.136 15.9346 7.136C15.9327 7.136 15.9307 7.136 15.9288 7.136C15.9268 7.136 15.9249 7.136 15.9229 7.136C15.921 7.136 15.919 7.136 15.9171 7.136C15.9151 7.136 15.9132 7.136 15.9112 7.136C15.9093 7.136 15.9073 7.136 15.9054 7.136C15.9034 7.136 15.9015 7.136 15.8995 7.136C15.8975 7.136 15.8956 7.136 15.8936 7.136C15.8917 7.136 15.8897 7.136 15.8878 7.136C15.8858 7.136 15.8839 7.136 15.8819 7.136C15.88 7.136 15.878 7.136 15.876 7.136C15.8741 7.136 15.8721 7.136 15.8702 7.136C15.8682 7.136 15.8663 7.136 15.8643 7.136C15.8623 7.136 15.8604 7.136 15.8584 7.136C15.8565 7.136 15.8545 7.136 15.8526 7.136C15.8506 7.136 15.8486 7.136 15.8467 7.136C15.8447 7.136 15.8428 7.136 15.8408 7.136C15.8388 7.136 15.8369 7.136 15.8349 7.136C15.833 7.136 15.831 7.136 15.829 7.136C15.8271 7.136 15.8251 7.136 15.8231 7.136C15.8212 7.136 15.8192 7.136 15.8173 7.136C15.8153 7.136 15.8133 7.136 15.8114 7.136C15.8094 7.136 15.8074 7.136 15.8055 7.136C15.8035 7.136 15.8015 7.136 15.7996 7.136C15.7976 7.136 15.7956 7.136 15.7937 7.136C15.7917 7.136 15.7897 7.136 15.7878 7.136C15.7858 7.136 15.7838 7.136 15.7819 7.136C15.7799 7.136 15.7779 7.136 15.776 7.136C15.774 7.136 15.772 7.136 15.7701 7.136C15.7681 7.136 15.7661 7.136 15.7642 7.136C15.7622 7.136 15.7602 7.136 15.7582 7.136C15.7563 7.136 15.7543 7.136 15.7523 7.136C15.7504 7.136 15.7484 7.136 15.7464 7.136C15.7444 7.136 15.7425 7.136 15.7405 7.136C15.7385 7.136 15.7366 7.136 15.7346 7.136C15.7326 7.136 15.7306 7.136 15.7287 7.136C15.7267 7.136 15.7247 7.136 15.7227 7.136C15.7208 7.136 15.7188 7.136 15.7168 7.136C15.7148 7.136 15.7129 7.136 15.7109 7.136C15.7089 7.136 15.7069 7.136 15.7049 7.136C15.703 7.136 15.701 7.136 15.699 7.136C15.697 7.136 15.6951 7.136 15.6931 7.136C15.6911 7.136 15.6891 7.136 15.6871 7.136C15.6852 7.136 15.6832 7.136 15.6812 7.136C15.6792 7.136 15.6772 7.136 15.6753 7.136C15.6733 7.136 15.6713 7.136 15.6693 7.136C15.6673 7.136 15.6654 7.136 15.6634 7.136C15.6614 7.136 15.6594 7.136 15.6574 7.136C15.6554 7.136 15.6535 7.136 15.6515 7.136C15.6495 7.136 15.6475 7.136 15.6455 7.136C15.6435 7.136 15.6415 7.136 15.6396 7.136C15.6376 7.136 15.6356 7.136 15.6336 7.136C15.6316 7.136 15.6296 7.136 15.6276 7.136C15.6257 7.136 15.6237 7.136 15.6217 7.136C15.6197 7.136 15.6177 7.136 15.6157 7.136C15.6137 7.136 15.6117 7.136 15.6098 7.136C15.6078 7.136 15.6058 7.136 15.6038 7.136C15.6018 7.136 15.5998 7.136 15.5978 7.136C15.5958 7.136 15.5938 7.136 15.5918 7.136C15.5899 7.136 15.5879 7.136 15.5859 7.136C15.5839 7.136 15.5819 7.136 15.5799 7.136C15.5779 7.136 15.5759 7.136 15.5739 7.136C15.5719 7.136 15.5699 7.136 15.5679 7.136C15.5659 7.136 15.5639 7.136 15.5619 7.136C15.56 7.136 15.558 7.136 15.556 7.136C15.554 7.136 15.552 7.136 15.55 7.136C15.548 7.136 15.546 7.136 15.544 7.136C15.542 7.136 15.54 7.136 15.538 7.136C15.536 7.136 15.534 7.136 15.532 7.136C15.53 7.136 15.528 7.136 15.526 7.136C15.524 7.136 15.522 7.136 15.52 7.136V9.136C15.522 9.136 15.524 9.136 15.526 9.136C15.528 9.136 15.53 9.136 15.532 9.136C15.534 9.136 15.536 9.136 15.538 9.136C15.54 9.136 15.542 9.136 15.544 9.136C15.546 9.136 15.548 9.136 15.55 9.136C15.552 9.136 15.554 9.136 15.556 9.136C15.558 9.136 15.56 9.136 15.5619 9.136C15.5639 9.136 15.5659 9.136 15.5679 9.136C15.5699 9.136 15.5719 9.136 15.5739 9.136C15.5759 9.136 15.5779 9.136 15.5799 9.136C15.5819 9.136 15.5839 9.136 15.5859 9.136C15.5879 9.136 15.5899 9.136 15.5918 9.136C15.5938 9.136 15.5958 9.136 15.5978 9.136C15.5998 9.136 15.6018 9.136 15.6038 9.136C15.6058 9.136 15.6078 9.136 15.6098 9.136C15.6117 9.136 15.6137 9.136 15.6157 9.136C15.6177 9.136 15.6197 9.136 15.6217 9.136C15.6237 9.136 15.6257 9.136 15.6276 9.136C15.6296 9.136 15.6316 9.136 15.6336 9.136C15.6356 9.136 15.6376 9.136 15.6396 9.136C15.6415 9.136 15.6435 9.136 15.6455 9.136C15.6475 9.136 15.6495 9.136 15.6515 9.136C15.6535 9.136 15.6554 9.136 15.6574 9.136C15.6594 9.136 15.6614 9.136 15.6634 9.136C15.6654 9.136 15.6673 9.136 15.6693 9.136C15.6713 9.136 15.6733 9.136 15.6753 9.136C15.6772 9.136 15.6792 9.136 15.6812 9.136C15.6832 9.136 15.6852 9.136 15.6871 9.136C15.6891 9.136 15.6911 9.136 15.6931 9.136C15.6951 9.136 15.697 9.136 15.699 9.136C15.701 9.136 15.703 9.136 15.7049 9.136C15.7069 9.136 15.7089 9.136 15.7109 9.136C15.7129 9.136 15.7148 9.136 15.7168 9.136C15.7188 9.136 15.7208 9.136 15.7227 9.136C15.7247 9.136 15.7267 9.136 15.7287 9.136C15.7306 9.136 15.7326 9.136 15.7346 9.136C15.7366 9.136 15.7385 9.136 15.7405 9.136C15.7425 9.136 15.7444 9.136 15.7464 9.136C15.7484 9.136 15.7504 9.136 15.7523 9.136C15.7543 9.136 15.7563 9.136 15.7582 9.136C15.7602 9.136 15.7622 9.136 15.7642 9.136C15.7661 9.136 15.7681 9.136 15.7701 9.136C15.772 9.136 15.774 9.136 15.776 9.136C15.7779 9.136 15.7799 9.136 15.7819 9.136C15.7838 9.136 15.7858 9.136 15.7878 9.136C15.7897 9.136 15.7917 9.136 15.7937 9.136C15.7956 9.136 15.7976 9.136 15.7996 9.136C15.8015 9.136 15.8035 9.136 15.8055 9.136C15.8074 9.136 15.8094 9.136 15.8114 9.136C15.8133 9.136 15.8153 9.136 15.8173 9.136C15.8192 9.136 15.8212 9.136 15.8231 9.136C15.8251 9.136 15.8271 9.136 15.829 9.136C15.831 9.136 15.833 9.136 15.8349 9.136C15.8369 9.136 15.8388 9.136 15.8408 9.136C15.8428 9.136 15.8447 9.136 15.8467 9.136C15.8486 9.136 15.8506 9.136 15.8526 9.136C15.8545 9.136 15.8565 9.136 15.8584 9.136C15.8604 9.136 15.8623 9.136 15.8643 9.136C15.8663 9.136 15.8682 9.136 15.8702 9.136C15.8721 9.136 15.8741 9.136 15.876 9.136C15.878 9.136 15.88 9.136 15.8819 9.136C15.8839 9.136 15.8858 9.136 15.8878 9.136C15.8897 9.136 15.8917 9.136 15.8936 9.136C15.8956 9.136 15.8975 9.136 15.8995 9.136C15.9015 9.136 15.9034 9.136 15.9054 9.136C15.9073 9.136 15.9093 9.136 15.9112 9.136C15.9132 9.136 15.9151 9.136 15.9171 9.136C15.919 9.136 15.921 9.136 15.9229 9.136C15.9249 9.136 15.9268 9.136 15.9288 9.136C15.9307 9.136 15.9327 9.136 15.9346 9.136C15.9366 9.136 15.9385 9.136 15.9405 9.136C15.9424 9.136 15.9444 9.136 15.9463 9.136C15.9483 9.136 15.9502 9.136 15.9521 9.136C15.9541 9.136 15.956 9.136 15.958 9.136C15.9599 9.136 15.9619 9.136 15.9638 9.136C15.9658 9.136 15.9677 9.136 15.9697 9.136C15.9716 9.136 15.9735 9.136 15.9755 9.136C15.9774 9.136 15.9794 9.136 15.9813 9.136C15.9833 9.136 15.9852 9.136 15.9871 9.136C15.9891 9.136 15.991 9.136 15.993 9.136C15.9949 9.136 15.9969 9.136 15.9988 9.136C16.0007 9.136 16.0027 9.136 16.0046 9.136C16.0066 9.136 16.0085 9.136 16.0104 9.136C16.0124 9.136 16.0143 9.136 16.0162 9.136C16.0182 9.136 16.0201 9.136 16.0221 9.136C16.024 9.136 16.0259 9.136 16.0279 9.136C16.0298 9.136 16.0317 9.136 16.0337 9.136C16.0356 9.136 16.0376 9.136 16.0395 9.136C16.0414 9.136 16.0434 9.136 16.0453 9.136C16.0472 9.136 16.0492 9.136 16.0511 9.136C16.053 9.136 16.055 9.136 16.0569 9.136C16.0588 9.136 16.0608 9.136 16.0627 9.136C16.0646 9.136 16.0666 9.136 16.0685 9.136C16.0704 9.136 16.0724 9.136 16.0743 9.136C16.0762 9.136 16.0782 9.136 16.0801 9.136C16.082 9.136 16.0839 9.136 16.0859 9.136C16.0878 9.136 16.0897 9.136 16.0917 9.136C16.0936 9.136 16.0955 9.136 16.0974 9.136C16.0994 9.136 16.1013 9.136 16.1032 9.136C16.1052 9.136 16.1071 9.136 16.109 9.136C16.1109 9.136 16.1129 9.136 16.1148 9.136C16.1167 9.136 16.1186 9.136 16.1206 9.136C16.1225 9.136 16.1244 9.136 16.1263 9.136C16.1283 9.136 16.1302 9.136 16.1321 9.136C16.134 9.136 16.136 9.136 16.1379 9.136C16.1398 9.136 16.1417 9.136 16.1437 9.136C16.1456 9.136 16.1475 9.136 16.1494 9.136C16.1513 9.136 16.1533 9.136 16.1552 9.136C16.1571 9.136 16.159 9.136 16.1609 9.136C16.1629 9.136 16.1648 9.136 16.1667 9.136C16.1686 9.136 16.1705 9.136 16.1725 9.136C16.1744 9.136 16.1763 9.136 16.1782 9.136C16.1801 9.136 16.1821 9.136 16.184 9.136C16.1859 9.136 16.1878 9.136 16.1897 9.136C16.1916 9.136 16.1936 9.136 16.1955 9.136C16.1974 9.136 16.1993 9.136 16.2012 9.136C16.2031 9.136 16.205 9.136 16.207 9.136C16.2089 9.136 16.2108 9.136 16.2127 9.136C16.2146 9.136 16.2165 9.136 16.2184 9.136C16.2204 9.136 16.2223 9.136 16.2242 9.136C16.2261 9.136 16.228 9.136 16.2299 9.136C16.2318 9.136 16.2337 9.136 16.2356 9.136C16.2376 9.136 16.2395 9.136 16.2414 9.136C16.2433 9.136 16.2452 9.136 16.2471 9.136C16.249 9.136 16.2509 9.136 16.2528 9.136C16.2547 9.136 16.2567 9.136 16.2586 9.136C16.2605 9.136 16.2624 9.136 16.2643 9.136C16.2662 9.136 16.2681 9.136 16.27 9.136C16.2719 9.136 16.2738 9.136 16.2757 9.136C16.2776 9.136 16.2795 9.136 16.2814 9.136C16.2833 9.136 16.2852 9.136 16.2871 9.136C16.2891 9.136 16.291 9.136 16.2929 9.136C16.2948 9.136 16.2967 9.136 16.2986 9.136C16.3005 9.136 16.3024 9.136 16.3043 9.136C16.3062 9.136 16.3081 9.136 16.31 9.136C16.3119 9.136 16.3138 9.136 16.3157 9.136C16.3176 9.136 16.3195 9.136 16.3214 9.136C16.3233 9.136 16.3252 9.136 16.3271 9.136C16.329 9.136 16.3309 9.136 16.3328 9.136C16.3347 9.136 16.3366 9.136 16.3385 9.136C16.3404 9.136 16.3423 9.136 16.3442 9.136C16.3461 9.136 16.348 9.136 16.3498 9.136C16.3517 9.136 16.3536 9.136 16.3555 9.136C16.3574 9.136 16.3593 9.136 16.3612 9.136C16.3631 9.136 16.365 9.136 16.3669 9.136C16.3688 9.136 16.3707 9.136 16.3726 9.136C16.3745 9.136 16.3764 9.136 16.3783 9.136C16.3802 9.136 16.382 9.136 16.3839 9.136C16.3858 9.136 16.3877 9.136 16.3896 9.136C16.3915 9.136 16.3934 9.136 16.3953 9.136C16.3972 9.136 16.3991 9.136 16.401 9.136C16.4028 9.136 16.4047 9.136 16.4066 9.136C16.4085 9.136 16.4104 9.136 16.4123 9.136C16.4142 9.136 16.4161 9.136 16.4179 9.136C16.4198 9.136 16.4217 9.136 16.4236 9.136C16.4255 9.136 16.4274 9.136 16.4293 9.136C16.4312 9.136 16.433 9.136 16.4349 9.136C16.4368 9.136 16.4387 9.136 16.4406 9.136C16.4425 9.136 16.4443 9.136 16.4462 9.136C16.4481 9.136 16.45 9.136 16.4519 9.136C16.4538 9.136 16.4556 9.136 16.4575 9.136C16.4594 9.136 16.4613 9.136 16.4632 9.136C16.465 9.136 16.4669 9.136 16.4688 9.136C16.4707 9.136 16.4726 9.136 16.4745 9.136C16.4763 9.136 16.4782 9.136 16.4801 9.136C16.482 9.136 16.4838 9.136 16.4857 9.136C16.4876 9.136 16.4895 9.136 16.4914 9.136C16.4932 9.136 16.4951 9.136 16.497 9.136C16.4989 9.136 16.5007 9.136 16.5026 9.136C16.5045 9.136 16.5064 9.136 16.5083 9.136C16.5101 9.136 16.512 9.136 16.5139 9.136C16.5158 9.136 16.5176 9.136 16.5195 9.136C16.5214 9.136 16.5232 9.136 16.5251 9.136C16.527 9.136 16.5289 9.136 16.5307 9.136C16.5326 9.136 16.5345 9.136 16.5364 9.136C16.5382 9.136 16.5401 9.136 16.542 9.136C16.5438 9.136 16.5457 9.136 16.5476 9.136C16.5495 9.136 16.5513 9.136 16.5532 9.136C16.5551 9.136 16.5569 9.136 16.5588 9.136C16.5607 9.136 16.5625 9.136 16.5644 9.136C16.5663 9.136 16.5681 9.136 16.57 9.136C16.5719 9.136 16.5737 9.136 16.5756 9.136C16.5775 9.136 16.5793 9.136 16.5812 9.136C16.5831 9.136 16.5849 9.136 16.5868 9.136C16.5887 9.136 16.5905 9.136 16.5924 9.136C16.5943 9.136 16.5961 9.136 16.598 9.136C16.5999 9.136 16.6017 9.136 16.6036 9.136C16.6054 9.136 16.6073 9.136 16.6092 9.136C16.611 9.136 16.6129 9.136 16.6148 9.136C16.6166 9.136 16.6185 9.136 16.6203 9.136C16.6222 9.136 16.6241 9.136 16.6259 9.136C16.6278 9.136 16.6296 9.136 16.6315 9.136C16.6334 9.136 16.6352 9.136 16.6371 9.136C16.6389 9.136 16.6408 9.136 16.6427 9.136C16.6445 9.136 16.6464 9.136 16.6482 9.136C16.6501 9.136 16.6519 9.136 16.6538 9.136C16.6557 9.136 16.6575 9.136 16.6594 9.136C16.6612 9.136 16.6631 9.136 16.6649 9.136C16.6668 9.136 16.6686 9.136 16.6705 9.136C16.6723 9.136 16.6742 9.136 16.6761 9.136C16.6779 9.136 16.6798 9.136 16.6816 9.136C16.6835 9.136 16.6853 9.136 16.6872 9.136C16.689 9.136 16.6909 9.136 16.6927 9.136C16.6946 9.136 16.6964 9.136 16.6983 9.136C16.7001 9.136 16.702 9.136 16.7038 9.136C16.7057 9.136 16.7075 9.136 16.7094 9.136C16.7112 9.136 16.7131 9.136 16.7149 9.136C16.7168 9.136 16.7186 9.136 16.7205 9.136C16.7223 9.136 16.7242 9.136 16.726 9.136C16.7279 9.136 16.7297 9.136 16.7316 9.136C16.7334 9.136 16.7352 9.136 16.7371 9.136C16.7389 9.136 16.7408 9.136 16.7426 9.136C16.7445 9.136 16.7463 9.136 16.7482 9.136C16.75 9.136 16.7518 9.136 16.7537 9.136C16.7555 9.136 16.7574 9.136 16.7592 9.136C16.7611 9.136 16.7629 9.136 16.7647 9.136C16.7666 9.136 16.7684 9.136 16.7703 9.136C16.7721 9.136 16.7739 9.136 16.7758 9.136C16.7776 9.136 16.7795 9.136 16.7813 9.136C16.7831 9.136 16.785 9.136 16.7868 9.136C16.7887 9.136 16.7905 9.136 16.7923 9.136C16.7942 9.136 16.796 9.136 16.7979 9.136C16.7997 9.136 16.8015 9.136 16.8034 9.136C16.8052 9.136 16.807 9.136 16.8089 9.136C16.8107 9.136 16.8125 9.136 16.8144 9.136C16.8162 9.136 16.8181 9.136 16.8199 9.136C16.8217 9.136 16.8236 9.136 16.8254 9.136C16.8272 9.136 16.8291 9.136 16.8309 9.136C16.8327 9.136 16.8346 9.136 16.8364 9.136C16.8382 9.136 16.8401 9.136 16.8419 9.136C16.8437 9.136 16.8455 9.136 16.8474 9.136C16.8492 9.136 16.851 9.136 16.8529 9.136C16.8547 9.136 16.8565 9.136 16.8584 9.136C16.8602 9.136 16.862 9.136 16.8638 9.136C16.8657 9.136 16.8675 9.136 16.8693 9.136C16.8712 9.136 16.873 9.136 16.8748 9.136C16.8766 9.136 16.8785 9.136 16.8803 9.136C16.8821 9.136 16.8839 9.136 16.8858 9.136C16.8876 9.136 16.8894 9.136 16.8912 9.136C16.8931 9.136 16.8949 9.136 16.8967 9.136C16.8985 9.136 16.9004 9.136 16.9022 9.136C16.904 9.136 16.9058 9.136 16.9077 9.136C16.9095 9.136 16.9113 9.136 16.9131 9.136C16.9149 9.136 16.9168 9.136 16.9186 9.136C16.9204 9.136 16.9222 9.136 16.9241 9.136C16.9259 9.136 16.9277 9.136 16.9295 9.136C16.9313 9.136 16.9332 9.136 16.935 9.136C16.9368 9.136 16.9386 9.136 16.9404 9.136C16.9422 9.136 16.9441 9.136 16.9459 9.136C16.9477 9.136 16.9495 9.136 16.9513 9.136C16.9532 9.136 16.955 9.136 16.9568 9.136C16.9586 9.136 16.9604 9.136 16.9622 9.136C16.964 9.136 16.9659 9.136 16.9677 9.136C16.9695 9.136 16.9713 9.136 16.9731 9.136C16.9749 9.136 16.9767 9.136 16.9786 9.136C16.9804 9.136 16.9822 9.136 16.984 9.136C16.9858 9.136 16.9876 9.136 16.9894 9.136C16.9912 9.136 16.9931 9.136 16.9949 9.136C16.9967 9.136 16.9985 9.136 17.0003 9.136C17.0021 9.136 17.0039 9.136 17.0057 9.136C17.0075 9.136 17.0094 9.136 17.0112 9.136C17.013 9.136 17.0148 9.136 17.0166 9.136C17.0184 9.136 17.0202 9.136 17.022 9.136C17.0238 9.136 17.0256 9.136 17.0274 9.136C17.0292 9.136 17.031 9.136 17.0328 9.136C17.0347 9.136 17.0365 9.136 17.0383 9.136C17.0401 9.136 17.0419 9.136 17.0437 9.136C17.0455 9.136 17.0473 9.136 17.0491 9.136C17.0509 9.136 17.0527 9.136 17.0545 9.136C17.0563 9.136 17.0581 9.136 17.0599 9.136C17.0617 9.136 17.0635 9.136 17.0653 9.136C17.0671 9.136 17.0689 9.136 17.0707 9.136C17.0725 9.136 17.0743 9.136 17.0761 9.136C17.0779 9.136 17.0797 9.136 17.0815 9.136C17.0833 9.136 17.0851 9.136 17.0869 9.136C17.0887 9.136 17.0905 9.136 17.0923 9.136C17.0941 9.136 17.0959 9.136 17.0977 9.136C17.0995 9.136 17.1013 9.136 17.1031 9.136C17.1049 9.136 17.1067 9.136 17.1085 9.136C17.1103 9.136 17.1121 9.136 17.1139 9.136C17.1157 9.136 17.1175 9.136 17.1193 9.136C17.121 9.136 17.1228 9.136 17.1246 9.136C17.1264 9.136 17.1282 9.136 17.13 9.136C17.1318 9.136 17.1336 9.136 17.1354 9.136C17.1372 9.136 17.139 9.136 17.1408 9.136C17.1426 9.136 17.1443 9.136 17.1461 9.136C17.1479 9.136 17.1497 9.136 17.1515 9.136C17.1533 9.136 17.1551 9.136 17.1569 9.136C17.1587 9.136 17.1605 9.136 17.1622 9.136C17.164 9.136 17.1658 9.136 17.1676 9.136C17.1694 9.136 17.1712 9.136 17.173 9.136C17.1748 9.136 17.1765 9.136 17.1783 9.136C17.1801 9.136 17.1819 9.136 17.1837 9.136C17.1855 9.136 17.1873 9.136 17.189 9.136C17.1908 9.136 17.1926 9.136 17.1944 9.136C17.1962 9.136 17.198 9.136 17.1997 9.136C17.2015 9.136 17.2033 9.136 17.2051 9.136C17.2069 9.136 17.2087 9.136 17.2104 9.136C17.2122 9.136 17.214 9.136 17.2158 9.136C17.2176 9.136 17.2193 9.136 17.2211 9.136C17.2229 9.136 17.2247 9.136 17.2265 9.136C17.2282 9.136 17.23 9.136 17.2318 9.136C17.2336 9.136 17.2354 9.136 17.2371 9.136C17.2389 9.136 17.2407 9.136 17.2425 9.136C17.2442 9.136 17.246 9.136 17.2478 9.136C17.2496 9.136 17.2514 9.136 17.2531 9.136C17.2549 9.136 17.2567 9.136 17.2585 9.136C17.2602 9.136 17.262 9.136 17.2638 9.136C17.2656 9.136 17.2673 9.136 17.2691 9.136C17.2709 9.136 17.2726 9.136 17.2744 9.136C17.2762 9.136 17.278 9.136 17.2797 9.136C17.2815 9.136 17.2833 9.136 17.2851 9.136C17.2868 9.136 17.2886 9.136 17.2904 9.136C17.2921 9.136 17.2939 9.136 17.2957 9.136C17.2975 9.136 17.2992 9.136 17.301 9.136C17.3028 9.136 17.3045 9.136 17.3063 9.136C17.3081 9.136 17.3098 9.136 17.3116 9.136C17.3134 9.136 17.3151 9.136 17.3169 9.136C17.3187 9.136 17.3204 9.136 17.3222 9.136C17.324 9.136 17.3257 9.136 17.3275 9.136C17.3293 9.136 17.331 9.136 17.3328 9.136C17.3346 9.136 17.3363 9.136 17.3381 9.136C17.3399 9.136 17.3416 9.136 17.3434 9.136C17.3451 9.136 17.3469 9.136 17.3487 9.136C17.3504 9.136 17.3522 9.136 17.354 9.136C17.3557 9.136 17.3575 9.136 17.3592 9.136C17.361 9.136 17.3628 9.136 17.3645 9.136C17.3663 9.136 17.368 9.136 17.3698 9.136C17.3716 9.136 17.3733 9.136 17.3751 9.136C17.3768 9.136 17.3786 9.136 17.3804 9.136C17.3821 9.136 17.3839 9.136 17.3856 9.136C17.3874 9.136 17.3891 9.136 17.3909 9.136C17.3927 9.136 17.3944 9.136 17.3962 9.136C17.3979 9.136 17.3997 9.136 17.4014 9.136C17.4032 9.136 17.405 9.136 17.4067 9.136C17.4085 9.136 17.4102 9.136 17.412 9.136C17.4137 9.136 17.4155 9.136 17.4172 9.136C17.419 9.136 17.4207 9.136 17.4225 9.136C17.4242 9.136 17.426 9.136 17.4277 9.136C17.4295 9.136 17.4312 9.136 17.433 9.136C17.4348 9.136 17.4365 9.136 17.4383 9.136C17.44 9.136 17.4418 9.136 17.4435 9.136C17.4453 9.136 17.447 9.136 17.4487 9.136C17.4505 9.136 17.4522 9.136 17.454 9.136C17.4557 9.136 17.4575 9.136 17.4592 9.136C17.461 9.136 17.4627 9.136 17.4645 9.136C17.4662 9.136 17.468 9.136 17.4697 9.136C17.4715 9.136 17.4732 9.136 17.475 9.136C17.4767 9.136 17.4784 9.136 17.4802 9.136C17.4819 9.136 17.4837 9.136 17.4854 9.136C17.4872 9.136 17.4889 9.136 17.4906 9.136C17.4924 9.136 17.4941 9.136 17.4959 9.136C17.4976 9.136 17.4994 9.136 17.5011 9.136C17.5028 9.136 17.5046 9.136 17.5063 9.136C17.5081 9.136 17.5098 9.136 17.5115 9.136C17.5133 9.136 17.515 9.136 17.5168 9.136C17.5185 9.136 17.5202 9.136 17.522 9.136C17.5237 9.136 17.5255 9.136 17.5272 9.136C17.5289 9.136 17.5307 9.136 17.5324 9.136C17.5341 9.136 17.5359 9.136 17.5376 9.136C17.5394 9.136 17.5411 9.136 17.5428 9.136C17.5446 9.136 17.5463 9.136 17.548 9.136C17.5498 9.136 17.5515 9.136 17.5532 9.136C17.555 9.136 17.5567 9.136 17.5584 9.136C17.5602 9.136 17.5619 9.136 17.5636 9.136C17.5654 9.136 17.5671 9.136 17.5688 9.136C17.5706 9.136 17.5723 9.136 17.574 9.136C17.5758 9.136 17.5775 9.136 17.5792 9.136C17.581 9.136 17.5827 9.136 17.5844 9.136C17.5861 9.136 17.5879 9.136 17.5896 9.136C17.5913 9.136 17.5931 9.136 17.5948 9.136C17.5965 9.136 17.5982 9.136 17.6 9.136C17.6017 9.136 17.6034 9.136 17.6051 9.136C17.6069 9.136 17.6086 9.136 17.6103 9.136C17.6121 9.136 17.6138 9.136 17.6155 9.136C17.6172 9.136 17.619 9.136 17.6207 9.136C17.6224 9.136 17.6241 9.136 17.6259 9.136C17.6276 9.136 17.6293 9.136 17.631 9.136C17.6327 9.136 17.6345 9.136 17.6362 9.136C17.6379 9.136 17.6396 9.136 17.6414 9.136C17.6431 9.136 17.6448 9.136 17.6465 9.136C17.6482 9.136 17.65 9.136 17.6517 9.136C17.6534 9.136 17.6551 9.136 17.6568 9.136C17.6586 9.136 17.6603 9.136 17.662 9.136C17.6637 9.136 17.6654 9.136 17.6672 9.136C17.6689 9.136 17.6706 9.136 17.6723 9.136C17.674 9.136 17.6757 9.136 17.6775 9.136C17.6792 9.136 17.6809 9.136 17.6826 9.136C17.6843 9.136 17.686 9.136 17.6878 9.136C17.6895 9.136 17.6912 9.136 17.6929 9.136C17.6946 9.136 17.6963 9.136 17.698 9.136C17.6998 9.136 17.7015 9.136 17.7032 9.136C17.7049 9.136 17.7066 9.136 17.7083 9.136C17.71 9.136 17.7117 9.136 17.7135 9.136C17.7152 9.136 17.7169 9.136 17.7186 9.136C17.7203 9.136 17.722 9.136 17.7237 9.136C17.7254 9.136 17.7271 9.136 17.7288 9.136C17.7306 9.136 17.7323 9.136 17.734 9.136C17.7357 9.136 17.7374 9.136 17.7391 9.136C17.7408 9.136 17.7425 9.136 17.7442 9.136C17.7459 9.136 17.7476 9.136 17.7493 9.136C17.751 9.136 17.7528 9.136 17.7545 9.136C17.7562 9.136 17.7579 9.136 17.7596 9.136C17.7613 9.136 17.763 9.136 17.7647 9.136C17.7664 9.136 17.7681 9.136 17.7698 9.136C17.7715 9.136 17.7732 9.136 17.7749 9.136C17.7766 9.136 17.7783 9.136 17.78 9.136C17.7817 9.136 17.7834 9.136 17.7851 9.136C17.7868 9.136 17.7885 9.136 17.7902 9.136C17.7919 9.136 17.7936 9.136 17.7953 9.136C17.797 9.136 17.7987 9.136 17.8004 9.136C17.8021 9.136 17.8038 9.136 17.8055 9.136C17.8072 9.136 17.8089 9.136 17.8106 9.136C17.8123 9.136 17.814 9.136 17.8157 9.136C17.8174 9.136 17.8191 9.136 17.8208 9.136C17.8225 9.136 17.8242 9.136 17.8259 9.136C17.8276 9.136 17.8293 9.136 17.831 9.136C17.8327 9.136 17.8344 9.136 17.836 9.136C17.8377 9.136 17.8394 9.136 17.8411 9.136C17.8428 9.136 17.8445 9.136 17.8462 9.136C17.8479 9.136 17.8496 9.136 17.8513 9.136C17.853 9.136 17.8547 9.136 17.8564 9.136C17.858 9.136 17.8597 9.136 17.8614 9.136C17.8631 9.136 17.8648 9.136 17.8665 9.136C17.8682 9.136 17.8699 9.136 17.8716 9.136C17.8732 9.136 17.8749 9.136 17.8766 9.136C17.8783 9.136 17.88 9.136 17.8817 9.136C17.8834 9.136 17.8851 9.136 17.8867 9.136C17.8884 9.136 17.8901 9.136 17.8918 9.136C17.8935 9.136 17.8952 9.136 17.8969 9.136C17.8985 9.136 17.9002 9.136 17.9019 9.136C17.9036 9.136 17.9053 9.136 17.907 9.136C17.9087 9.136 17.9103 9.136 17.912 9.136C17.9137 9.136 17.9154 9.136 17.9171 9.136C17.9187 9.136 17.9204 9.136 17.9221 9.136C17.9238 9.136 17.9255 9.136 17.9272 9.136C17.9288 9.136 17.9305 9.136 17.9322 9.136C17.9339 9.136 17.9356 9.136 17.9372 9.136C17.9389 9.136 17.9406 9.136 17.9423 9.136C17.944 9.136 17.9456 9.136 17.9473 9.136C17.949 9.136 17.9507 9.136 17.9523 9.136C17.954 9.136 17.9557 9.136 17.9574 9.136C17.959 9.136 17.9607 9.136 17.9624 9.136C17.9641 9.136 17.9657 9.136 17.9674 9.136C17.9691 9.136 17.9708 9.136 17.9724 9.136C17.9741 9.136 17.9758 9.136 17.9775 9.136C17.9791 9.136 17.9808 9.136 17.9825 9.136C17.9842 9.136 17.9858 9.136 17.9875 9.136C17.9892 9.136 17.9908 9.136 17.9925 9.136C17.9942 9.136 17.9959 9.136 17.9975 9.136C17.9992 9.136 18.0009 9.136 18.0025 9.136C18.0042 9.136 18.0059 9.136 18.0075 9.136C18.0092 9.136 18.0109 9.136 18.0126 9.136C18.0142 9.136 18.0159 9.136 18.0176 9.136C18.0192 9.136 18.0209 9.136 18.0226 9.136C18.0242 9.136 18.0259 9.136 18.0276 9.136C18.0292 9.136 18.0309 9.136 18.0326 9.136C18.0342 9.136 18.0359 9.136 18.0375 9.136C18.0392 9.136 18.0409 9.136 18.0425 9.136C18.0442 9.136 18.0459 9.136 18.0475 9.136C18.0492 9.136 18.0509 9.136 18.0525 9.136C18.0542 9.136 18.0558 9.136 18.0575 9.136C18.0592 9.136 18.0608 9.136 18.0625 9.136C18.0641 9.136 18.0658 9.136 18.0675 9.136C18.0691 9.136 18.0708 9.136 18.0724 9.136C18.0741 9.136 18.0758 9.136 18.0774 9.136C18.0791 9.136 18.0807 9.136 18.0824 9.136C18.0841 9.136 18.0857 9.136 18.0874 9.136C18.089 9.136 18.0907 9.136 18.0923 9.136C18.094 9.136 18.0957 9.136 18.0973 9.136C18.099 9.136 18.1006 9.136 18.1023 9.136C18.1039 9.136 18.1056 9.136 18.1072 9.136C18.1089 9.136 18.1106 9.136 18.1122 9.136C18.1139 9.136 18.1155 9.136 18.1172 9.136C18.1188 9.136 18.1205 9.136 18.1221 9.136C18.1238 9.136 18.1254 9.136 18.1271 9.136C18.1287 9.136 18.1304 9.136 18.132 9.136C18.1337 9.136 18.1353 9.136 18.137 9.136C18.1386 9.136 18.1403 9.136 18.1419 9.136C18.1436 9.136 18.1452 9.136 18.1469 9.136C18.1485 9.136 18.1502 9.136 18.1518 9.136C18.1535 9.136 18.1551 9.136 18.1568 9.136C18.1584 9.136 18.1601 9.136 18.1617 9.136C18.1633 9.136 18.165 9.136 18.1666 9.136C18.1683 9.136 18.1699 9.136 18.1716 9.136C18.1732 9.136 18.1749 9.136 18.1765 9.136C18.1782 9.136 18.1798 9.136 18.1814 9.136C18.1831 9.136 18.1847 9.136 18.1864 9.136C18.188 9.136 18.1897 9.136 18.1913 9.136C18.1929 9.136 18.1946 9.136 18.1962 9.136C18.1979 9.136 18.1995 9.136 18.2011 9.136C18.2028 9.136 18.2044 9.136 18.2061 9.136C18.2077 9.136 18.2093 9.136 18.211 9.136C18.2126 9.136 18.2143 9.136 18.2159 9.136C18.2175 9.136 18.2192 9.136 18.2208 9.136C18.2224 9.136 18.2241 9.136 18.2257 9.136C18.2274 9.136 18.229 9.136 18.2306 9.136C18.2323 9.136 18.2339 9.136 18.2355 9.136C18.2372 9.136 18.2388 9.136 18.2404 9.136C18.2421 9.136 18.2437 9.136 18.2453 9.136C18.247 9.136 18.2486 9.136 18.2502 9.136C18.2519 9.136 18.2535 9.136 18.2551 9.136C18.2568 9.136 18.2584 9.136 18.26 9.136C18.2617 9.136 18.2633 9.136 18.2649 9.136C18.2666 9.136 18.2682 9.136 18.2698 9.136C18.2715 9.136 18.2731 9.136 18.2747 9.136C18.2763 9.136 18.278 9.136 18.2796 9.136C18.2812 9.136 18.2829 9.136 18.2845 9.136C18.2861 9.136 18.2877 9.136 18.2894 9.136C18.291 9.136 18.2926 9.136 18.2942 9.136C18.2959 9.136 18.2975 9.136 18.2991 9.136C18.3008 9.136 18.3024 9.136 18.304 9.136V7.136ZM15.52 7.136C14.5378 7.136 13.5556 7.16874 12.5735 7.23421L12.7065 9.22978C13.6444 9.16726 14.5822 9.136 15.52 9.136V7.136ZM12.5735 7.23421C11.6106 7.29841 10.7112 7.36265 9.87531 7.42694L10.0287 9.42105C10.8568 9.35735 11.7494 9.29359 12.7065 9.22978L12.5735 7.23421ZM9.86896 7.42745C9.09292 7.49212 8.46275 7.55802 7.98657 7.62605L8.26943 9.60595C8.68926 9.54597 9.27509 9.48387 10.035 9.42054L9.86896 7.42745ZM7.128 8.616V62.376H9.128V8.616H7.128ZM7.93188 63.3566C8.32271 63.4347 8.99126 63.5019 9.88075 63.5655L10.0232 61.5705C9.12074 61.5061 8.5733 61.4453 8.32412 61.3954L7.93188 63.3566ZM9.952 63.568C10.8243 63.568 11.73 63.5992 12.6695 63.6618L12.8025 61.6662C11.822 61.6008 10.8717 61.568 9.952 61.568V63.568ZM12.736 63.664C13.6738 63.664 14.578 63.6953 15.4488 63.7575L15.5912 61.7625C14.67 61.6967 13.7182 61.664 12.736 61.664V63.664ZM15.52 63.76C15.5218 63.76 15.5235 63.76 15.5252 63.76C15.527 63.76 15.5287 63.76 15.5305 63.76C15.5322 63.76 15.534 63.76 15.5357 63.76C15.5375 63.76 15.5392 63.76 15.5409 63.76C15.5427 63.76 15.5444 63.76 15.5462 63.76C15.5479 63.76 15.5496 63.76 15.5514 63.76C15.5531 63.76 15.5549 63.76 15.5566 63.76C15.5583 63.76 15.5601 63.76 15.5618 63.76C15.5635 63.76 15.5653 63.76 15.567 63.76C15.5687 63.76 15.5704 63.76 15.5722 63.76C15.5739 63.76 15.5756 63.76 15.5774 63.76C15.5791 63.76 15.5808 63.76 15.5825 63.76C15.5842 63.76 15.586 63.76 15.5877 63.76C15.5894 63.76 15.5911 63.76 15.5929 63.76C15.5946 63.76 15.5963 63.76 15.598 63.76C15.5997 63.76 15.6014 63.76 15.6032 63.76C15.6049 63.76 15.6066 63.76 15.6083 63.76C15.61 63.76 15.6117 63.76 15.6134 63.76C15.6151 63.76 15.6169 63.76 15.6186 63.76C15.6203 63.76 15.622 63.76 15.6237 63.76C15.6254 63.76 15.6271 63.76 15.6288 63.76C15.6305 63.76 15.6322 63.76 15.6339 63.76C15.6356 63.76 15.6373 63.76 15.639 63.76C15.6407 63.76 15.6424 63.76 15.6441 63.76C15.6458 63.76 15.6475 63.76 15.6492 63.76C15.6509 63.76 15.6526 63.76 15.6543 63.76C15.656 63.76 15.6577 63.76 15.6593 63.76C15.661 63.76 15.6627 63.76 15.6644 63.76C15.6661 63.76 15.6678 63.76 15.6695 63.76C15.6712 63.76 15.6729 63.76 15.6745 63.76C15.6762 63.76 15.6779 63.76 15.6796 63.76C15.6813 63.76 15.6829 63.76 15.6846 63.76C15.6863 63.76 15.688 63.76 15.6897 63.76C15.6913 63.76 15.693 63.76 15.6947 63.76C15.6964 63.76 15.698 63.76 15.6997 63.76C15.7014 63.76 15.7031 63.76 15.7047 63.76C15.7064 63.76 15.7081 63.76 15.7097 63.76C15.7114 63.76 15.7131 63.76 15.7147 63.76C15.7164 63.76 15.7181 63.76 15.7197 63.76C15.7214 63.76 15.7231 63.76 15.7247 63.76C15.7264 63.76 15.7281 63.76 15.7297 63.76C15.7314 63.76 15.733 63.76 15.7347 63.76C15.7363 63.76 15.738 63.76 15.7397 63.76C15.7413 63.76 15.743 63.76 15.7446 63.76C15.7463 63.76 15.7479 63.76 15.7496 63.76C15.7512 63.76 15.7529 63.76 15.7545 63.76C15.7562 63.76 15.7578 63.76 15.7595 63.76C15.7611 63.76 15.7628 63.76 15.7644 63.76C15.7661 63.76 15.7677 63.76 15.7693 63.76C15.771 63.76 15.7726 63.76 15.7743 63.76C15.7759 63.76 15.7775 63.76 15.7792 63.76C15.7808 63.76 15.7825 63.76 15.7841 63.76C15.7857 63.76 15.7874 63.76 15.789 63.76C15.7906 63.76 15.7923 63.76 15.7939 63.76C15.7955 63.76 15.7972 63.76 15.7988 63.76C15.8004 63.76 15.802 63.76 15.8037 63.76C15.8053 63.76 15.8069 63.76 15.8085 63.76C15.8102 63.76 15.8118 63.76 15.8134 63.76C15.815 63.76 15.8167 63.76 15.8183 63.76C15.8199 63.76 15.8215 63.76 15.8231 63.76C15.8248 63.76 15.8264 63.76 15.828 63.76C15.8296 63.76 15.8312 63.76 15.8328 63.76C15.8344 63.76 15.8361 63.76 15.8377 63.76C15.8393 63.76 15.8409 63.76 15.8425 63.76C15.8441 63.76 15.8457 63.76 15.8473 63.76C15.8489 63.76 15.8505 63.76 15.8521 63.76C15.8537 63.76 15.8554 63.76 15.857 63.76C15.8586 63.76 15.8602 63.76 15.8618 63.76C15.8634 63.76 15.865 63.76 15.8666 63.76C15.8682 63.76 15.8698 63.76 15.8714 63.76C15.8729 63.76 15.8745 63.76 15.8761 63.76C15.8777 63.76 15.8793 63.76 15.8809 63.76C15.8825 63.76 15.8841 63.76 15.8857 63.76C15.8873 63.76 15.8889 63.76 15.8905 63.76C15.892 63.76 15.8936 63.76 15.8952 63.76C15.8968 63.76 15.8984 63.76 15.9 63.76C15.9015 63.76 15.9031 63.76 15.9047 63.76C15.9063 63.76 15.9079 63.76 15.9094 63.76C15.911 63.76 15.9126 63.76 15.9142 63.76C15.9158 63.76 15.9173 63.76 15.9189 63.76C15.9205 63.76 15.9221 63.76 15.9236 63.76C15.9252 63.76 15.9268 63.76 15.9283 63.76C15.9299 63.76 15.9315 63.76 15.933 63.76C15.9346 63.76 15.9362 63.76 15.9377 63.76C15.9393 63.76 15.9409 63.76 15.9424 63.76C15.944 63.76 15.9456 63.76 15.9471 63.76C15.9487 63.76 15.9502 63.76 15.9518 63.76C15.9534 63.76 15.9549 63.76 15.9565 63.76C15.958 63.76 15.9596 63.76 15.9611 63.76C15.9627 63.76 15.9643 63.76 15.9658 63.76C15.9674 63.76 15.9689 63.76 15.9705 63.76C15.972 63.76 15.9736 63.76 15.9751 63.76C15.9767 63.76 15.9782 63.76 15.9797 63.76C15.9813 63.76 15.9828 63.76 15.9844 63.76C15.9859 63.76 15.9875 63.76 15.989 63.76C15.9905 63.76 15.9921 63.76 15.9936 63.76C15.9952 63.76 15.9967 63.76 15.9982 63.76C15.9998 63.76 16.0013 63.76 16.0028 63.76C16.0044 63.76 16.0059 63.76 16.0074 63.76C16.009 63.76 16.0105 63.76 16.012 63.76C16.0136 63.76 16.0151 63.76 16.0166 63.76C16.0182 63.76 16.0197 63.76 16.0212 63.76C16.0227 63.76 16.0243 63.76 16.0258 63.76C16.0273 63.76 16.0288 63.76 16.0304 63.76C16.0319 63.76 16.0334 63.76 16.0349 63.76C16.0364 63.76 16.038 63.76 16.0395 63.76C16.041 63.76 16.0425 63.76 16.044 63.76C16.0455 63.76 16.047 63.76 16.0486 63.76C16.0501 63.76 16.0516 63.76 16.0531 63.76C16.0546 63.76 16.0561 63.76 16.0576 63.76C16.0591 63.76 16.0606 63.76 16.0621 63.76C16.0636 63.76 16.0652 63.76 16.0667 63.76C16.0682 63.76 16.0697 63.76 16.0712 63.76C16.0727 63.76 16.0742 63.76 16.0757 63.76C16.0772 63.76 16.0787 63.76 16.0802 63.76C16.0817 63.76 16.0832 63.76 16.0847 63.76C16.0861 63.76 16.0876 63.76 16.0891 63.76C16.0906 63.76 16.0921 63.76 16.0936 63.76C16.0951 63.76 16.0966 63.76 16.0981 63.76C16.0996 63.76 16.1011 63.76 16.1025 63.76C16.104 63.76 16.1055 63.76 16.107 63.76C16.1085 63.76 16.11 63.76 16.1114 63.76C16.1129 63.76 16.1144 63.76 16.1159 63.76C16.1174 63.76 16.1188 63.76 16.1203 63.76C16.1218 63.76 16.1233 63.76 16.1248 63.76C16.1262 63.76 16.1277 63.76 16.1292 63.76C16.1306 63.76 16.1321 63.76 16.1336 63.76C16.1351 63.76 16.1365 63.76 16.138 63.76C16.1395 63.76 16.1409 63.76 16.1424 63.76C16.1439 63.76 16.1453 63.76 16.1468 63.76C16.1483 63.76 16.1497 63.76 16.1512 63.76C16.1527 63.76 16.1541 63.76 16.1556 63.76C16.157 63.76 16.1585 63.76 16.1599 63.76C16.1614 63.76 16.1629 63.76 16.1643 63.76C16.1658 63.76 16.1672 63.76 16.1687 63.76C16.1701 63.76 16.1716 63.76 16.173 63.76C16.1745 63.76 16.1759 63.76 16.1774 63.76C16.1788 63.76 16.1803 63.76 16.1817 63.76C16.1832 63.76 16.1846 63.76 16.1861 63.76C16.1875 63.76 16.189 63.76 16.1904 63.76C16.1918 63.76 16.1933 63.76 16.1947 63.76C16.1962 63.76 16.1976 63.76 16.199 63.76C16.2005 63.76 16.2019 63.76 16.2034 63.76C16.2048 63.76 16.2062 63.76 16.2077 63.76C16.2091 63.76 16.2105 63.76 16.212 63.76C16.2134 63.76 16.2148 63.76 16.2162 63.76C16.2177 63.76 16.2191 63.76 16.2205 63.76C16.222 63.76 16.2234 63.76 16.2248 63.76C16.2262 63.76 16.2277 63.76 16.2291 63.76C16.2305 63.76 16.2319 63.76 16.2333 63.76C16.2348 63.76 16.2362 63.76 16.2376 63.76C16.239 63.76 16.2404 63.76 16.2419 63.76C16.2433 63.76 16.2447 63.76 16.2461 63.76C16.2475 63.76 16.2489 63.76 16.2503 63.76C16.2517 63.76 16.2532 63.76 16.2546 63.76C16.256 63.76 16.2574 63.76 16.2588 63.76C16.2602 63.76 16.2616 63.76 16.263 63.76C16.2644 63.76 16.2658 63.76 16.2672 63.76C16.2686 63.76 16.27 63.76 16.2714 63.76C16.2728 63.76 16.2742 63.76 16.2756 63.76C16.277 63.76 16.2784 63.76 16.2798 63.76C16.2812 63.76 16.2826 63.76 16.284 63.76C16.2854 63.76 16.2868 63.76 16.2882 63.76C16.2896 63.76 16.291 63.76 16.2924 63.76C16.2937 63.76 16.2951 63.76 16.2965 63.76C16.2979 63.76 16.2993 63.76 16.3007 63.76C16.3021 63.76 16.3034 63.76 16.3048 63.76C16.3062 63.76 16.3076 63.76 16.309 63.76C16.3104 63.76 16.3117 63.76 16.3131 63.76C16.3145 63.76 16.3159 63.76 16.3172 63.76C16.3186 63.76 16.32 63.76 16.3214 63.76C16.3227 63.76 16.3241 63.76 16.3255 63.76C16.3269 63.76 16.3282 63.76 16.3296 63.76C16.331 63.76 16.3323 63.76 16.3337 63.76C16.3351 63.76 16.3364 63.76 16.3378 63.76C16.3392 63.76 16.3405 63.76 16.3419 63.76C16.3433 63.76 16.3446 63.76 16.346 63.76C16.3474 63.76 16.3487 63.76 16.3501 63.76C16.3514 63.76 16.3528 63.76 16.3541 63.76C16.3555 63.76 16.3569 63.76 16.3582 63.76C16.3596 63.76 16.3609 63.76 16.3623 63.76C16.3636 63.76 16.365 63.76 16.3663 63.76C16.3677 63.76 16.369 63.76 16.3704 63.76C16.3717 63.76 16.3731 63.76 16.3744 63.76C16.3758 63.76 16.3771 63.76 16.3784 63.76C16.3798 63.76 16.3811 63.76 16.3825 63.76C16.3838 63.76 16.3852 63.76 16.3865 63.76C16.3878 63.76 16.3892 63.76 16.3905 63.76C16.3918 63.76 16.3932 63.76 16.3945 63.76C16.3959 63.76 16.3972 63.76 16.3985 63.76C16.3999 63.76 16.4012 63.76 16.4025 63.76C16.4038 63.76 16.4052 63.76 16.4065 63.76C16.4078 63.76 16.4092 63.76 16.4105 63.76C16.4118 63.76 16.4131 63.76 16.4145 63.76C16.4158 63.76 16.4171 63.76 16.4184 63.76C16.4197 63.76 16.4211 63.76 16.4224 63.76C16.4237 63.76 16.425 63.76 16.4263 63.76C16.4277 63.76 16.429 63.76 16.4303 63.76C16.4316 63.76 16.4329 63.76 16.4342 63.76C16.4355 63.76 16.4369 63.76 16.4382 63.76C16.4395 63.76 16.4408 63.76 16.4421 63.76C16.4434 63.76 16.4447 63.76 16.446 63.76C16.4473 63.76 16.4486 63.76 16.4499 63.76C16.4512 63.76 16.4525 63.76 16.4538 63.76C16.4551 63.76 16.4564 63.76 16.4577 63.76C16.459 63.76 16.4603 63.76 16.4616 63.76C16.4629 63.76 16.4642 63.76 16.4655 63.76C16.4668 63.76 16.4681 63.76 16.4694 63.76C16.4707 63.76 16.472 63.76 16.4733 63.76C16.4746 63.76 16.4759 63.76 16.4772 63.76C16.4784 63.76 16.4797 63.76 16.481 63.76C16.4823 63.76 16.4836 63.76 16.4849 63.76C16.4862 63.76 16.4874 63.76 16.4887 63.76C16.49 63.76 16.4913 63.76 16.4926 63.76C16.4938 63.76 16.4951 63.76 16.4964 63.76C16.4977 63.76 16.499 63.76 16.5002 63.76C16.5015 63.76 16.5028 63.76 16.504 63.76C16.5053 63.76 16.5066 63.76 16.5079 63.76C16.5091 63.76 16.5104 63.76 16.5117 63.76C16.5129 63.76 16.5142 63.76 16.5155 63.76C16.5167 63.76 16.518 63.76 16.5193 63.76C16.5205 63.76 16.5218 63.76 16.5231 63.76C16.5243 63.76 16.5256 63.76 16.5268 63.76C16.5281 63.76 16.5294 63.76 16.5306 63.76C16.5319 63.76 16.5331 63.76 16.5344 63.76C16.5357 63.76 16.5369 63.76 16.5382 63.76C16.5394 63.76 16.5407 63.76 16.5419 63.76C16.5432 63.76 16.5444 63.76 16.5457 63.76C16.5469 63.76 16.5482 63.76 16.5494 63.76C16.5507 63.76 16.5519 63.76 16.5531 63.76C16.5544 63.76 16.5556 63.76 16.5569 63.76C16.5581 63.76 16.5594 63.76 16.5606 63.76C16.5618 63.76 16.5631 63.76 16.5643 63.76C16.5656 63.76 16.5668 63.76 16.568 63.76C16.5693 63.76 16.5705 63.76 16.5717 63.76C16.573 63.76 16.5742 63.76 16.5754 63.76C16.5767 63.76 16.5779 63.76 16.5791 63.76C16.5804 63.76 16.5816 63.76 16.5828 63.76C16.584 63.76 16.5853 63.76 16.5865 63.76C16.5877 63.76 16.5889 63.76 16.5902 63.76C16.5914 63.76 16.5926 63.76 16.5938 63.76C16.595 63.76 16.5963 63.76 16.5975 63.76C16.5987 63.76 16.5999 63.76 16.6011 63.76C16.6023 63.76 16.6036 63.76 16.6048 63.76C16.606 63.76 16.6072 63.76 16.6084 63.76C16.6096 63.76 16.6108 63.76 16.612 63.76C16.6133 63.76 16.6145 63.76 16.6157 63.76C16.6169 63.76 16.6181 63.76 16.6193 63.76C16.6205 63.76 16.6217 63.76 16.6229 63.76C16.6241 63.76 16.6253 63.76 16.6265 63.76C16.6277 63.76 16.6289 63.76 16.6301 63.76C16.6313 63.76 16.6325 63.76 16.6337 63.76C16.6349 63.76 16.6361 63.76 16.6373 63.76C16.6385 63.76 16.6397 63.76 16.6409 63.76C16.6421 63.76 16.6432 63.76 16.6444 63.76C16.6456 63.76 16.6468 63.76 16.648 63.76C16.6492 63.76 16.6504 63.76 16.6516 63.76C16.6527 63.76 16.6539 63.76 16.6551 63.76C16.6563 63.76 16.6575 63.76 16.6587 63.76C16.6598 63.76 16.661 63.76 16.6622 63.76C16.6634 63.76 16.6646 63.76 16.6657 63.76C16.6669 63.76 16.6681 63.76 16.6693 63.76C16.6704 63.76 16.6716 63.76 16.6728 63.76C16.6739 63.76 16.6751 63.76 16.6763 63.76C16.6775 63.76 16.6786 63.76 16.6798 63.76C16.681 63.76 16.6821 63.76 16.6833 63.76C16.6845 63.76 16.6856 63.76 16.6868 63.76C16.688 63.76 16.6891 63.76 16.6903 63.76C16.6914 63.76 16.6926 63.76 16.6938 63.76C16.6949 63.76 16.6961 63.76 16.6972 63.76C16.6984 63.76 16.6995 63.76 16.7007 63.76C16.7019 63.76 16.703 63.76 16.7042 63.76C16.7053 63.76 16.7065 63.76 16.7076 63.76C16.7088 63.76 16.7099 63.76 16.7111 63.76C16.7122 63.76 16.7134 63.76 16.7145 63.76C16.7156 63.76 16.7168 63.76 16.7179 63.76C16.7191 63.76 16.7202 63.76 16.7214 63.76C16.7225 63.76 16.7236 63.76 16.7248 63.76C16.7259 63.76 16.7271 63.76 16.7282 63.76C16.7293 63.76 16.7305 63.76 16.7316 63.76C16.7327 63.76 16.7339 63.76 16.735 63.76C16.7361 63.76 16.7373 63.76 16.7384 63.76C16.7395 63.76 16.7407 63.76 16.7418 63.76C16.7429 63.76 16.744 63.76 16.7452 63.76C16.7463 63.76 16.7474 63.76 16.7485 63.76C16.7497 63.76 16.7508 63.76 16.7519 63.76C16.753 63.76 16.7542 63.76 16.7553 63.76C16.7564 63.76 16.7575 63.76 16.7586 63.76C16.7597 63.76 16.7609 63.76 16.762 63.76C16.7631 63.76 16.7642 63.76 16.7653 63.76C16.7664 63.76 16.7675 63.76 16.7687 63.76C16.7698 63.76 16.7709 63.76 16.772 63.76C16.7731 63.76 16.7742 63.76 16.7753 63.76C16.7764 63.76 16.7775 63.76 16.7786 63.76C16.7797 63.76 16.7808 63.76 16.7819 63.76C16.783 63.76 16.7841 63.76 16.7852 63.76C16.7863 63.76 16.7874 63.76 16.7885 63.76C16.7896 63.76 16.7907 63.76 16.7918 63.76C16.7929 63.76 16.794 63.76 16.7951 63.76C16.7962 63.76 16.7973 63.76 16.7984 63.76C16.7995 63.76 16.8005 63.76 16.8016 63.76C16.8027 63.76 16.8038 63.76 16.8049 63.76C16.806 63.76 16.8071 63.76 16.8082 63.76C16.8092 63.76 16.8103 63.76 16.8114 63.76C16.8125 63.76 16.8136 63.76 16.8146 63.76C16.8157 63.76 16.8168 63.76 16.8179 63.76C16.819 63.76 16.82 63.76 16.8211 63.76C16.8222 63.76 16.8233 63.76 16.8243 63.76C16.8254 63.76 16.8265 63.76 16.8276 63.76C16.8286 63.76 16.8297 63.76 16.8308 63.76C16.8318 63.76 16.8329 63.76 16.834 63.76C16.835 63.76 16.8361 63.76 16.8372 63.76C16.8382 63.76 16.8393 63.76 16.8404 63.76C16.8414 63.76 16.8425 63.76 16.8435 63.76C16.8446 63.76 16.8457 63.76 16.8467 63.76C16.8478 63.76 16.8488 63.76 16.8499 63.76C16.8509 63.76 16.852 63.76 16.853 63.76C16.8541 63.76 16.8552 63.76 16.8562 63.76C16.8573 63.76 16.8583 63.76 16.8594 63.76C16.8604 63.76 16.8615 63.76 16.8625 63.76C16.8635 63.76 16.8646 63.76 16.8656 63.76C16.8667 63.76 16.8677 63.76 16.8688 63.76C16.8698 63.76 16.8709 63.76 16.8719 63.76C16.8729 63.76 16.874 63.76 16.875 63.76C16.876 63.76 16.8771 63.76 16.8781 63.76C16.8792 63.76 16.8802 63.76 16.8812 63.76C16.8823 63.76 16.8833 63.76 16.8843 63.76C16.8854 63.76 16.8864 63.76 16.8874 63.76C16.8884 63.76 16.8895 63.76 16.8905 63.76C16.8915 63.76 16.8926 63.76 16.8936 63.76C16.8946 63.76 16.8956 63.76 16.8966 63.76C16.8977 63.76 16.8987 63.76 16.8997 63.76C16.9007 63.76 16.9018 63.76 16.9028 63.76C16.9038 63.76 16.9048 63.76 16.9058 63.76C16.9068 63.76 16.9079 63.76 16.9089 63.76C16.9099 63.76 16.9109 63.76 16.9119 63.76C16.9129 63.76 16.9139 63.76 16.9149 63.76C16.9159 63.76 16.917 63.76 16.918 63.76C16.919 63.76 16.92 63.76 16.921 63.76C16.922 63.76 16.923 63.76 16.924 63.76C16.925 63.76 16.926 63.76 16.927 63.76C16.928 63.76 16.929 63.76 16.93 63.76C16.931 63.76 16.932 63.76 16.933 63.76C16.934 63.76 16.935 63.76 16.936 63.76C16.937 63.76 16.938 63.76 16.939 63.76C16.9399 63.76 16.9409 63.76 16.9419 63.76C16.9429 63.76 16.9439 63.76 16.9449 63.76C16.9459 63.76 16.9469 63.76 16.9479 63.76C16.9488 63.76 16.9498 63.76 16.9508 63.76C16.9518 63.76 16.9528 63.76 16.9538 63.76C16.9547 63.76 16.9557 63.76 16.9567 63.76C16.9577 63.76 16.9586 63.76 16.9596 63.76C16.9606 63.76 16.9616 63.76 16.9626 63.76C16.9635 63.76 16.9645 63.76 16.9655 63.76C16.9664 63.76 16.9674 63.76 16.9684 63.76C16.9694 63.76 16.9703 63.76 16.9713 63.76C16.9723 63.76 16.9732 63.76 16.9742 63.76C16.9752 63.76 16.9761 63.76 16.9771 63.76C16.978 63.76 16.979 63.76 16.98 63.76C16.9809 63.76 16.9819 63.76 16.9829 63.76C16.9838 63.76 16.9848 63.76 16.9857 63.76C16.9867 63.76 16.9876 63.76 16.9886 63.76C16.9895 63.76 16.9905 63.76 16.9915 63.76C16.9924 63.76 16.9934 63.76 16.9943 63.76C16.9953 63.76 16.9962 63.76 16.9972 63.76C16.9981 63.76 16.999 63.76 17 63.76C17.0009 63.76 17.0019 63.76 17.0028 63.76C17.0038 63.76 17.0047 63.76 17.0057 63.76C17.0066 63.76 17.0075 63.76 17.0085 63.76C17.0094 63.76 17.0104 63.76 17.0113 63.76C17.0122 63.76 17.0132 63.76 17.0141 63.76C17.015 63.76 17.016 63.76 17.0169 63.76C17.0178 63.76 17.0188 63.76 17.0197 63.76C17.0206 63.76 17.0216 63.76 17.0225 63.76C17.0234 63.76 17.0243 63.76 17.0253 63.76C17.0262 63.76 17.0271 63.76 17.028 63.76C17.029 63.76 17.0299 63.76 17.0308 63.76C17.0317 63.76 17.0326 63.76 17.0336 63.76C17.0345 63.76 17.0354 63.76 17.0363 63.76C17.0372 63.76 17.0382 63.76 17.0391 63.76C17.04 63.76 17.0409 63.76 17.0418 63.76C17.0427 63.76 17.0436 63.76 17.0445 63.76C17.0455 63.76 17.0464 63.76 17.0473 63.76C17.0482 63.76 17.0491 63.76 17.05 63.76C17.0509 63.76 17.0518 63.76 17.0527 63.76C17.0536 63.76 17.0545 63.76 17.0554 63.76C17.0563 63.76 17.0572 63.76 17.0581 63.76C17.059 63.76 17.0599 63.76 17.0608 63.76C17.0617 63.76 17.0626 63.76 17.0635 63.76C17.0644 63.76 17.0653 63.76 17.0662 63.76C17.0671 63.76 17.068 63.76 17.0689 63.76C17.0698 63.76 17.0707 63.76 17.0715 63.76C17.0724 63.76 17.0733 63.76 17.0742 63.76C17.0751 63.76 17.076 63.76 17.0769 63.76C17.0777 63.76 17.0786 63.76 17.0795 63.76C17.0804 63.76 17.0813 63.76 17.0822 63.76C17.083 63.76 17.0839 63.76 17.0848 63.76C17.0857 63.76 17.0865 63.76 17.0874 63.76C17.0883 63.76 17.0892 63.76 17.09 63.76C17.0909 63.76 17.0918 63.76 17.0927 63.76C17.0935 63.76 17.0944 63.76 17.0953 63.76C17.0961 63.76 17.097 63.76 17.0979 63.76C17.0987 63.76 17.0996 63.76 17.1005 63.76C17.1013 63.76 17.1022 63.76 17.1031 63.76C17.1039 63.76 17.1048 63.76 17.1056 63.76C17.1065 63.76 17.1074 63.76 17.1082 63.76C17.1091 63.76 17.1099 63.76 17.1108 63.76C17.1116 63.76 17.1125 63.76 17.1134 63.76C17.1142 63.76 17.1151 63.76 17.1159 63.76C17.1168 63.76 17.1176 63.76 17.1185 63.76C17.1193 63.76 17.1202 63.76 17.121 63.76C17.1219 63.76 17.1227 63.76 17.1235 63.76C17.1244 63.76 17.1252 63.76 17.1261 63.76C17.1269 63.76 17.1278 63.76 17.1286 63.76C17.1294 63.76 17.1303 63.76 17.1311 63.76C17.132 63.76 17.1328 63.76 17.1336 63.76C17.1345 63.76 17.1353 63.76 17.1361 63.76C17.137 63.76 17.1378 63.76 17.1386 63.76C17.1395 63.76 17.1403 63.76 17.1411 63.76C17.1419 63.76 17.1428 63.76 17.1436 63.76C17.1444 63.76 17.1453 63.76 17.1461 63.76C17.1469 63.76 17.1477 63.76 17.1486 63.76C17.1494 63.76 17.1502 63.76 17.151 63.76C17.1518 63.76 17.1527 63.76 17.1535 63.76C17.1543 63.76 17.1551 63.76 17.1559 63.76C17.1567 63.76 17.1576 63.76 17.1584 63.76C17.1592 63.76 17.16 63.76 17.1608 63.76C17.1616 63.76 17.1624 63.76 17.1632 63.76C17.1641 63.76 17.1649 63.76 17.1657 63.76C17.1665 63.76 17.1673 63.76 17.1681 63.76C17.1689 63.76 17.1697 63.76 17.1705 63.76C17.1713 63.76 17.1721 63.76 17.1729 63.76C17.1737 63.76 17.1745 63.76 17.1753 63.76C17.1761 63.76 17.1769 63.76 17.1777 63.76C17.1785 63.76 17.1793 63.76 17.1801 63.76C17.1809 63.76 17.1817 63.76 17.1825 63.76C17.1833 63.76 17.184 63.76 17.1848 63.76C17.1856 63.76 17.1864 63.76 17.1872 63.76C17.188 63.76 17.1888 63.76 17.1896 63.76C17.1903 63.76 17.1911 63.76 17.1919 63.76C17.1927 63.76 17.1935 63.76 17.1943 63.76C17.195 63.76 17.1958 63.76 17.1966 63.76C17.1974 63.76 17.1982 63.76 17.1989 63.76C17.1997 63.76 17.2005 63.76 17.2013 63.76C17.202 63.76 17.2028 63.76 17.2036 63.76C17.2044 63.76 17.2051 63.76 17.2059 63.76C17.2067 63.76 17.2074 63.76 17.2082 63.76C17.209 63.76 17.2097 63.76 17.2105 63.76C17.2113 63.76 17.212 63.76 17.2128 63.76C17.2136 63.76 17.2143 63.76 17.2151 63.76C17.2158 63.76 17.2166 63.76 17.2174 63.76C17.2181 63.76 17.2189 63.76 17.2196 63.76C17.2204 63.76 17.2211 63.76 17.2219 63.76C17.2227 63.76 17.2234 63.76 17.2242 63.76C17.2249 63.76 17.2257 63.76 17.2264 63.76C17.2272 63.76 17.2279 63.76 17.2287 63.76C17.2294 63.76 17.2302 63.76 17.2309 63.76C17.2317 63.76 17.2324 63.76 17.2331 63.76C17.2339 63.76 17.2346 63.76 17.2354 63.76C17.2361 63.76 17.2368 63.76 17.2376 63.76C17.2383 63.76 17.2391 63.76 17.2398 63.76C17.2405 63.76 17.2413 63.76 17.242 63.76C17.2427 63.76 17.2435 63.76 17.2442 63.76C17.2449 63.76 17.2457 63.76 17.2464 63.76C17.2471 63.76 17.2479 63.76 17.2486 63.76C17.2493 63.76 17.25 63.76 17.2508 63.76C17.2515 63.76 17.2522 63.76 17.253 63.76C17.2537 63.76 17.2544 63.76 17.2551 63.76C17.2558 63.76 17.2566 63.76 17.2573 63.76C17.258 63.76 17.2587 63.76 17.2594 63.76C17.2602 63.76 17.2609 63.76 17.2616 63.76C17.2623 63.76 17.263 63.76 17.2637 63.76C17.2644 63.76 17.2652 63.76 17.2659 63.76C17.2666 63.76 17.2673 63.76 17.268 63.76C17.2687 63.76 17.2694 63.76 17.2701 63.76C17.2708 63.76 17.2715 63.76 17.2722 63.76C17.2729 63.76 17.2736 63.76 17.2743 63.76C17.275 63.76 17.2757 63.76 17.2764 63.76C17.2771 63.76 17.2778 63.76 17.2785 63.76C17.2792 63.76 17.2799 63.76 17.2806 63.76C17.2813 63.76 17.282 63.76 17.2827 63.76C17.2834 63.76 17.2841 63.76 17.2848 63.76C17.2855 63.76 17.2862 63.76 17.2869 63.76C17.2875 63.76 17.2882 63.76 17.2889 63.76C17.2896 63.76 17.2903 63.76 17.291 63.76C17.2917 63.76 17.2923 63.76 17.293 63.76C17.2937 63.76 17.2944 63.76 17.2951 63.76C17.2957 63.76 17.2964 63.76 17.2971 63.76C17.2978 63.76 17.2985 63.76 17.2991 63.76C17.2998 63.76 17.3005 63.76 17.3012 63.76C17.3018 63.76 17.3025 63.76 17.3032 63.76C17.3038 63.76 17.3045 63.76 17.3052 63.76C17.3059 63.76 17.3065 63.76 17.3072 63.76C17.3079 63.76 17.3085 63.76 17.3092 63.76C17.3098 63.76 17.3105 63.76 17.3112 63.76C17.3118 63.76 17.3125 63.76 17.3132 63.76C17.3138 63.76 17.3145 63.76 17.3151 63.76C17.3158 63.76 17.3164 63.76 17.3171 63.76C17.3178 63.76 17.3184 63.76 17.3191 63.76C17.3197 63.76 17.3204 63.76 17.321 63.76C17.3217 63.76 17.3223 63.76 17.323 63.76C17.3236 63.76 17.3243 63.76 17.3249 63.76C17.3256 63.76 17.3262 63.76 17.3269 63.76C17.3275 63.76 17.3281 63.76 17.3288 63.76C17.3294 63.76 17.3301 63.76 17.3307 63.76C17.3314 63.76 17.332 63.76 17.3326 63.76C17.3333 63.76 17.3339 63.76 17.3345 63.76C17.3352 63.76 17.3358 63.76 17.3364 63.76C17.3371 63.76 17.3377 63.76 17.3383 63.76C17.339 63.76 17.3396 63.76 17.3402 63.76C17.3409 63.76 17.3415 63.76 17.3421 63.76C17.3427 63.76 17.3434 63.76 17.344 63.76V61.76C17.3434 61.76 17.3427 61.76 17.3421 61.76C17.3415 61.76 17.3409 61.76 17.3402 61.76C17.3396 61.76 17.339 61.76 17.3383 61.76C17.3377 61.76 17.3371 61.76 17.3364 61.76C17.3358 61.76 17.3352 61.76 17.3345 61.76C17.3339 61.76 17.3333 61.76 17.3326 61.76C17.332 61.76 17.3314 61.76 17.3307 61.76C17.3301 61.76 17.3294 61.76 17.3288 61.76C17.3281 61.76 17.3275 61.76 17.3269 61.76C17.3262 61.76 17.3256 61.76 17.3249 61.76C17.3243 61.76 17.3236 61.76 17.323 61.76C17.3223 61.76 17.3217 61.76 17.321 61.76C17.3204 61.76 17.3197 61.76 17.3191 61.76C17.3184 61.76 17.3178 61.76 17.3171 61.76C17.3164 61.76 17.3158 61.76 17.3151 61.76C17.3145 61.76 17.3138 61.76 17.3132 61.76C17.3125 61.76 17.3118 61.76 17.3112 61.76C17.3105 61.76 17.3098 61.76 17.3092 61.76C17.3085 61.76 17.3079 61.76 17.3072 61.76C17.3065 61.76 17.3059 61.76 17.3052 61.76C17.3045 61.76 17.3038 61.76 17.3032 61.76C17.3025 61.76 17.3018 61.76 17.3012 61.76C17.3005 61.76 17.2998 61.76 17.2991 61.76C17.2985 61.76 17.2978 61.76 17.2971 61.76C17.2964 61.76 17.2957 61.76 17.2951 61.76C17.2944 61.76 17.2937 61.76 17.293 61.76C17.2923 61.76 17.2917 61.76 17.291 61.76C17.2903 61.76 17.2896 61.76 17.2889 61.76C17.2882 61.76 17.2875 61.76 17.2869 61.76C17.2862 61.76 17.2855 61.76 17.2848 61.76C17.2841 61.76 17.2834 61.76 17.2827 61.76C17.282 61.76 17.2813 61.76 17.2806 61.76C17.2799 61.76 17.2792 61.76 17.2785 61.76C17.2778 61.76 17.2771 61.76 17.2764 61.76C17.2757 61.76 17.275 61.76 17.2743 61.76C17.2736 61.76 17.2729 61.76 17.2722 61.76C17.2715 61.76 17.2708 61.76 17.2701 61.76C17.2694 61.76 17.2687 61.76 17.268 61.76C17.2673 61.76 17.2666 61.76 17.2659 61.76C17.2652 61.76 17.2644 61.76 17.2637 61.76C17.263 61.76 17.2623 61.76 17.2616 61.76C17.2609 61.76 17.2602 61.76 17.2594 61.76C17.2587 61.76 17.258 61.76 17.2573 61.76C17.2566 61.76 17.2558 61.76 17.2551 61.76C17.2544 61.76 17.2537 61.76 17.253 61.76C17.2522 61.76 17.2515 61.76 17.2508 61.76C17.25 61.76 17.2493 61.76 17.2486 61.76C17.2479 61.76 17.2471 61.76 17.2464 61.76C17.2457 61.76 17.2449 61.76 17.2442 61.76C17.2435 61.76 17.2427 61.76 17.242 61.76C17.2413 61.76 17.2405 61.76 17.2398 61.76C17.2391 61.76 17.2383 61.76 17.2376 61.76C17.2368 61.76 17.2361 61.76 17.2354 61.76C17.2346 61.76 17.2339 61.76 17.2331 61.76C17.2324 61.76 17.2317 61.76 17.2309 61.76C17.2302 61.76 17.2294 61.76 17.2287 61.76C17.2279 61.76 17.2272 61.76 17.2264 61.76C17.2257 61.76 17.2249 61.76 17.2242 61.76C17.2234 61.76 17.2227 61.76 17.2219 61.76C17.2211 61.76 17.2204 61.76 17.2196 61.76C17.2189 61.76 17.2181 61.76 17.2174 61.76C17.2166 61.76 17.2158 61.76 17.2151 61.76C17.2143 61.76 17.2136 61.76 17.2128 61.76C17.212 61.76 17.2113 61.76 17.2105 61.76C17.2097 61.76 17.209 61.76 17.2082 61.76C17.2074 61.76 17.2067 61.76 17.2059 61.76C17.2051 61.76 17.2044 61.76 17.2036 61.76C17.2028 61.76 17.202 61.76 17.2013 61.76C17.2005 61.76 17.1997 61.76 17.1989 61.76C17.1982 61.76 17.1974 61.76 17.1966 61.76C17.1958 61.76 17.195 61.76 17.1943 61.76C17.1935 61.76 17.1927 61.76 17.1919 61.76C17.1911 61.76 17.1903 61.76 17.1896 61.76C17.1888 61.76 17.188 61.76 17.1872 61.76C17.1864 61.76 17.1856 61.76 17.1848 61.76C17.184 61.76 17.1833 61.76 17.1825 61.76C17.1817 61.76 17.1809 61.76 17.1801 61.76C17.1793 61.76 17.1785 61.76 17.1777 61.76C17.1769 61.76 17.1761 61.76 17.1753 61.76C17.1745 61.76 17.1737 61.76 17.1729 61.76C17.1721 61.76 17.1713 61.76 17.1705 61.76C17.1697 61.76 17.1689 61.76 17.1681 61.76C17.1673 61.76 17.1665 61.76 17.1657 61.76C17.1649 61.76 17.1641 61.76 17.1632 61.76C17.1624 61.76 17.1616 61.76 17.1608 61.76C17.16 61.76 17.1592 61.76 17.1584 61.76C17.1576 61.76 17.1567 61.76 17.1559 61.76C17.1551 61.76 17.1543 61.76 17.1535 61.76C17.1527 61.76 17.1518 61.76 17.151 61.76C17.1502 61.76 17.1494 61.76 17.1486 61.76C17.1477 61.76 17.1469 61.76 17.1461 61.76C17.1453 61.76 17.1444 61.76 17.1436 61.76C17.1428 61.76 17.1419 61.76 17.1411 61.76C17.1403 61.76 17.1395 61.76 17.1386 61.76C17.1378 61.76 17.137 61.76 17.1361 61.76C17.1353 61.76 17.1345 61.76 17.1336 61.76C17.1328 61.76 17.132 61.76 17.1311 61.76C17.1303 61.76 17.1294 61.76 17.1286 61.76C17.1278 61.76 17.1269 61.76 17.1261 61.76C17.1252 61.76 17.1244 61.76 17.1235 61.76C17.1227 61.76 17.1219 61.76 17.121 61.76C17.1202 61.76 17.1193 61.76 17.1185 61.76C17.1176 61.76 17.1168 61.76 17.1159 61.76C17.1151 61.76 17.1142 61.76 17.1134 61.76C17.1125 61.76 17.1116 61.76 17.1108 61.76C17.1099 61.76 17.1091 61.76 17.1082 61.76C17.1074 61.76 17.1065 61.76 17.1056 61.76C17.1048 61.76 17.1039 61.76 17.1031 61.76C17.1022 61.76 17.1013 61.76 17.1005 61.76C17.0996 61.76 17.0987 61.76 17.0979 61.76C17.097 61.76 17.0961 61.76 17.0953 61.76C17.0944 61.76 17.0935 61.76 17.0927 61.76C17.0918 61.76 17.0909 61.76 17.09 61.76C17.0892 61.76 17.0883 61.76 17.0874 61.76C17.0865 61.76 17.0857 61.76 17.0848 61.76C17.0839 61.76 17.083 61.76 17.0822 61.76C17.0813 61.76 17.0804 61.76 17.0795 61.76C17.0786 61.76 17.0777 61.76 17.0769 61.76C17.076 61.76 17.0751 61.76 17.0742 61.76C17.0733 61.76 17.0724 61.76 17.0715 61.76C17.0707 61.76 17.0698 61.76 17.0689 61.76C17.068 61.76 17.0671 61.76 17.0662 61.76C17.0653 61.76 17.0644 61.76 17.0635 61.76C17.0626 61.76 17.0617 61.76 17.0608 61.76C17.0599 61.76 17.059 61.76 17.0581 61.76C17.0572 61.76 17.0563 61.76 17.0554 61.76C17.0545 61.76 17.0536 61.76 17.0527 61.76C17.0518 61.76 17.0509 61.76 17.05 61.76C17.0491 61.76 17.0482 61.76 17.0473 61.76C17.0464 61.76 17.0455 61.76 17.0445 61.76C17.0436 61.76 17.0427 61.76 17.0418 61.76C17.0409 61.76 17.04 61.76 17.0391 61.76C17.0382 61.76 17.0372 61.76 17.0363 61.76C17.0354 61.76 17.0345 61.76 17.0336 61.76C17.0326 61.76 17.0317 61.76 17.0308 61.76C17.0299 61.76 17.029 61.76 17.028 61.76C17.0271 61.76 17.0262 61.76 17.0253 61.76C17.0243 61.76 17.0234 61.76 17.0225 61.76C17.0216 61.76 17.0206 61.76 17.0197 61.76C17.0188 61.76 17.0178 61.76 17.0169 61.76C17.016 61.76 17.015 61.76 17.0141 61.76C17.0132 61.76 17.0122 61.76 17.0113 61.76C17.0104 61.76 17.0094 61.76 17.0085 61.76C17.0075 61.76 17.0066 61.76 17.0057 61.76C17.0047 61.76 17.0038 61.76 17.0028 61.76C17.0019 61.76 17.0009 61.76 17 61.76C16.999 61.76 16.9981 61.76 16.9972 61.76C16.9962 61.76 16.9953 61.76 16.9943 61.76C16.9934 61.76 16.9924 61.76 16.9915 61.76C16.9905 61.76 16.9895 61.76 16.9886 61.76C16.9876 61.76 16.9867 61.76 16.9857 61.76C16.9848 61.76 16.9838 61.76 16.9829 61.76C16.9819 61.76 16.9809 61.76 16.98 61.76C16.979 61.76 16.978 61.76 16.9771 61.76C16.9761 61.76 16.9752 61.76 16.9742 61.76C16.9732 61.76 16.9723 61.76 16.9713 61.76C16.9703 61.76 16.9694 61.76 16.9684 61.76C16.9674 61.76 16.9664 61.76 16.9655 61.76C16.9645 61.76 16.9635 61.76 16.9626 61.76C16.9616 61.76 16.9606 61.76 16.9596 61.76C16.9586 61.76 16.9577 61.76 16.9567 61.76C16.9557 61.76 16.9547 61.76 16.9538 61.76C16.9528 61.76 16.9518 61.76 16.9508 61.76C16.9498 61.76 16.9488 61.76 16.9479 61.76C16.9469 61.76 16.9459 61.76 16.9449 61.76C16.9439 61.76 16.9429 61.76 16.9419 61.76C16.9409 61.76 16.9399 61.76 16.939 61.76C16.938 61.76 16.937 61.76 16.936 61.76C16.935 61.76 16.934 61.76 16.933 61.76C16.932 61.76 16.931 61.76 16.93 61.76C16.929 61.76 16.928 61.76 16.927 61.76C16.926 61.76 16.925 61.76 16.924 61.76C16.923 61.76 16.922 61.76 16.921 61.76C16.92 61.76 16.919 61.76 16.918 61.76C16.917 61.76 16.9159 61.76 16.9149 61.76C16.9139 61.76 16.9129 61.76 16.9119 61.76C16.9109 61.76 16.9099 61.76 16.9089 61.76C16.9079 61.76 16.9068 61.76 16.9058 61.76C16.9048 61.76 16.9038 61.76 16.9028 61.76C16.9018 61.76 16.9007 61.76 16.8997 61.76C16.8987 61.76 16.8977 61.76 16.8966 61.76C16.8956 61.76 16.8946 61.76 16.8936 61.76C16.8926 61.76 16.8915 61.76 16.8905 61.76C16.8895 61.76 16.8884 61.76 16.8874 61.76C16.8864 61.76 16.8854 61.76 16.8843 61.76C16.8833 61.76 16.8823 61.76 16.8812 61.76C16.8802 61.76 16.8792 61.76 16.8781 61.76C16.8771 61.76 16.876 61.76 16.875 61.76C16.874 61.76 16.8729 61.76 16.8719 61.76C16.8709 61.76 16.8698 61.76 16.8688 61.76C16.8677 61.76 16.8667 61.76 16.8656 61.76C16.8646 61.76 16.8635 61.76 16.8625 61.76C16.8615 61.76 16.8604 61.76 16.8594 61.76C16.8583 61.76 16.8573 61.76 16.8562 61.76C16.8552 61.76 16.8541 61.76 16.853 61.76C16.852 61.76 16.8509 61.76 16.8499 61.76C16.8488 61.76 16.8478 61.76 16.8467 61.76C16.8457 61.76 16.8446 61.76 16.8435 61.76C16.8425 61.76 16.8414 61.76 16.8404 61.76C16.8393 61.76 16.8382 61.76 16.8372 61.76C16.8361 61.76 16.835 61.76 16.834 61.76C16.8329 61.76 16.8318 61.76 16.8308 61.76C16.8297 61.76 16.8286 61.76 16.8276 61.76C16.8265 61.76 16.8254 61.76 16.8243 61.76C16.8233 61.76 16.8222 61.76 16.8211 61.76C16.82 61.76 16.819 61.76 16.8179 61.76C16.8168 61.76 16.8157 61.76 16.8146 61.76C16.8136 61.76 16.8125 61.76 16.8114 61.76C16.8103 61.76 16.8092 61.76 16.8082 61.76C16.8071 61.76 16.806 61.76 16.8049 61.76C16.8038 61.76 16.8027 61.76 16.8016 61.76C16.8005 61.76 16.7995 61.76 16.7984 61.76C16.7973 61.76 16.7962 61.76 16.7951 61.76C16.794 61.76 16.7929 61.76 16.7918 61.76C16.7907 61.76 16.7896 61.76 16.7885 61.76C16.7874 61.76 16.7863 61.76 16.7852 61.76C16.7841 61.76 16.783 61.76 16.7819 61.76C16.7808 61.76 16.7797 61.76 16.7786 61.76C16.7775 61.76 16.7764 61.76 16.7753 61.76C16.7742 61.76 16.7731 61.76 16.772 61.76C16.7709 61.76 16.7698 61.76 16.7687 61.76C16.7675 61.76 16.7664 61.76 16.7653 61.76C16.7642 61.76 16.7631 61.76 16.762 61.76C16.7609 61.76 16.7597 61.76 16.7586 61.76C16.7575 61.76 16.7564 61.76 16.7553 61.76C16.7542 61.76 16.753 61.76 16.7519 61.76C16.7508 61.76 16.7497 61.76 16.7485 61.76C16.7474 61.76 16.7463 61.76 16.7452 61.76C16.744 61.76 16.7429 61.76 16.7418 61.76C16.7407 61.76 16.7395 61.76 16.7384 61.76C16.7373 61.76 16.7361 61.76 16.735 61.76C16.7339 61.76 16.7327 61.76 16.7316 61.76C16.7305 61.76 16.7293 61.76 16.7282 61.76C16.7271 61.76 16.7259 61.76 16.7248 61.76C16.7236 61.76 16.7225 61.76 16.7214 61.76C16.7202 61.76 16.7191 61.76 16.7179 61.76C16.7168 61.76 16.7156 61.76 16.7145 61.76C16.7134 61.76 16.7122 61.76 16.7111 61.76C16.7099 61.76 16.7088 61.76 16.7076 61.76C16.7065 61.76 16.7053 61.76 16.7042 61.76C16.703 61.76 16.7019 61.76 16.7007 61.76C16.6995 61.76 16.6984 61.76 16.6972 61.76C16.6961 61.76 16.6949 61.76 16.6938 61.76C16.6926 61.76 16.6914 61.76 16.6903 61.76C16.6891 61.76 16.688 61.76 16.6868 61.76C16.6856 61.76 16.6845 61.76 16.6833 61.76C16.6821 61.76 16.681 61.76 16.6798 61.76C16.6786 61.76 16.6775 61.76 16.6763 61.76C16.6751 61.76 16.6739 61.76 16.6728 61.76C16.6716 61.76 16.6704 61.76 16.6693 61.76C16.6681 61.76 16.6669 61.76 16.6657 61.76C16.6646 61.76 16.6634 61.76 16.6622 61.76C16.661 61.76 16.6598 61.76 16.6587 61.76C16.6575 61.76 16.6563 61.76 16.6551 61.76C16.6539 61.76 16.6527 61.76 16.6516 61.76C16.6504 61.76 16.6492 61.76 16.648 61.76C16.6468 61.76 16.6456 61.76 16.6444 61.76C16.6432 61.76 16.6421 61.76 16.6409 61.76C16.6397 61.76 16.6385 61.76 16.6373 61.76C16.6361 61.76 16.6349 61.76 16.6337 61.76C16.6325 61.76 16.6313 61.76 16.6301 61.76C16.6289 61.76 16.6277 61.76 16.6265 61.76C16.6253 61.76 16.6241 61.76 16.6229 61.76C16.6217 61.76 16.6205 61.76 16.6193 61.76C16.6181 61.76 16.6169 61.76 16.6157 61.76C16.6145 61.76 16.6133 61.76 16.612 61.76C16.6108 61.76 16.6096 61.76 16.6084 61.76C16.6072 61.76 16.606 61.76 16.6048 61.76C16.6036 61.76 16.6023 61.76 16.6011 61.76C16.5999 61.76 16.5987 61.76 16.5975 61.76C16.5963 61.76 16.595 61.76 16.5938 61.76C16.5926 61.76 16.5914 61.76 16.5902 61.76C16.5889 61.76 16.5877 61.76 16.5865 61.76C16.5853 61.76 16.584 61.76 16.5828 61.76C16.5816 61.76 16.5804 61.76 16.5791 61.76C16.5779 61.76 16.5767 61.76 16.5754 61.76C16.5742 61.76 16.573 61.76 16.5717 61.76C16.5705 61.76 16.5693 61.76 16.568 61.76C16.5668 61.76 16.5656 61.76 16.5643 61.76C16.5631 61.76 16.5618 61.76 16.5606 61.76C16.5594 61.76 16.5581 61.76 16.5569 61.76C16.5556 61.76 16.5544 61.76 16.5531 61.76C16.5519 61.76 16.5507 61.76 16.5494 61.76C16.5482 61.76 16.5469 61.76 16.5457 61.76C16.5444 61.76 16.5432 61.76 16.5419 61.76C16.5407 61.76 16.5394 61.76 16.5382 61.76C16.5369 61.76 16.5357 61.76 16.5344 61.76C16.5331 61.76 16.5319 61.76 16.5306 61.76C16.5294 61.76 16.5281 61.76 16.5268 61.76C16.5256 61.76 16.5243 61.76 16.5231 61.76C16.5218 61.76 16.5205 61.76 16.5193 61.76C16.518 61.76 16.5167 61.76 16.5155 61.76C16.5142 61.76 16.5129 61.76 16.5117 61.76C16.5104 61.76 16.5091 61.76 16.5079 61.76C16.5066 61.76 16.5053 61.76 16.504 61.76C16.5028 61.76 16.5015 61.76 16.5002 61.76C16.499 61.76 16.4977 61.76 16.4964 61.76C16.4951 61.76 16.4938 61.76 16.4926 61.76C16.4913 61.76 16.49 61.76 16.4887 61.76C16.4874 61.76 16.4862 61.76 16.4849 61.76C16.4836 61.76 16.4823 61.76 16.481 61.76C16.4797 61.76 16.4784 61.76 16.4772 61.76C16.4759 61.76 16.4746 61.76 16.4733 61.76C16.472 61.76 16.4707 61.76 16.4694 61.76C16.4681 61.76 16.4668 61.76 16.4655 61.76C16.4642 61.76 16.4629 61.76 16.4616 61.76C16.4603 61.76 16.459 61.76 16.4577 61.76C16.4564 61.76 16.4551 61.76 16.4538 61.76C16.4525 61.76 16.4512 61.76 16.4499 61.76C16.4486 61.76 16.4473 61.76 16.446 61.76C16.4447 61.76 16.4434 61.76 16.4421 61.76C16.4408 61.76 16.4395 61.76 16.4382 61.76C16.4369 61.76 16.4355 61.76 16.4342 61.76C16.4329 61.76 16.4316 61.76 16.4303 61.76C16.429 61.76 16.4277 61.76 16.4263 61.76C16.425 61.76 16.4237 61.76 16.4224 61.76C16.4211 61.76 16.4197 61.76 16.4184 61.76C16.4171 61.76 16.4158 61.76 16.4145 61.76C16.4131 61.76 16.4118 61.76 16.4105 61.76C16.4092 61.76 16.4078 61.76 16.4065 61.76C16.4052 61.76 16.4038 61.76 16.4025 61.76C16.4012 61.76 16.3999 61.76 16.3985 61.76C16.3972 61.76 16.3959 61.76 16.3945 61.76C16.3932 61.76 16.3918 61.76 16.3905 61.76C16.3892 61.76 16.3878 61.76 16.3865 61.76C16.3852 61.76 16.3838 61.76 16.3825 61.76C16.3811 61.76 16.3798 61.76 16.3784 61.76C16.3771 61.76 16.3758 61.76 16.3744 61.76C16.3731 61.76 16.3717 61.76 16.3704 61.76C16.369 61.76 16.3677 61.76 16.3663 61.76C16.365 61.76 16.3636 61.76 16.3623 61.76C16.3609 61.76 16.3596 61.76 16.3582 61.76C16.3569 61.76 16.3555 61.76 16.3541 61.76C16.3528 61.76 16.3514 61.76 16.3501 61.76C16.3487 61.76 16.3474 61.76 16.346 61.76C16.3446 61.76 16.3433 61.76 16.3419 61.76C16.3405 61.76 16.3392 61.76 16.3378 61.76C16.3364 61.76 16.3351 61.76 16.3337 61.76C16.3323 61.76 16.331 61.76 16.3296 61.76C16.3282 61.76 16.3269 61.76 16.3255 61.76C16.3241 61.76 16.3227 61.76 16.3214 61.76C16.32 61.76 16.3186 61.76 16.3172 61.76C16.3159 61.76 16.3145 61.76 16.3131 61.76C16.3117 61.76 16.3104 61.76 16.309 61.76C16.3076 61.76 16.3062 61.76 16.3048 61.76C16.3034 61.76 16.3021 61.76 16.3007 61.76C16.2993 61.76 16.2979 61.76 16.2965 61.76C16.2951 61.76 16.2937 61.76 16.2924 61.76C16.291 61.76 16.2896 61.76 16.2882 61.76C16.2868 61.76 16.2854 61.76 16.284 61.76C16.2826 61.76 16.2812 61.76 16.2798 61.76C16.2784 61.76 16.277 61.76 16.2756 61.76C16.2742 61.76 16.2728 61.76 16.2714 61.76C16.27 61.76 16.2686 61.76 16.2672 61.76C16.2658 61.76 16.2644 61.76 16.263 61.76C16.2616 61.76 16.2602 61.76 16.2588 61.76C16.2574 61.76 16.256 61.76 16.2546 61.76C16.2532 61.76 16.2517 61.76 16.2503 61.76C16.2489 61.76 16.2475 61.76 16.2461 61.76C16.2447 61.76 16.2433 61.76 16.2419 61.76C16.2404 61.76 16.239 61.76 16.2376 61.76C16.2362 61.76 16.2348 61.76 16.2333 61.76C16.2319 61.76 16.2305 61.76 16.2291 61.76C16.2277 61.76 16.2262 61.76 16.2248 61.76C16.2234 61.76 16.222 61.76 16.2205 61.76C16.2191 61.76 16.2177 61.76 16.2162 61.76C16.2148 61.76 16.2134 61.76 16.212 61.76C16.2105 61.76 16.2091 61.76 16.2077 61.76C16.2062 61.76 16.2048 61.76 16.2034 61.76C16.2019 61.76 16.2005 61.76 16.199 61.76C16.1976 61.76 16.1962 61.76 16.1947 61.76C16.1933 61.76 16.1918 61.76 16.1904 61.76C16.189 61.76 16.1875 61.76 16.1861 61.76C16.1846 61.76 16.1832 61.76 16.1817 61.76C16.1803 61.76 16.1788 61.76 16.1774 61.76C16.1759 61.76 16.1745 61.76 16.173 61.76C16.1716 61.76 16.1701 61.76 16.1687 61.76C16.1672 61.76 16.1658 61.76 16.1643 61.76C16.1629 61.76 16.1614 61.76 16.1599 61.76C16.1585 61.76 16.157 61.76 16.1556 61.76C16.1541 61.76 16.1527 61.76 16.1512 61.76C16.1497 61.76 16.1483 61.76 16.1468 61.76C16.1453 61.76 16.1439 61.76 16.1424 61.76C16.1409 61.76 16.1395 61.76 16.138 61.76C16.1365 61.76 16.1351 61.76 16.1336 61.76C16.1321 61.76 16.1306 61.76 16.1292 61.76C16.1277 61.76 16.1262 61.76 16.1248 61.76C16.1233 61.76 16.1218 61.76 16.1203 61.76C16.1188 61.76 16.1174 61.76 16.1159 61.76C16.1144 61.76 16.1129 61.76 16.1114 61.76C16.11 61.76 16.1085 61.76 16.107 61.76C16.1055 61.76 16.104 61.76 16.1025 61.76C16.1011 61.76 16.0996 61.76 16.0981 61.76C16.0966 61.76 16.0951 61.76 16.0936 61.76C16.0921 61.76 16.0906 61.76 16.0891 61.76C16.0876 61.76 16.0861 61.76 16.0847 61.76C16.0832 61.76 16.0817 61.76 16.0802 61.76C16.0787 61.76 16.0772 61.76 16.0757 61.76C16.0742 61.76 16.0727 61.76 16.0712 61.76C16.0697 61.76 16.0682 61.76 16.0667 61.76C16.0652 61.76 16.0636 61.76 16.0621 61.76C16.0606 61.76 16.0591 61.76 16.0576 61.76C16.0561 61.76 16.0546 61.76 16.0531 61.76C16.0516 61.76 16.0501 61.76 16.0486 61.76C16.047 61.76 16.0455 61.76 16.044 61.76C16.0425 61.76 16.041 61.76 16.0395 61.76C16.038 61.76 16.0364 61.76 16.0349 61.76C16.0334 61.76 16.0319 61.76 16.0304 61.76C16.0288 61.76 16.0273 61.76 16.0258 61.76C16.0243 61.76 16.0227 61.76 16.0212 61.76C16.0197 61.76 16.0182 61.76 16.0166 61.76C16.0151 61.76 16.0136 61.76 16.012 61.76C16.0105 61.76 16.009 61.76 16.0074 61.76C16.0059 61.76 16.0044 61.76 16.0028 61.76C16.0013 61.76 15.9998 61.76 15.9982 61.76C15.9967 61.76 15.9952 61.76 15.9936 61.76C15.9921 61.76 15.9905 61.76 15.989 61.76C15.9875 61.76 15.9859 61.76 15.9844 61.76C15.9828 61.76 15.9813 61.76 15.9797 61.76C15.9782 61.76 15.9767 61.76 15.9751 61.76C15.9736 61.76 15.972 61.76 15.9705 61.76C15.9689 61.76 15.9674 61.76 15.9658 61.76C15.9643 61.76 15.9627 61.76 15.9611 61.76C15.9596 61.76 15.958 61.76 15.9565 61.76C15.9549 61.76 15.9534 61.76 15.9518 61.76C15.9502 61.76 15.9487 61.76 15.9471 61.76C15.9456 61.76 15.944 61.76 15.9424 61.76C15.9409 61.76 15.9393 61.76 15.9377 61.76C15.9362 61.76 15.9346 61.76 15.933 61.76C15.9315 61.76 15.9299 61.76 15.9283 61.76C15.9268 61.76 15.9252 61.76 15.9236 61.76C15.9221 61.76 15.9205 61.76 15.9189 61.76C15.9173 61.76 15.9158 61.76 15.9142 61.76C15.9126 61.76 15.911 61.76 15.9094 61.76C15.9079 61.76 15.9063 61.76 15.9047 61.76C15.9031 61.76 15.9015 61.76 15.9 61.76C15.8984 61.76 15.8968 61.76 15.8952 61.76C15.8936 61.76 15.892 61.76 15.8905 61.76C15.8889 61.76 15.8873 61.76 15.8857 61.76C15.8841 61.76 15.8825 61.76 15.8809 61.76C15.8793 61.76 15.8777 61.76 15.8761 61.76C15.8745 61.76 15.8729 61.76 15.8714 61.76C15.8698 61.76 15.8682 61.76 15.8666 61.76C15.865 61.76 15.8634 61.76 15.8618 61.76C15.8602 61.76 15.8586 61.76 15.857 61.76C15.8554 61.76 15.8537 61.76 15.8521 61.76C15.8505 61.76 15.8489 61.76 15.8473 61.76C15.8457 61.76 15.8441 61.76 15.8425 61.76C15.8409 61.76 15.8393 61.76 15.8377 61.76C15.8361 61.76 15.8344 61.76 15.8328 61.76C15.8312 61.76 15.8296 61.76 15.828 61.76C15.8264 61.76 15.8248 61.76 15.8231 61.76C15.8215 61.76 15.8199 61.76 15.8183 61.76C15.8167 61.76 15.815 61.76 15.8134 61.76C15.8118 61.76 15.8102 61.76 15.8085 61.76C15.8069 61.76 15.8053 61.76 15.8037 61.76C15.802 61.76 15.8004 61.76 15.7988 61.76C15.7972 61.76 15.7955 61.76 15.7939 61.76C15.7923 61.76 15.7906 61.76 15.789 61.76C15.7874 61.76 15.7857 61.76 15.7841 61.76C15.7825 61.76 15.7808 61.76 15.7792 61.76C15.7775 61.76 15.7759 61.76 15.7743 61.76C15.7726 61.76 15.771 61.76 15.7693 61.76C15.7677 61.76 15.7661 61.76 15.7644 61.76C15.7628 61.76 15.7611 61.76 15.7595 61.76C15.7578 61.76 15.7562 61.76 15.7545 61.76C15.7529 61.76 15.7512 61.76 15.7496 61.76C15.7479 61.76 15.7463 61.76 15.7446 61.76C15.743 61.76 15.7413 61.76 15.7397 61.76C15.738 61.76 15.7363 61.76 15.7347 61.76C15.733 61.76 15.7314 61.76 15.7297 61.76C15.7281 61.76 15.7264 61.76 15.7247 61.76C15.7231 61.76 15.7214 61.76 15.7197 61.76C15.7181 61.76 15.7164 61.76 15.7147 61.76C15.7131 61.76 15.7114 61.76 15.7097 61.76C15.7081 61.76 15.7064 61.76 15.7047 61.76C15.7031 61.76 15.7014 61.76 15.6997 61.76C15.698 61.76 15.6964 61.76 15.6947 61.76C15.693 61.76 15.6913 61.76 15.6897 61.76C15.688 61.76 15.6863 61.76 15.6846 61.76C15.6829 61.76 15.6813 61.76 15.6796 61.76C15.6779 61.76 15.6762 61.76 15.6745 61.76C15.6729 61.76 15.6712 61.76 15.6695 61.76C15.6678 61.76 15.6661 61.76 15.6644 61.76C15.6627 61.76 15.661 61.76 15.6593 61.76C15.6577 61.76 15.656 61.76 15.6543 61.76C15.6526 61.76 15.6509 61.76 15.6492 61.76C15.6475 61.76 15.6458 61.76 15.6441 61.76C15.6424 61.76 15.6407 61.76 15.639 61.76C15.6373 61.76 15.6356 61.76 15.6339 61.76C15.6322 61.76 15.6305 61.76 15.6288 61.76C15.6271 61.76 15.6254 61.76 15.6237 61.76C15.622 61.76 15.6203 61.76 15.6186 61.76C15.6169 61.76 15.6151 61.76 15.6134 61.76C15.6117 61.76 15.61 61.76 15.6083 61.76C15.6066 61.76 15.6049 61.76 15.6032 61.76C15.6014 61.76 15.5997 61.76 15.598 61.76C15.5963 61.76 15.5946 61.76 15.5929 61.76C15.5911 61.76 15.5894 61.76 15.5877 61.76C15.586 61.76 15.5842 61.76 15.5825 61.76C15.5808 61.76 15.5791 61.76 15.5774 61.76C15.5756 61.76 15.5739 61.76 15.5722 61.76C15.5704 61.76 15.5687 61.76 15.567 61.76C15.5653 61.76 15.5635 61.76 15.5618 61.76C15.5601 61.76 15.5583 61.76 15.5566 61.76C15.5549 61.76 15.5531 61.76 15.5514 61.76C15.5496 61.76 15.5479 61.76 15.5462 61.76C15.5444 61.76 15.5427 61.76 15.5409 61.76C15.5392 61.76 15.5375 61.76 15.5357 61.76C15.534 61.76 15.5322 61.76 15.5305 61.76C15.5287 61.76 15.527 61.76 15.5252 61.76C15.5235 61.76 15.5218 61.76 15.52 61.76V63.76ZM17.344 63.76C21.9326 63.76 25.8437 62.9741 29.0308 61.3466L28.1212 59.5654C25.2923 61.0099 21.7154 61.76 17.344 61.76V63.76ZM29.0232 61.3504C32.2289 59.7476 34.7946 57.5949 36.6912 54.8855L35.0528 53.7385C33.3654 56.1491 31.0671 58.0924 28.1288 59.5616L29.0232 61.3504ZM36.6884 54.8895C38.6241 52.1528 39.987 49.0555 40.7824 45.6089L38.8336 45.1591C38.093 48.3685 36.8319 51.2232 35.0556 53.7345L36.6884 54.8895ZM40.7833 45.6048C41.5682 42.1382 41.96 38.576 41.96 34.92H39.96C39.96 38.432 39.5838 41.8458 38.8327 45.1632L40.7833 45.6048ZM41.96 34.92C41.96 31.7085 41.5995 28.4991 40.8797 25.293L38.9283 25.731C39.6166 28.7969 39.96 31.8595 39.96 34.92H41.96ZM40.8806 25.2971C40.1512 21.9816 38.8876 18.9833 37.0849 16.3125L35.4272 17.4315C37.0804 19.8807 38.2488 22.6424 38.9274 25.7269L40.8806 25.2971ZM37.0849 16.3125C35.2596 13.6084 32.7983 11.4234 29.7255 9.75337L28.7705 11.5106C31.5857 13.0406 33.7964 15.0156 35.4272 17.4315L37.0849 16.3125ZM29.7483 9.76613C26.6743 7.99005 22.8399 7.136 18.304 7.136V9.136C22.6001 9.136 26.0617 9.94595 28.7477 11.4979L29.7483 9.76613ZM75.0685 25.032L74.1866 25.5035L74.2165 25.5593L74.2531 25.6109L75.0685 25.032ZM69.8845 15.336L70.7664 14.8645L70.4838 14.336H69.8845V15.336ZM69.5005 15.336V14.336H68.3966L68.5054 15.4345L69.5005 15.336ZM70.4605 25.032H71.4605V24.9826L71.4556 24.9335L70.4605 25.032ZM70.4605 69V70H71.4605V69H70.4605ZM62.9725 69H61.9725V70H62.9725V69ZM62.9725 0.743998V-0.256002H61.9725V0.743998H62.9725ZM67.1965 0.743998L68.0091 0.161115L67.7098 -0.256002H67.1965V0.743998ZM99.3565 45.576L100.236 45.0997L100.206 45.0443L100.169 44.9931L99.3565 45.576ZM104.349 54.792L103.469 55.2683L103.753 55.792H104.349V54.792ZM104.829 54.792V55.792H105.95L105.822 54.6782L104.829 54.792ZM103.773 45.576H102.773V45.6331L102.779 45.6898L103.773 45.576ZM103.773 1.8V0.799995H102.773V1.8H103.773ZM111.26 1.8H112.26V0.799995H111.26V1.8ZM111.26 70.056V71.056H112.26V70.056H111.26ZM107.037 70.056L106.221 70.6349L106.52 71.056H107.037V70.056ZM75.9504 24.5605L70.7664 14.8645L69.0026 15.8075L74.1866 25.5035L75.9504 24.5605ZM69.8845 14.336H69.5005V16.336H69.8845V14.336ZM68.5054 15.4345L69.4654 25.1305L71.4556 24.9335L70.4956 15.2375L68.5054 15.4345ZM69.4605 25.032V69H71.4605V25.032H69.4605ZM70.4605 68H62.9725V70H70.4605V68ZM63.9725 69V0.743998H61.9725V69H63.9725ZM62.9725 1.744H67.1965V-0.256002H62.9725V1.744ZM66.3839 1.32688L98.5439 46.1589L100.169 44.9931L68.0091 0.161115L66.3839 1.32688ZM98.4772 46.0523L103.469 55.2683L105.228 54.3157L100.236 45.0997L98.4772 46.0523ZM104.349 55.792H104.829V53.792H104.349V55.792ZM105.822 54.6782L104.766 45.4622L102.779 45.6898L103.835 54.9058L105.822 54.6782ZM104.773 45.576V1.8H102.773V45.576H104.773ZM103.773 2.8H111.26V0.799995H103.773V2.8ZM110.26 1.8V70.056H112.26V1.8H110.26ZM111.26 69.056H107.037V71.056H111.26V69.056ZM107.852 69.4771L75.8839 24.4531L74.2531 25.6109L106.221 70.6349L107.852 69.4771ZM155.502 45.384L154.768 46.0634L154.775 46.0703L154.781 46.0771L155.502 45.384ZM149.454 40.872L148.961 41.7417L148.974 41.7495L148.989 41.7569L149.454 40.872ZM141.678 37.128L141.3 38.0535L141.3 38.0535L141.678 37.128ZM133.806 33L133.231 33.8182L133.244 33.827L133.257 33.8354L133.806 33ZM127.854 26.952L127.019 27.5017L127.026 27.5119L127.854 26.952ZM130.926 5.256L131.57 6.02091L131.57 6.02091L130.926 5.256ZM157.134 1.512L156.957 2.49618L156.957 2.49618L157.134 1.512ZM164.622 3.72L165.568 4.04399L165.852 3.21666L165.069 2.82557L164.622 3.72ZM162.222 10.728L161.791 11.6301L162.804 12.1149L163.168 11.052L162.222 10.728ZM155.694 8.712L155.473 9.68714L155.477 9.68819L155.694 8.712ZM136.59 10.632L137.25 11.3832L137.257 11.3776L137.263 11.3719L136.59 10.632ZM135.822 23.496L136.543 22.8029L136.543 22.8029L135.822 23.496ZM141.774 28.008L141.281 28.8777L141.294 28.8855L141.309 28.8929L141.774 28.008ZM149.646 31.848L150.06 30.9376L150.06 30.9376L149.646 31.848ZM157.422 36.36L156.833 37.1678L156.845 37.1767L156.858 37.1853L157.422 36.36ZM159.822 64.968L160.465 65.7342L160.465 65.7342L159.822 64.968ZM152.622 68.808L152.925 69.7609L152.925 69.7609L152.622 68.808ZM131.118 69L131.356 68.0287L131.347 68.0264L131.337 68.0243L131.118 69ZM123.822 66.6L122.885 66.2502L122.576 67.08L123.362 67.4878L123.822 66.6ZM126.51 59.4L127.002 58.5294L125.983 57.9533L125.573 59.0502L126.51 59.4ZM133.038 61.896L132.761 62.8567L132.771 62.8596L132.781 62.8622L133.038 61.896ZM148.686 62.472L148.889 63.4513L148.905 63.4479L148.921 63.4441L148.686 62.472ZM153.486 60.456L154.041 61.2881L154.054 61.2791L154.067 61.2697L153.486 60.456ZM156.654 56.904L155.793 56.3953L155.785 56.4101L155.776 56.4251L156.654 56.904ZM158.902 51.912C158.902 49.0112 158.032 46.5717 156.223 44.6909L154.781 46.0771C156.173 47.5243 156.902 49.4368 156.902 51.912H158.902ZM156.236 44.7046C154.547 42.8808 152.436 41.3113 149.92 39.9871L148.989 41.7569C151.337 42.9927 153.257 44.4312 154.768 46.0634L156.236 44.7046ZM149.948 40.0023C147.539 38.635 144.908 37.3688 142.057 36.2025L141.3 38.0535C144.081 39.1912 146.634 40.421 148.961 41.7417L149.948 40.0023ZM142.057 36.2025C139.298 35.0738 136.732 33.7275 134.356 32.1646L133.257 33.8354C135.745 35.4725 138.427 36.8782 141.3 38.0535L142.057 36.2025ZM134.381 32.1818C132.111 30.5869 130.214 28.658 128.683 26.3921L127.026 27.5119C128.695 29.982 130.765 32.0851 133.231 33.8182L134.381 32.1818ZM128.69 26.4024C127.223 24.1731 126.454 21.3061 126.454 17.736H124.454C124.454 21.5899 125.285 24.8669 127.019 27.5016L128.69 26.4024ZM126.454 17.736C126.454 12.7495 128.172 8.88234 131.57 6.02091L130.282 4.49109C126.384 7.77365 124.454 12.2265 124.454 17.736H126.454ZM131.57 6.02091C134.977 3.15249 139.899 1.648 146.478 1.648V-0.352001C139.618 -0.352001 134.172 1.21551 130.282 4.49109L131.57 6.02091ZM146.478 1.648C150.334 1.648 153.826 1.93255 156.957 2.49618L157.311 0.527816C154.043 -0.0605508 150.43 -0.352001 146.478 -0.352001V1.648ZM156.957 2.49618C160.114 3.0644 162.505 3.77918 164.175 4.61443L165.069 2.82557C163.156 1.86882 160.555 1.1116 157.311 0.527816L156.957 2.49618ZM163.676 3.39601L161.276 10.404L163.168 11.052L165.568 4.04399L163.676 3.39601ZM162.654 9.82586C161.079 9.07283 158.816 8.38134 155.911 7.73581L155.477 9.68819C158.332 10.3227 160.421 10.9752 161.791 11.6301L162.654 9.82586ZM155.916 7.73687C153.012 7.07694 149.736 6.752 146.094 6.752V8.752C149.621 8.752 152.744 9.06705 155.473 9.68713L155.916 7.73687ZM146.094 6.752C141.738 6.752 138.285 7.73991 135.918 9.89206L137.263 11.3719C139.12 9.68408 142.002 8.752 146.094 8.752V6.752ZM135.93 9.88083C133.626 11.9057 132.422 14.3781 132.422 17.256H134.422C134.422 15.0139 135.331 13.0703 137.25 11.3832L135.93 9.88083ZM132.422 17.256C132.422 19.9874 133.307 22.3229 135.101 24.1891L136.543 22.8029C135.138 21.3411 134.422 19.5166 134.422 17.256H132.422ZM135.101 24.1891C136.779 25.9338 138.843 27.4944 141.281 28.8777L142.268 27.1383C139.969 25.8336 138.066 24.3862 136.543 22.8029L135.101 24.1891ZM141.309 28.8929C143.76 30.1829 146.401 31.4714 149.232 32.7584L150.06 30.9376C147.259 29.6646 144.653 28.3931 142.24 27.1231L141.309 28.8929ZM149.232 32.7584C151.99 34.0118 154.523 35.482 156.833 37.1678L158.012 35.5522C155.586 33.782 152.935 32.2442 150.06 30.9376L149.232 32.7584ZM156.858 37.1853C159.189 38.7805 161.114 40.7074 162.642 42.9679L164.299 41.8481C162.626 39.3726 160.52 37.2675 157.987 35.5347L156.858 37.1853ZM162.642 42.9679C164.106 45.1357 164.87 47.8729 164.87 51.24H166.87C166.87 47.5671 166.034 44.4163 164.299 41.8481L162.642 42.9679ZM164.87 51.24C164.87 53.9999 164.38 56.4507 163.42 58.6099L165.248 59.4221C166.336 56.9733 166.87 54.2401 166.87 51.24H164.87ZM163.42 58.6099C162.46 60.7709 161.05 62.6329 159.18 64.2018L160.465 65.7342C162.562 63.9751 164.161 61.8691 165.248 59.4221L163.42 58.6099ZM159.18 64.2018C157.309 65.771 155.028 66.9931 152.319 67.8551L152.925 69.7609C155.848 68.8309 158.368 67.493 160.465 65.7342L159.18 64.2018ZM152.319 67.8551C149.619 68.7141 146.524 69.152 143.022 69.152V71.152C146.688 71.152 149.993 70.6939 152.925 69.7609L152.319 67.8551ZM143.022 69.152C138.268 69.152 134.386 68.7708 131.356 68.0287L130.88 69.9713C134.122 70.7652 138.177 71.152 143.022 71.152V69.152ZM131.337 68.0243C128.238 67.3286 125.901 66.5514 124.283 65.7122L123.362 67.4878C125.2 68.4406 127.726 69.2634 130.899 69.9757L131.337 68.0243ZM124.759 66.9498L127.447 59.7498L125.573 59.0502L122.885 66.2502L124.759 66.9498ZM126.018 60.2706C127.591 61.1594 129.854 62.017 132.761 62.8567L133.316 60.9353C130.463 60.111 128.374 59.3046 127.002 58.5294L126.018 60.2706ZM132.781 62.8622C135.76 63.6566 139.08 64.048 142.734 64.048V62.048C139.22 62.048 136.077 61.6714 133.296 60.9298L132.781 62.8622ZM142.734 64.048C144.907 64.048 146.959 63.8505 148.889 63.4513L148.484 61.4927C146.701 61.8615 144.786 62.048 142.734 62.048V64.048ZM148.921 63.4441C150.871 62.9734 152.583 62.2598 154.041 61.2881L152.932 59.6239C151.701 60.4442 150.214 61.0746 148.452 61.4999L148.921 63.4441ZM154.067 61.2697C155.531 60.2246 156.69 58.9275 157.532 57.3829L155.776 56.4251C155.083 57.6965 154.13 58.7674 152.905 59.6423L154.067 61.2697ZM157.515 57.4127C158.453 55.8257 158.902 53.9795 158.902 51.912H156.902C156.902 53.6845 156.52 55.1663 155.793 56.3953L157.515 57.4127Z" fill="#3399FF"/>
</svg>
