<svg width="68" height="262" viewBox="0 0 68 262" fill="none" xmlns="http://www.w3.org/2000/svg">
<path d="M0.8 0.799995L0.805731 -1.2L-1.2 -1.20574V0.799995H0.8ZM0.8 68H-1.2V70H0.8V68ZM58.016 58.112L56.6018 56.6978L56.5962 56.7034L56.5907 56.709L58.016 58.112ZM59.936 56.096L61.4545 57.3976L61.458 57.3935L59.936 56.096ZM34.304 0.895994L34.2983 2.89599H34.304V0.895994ZM12.704 12.896V10.896H10.704V12.896H12.704ZM12.704 56.096H10.704V58.096H12.704V56.096ZM-1.2 0.799995V68H2.8V0.799995H-1.2ZM0.8 70H34.4V66H0.8V70ZM34.4 70C44.1704 70 53.0305 66.0276 59.4413 59.515L56.5907 56.709C50.9055 62.4844 43.0616 66 34.4 66V70ZM59.4302 59.5262C60.0903 58.8662 60.8193 58.1386 61.4545 57.3976L58.4175 54.7944C57.9007 55.3974 57.2858 56.0138 56.6018 56.6978L59.4302 59.5262ZM61.458 57.3935C66.7498 51.1859 69.904 43.1449 69.904 34.4H65.904C65.904 42.1671 63.1062 49.2941 58.414 54.7985L61.458 57.3935ZM69.904 34.4C69.904 14.76 53.9291 -1.10401 34.304 -1.10401V2.89599C51.7349 2.89599 65.904 16.984 65.904 34.4H69.904ZM34.3097 -1.104L0.805731 -1.2L0.79427 2.79999L34.2983 2.89599L34.3097 -1.104ZM12.704 14.896H34.304V10.896H12.704V14.896ZM34.304 14.896C45.1034 14.896 53.904 23.6966 53.904 34.496H57.904C57.904 21.4874 47.3126 10.896 34.304 10.896V14.896ZM53.904 34.496C53.904 45.2954 45.1034 54.096 34.304 54.096V58.096C47.3126 58.096 57.904 47.5046 57.904 34.496H53.904ZM34.304 54.096H12.704V58.096H34.304V54.096ZM14.704 56.096V12.896H10.704V56.096H14.704ZM56 97.8L56.016 95.8001L54 95.7839V97.8H56ZM56 140.616L54.7787 142.2L58 144.684V140.616H56ZM12.8 107.304L14.0213 105.72L14.0182 105.718L12.8 107.304ZM0.8 98.088L2.01819 96.5018L-1.2 94.0302L-1.2 98.088H0.8ZM0.8 165.096H-1.2V167.096H0.8V165.096ZM12.8 165.096V167.096H14.8V165.096H12.8ZM12.8 122.568L14.0213 120.984L10.8 118.5V122.568H12.8ZM56 155.88L54.7787 157.464L54.7818 157.466L56 155.88ZM68 165.096L66.7818 166.682L70 169.154V165.096H68ZM68 97.896H70V95.9119L68.016 95.8961L68 97.896ZM54 97.8V140.616H58V97.8H54ZM57.2213 139.032L14.0213 105.72L11.5787 108.888L54.7787 142.2L57.2213 139.032ZM14.0182 105.718L2.01819 96.5018L-0.418195 99.6742L11.5818 108.89L14.0182 105.718ZM-1.2 98.088V165.096H2.8V98.088H-1.2ZM0.8 167.096H12.8V163.096H0.8V167.096ZM14.8 165.096V122.568H10.8V165.096H14.8ZM11.5787 124.152L54.7787 157.464L57.2213 154.296L14.0213 120.984L11.5787 124.152ZM54.7818 157.466L66.7818 166.682L69.2182 163.51L57.2182 154.294L54.7818 157.466ZM70 165.096V97.896H66V165.096H70ZM68.016 95.8961L56.016 95.8001L55.984 99.7999L67.984 99.8959L68.016 95.8961ZM64.352 213.328L64.368 215.328L66.352 215.312V213.328H64.352ZM4.064 223.6L5.75132 222.526L5.7277 222.489L5.70246 222.453L4.064 223.6ZM6.368 226.48L4.95379 227.894L4.96434 227.905L4.97505 227.915L6.368 226.48ZM12.896 240.784H14.896V238.784H12.896V240.784ZM0.896 240.784V238.784H-1.104V240.784H0.896ZM59.552 227.344L61.1017 226.08L61.0378 226.001L60.9662 225.93L59.552 227.344ZM58.784 226.48L57.3041 227.825L57.3361 227.861L57.3698 227.894L58.784 226.48ZM52.352 213.424H50.352V215.44L52.368 215.424L52.352 213.424ZM66.352 213.328V212.944H62.352V213.328H66.352ZM66.352 212.944C66.352 201.855 57.2966 192.8 46.208 192.8V196.8C55.0874 196.8 62.352 204.065 62.352 212.944H66.352ZM46.208 192.8H18.944V196.8H46.208V192.8ZM18.944 192.8C7.84164 192.8 -1.104 201.869 -1.104 212.944H2.896C2.896 204.051 10.0784 196.8 18.944 196.8V192.8ZM-1.104 212.944V213.328H2.896V212.944H-1.104ZM-1.104 213.328C-1.104 217.571 0.170261 221.525 2.42554 224.747L5.70246 222.453C3.92574 219.915 2.896 216.765 2.896 213.328H-1.104ZM2.37668 224.674C3.1251 225.85 3.98411 226.925 4.95379 227.894L7.78221 225.066C7.02389 224.307 6.3469 223.462 5.75132 222.526L2.37668 224.674ZM4.97505 227.915C8.59991 231.433 13.5109 233.568 18.944 233.568V229.568C14.5851 229.568 10.6641 227.863 7.76095 225.045L4.97505 227.915ZM18.944 233.568H43.136V229.568H18.944V233.568ZM43.136 233.568C47.1465 233.568 50.448 236.827 50.448 240.784H54.448C54.448 234.565 49.3015 229.568 43.136 229.568V233.568ZM50.448 240.784C50.448 244.741 47.1465 248 43.136 248V252C49.3015 252 54.448 247.003 54.448 240.784H50.448ZM43.136 248H22.112V252H43.136V248ZM22.112 248C18.1286 248 14.896 244.767 14.896 240.784H10.896C10.896 246.977 15.9194 252 22.112 252V248ZM12.896 238.784H0.896V242.784H12.896V238.784ZM-1.104 240.784C-1.104 253.601 9.29543 264 22.112 264V260C11.5046 260 2.896 251.391 2.896 240.784H-1.104ZM22.112 264H43.136V260H22.112V264ZM43.136 264C55.9526 264 66.352 253.601 66.352 240.784H62.352C62.352 251.391 53.7434 260 43.136 260V264ZM66.352 240.784C66.352 235.213 64.3547 230.067 61.1017 226.08L58.0023 228.608C60.7013 231.917 62.352 236.179 62.352 240.784H66.352ZM60.9662 225.93C60.8957 225.859 60.8305 225.783 60.7044 225.632C60.5905 225.495 60.4157 225.283 60.1982 225.066L57.3698 227.894C57.4403 227.965 57.5055 228.041 57.6316 228.192C57.7455 228.329 57.9204 228.541 58.1378 228.758L60.9662 225.93ZM60.2639 225.135C56.0615 220.512 49.9638 217.568 43.136 217.568V221.568C48.7882 221.568 53.8265 224 57.3041 227.825L60.2639 225.135ZM43.136 217.568H18.944V221.568H43.136V217.568ZM18.944 217.568C16.6886 217.568 14.8 215.679 14.8 213.424H10.8C10.8 217.889 14.4794 221.568 18.944 221.568V217.568ZM14.8 213.424V213.04H10.8V213.424H14.8ZM14.8 213.04C14.8 210.785 16.6886 208.896 18.944 208.896V204.896C14.4794 204.896 10.8 208.575 10.8 213.04H14.8ZM18.944 208.896H46.208V204.896H18.944V208.896ZM46.208 208.896C48.4634 208.896 50.352 210.785 50.352 213.04H54.352C54.352 208.575 50.6726 204.896 46.208 204.896V208.896ZM50.352 213.04V213.424H54.352V213.04H50.352ZM52.368 215.424L64.368 215.328L64.336 211.328L52.336 211.424L52.368 215.424Z" fill="#3399FF"/>
</svg>
