<svg viewBox="0 0 884 208" fill="none" xmlns="http://www.w3.org/2000/svg">
<g filter="url(#filter0_d_104_8)">
<mask id="path-1-outside-1_104_8" maskUnits="userSpaceOnUse" x="4" y="0" width="692" height="198" fill="black">
<rect fill="white" x="4" width="692" height="198"/>
<path d="M59.484 87.4703H24.3017L24.111 72.7008H56.0516C61.3274 72.7008 65.9357 71.8115 69.8766 70.0328C73.8175 68.2541 76.8686 65.7131 79.0297 62.4098C81.2544 59.043 82.3668 55.041 82.3668 50.4037C82.3668 45.3217 81.3816 41.1926 79.4111 38.0164C77.5042 34.7766 74.5485 32.4262 70.544 30.9652C66.6031 29.4406 61.5816 28.6783 55.4795 28.6783H28.4016V152.361H10V13.623H55.4795C62.5986 13.623 68.9549 14.3535 74.5485 15.8145C80.1421 17.2121 84.8776 19.4355 88.7549 22.4846C92.6958 25.4703 95.6833 29.2818 97.7173 33.9191C99.7514 38.5564 100.768 44.1148 100.768 50.5943C100.768 56.3115 99.3064 61.4887 96.3825 66.126C93.4586 70.6998 89.3905 74.4477 84.1784 77.3699C79.0297 80.292 72.9912 82.166 66.0628 82.9918L59.484 87.4703ZM58.6259 152.361H17.0555L27.4481 137.401H58.6259C64.4737 137.401 69.4317 136.384 73.4997 134.351C77.6313 132.319 80.7777 129.46 82.9389 125.776C85.1 122.028 86.1806 117.613 86.1806 112.531C86.1806 107.385 85.2589 102.939 83.4156 99.1906C81.5723 95.4426 78.6801 92.5523 74.7392 90.5195C70.7983 88.4867 65.7132 87.4703 59.484 87.4703H33.2642L33.4549 72.7008H69.3045L73.2137 78.0369C79.8878 78.6086 85.545 80.5143 90.1851 83.7541C94.8252 86.9303 98.353 90.9959 100.768 95.9508C103.247 100.906 104.487 106.369 104.487 112.34C104.487 120.98 102.58 128.285 98.7661 134.256C95.0159 140.164 89.7084 144.674 82.8435 147.787C75.9787 150.836 67.9062 152.361 58.6259 152.361Z"/>
<path d="M189.821 134.733V81.6578C189.821 77.5922 188.994 74.0666 187.342 71.0809C185.752 68.0318 183.337 65.6814 180.095 64.0297C176.854 62.3781 172.849 61.5523 168.082 61.5523C163.632 61.5523 159.723 62.3145 156.354 63.8391C153.049 65.3637 150.443 67.3648 148.536 69.8422C146.693 72.3197 145.771 74.9877 145.771 77.8463H128.132C128.132 74.1619 129.086 70.5092 130.993 66.8883C132.9 63.2674 135.633 59.9959 139.192 57.0738C142.815 54.0881 147.138 51.7377 152.159 50.0225C157.244 48.2439 162.901 47.3545 169.131 47.3545C176.631 47.3545 183.242 48.625 188.962 51.166C194.747 53.707 199.26 57.5502 202.501 62.6957C205.807 67.7777 207.459 74.1619 207.459 81.8484V129.873C207.459 133.303 207.745 136.956 208.317 140.831C208.953 144.706 209.875 148.041 211.082 150.836V152.361H192.681C191.791 150.328 191.092 147.628 190.583 144.261C190.075 140.831 189.821 137.655 189.821 134.733ZM192.872 89.8525L193.062 102.24H175.233C170.211 102.24 165.73 102.653 161.789 103.478C157.848 104.241 154.543 105.416 151.873 107.004C149.204 108.592 147.17 110.593 145.771 113.007C144.373 115.358 143.674 118.121 143.674 121.297C143.674 124.537 144.405 127.491 145.867 130.159C147.328 132.827 149.521 134.955 152.445 136.543C155.433 138.068 159.088 138.83 163.41 138.83C168.813 138.83 173.58 137.686 177.712 135.4C181.843 133.113 185.117 130.318 187.532 127.014C190.011 123.711 191.346 120.503 191.537 117.39L199.069 125.871C198.624 128.539 197.416 131.493 195.446 134.733C193.475 137.972 190.838 141.085 187.532 144.071C184.291 146.993 180.413 149.439 175.9 151.408C171.451 153.314 166.429 154.266 160.836 154.266C153.844 154.266 147.71 152.901 142.434 150.169C137.222 147.437 133.154 143.785 130.23 139.211C127.37 134.574 125.939 129.397 125.939 123.679C125.939 118.153 127.02 113.293 129.181 109.1C131.342 104.844 134.457 101.319 138.525 98.5236C142.593 95.665 147.487 93.5051 153.208 92.0441C158.929 90.583 165.317 89.8525 172.372 89.8525H192.872Z"/>
<path d="M300.23 132.35V6H317.964V152.361H301.755L300.23 132.35ZM230.819 101.954V99.9529C230.819 92.0758 231.772 84.9293 233.679 78.5133C235.65 72.0338 238.415 66.4754 241.974 61.8381C245.597 57.2008 249.888 53.6434 254.846 51.166C259.867 48.625 265.461 47.3545 271.626 47.3545C278.11 47.3545 283.767 48.498 288.598 50.7848C293.492 53.0082 297.624 56.2797 300.993 60.5994C304.425 64.8555 307.127 70.001 309.097 76.0359C311.068 82.0707 312.434 88.8996 313.197 96.5225V105.289C312.498 112.848 311.131 119.645 309.097 125.68C307.127 131.715 304.425 136.861 300.993 141.117C297.624 145.373 293.492 148.644 288.598 150.931C283.704 153.155 277.983 154.266 271.436 154.266C265.397 154.266 259.867 152.964 254.846 150.36C249.888 147.755 245.597 144.102 241.974 139.402C238.415 134.701 235.65 129.174 233.679 122.822C231.772 116.406 230.819 109.45 230.819 101.954ZM248.553 99.9529V101.954C248.553 107.099 249.062 111.927 250.079 116.437C251.159 120.948 252.812 124.918 255.036 128.348C257.261 131.779 260.09 134.478 263.522 136.448C266.955 138.353 271.054 139.306 275.822 139.306C281.669 139.306 286.469 138.068 290.219 135.59C294.033 133.113 297.084 129.841 299.372 125.776C301.66 121.71 303.44 117.295 304.711 112.531V89.5666C303.948 86.0727 302.836 82.7059 301.374 79.4662C299.976 76.1629 298.132 73.2408 295.844 70.6998C293.619 68.0953 290.854 66.0307 287.549 64.5061C284.307 62.9816 280.462 62.2193 276.012 62.2193C271.182 62.2193 267.018 63.2357 263.522 65.2684C260.09 67.2377 257.261 69.9693 255.036 73.4631C252.812 76.8934 251.159 80.8955 250.079 85.4693C249.062 89.9795 248.553 94.8074 248.553 99.9529Z"/>
<path d="M386.708 139.783C390.903 139.783 394.78 138.925 398.34 137.21C401.899 135.495 404.823 133.144 407.112 130.159C409.4 127.11 410.703 123.648 411.021 119.773H427.801C427.484 125.871 425.418 131.556 421.604 136.829C417.854 142.038 412.928 146.262 406.826 149.502C400.724 152.678 394.018 154.266 386.708 154.266C378.953 154.266 372.184 152.901 366.399 150.169C360.679 147.437 355.911 143.69 352.098 138.925C348.347 134.161 345.519 128.698 343.612 122.536C341.769 116.31 340.847 109.736 340.847 102.811V98.8094C340.847 91.8852 341.769 85.3422 343.612 79.1803C345.519 72.9549 348.347 67.46 352.098 62.6957C355.911 57.9314 360.679 54.1834 366.399 51.4518C372.184 48.7203 378.953 47.3545 386.708 47.3545C394.78 47.3545 401.836 49.0061 407.874 52.3094C413.913 55.5492 418.648 59.9959 422.081 65.6496C425.577 71.2398 427.484 77.5922 427.801 84.707H411.021C410.703 80.4508 409.495 76.6076 407.398 73.1773C405.364 69.7469 402.567 67.0154 399.007 64.9826C395.511 62.8863 391.411 61.8381 386.708 61.8381C381.305 61.8381 376.76 62.918 373.073 65.0779C369.45 67.1742 366.558 70.0328 364.397 73.6537C362.3 77.2111 360.774 81.1814 359.821 85.5645C358.931 89.8842 358.486 94.2992 358.486 98.8094V102.811C358.486 107.322 358.931 111.768 359.821 116.152C360.71 120.535 362.204 124.505 364.302 128.062C366.463 131.62 369.355 134.478 372.978 136.638C376.665 138.735 381.241 139.783 386.708 139.783Z"/>
<path d="M466.798 6V152.361H449.063V6H466.798Z"/>
<path d="M558.233 128.539V49.2602H575.967V152.361H559.091L558.233 128.539ZM561.57 106.814L568.912 106.623C568.912 113.484 568.181 119.836 566.719 125.68C565.321 131.461 563.032 136.48 559.854 140.736C556.676 144.992 552.513 148.327 547.364 150.741C542.215 153.091 535.954 154.266 528.581 154.266C523.56 154.266 518.951 153.536 514.756 152.075C510.624 150.614 507.065 148.359 504.077 145.309C501.09 142.26 498.77 138.29 497.117 133.399C495.528 128.507 494.734 122.631 494.734 115.77V49.2602H512.372V115.961C512.372 120.598 512.881 124.442 513.898 127.491C514.979 130.476 516.409 132.859 518.188 134.637C520.032 136.352 522.066 137.559 524.291 138.258C526.579 138.957 528.931 139.306 531.346 139.306C538.847 139.306 544.79 137.877 549.176 135.018C553.561 132.096 556.708 128.19 558.615 123.298C560.585 118.343 561.57 112.848 561.57 106.814Z"/>
<path d="M620.494 69.0799V192H602.759V49.2602H618.968L620.494 69.0799ZM690 99.9529V101.954C690 109.45 689.11 116.406 687.33 122.822C685.551 129.174 682.945 134.701 679.512 139.402C676.143 144.102 671.98 147.755 667.022 150.36C662.064 152.964 656.375 154.266 649.955 154.266C643.408 154.266 637.624 153.186 632.602 151.027C627.581 148.867 623.322 145.722 619.826 141.593C616.33 137.464 613.533 132.509 611.436 126.728C609.402 120.948 608.003 114.436 607.241 107.195V96.5225C608.003 88.8996 609.434 82.0707 611.531 76.0359C613.629 70.001 616.394 64.8555 619.826 60.5994C623.322 56.2797 627.549 53.0082 632.507 50.7848C637.465 48.498 643.186 47.3545 649.669 47.3545C656.153 47.3545 661.905 48.625 666.927 51.166C671.948 53.6434 676.175 57.2008 679.607 61.8381C683.04 66.4754 685.614 72.0338 687.33 78.5133C689.11 84.9293 690 92.0758 690 99.9529ZM672.266 101.954V99.9529C672.266 94.8074 671.726 89.9795 670.645 85.4693C669.564 80.8955 667.88 76.8934 665.592 73.4631C663.367 69.9693 660.507 67.2377 657.011 65.2684C653.515 63.2357 649.351 62.2193 644.52 62.2193C640.071 62.2193 636.194 62.9816 632.888 64.5061C629.647 66.0307 626.882 68.0953 624.593 70.6998C622.305 73.2408 620.43 76.1629 618.968 79.4662C617.57 82.7059 616.521 86.0727 615.822 89.5666V114.246C617.093 118.693 618.873 122.885 621.161 126.824C623.449 130.699 626.5 133.843 630.314 136.257C634.128 138.608 638.927 139.783 644.711 139.783C649.478 139.783 653.578 138.798 657.011 136.829C660.507 134.796 663.367 132.033 665.592 128.539C667.88 125.045 669.564 121.043 670.645 116.533C671.726 111.959 672.266 107.099 672.266 101.954Z"/>
</mask>
<path d="M59.484 87.4703H24.3017L24.111 72.7008H56.0516C61.3274 72.7008 65.9357 71.8115 69.8766 70.0328C73.8175 68.2541 76.8686 65.7131 79.0297 62.4098C81.2544 59.043 82.3668 55.041 82.3668 50.4037C82.3668 45.3217 81.3816 41.1926 79.4111 38.0164C77.5042 34.7766 74.5485 32.4262 70.544 30.9652C66.6031 29.4406 61.5816 28.6783 55.4795 28.6783H28.4016V152.361H10V13.623H55.4795C62.5986 13.623 68.9549 14.3535 74.5485 15.8145C80.1421 17.2121 84.8776 19.4355 88.7549 22.4846C92.6958 25.4703 95.6833 29.2818 97.7173 33.9191C99.7514 38.5564 100.768 44.1148 100.768 50.5943C100.768 56.3115 99.3064 61.4887 96.3825 66.126C93.4586 70.6998 89.3905 74.4477 84.1784 77.3699C79.0297 80.292 72.9912 82.166 66.0628 82.9918L59.484 87.4703ZM58.6259 152.361H17.0555L27.4481 137.401H58.6259C64.4737 137.401 69.4317 136.384 73.4997 134.351C77.6313 132.319 80.7777 129.46 82.9389 125.776C85.1 122.028 86.1806 117.613 86.1806 112.531C86.1806 107.385 85.2589 102.939 83.4156 99.1906C81.5723 95.4426 78.6801 92.5523 74.7392 90.5195C70.7983 88.4867 65.7132 87.4703 59.484 87.4703H33.2642L33.4549 72.7008H69.3045L73.2137 78.0369C79.8878 78.6086 85.545 80.5143 90.1851 83.7541C94.8252 86.9303 98.353 90.9959 100.768 95.9508C103.247 100.906 104.487 106.369 104.487 112.34C104.487 120.98 102.58 128.285 98.7661 134.256C95.0159 140.164 89.7084 144.674 82.8435 147.787C75.9787 150.836 67.9062 152.361 58.6259 152.361Z" fill="#FF8000"/>
<path d="M189.821 134.733V81.6578C189.821 77.5922 188.994 74.0666 187.342 71.0809C185.752 68.0318 183.337 65.6814 180.095 64.0297C176.854 62.3781 172.849 61.5523 168.082 61.5523C163.632 61.5523 159.723 62.3145 156.354 63.8391C153.049 65.3637 150.443 67.3648 148.536 69.8422C146.693 72.3197 145.771 74.9877 145.771 77.8463H128.132C128.132 74.1619 129.086 70.5092 130.993 66.8883C132.9 63.2674 135.633 59.9959 139.192 57.0738C142.815 54.0881 147.138 51.7377 152.159 50.0225C157.244 48.2439 162.901 47.3545 169.131 47.3545C176.631 47.3545 183.242 48.625 188.962 51.166C194.747 53.707 199.26 57.5502 202.501 62.6957C205.807 67.7777 207.459 74.1619 207.459 81.8484V129.873C207.459 133.303 207.745 136.956 208.317 140.831C208.953 144.706 209.875 148.041 211.082 150.836V152.361H192.681C191.791 150.328 191.092 147.628 190.583 144.261C190.075 140.831 189.821 137.655 189.821 134.733ZM192.872 89.8525L193.062 102.24H175.233C170.211 102.24 165.73 102.653 161.789 103.478C157.848 104.241 154.543 105.416 151.873 107.004C149.204 108.592 147.17 110.593 145.771 113.007C144.373 115.358 143.674 118.121 143.674 121.297C143.674 124.537 144.405 127.491 145.867 130.159C147.328 132.827 149.521 134.955 152.445 136.543C155.433 138.068 159.088 138.83 163.41 138.83C168.813 138.83 173.58 137.686 177.712 135.4C181.843 133.113 185.117 130.318 187.532 127.014C190.011 123.711 191.346 120.503 191.537 117.39L199.069 125.871C198.624 128.539 197.416 131.493 195.446 134.733C193.475 137.972 190.838 141.085 187.532 144.071C184.291 146.993 180.413 149.439 175.9 151.408C171.451 153.314 166.429 154.266 160.836 154.266C153.844 154.266 147.71 152.901 142.434 150.169C137.222 147.437 133.154 143.785 130.23 139.211C127.37 134.574 125.939 129.397 125.939 123.679C125.939 118.153 127.02 113.293 129.181 109.1C131.342 104.844 134.457 101.319 138.525 98.5236C142.593 95.665 147.487 93.5051 153.208 92.0441C158.929 90.583 165.317 89.8525 172.372 89.8525H192.872Z" fill="#FF8000"/>
<path d="M300.23 132.35V6H317.964V152.361H301.755L300.23 132.35ZM230.819 101.954V99.9529C230.819 92.0758 231.772 84.9293 233.679 78.5133C235.65 72.0338 238.415 66.4754 241.974 61.8381C245.597 57.2008 249.888 53.6434 254.846 51.166C259.867 48.625 265.461 47.3545 271.626 47.3545C278.11 47.3545 283.767 48.498 288.598 50.7848C293.492 53.0082 297.624 56.2797 300.993 60.5994C304.425 64.8555 307.127 70.001 309.097 76.0359C311.068 82.0707 312.434 88.8996 313.197 96.5225V105.289C312.498 112.848 311.131 119.645 309.097 125.68C307.127 131.715 304.425 136.861 300.993 141.117C297.624 145.373 293.492 148.644 288.598 150.931C283.704 153.155 277.983 154.266 271.436 154.266C265.397 154.266 259.867 152.964 254.846 150.36C249.888 147.755 245.597 144.102 241.974 139.402C238.415 134.701 235.65 129.174 233.679 122.822C231.772 116.406 230.819 109.45 230.819 101.954ZM248.553 99.9529V101.954C248.553 107.099 249.062 111.927 250.079 116.437C251.159 120.948 252.812 124.918 255.036 128.348C257.261 131.779 260.09 134.478 263.522 136.448C266.955 138.353 271.054 139.306 275.822 139.306C281.669 139.306 286.469 138.068 290.219 135.59C294.033 133.113 297.084 129.841 299.372 125.776C301.66 121.71 303.44 117.295 304.711 112.531V89.5666C303.948 86.0727 302.836 82.7059 301.374 79.4662C299.976 76.1629 298.132 73.2408 295.844 70.6998C293.619 68.0953 290.854 66.0307 287.549 64.5061C284.307 62.9816 280.462 62.2193 276.012 62.2193C271.182 62.2193 267.018 63.2357 263.522 65.2684C260.09 67.2377 257.261 69.9693 255.036 73.4631C252.812 76.8934 251.159 80.8955 250.079 85.4693C249.062 89.9795 248.553 94.8074 248.553 99.9529Z" fill="#FF8000"/>
<path d="M386.708 139.783C390.903 139.783 394.78 138.925 398.34 137.21C401.899 135.495 404.823 133.144 407.112 130.159C409.4 127.11 410.703 123.648 411.021 119.773H427.801C427.484 125.871 425.418 131.556 421.604 136.829C417.854 142.038 412.928 146.262 406.826 149.502C400.724 152.678 394.018 154.266 386.708 154.266C378.953 154.266 372.184 152.901 366.399 150.169C360.679 147.437 355.911 143.69 352.098 138.925C348.347 134.161 345.519 128.698 343.612 122.536C341.769 116.31 340.847 109.736 340.847 102.811V98.8094C340.847 91.8852 341.769 85.3422 343.612 79.1803C345.519 72.9549 348.347 67.46 352.098 62.6957C355.911 57.9314 360.679 54.1834 366.399 51.4518C372.184 48.7203 378.953 47.3545 386.708 47.3545C394.78 47.3545 401.836 49.0061 407.874 52.3094C413.913 55.5492 418.648 59.9959 422.081 65.6496C425.577 71.2398 427.484 77.5922 427.801 84.707H411.021C410.703 80.4508 409.495 76.6076 407.398 73.1773C405.364 69.7469 402.567 67.0154 399.007 64.9826C395.511 62.8863 391.411 61.8381 386.708 61.8381C381.305 61.8381 376.76 62.918 373.073 65.0779C369.45 67.1742 366.558 70.0328 364.397 73.6537C362.3 77.2111 360.774 81.1814 359.821 85.5645C358.931 89.8842 358.486 94.2992 358.486 98.8094V102.811C358.486 107.322 358.931 111.768 359.821 116.152C360.71 120.535 362.204 124.505 364.302 128.062C366.463 131.62 369.355 134.478 372.978 136.638C376.665 138.735 381.241 139.783 386.708 139.783Z" fill="#FF8000"/>
<path d="M466.798 6V152.361H449.063V6H466.798Z" fill="#FF8000"/>
<path d="M558.233 128.539V49.2602H575.967V152.361H559.091L558.233 128.539ZM561.57 106.814L568.912 106.623C568.912 113.484 568.181 119.836 566.719 125.68C565.321 131.461 563.032 136.48 559.854 140.736C556.676 144.992 552.513 148.327 547.364 150.741C542.215 153.091 535.954 154.266 528.581 154.266C523.56 154.266 518.951 153.536 514.756 152.075C510.624 150.614 507.065 148.359 504.077 145.309C501.09 142.26 498.77 138.29 497.117 133.399C495.528 128.507 494.734 122.631 494.734 115.77V49.2602H512.372V115.961C512.372 120.598 512.881 124.442 513.898 127.491C514.979 130.476 516.409 132.859 518.188 134.637C520.032 136.352 522.066 137.559 524.291 138.258C526.579 138.957 528.931 139.306 531.346 139.306C538.847 139.306 544.79 137.877 549.176 135.018C553.561 132.096 556.708 128.19 558.615 123.298C560.585 118.343 561.57 112.848 561.57 106.814Z" fill="#FF8000"/>
<path d="M620.494 69.0799V192H602.759V49.2602H618.968L620.494 69.0799ZM690 99.9529V101.954C690 109.45 689.11 116.406 687.33 122.822C685.551 129.174 682.945 134.701 679.512 139.402C676.143 144.102 671.98 147.755 667.022 150.36C662.064 152.964 656.375 154.266 649.955 154.266C643.408 154.266 637.624 153.186 632.602 151.027C627.581 148.867 623.322 145.722 619.826 141.593C616.33 137.464 613.533 132.509 611.436 126.728C609.402 120.948 608.003 114.436 607.241 107.195V96.5225C608.003 88.8996 609.434 82.0707 611.531 76.0359C613.629 70.001 616.394 64.8555 619.826 60.5994C623.322 56.2797 627.549 53.0082 632.507 50.7848C637.465 48.498 643.186 47.3545 649.669 47.3545C656.153 47.3545 661.905 48.625 666.927 51.166C671.948 53.6434 676.175 57.2008 679.607 61.8381C683.04 66.4754 685.614 72.0338 687.33 78.5133C689.11 84.9293 690 92.0758 690 99.9529ZM672.266 101.954V99.9529C672.266 94.8074 671.726 89.9795 670.645 85.4693C669.564 80.8955 667.88 76.8934 665.592 73.4631C663.367 69.9693 660.507 67.2377 657.011 65.2684C653.515 63.2357 649.351 62.2193 644.52 62.2193C640.071 62.2193 636.194 62.9816 632.888 64.5061C629.647 66.0307 626.882 68.0953 624.593 70.6998C622.305 73.2408 620.43 76.1629 618.968 79.4662C617.57 82.7059 616.521 86.0727 615.822 89.5666V114.246C617.093 118.693 618.873 122.885 621.161 126.824C623.449 130.699 626.5 133.843 630.314 136.257C634.128 138.608 638.927 139.783 644.711 139.783C649.478 139.783 653.578 138.798 657.011 136.829C660.507 134.796 663.367 132.033 665.592 128.539C667.88 125.045 669.564 121.043 670.645 116.533C671.726 111.959 672.266 107.099 672.266 101.954Z" fill="#FF8000"/>
<path d="M59.484 87.4703H24.3017L24.111 72.7008H56.0516C61.3274 72.7008 65.9357 71.8115 69.8766 70.0328C73.8175 68.2541 76.8686 65.7131 79.0297 62.4098C81.2544 59.043 82.3668 55.041 82.3668 50.4037C82.3668 45.3217 81.3816 41.1926 79.4111 38.0164C77.5042 34.7766 74.5485 32.4262 70.544 30.9652C66.6031 29.4406 61.5816 28.6783 55.4795 28.6783H28.4016V152.361H10V13.623H55.4795C62.5986 13.623 68.9549 14.3535 74.5485 15.8145C80.1421 17.2121 84.8776 19.4355 88.7549 22.4846C92.6958 25.4703 95.6833 29.2818 97.7173 33.9191C99.7514 38.5564 100.768 44.1148 100.768 50.5943C100.768 56.3115 99.3064 61.4887 96.3825 66.126C93.4586 70.6998 89.3905 74.4477 84.1784 77.3699C79.0297 80.292 72.9912 82.166 66.0628 82.9918L59.484 87.4703ZM58.6259 152.361H17.0555L27.4481 137.401H58.6259C64.4737 137.401 69.4317 136.384 73.4997 134.351C77.6313 132.319 80.7777 129.46 82.9389 125.776C85.1 122.028 86.1806 117.613 86.1806 112.531C86.1806 107.385 85.2589 102.939 83.4156 99.1906C81.5723 95.4426 78.6801 92.5523 74.7392 90.5195C70.7983 88.4867 65.7132 87.4703 59.484 87.4703H33.2642L33.4549 72.7008H69.3045L73.2137 78.0369C79.8878 78.6086 85.545 80.5143 90.1851 83.7541C94.8252 86.9303 98.353 90.9959 100.768 95.9508C103.247 100.906 104.487 106.369 104.487 112.34C104.487 120.98 102.58 128.285 98.7661 134.256C95.0159 140.164 89.7084 144.674 82.8435 147.787C75.9787 150.836 67.9062 152.361 58.6259 152.361Z" stroke="white" stroke-width="12" mask="url(#path-1-outside-1_104_8)"/>
<path d="M189.821 134.733V81.6578C189.821 77.5922 188.994 74.0666 187.342 71.0809C185.752 68.0318 183.337 65.6814 180.095 64.0297C176.854 62.3781 172.849 61.5523 168.082 61.5523C163.632 61.5523 159.723 62.3145 156.354 63.8391C153.049 65.3637 150.443 67.3648 148.536 69.8422C146.693 72.3197 145.771 74.9877 145.771 77.8463H128.132C128.132 74.1619 129.086 70.5092 130.993 66.8883C132.9 63.2674 135.633 59.9959 139.192 57.0738C142.815 54.0881 147.138 51.7377 152.159 50.0225C157.244 48.2439 162.901 47.3545 169.131 47.3545C176.631 47.3545 183.242 48.625 188.962 51.166C194.747 53.707 199.26 57.5502 202.501 62.6957C205.807 67.7777 207.459 74.1619 207.459 81.8484V129.873C207.459 133.303 207.745 136.956 208.317 140.831C208.953 144.706 209.875 148.041 211.082 150.836V152.361H192.681C191.791 150.328 191.092 147.628 190.583 144.261C190.075 140.831 189.821 137.655 189.821 134.733ZM192.872 89.8525L193.062 102.24H175.233C170.211 102.24 165.73 102.653 161.789 103.478C157.848 104.241 154.543 105.416 151.873 107.004C149.204 108.592 147.17 110.593 145.771 113.007C144.373 115.358 143.674 118.121 143.674 121.297C143.674 124.537 144.405 127.491 145.867 130.159C147.328 132.827 149.521 134.955 152.445 136.543C155.433 138.068 159.088 138.83 163.41 138.83C168.813 138.83 173.58 137.686 177.712 135.4C181.843 133.113 185.117 130.318 187.532 127.014C190.011 123.711 191.346 120.503 191.537 117.39L199.069 125.871C198.624 128.539 197.416 131.493 195.446 134.733C193.475 137.972 190.838 141.085 187.532 144.071C184.291 146.993 180.413 149.439 175.9 151.408C171.451 153.314 166.429 154.266 160.836 154.266C153.844 154.266 147.71 152.901 142.434 150.169C137.222 147.437 133.154 143.785 130.23 139.211C127.37 134.574 125.939 129.397 125.939 123.679C125.939 118.153 127.02 113.293 129.181 109.1C131.342 104.844 134.457 101.319 138.525 98.5236C142.593 95.665 147.487 93.5051 153.208 92.0441C158.929 90.583 165.317 89.8525 172.372 89.8525H192.872Z" stroke="white" stroke-width="12" mask="url(#path-1-outside-1_104_8)"/>
<path d="M300.23 132.35V6H317.964V152.361H301.755L300.23 132.35ZM230.819 101.954V99.9529C230.819 92.0758 231.772 84.9293 233.679 78.5133C235.65 72.0338 238.415 66.4754 241.974 61.8381C245.597 57.2008 249.888 53.6434 254.846 51.166C259.867 48.625 265.461 47.3545 271.626 47.3545C278.11 47.3545 283.767 48.498 288.598 50.7848C293.492 53.0082 297.624 56.2797 300.993 60.5994C304.425 64.8555 307.127 70.001 309.097 76.0359C311.068 82.0707 312.434 88.8996 313.197 96.5225V105.289C312.498 112.848 311.131 119.645 309.097 125.68C307.127 131.715 304.425 136.861 300.993 141.117C297.624 145.373 293.492 148.644 288.598 150.931C283.704 153.155 277.983 154.266 271.436 154.266C265.397 154.266 259.867 152.964 254.846 150.36C249.888 147.755 245.597 144.102 241.974 139.402C238.415 134.701 235.65 129.174 233.679 122.822C231.772 116.406 230.819 109.45 230.819 101.954ZM248.553 99.9529V101.954C248.553 107.099 249.062 111.927 250.079 116.437C251.159 120.948 252.812 124.918 255.036 128.348C257.261 131.779 260.09 134.478 263.522 136.448C266.955 138.353 271.054 139.306 275.822 139.306C281.669 139.306 286.469 138.068 290.219 135.59C294.033 133.113 297.084 129.841 299.372 125.776C301.66 121.71 303.44 117.295 304.711 112.531V89.5666C303.948 86.0727 302.836 82.7059 301.374 79.4662C299.976 76.1629 298.132 73.2408 295.844 70.6998C293.619 68.0953 290.854 66.0307 287.549 64.5061C284.307 62.9816 280.462 62.2193 276.012 62.2193C271.182 62.2193 267.018 63.2357 263.522 65.2684C260.09 67.2377 257.261 69.9693 255.036 73.4631C252.812 76.8934 251.159 80.8955 250.079 85.4693C249.062 89.9795 248.553 94.8074 248.553 99.9529Z" stroke="white" stroke-width="12" mask="url(#path-1-outside-1_104_8)"/>
<path d="M386.708 139.783C390.903 139.783 394.78 138.925 398.34 137.21C401.899 135.495 404.823 133.144 407.112 130.159C409.4 127.11 410.703 123.648 411.021 119.773H427.801C427.484 125.871 425.418 131.556 421.604 136.829C417.854 142.038 412.928 146.262 406.826 149.502C400.724 152.678 394.018 154.266 386.708 154.266C378.953 154.266 372.184 152.901 366.399 150.169C360.679 147.437 355.911 143.69 352.098 138.925C348.347 134.161 345.519 128.698 343.612 122.536C341.769 116.31 340.847 109.736 340.847 102.811V98.8094C340.847 91.8852 341.769 85.3422 343.612 79.1803C345.519 72.9549 348.347 67.46 352.098 62.6957C355.911 57.9314 360.679 54.1834 366.399 51.4518C372.184 48.7203 378.953 47.3545 386.708 47.3545C394.78 47.3545 401.836 49.0061 407.874 52.3094C413.913 55.5492 418.648 59.9959 422.081 65.6496C425.577 71.2398 427.484 77.5922 427.801 84.707H411.021C410.703 80.4508 409.495 76.6076 407.398 73.1773C405.364 69.7469 402.567 67.0154 399.007 64.9826C395.511 62.8863 391.411 61.8381 386.708 61.8381C381.305 61.8381 376.76 62.918 373.073 65.0779C369.45 67.1742 366.558 70.0328 364.397 73.6537C362.3 77.2111 360.774 81.1814 359.821 85.5645C358.931 89.8842 358.486 94.2992 358.486 98.8094V102.811C358.486 107.322 358.931 111.768 359.821 116.152C360.71 120.535 362.204 124.505 364.302 128.062C366.463 131.62 369.355 134.478 372.978 136.638C376.665 138.735 381.241 139.783 386.708 139.783Z" stroke="white" stroke-width="12" mask="url(#path-1-outside-1_104_8)"/>
<path d="M466.798 6V152.361H449.063V6H466.798Z" stroke="white" stroke-width="12" mask="url(#path-1-outside-1_104_8)"/>
<path d="M558.233 128.539V49.2602H575.967V152.361H559.091L558.233 128.539ZM561.57 106.814L568.912 106.623C568.912 113.484 568.181 119.836 566.719 125.68C565.321 131.461 563.032 136.48 559.854 140.736C556.676 144.992 552.513 148.327 547.364 150.741C542.215 153.091 535.954 154.266 528.581 154.266C523.56 154.266 518.951 153.536 514.756 152.075C510.624 150.614 507.065 148.359 504.077 145.309C501.09 142.26 498.77 138.29 497.117 133.399C495.528 128.507 494.734 122.631 494.734 115.77V49.2602H512.372V115.961C512.372 120.598 512.881 124.442 513.898 127.491C514.979 130.476 516.409 132.859 518.188 134.637C520.032 136.352 522.066 137.559 524.291 138.258C526.579 138.957 528.931 139.306 531.346 139.306C538.847 139.306 544.79 137.877 549.176 135.018C553.561 132.096 556.708 128.19 558.615 123.298C560.585 118.343 561.57 112.848 561.57 106.814Z" stroke="white" stroke-width="12" mask="url(#path-1-outside-1_104_8)"/>
<path d="M620.494 69.0799V192H602.759V49.2602H618.968L620.494 69.0799ZM690 99.9529V101.954C690 109.45 689.11 116.406 687.33 122.822C685.551 129.174 682.945 134.701 679.512 139.402C676.143 144.102 671.98 147.755 667.022 150.36C662.064 152.964 656.375 154.266 649.955 154.266C643.408 154.266 637.624 153.186 632.602 151.027C627.581 148.867 623.322 145.722 619.826 141.593C616.33 137.464 613.533 132.509 611.436 126.728C609.402 120.948 608.003 114.436 607.241 107.195V96.5225C608.003 88.8996 609.434 82.0707 611.531 76.0359C613.629 70.001 616.394 64.8555 619.826 60.5994C623.322 56.2797 627.549 53.0082 632.507 50.7848C637.465 48.498 643.186 47.3545 649.669 47.3545C656.153 47.3545 661.905 48.625 666.927 51.166C671.948 53.6434 676.175 57.2008 679.607 61.8381C683.04 66.4754 685.614 72.0338 687.33 78.5133C689.11 84.9293 690 92.0758 690 99.9529ZM672.266 101.954V99.9529C672.266 94.8074 671.726 89.9795 670.645 85.4693C669.564 80.8955 667.88 76.8934 665.592 73.4631C663.367 69.9693 660.507 67.2377 657.011 65.2684C653.515 63.2357 649.351 62.2193 644.52 62.2193C640.071 62.2193 636.194 62.9816 632.888 64.5061C629.647 66.0307 626.882 68.0953 624.593 70.6998C622.305 73.2408 620.43 76.1629 618.968 79.4662C617.57 82.7059 616.521 86.0727 615.822 89.5666V114.246C617.093 118.693 618.873 122.885 621.161 126.824C623.449 130.699 626.5 133.843 630.314 136.257C634.128 138.608 638.927 139.783 644.711 139.783C649.478 139.783 653.578 138.798 657.011 136.829C660.507 134.796 663.367 132.033 665.592 128.539C667.88 125.045 669.564 121.043 670.645 116.533C671.726 111.959 672.266 107.099 672.266 101.954Z" stroke="white" stroke-width="12" mask="url(#path-1-outside-1_104_8)"/>
</g>
<g filter="url(#filter1_d_104_8)">
<path d="M740.907 196.08H724V143.716H741.656C746.971 143.716 751.519 144.764 755.3 146.861C759.081 148.94 761.979 151.932 763.995 155.835C766.01 159.722 767.018 164.375 767.018 169.795C767.018 175.25 766.001 179.946 763.968 183.884C761.935 187.804 758.974 190.821 755.086 192.935C751.198 195.031 746.472 196.08 740.907 196.08ZM730.635 190.455H740.479C745.009 190.455 748.764 189.619 751.742 187.949C754.72 186.278 756.941 183.901 758.403 180.815C759.866 177.73 760.597 174.057 760.597 169.795C760.597 165.568 759.875 161.929 758.43 158.878C756.985 155.81 754.827 153.457 751.956 151.821C749.085 150.168 745.509 149.341 741.228 149.341H730.635V190.455Z" fill="#66FF33"/>
<path d="M821.592 143.716V196.08H815.172L785.316 154.966H784.781V196.08H778.147V143.716H784.567L814.53 184.932H815.065V143.716H821.592Z" fill="#66FF33"/>
<path d="M864.83 156.807C864.509 154.216 863.207 152.205 860.925 150.773C858.642 149.341 855.842 148.625 852.524 148.625C850.099 148.625 847.977 149 846.157 149.75C844.356 150.5 842.947 151.531 841.931 152.844C840.932 154.156 840.432 155.648 840.432 157.318C840.432 158.716 840.78 159.918 841.476 160.923C842.189 161.912 843.099 162.739 844.204 163.403C845.31 164.051 846.469 164.588 847.682 165.014C848.895 165.423 850.01 165.756 851.026 166.011L856.591 167.443C858.018 167.801 859.605 168.295 861.353 168.926C863.118 169.557 864.804 170.418 866.409 171.509C868.032 172.582 869.369 173.963 870.422 175.651C871.474 177.338 872 179.409 872 181.864C872 184.693 871.224 187.25 869.673 189.534C868.139 191.818 865.892 193.634 862.931 194.98C859.988 196.327 856.412 197 852.203 197C848.28 197 844.882 196.395 842.011 195.185C839.157 193.974 836.91 192.287 835.269 190.122C833.646 187.957 832.728 185.443 832.514 182.58H839.362C839.541 184.557 840.236 186.193 841.449 187.489C842.68 188.767 844.231 189.722 846.104 190.352C847.994 190.966 850.028 191.273 852.203 191.273C854.736 191.273 857.01 190.881 859.025 190.097C861.041 189.295 862.637 188.188 863.814 186.773C864.991 185.341 865.579 183.67 865.579 181.761C865.579 180.023 865.071 178.608 864.055 177.517C863.038 176.426 861.7 175.54 860.042 174.858C858.383 174.176 856.591 173.58 854.665 173.068L847.923 171.227C843.643 170.051 840.254 168.372 837.757 166.19C835.26 164.009 834.012 161.153 834.012 157.625C834.012 154.693 834.841 152.136 836.5 149.955C838.176 147.756 840.423 146.051 843.241 144.841C846.077 143.614 849.243 143 852.738 143C856.27 143 859.409 143.605 862.155 144.815C864.902 146.009 867.078 147.645 868.683 149.724C870.306 151.804 871.162 154.165 871.251 156.807H864.83Z" fill="#66FF33"/>
<path d="M722.5 196.08V197.58H724H740.907C746.657 197.58 751.642 196.496 755.798 194.255L755.803 194.253C759.953 191.996 763.128 188.761 765.299 184.574L765.301 184.572C767.466 180.378 768.518 175.435 768.518 169.795C768.518 164.191 767.476 159.29 765.327 155.146C763.178 150.984 760.071 147.773 756.026 145.548C751.977 143.303 747.167 142.216 741.656 142.216H724H722.5V143.716V196.08ZM757.073 159.517L757.074 159.52C758.403 162.326 759.097 165.736 759.097 169.795C759.097 173.888 758.395 177.332 757.048 180.173C755.719 182.977 753.716 185.122 751.008 186.641C748.315 188.151 744.834 188.955 740.479 188.955H732.135V150.841H741.228C745.321 150.841 748.621 151.632 751.208 153.121L751.213 153.124C753.809 154.604 755.756 156.72 757.073 159.517ZM823.092 143.716V142.216H821.592H815.065H813.565V143.716V181.053L785.78 142.834L785.331 142.216H784.567H778.147H776.647V143.716V196.08V197.58H778.147H784.781H786.281V196.08V158.848L813.958 196.961L814.407 197.58H815.172H821.592H823.092V196.08V143.716ZM863.342 156.991L863.505 158.307H864.83H871.251H872.802L872.75 156.756C872.65 153.799 871.684 151.133 869.867 148.803C868.087 146.5 865.699 144.72 862.756 143.441C859.789 142.134 856.44 141.5 852.738 141.5C849.065 141.5 845.694 142.145 842.647 143.463C839.62 144.764 837.156 146.62 835.307 149.045L835.306 149.047C833.434 151.508 832.512 154.39 832.512 157.625C832.512 161.555 833.924 164.833 836.77 167.32C839.485 169.692 843.098 171.457 847.526 172.674L847.528 172.674L854.269 174.515L854.28 174.518C856.15 175.014 857.879 175.591 859.471 176.245C860.97 176.861 862.115 177.636 862.957 178.54C863.673 179.307 864.079 180.335 864.079 181.761C864.079 183.333 863.606 184.662 862.658 185.816C861.669 187.004 860.296 187.976 858.477 188.701C856.663 189.405 854.579 189.773 852.203 189.773C850.173 189.773 848.3 189.487 846.575 188.928C844.912 188.367 843.58 187.537 842.537 186.456C841.584 185.435 841.008 184.127 840.856 182.445L840.733 181.08H839.362H832.514H830.897L831.018 182.691C831.252 185.822 832.264 188.614 834.069 191.022L834.074 191.028C835.894 193.43 838.365 195.268 841.425 196.566L841.428 196.567C844.525 197.872 848.13 198.5 852.203 198.5C856.565 198.5 860.366 197.803 863.554 196.345C866.719 194.905 869.201 192.926 870.916 190.374C872.639 187.835 873.5 184.984 873.5 181.864C873.5 179.194 872.926 176.833 871.694 174.857C870.533 172.994 869.047 171.457 867.244 170.263C865.541 169.106 863.745 168.188 861.859 167.514C860.078 166.872 858.444 166.362 856.96 165.989C856.958 165.989 856.957 165.989 856.956 165.988L851.4 164.559L851.392 164.557C850.424 164.313 849.35 163.994 848.171 163.596C847.054 163.203 845.988 162.709 844.97 162.114C844.036 161.551 843.286 160.865 842.701 160.058C842.208 159.34 841.932 158.45 841.932 157.318C841.932 155.973 842.326 154.804 843.12 153.757C843.951 152.686 845.132 151.802 846.732 151.136C848.332 150.476 850.252 150.125 852.524 150.125C855.625 150.125 858.133 150.793 860.128 152.043C862.043 153.245 863.078 154.864 863.342 156.991Z" stroke="white" stroke-width="3"/>
</g>
<defs>
<filter id="filter0_d_104_8" x="0" y="0" width="700" height="206" filterUnits="userSpaceOnUse" color-interpolation-filters="sRGB">
<feFlood flood-opacity="0" result="BackgroundImageFix"/>
<feColorMatrix in="SourceAlpha" type="matrix" values="0 0 0 0 0 0 0 0 0 0 0 0 0 0 0 0 0 0 127 0" result="hardAlpha"/>
<feOffset dy="4"/>
<feGaussianBlur stdDeviation="2"/>
<feComposite in2="hardAlpha" operator="out"/>
<feColorMatrix type="matrix" values="0 0 0 0 0 0 0 0 0 0 0 0 0 0 0 0 0 0 0.25 0"/>
<feBlend mode="normal" in2="BackgroundImageFix" result="effect1_dropShadow_104_8"/>
<feBlend mode="normal" in="SourceGraphic" in2="effect1_dropShadow_104_8" result="shape"/>
</filter>
<filter id="filter1_d_104_8" x="717" y="140" width="162" height="68" filterUnits="userSpaceOnUse" color-interpolation-filters="sRGB">
<feFlood flood-opacity="0" result="BackgroundImageFix"/>
<feColorMatrix in="SourceAlpha" type="matrix" values="0 0 0 0 0 0 0 0 0 0 0 0 0 0 0 0 0 0 127 0" result="hardAlpha"/>
<feOffset dy="4"/>
<feGaussianBlur stdDeviation="2"/>
<feComposite in2="hardAlpha" operator="out"/>
<feColorMatrix type="matrix" values="0 0 0 0 0 0 0 0 0 0 0 0 0 0 0 0 0 0 0.25 0"/>
<feBlend mode="normal" in2="BackgroundImageFix" result="effect1_dropShadow_104_8"/>
<feBlend mode="normal" in="SourceGraphic" in2="effect1_dropShadow_104_8" result="shape"/>
</filter>
</defs>
</svg>
