<svg width="582" height="70" viewBox="0 0 582 70" fill="none" xmlns="http://www.w3.org/2000/svg">
<path d="M58.4 29.736L56.7271 28.6399L55.6398 30.2995L57.2906 31.4001L58.4 29.736ZM0.8 1.8V-0.200005H-1.2V1.8H0.8ZM0.8 69H-1.2V71H0.8V69ZM12.8 13.8V11.8H10.8V13.8H12.8ZM12.8 26.088H10.8V28.088H12.8V26.088ZM46.592 57V59H48.592V57H46.592ZM12.8 57H10.8V59H12.8V57ZM12.8 38.088V36.088H10.8V38.088H12.8ZM46.592 56.904V54.904H44.592V56.904H46.592ZM60.0729 30.8321C62.1091 27.7242 63.28 23.9836 63.28 19.944H59.28C59.28 23.2004 58.3389 26.1798 56.7271 28.6399L60.0729 30.8321ZM63.28 19.944C63.28 8.85543 54.2246 -0.200005 43.136 -0.200005V3.8C52.0154 3.8 59.28 11.0646 59.28 19.944H63.28ZM43.136 -0.200005H0.8V3.8H43.136V-0.200005ZM-1.2 1.8V69H2.8V1.8H-1.2ZM0.8 71H46.592V67H0.8V71ZM46.592 71C59.5046 71 70 60.5046 70 47.592H66C66 58.2954 57.2954 67 46.592 67V71ZM70 47.592C70 39.3984 65.7944 32.2619 59.5094 28.0719L57.2906 31.4001C62.5257 34.8901 66 40.8096 66 47.592H70ZM12.8 15.8H43.232V11.8H12.8V15.8ZM43.232 15.8C45.4874 15.8 47.376 17.6886 47.376 19.944H51.376C51.376 15.4794 47.6966 11.8 43.232 11.8V15.8ZM47.376 19.944C47.376 22.1994 45.4874 24.088 43.232 24.088V28.088C47.6966 28.088 51.376 24.4086 51.376 19.944H47.376ZM43.232 24.088H12.8V28.088H43.232V24.088ZM14.8 26.088V13.8H10.8V26.088H14.8ZM46.592 55H12.8V59H46.592V55ZM14.8 57V38.088H10.8V57H14.8ZM12.8 40.088H46.592V36.088H12.8V40.088ZM46.592 40.088C50.6714 40.088 54 43.4166 54 47.496H58C58 41.2074 52.8806 36.088 46.592 36.088V40.088ZM54 47.496C54 51.5754 50.6714 54.904 46.592 54.904V58.904C52.8806 58.904 58 53.7846 58 47.496H54ZM44.592 56.904V57H48.592V56.904H44.592ZM133.798 57L132.016 57.908L132.017 57.9115L133.798 57ZM105.67 1.8L107.451 0.891958L105.67 -2.60511L103.888 0.891958L105.67 1.8ZM77.5415 57L79.3217 57.9115L79.3235 57.908L77.5415 57ZM71.3975 69L69.6173 68.0885L68.1266 71H71.3975V69ZM84.8375 69V71H86.0604L86.6177 69.9115L84.8375 69ZM90.9815 57L92.7617 57.9115L92.7632 57.9087L90.9815 57ZM105.67 28.2L107.451 27.2913L105.67 23.7979L103.888 27.2913L105.67 28.2ZM120.358 57L118.576 57.9087L118.577 57.9115L120.358 57ZM126.502 69L124.721 69.9115L125.279 71H126.502V69ZM139.942 69V71H143.212L141.722 68.0885L139.942 69ZM135.579 56.092L107.451 0.891958L103.888 2.70803L132.016 57.908L135.579 56.092ZM103.888 0.891958L75.7595 56.092L79.3235 57.908L107.451 2.70803L103.888 0.891958ZM75.7613 56.0885L69.6173 68.0885L73.1777 69.9115L79.3217 57.9115L75.7613 56.0885ZM71.3975 71H84.8375V67H71.3975V71ZM86.6177 69.9115L92.7617 57.9115L89.2013 56.0885L83.0573 68.0885L86.6177 69.9115ZM92.7632 57.9087L107.451 29.1087L103.888 27.2913L89.1998 56.0913L92.7632 57.9087ZM103.888 29.1087L118.576 57.9087L122.139 56.0913L107.451 27.2913L103.888 29.1087ZM118.577 57.9115L124.721 69.9115L128.282 68.0885L122.138 56.0885L118.577 57.9115ZM126.502 71H139.942V67H126.502V71ZM141.722 68.0885L135.578 56.0885L132.017 57.9115L138.161 69.9115L141.722 68.0885ZM179.338 1.8L180.752 3.21421L184.166 -0.200005H179.338V1.8ZM145.738 1.8V-0.200005H143.738V1.8H145.738ZM145.738 69H143.738V71H145.738V69ZM202.954 59.112L201.539 57.6978L201.534 57.7034L201.528 57.709L202.954 59.112ZM204.874 57.096L206.392 58.3976L206.396 58.3935L204.874 57.096ZM179.242 1.89599L177.827 0.481781L174.413 3.89599H179.242V1.89599ZM157.642 57.096H155.642V59.096H157.642V57.096ZM157.642 13.896V11.896H155.642V13.896H157.642ZM179.338 -0.200005H145.738V3.8H179.338V-0.200005ZM143.738 1.8V69H147.738V1.8H143.738ZM145.738 71H179.338V67H145.738V71ZM179.338 71C189.108 71 197.968 67.0276 204.379 60.515L201.528 57.709C195.843 63.4844 187.999 67 179.338 67V71ZM204.368 60.5262C205.028 59.8662 205.757 59.1386 206.392 58.3976L203.355 55.7944C202.838 56.3974 202.223 57.0138 201.539 57.6978L204.368 60.5262ZM206.396 58.3935C211.687 52.1859 214.842 44.1449 214.842 35.4H210.842C210.842 43.1671 208.044 50.2941 203.351 55.7985L206.396 58.3935ZM214.842 35.4C214.842 15.76 198.867 -0.104006 179.242 -0.104006V3.89599C196.672 3.89599 210.842 17.984 210.842 35.4H214.842ZM180.656 3.31021L180.752 3.21421L177.923 0.385782L177.827 0.481781L180.656 3.31021ZM179.242 55.096H157.642V59.096H179.242V55.096ZM159.642 57.096V13.896H155.642V57.096H159.642ZM157.642 15.896H179.242V11.896H157.642V15.896ZM179.242 15.896C190.041 15.896 198.842 24.6966 198.842 35.496H202.842C202.842 22.4874 192.25 11.896 179.242 11.896V15.896ZM198.842 35.496C198.842 46.2954 190.041 55.096 179.242 55.096V59.096C192.25 59.096 202.842 48.5046 202.842 35.496H198.842ZM288.759 13.8V15.8H290.759V13.8H288.759ZM288.759 1.8H290.759V-0.200005H288.759V1.8ZM288.759 69V71H290.759V69H288.759ZM288.759 57H290.759V55H288.759V57ZM255.159 15.8H288.759V11.8H255.159V15.8ZM290.759 13.8V1.8H286.759V13.8H290.759ZM288.759 -0.200005H255.159V3.8H288.759V-0.200005ZM255.159 -0.200005C235.526 -0.200005 219.559 15.7674 219.559 35.4H223.559C223.559 17.9766 237.735 3.8 255.159 3.8V-0.200005ZM219.559 35.4C219.559 55.0326 235.526 71 255.159 71V67C237.735 67 223.559 52.8234 223.559 35.4H219.559ZM255.159 71H288.759V67H255.159V71ZM290.759 69V57H286.759V69H290.759ZM288.759 55H255.159V59H288.759V55ZM255.159 55C244.359 55 235.559 46.1994 235.559 35.4H231.559C231.559 48.4086 242.15 59 255.159 59V55ZM235.559 35.4C235.559 24.6006 244.359 15.8 255.159 15.8V11.8C242.15 11.8 231.559 22.3914 231.559 35.4H235.559ZM318.523 57L318.252 58.9817L318.384 58.9996L318.517 59L318.523 57ZM310.363 48.84H308.363V48.9757L308.381 49.1102L310.363 48.84ZM310.363 1.89599H312.363V-0.104006H310.363V1.89599ZM298.363 1.89599V-0.104006H296.363V1.89599H298.363ZM300.571 57.096L302.375 56.2345L302.368 56.218L302.359 56.2016L300.571 57.096ZM310.267 66.888L309.372 68.6769L310.267 66.888ZM353.755 69.096V71.096H355.755V69.096H353.755ZM353.755 57.096H355.755V55.1014L353.76 55.096L353.755 57.096ZM318.793 55.0183C315.459 54.5637 312.799 51.9037 312.344 48.5698L308.381 49.1102C309.078 54.2243 313.138 58.2843 318.252 58.9817L318.793 55.0183ZM312.363 48.84V1.89599H308.363V48.84H312.363ZM310.363 -0.104006H298.363V3.89599H310.363V-0.104006ZM296.363 1.89599V47.688H300.363V1.89599H296.363ZM296.363 47.688C296.363 51.36 297.203 54.834 298.782 57.9904L302.359 56.2016C301.058 53.598 300.363 50.736 300.363 47.688H296.363ZM298.766 57.9575C300.98 62.5973 304.764 66.3727 309.372 68.6769L311.161 65.0991C307.321 63.1793 304.193 60.0427 302.375 56.2345L298.766 57.9575ZM309.372 68.6769C312.528 70.255 316.003 71.096 319.675 71.096V67.096C316.626 67.096 313.765 66.401 311.161 65.0991L309.372 68.6769ZM319.675 71.096H353.755V67.096H319.675V71.096ZM355.755 69.096V57.096H351.755V69.096H355.755ZM353.76 55.096L318.528 55L318.517 59L353.749 59.096L353.76 55.096ZM411.125 1.8V-0.200005H409.125V1.8H411.125ZM367.925 1.8H369.925V-0.200005H367.925V1.8ZM355.925 1.8V-0.200005H353.925V1.8H355.925ZM423.125 1.8H425.125V-0.200005H423.125V1.8ZM409.125 1.8V35.4H413.125V1.8H409.125ZM409.125 35.4C409.125 46.1994 400.324 55 389.525 55V59C402.534 59 413.125 48.4086 413.125 35.4H409.125ZM389.525 55C378.726 55 369.925 46.1994 369.925 35.4H365.925C365.925 48.4086 376.516 59 389.525 59V55ZM369.925 35.4V1.8H365.925V35.4H369.925ZM367.925 -0.200005H355.925V3.8H367.925V-0.200005ZM353.925 1.8V35.4H357.925V1.8H353.925ZM353.925 35.4C353.925 55.0326 369.892 71 389.525 71V67C372.102 67 357.925 52.8234 357.925 35.4H353.925ZM389.525 71C409.158 71 425.125 55.0326 425.125 35.4H421.125C421.125 52.8234 406.948 67 389.525 67V71ZM425.125 35.4V1.8H421.125V35.4H425.125ZM423.125 -0.200005H411.125V3.8H423.125V-0.200005ZM487.906 7.08L486.492 8.49421L486.492 8.49425L487.906 7.08ZM432.802 1.8V-0.200005H430.802V1.8H432.802ZM432.802 69H430.802V71H432.802V69ZM444.802 69V71H446.802V69H444.802ZM444.802 38.088V36.088H442.802V38.088H444.802ZM476.962 38.088V40.088H478.962V38.088H476.962ZM476.962 37.992V35.992H474.962V37.992H476.962ZM477.538 37.992V39.992H477.643L477.748 39.981L477.538 37.992ZM482.722 36.552L481.884 34.7361L481.877 34.7392L481.871 34.7424L482.722 36.552ZM488.002 7.17599L489.437 5.78242L489.427 5.77201L489.416 5.76174L488.002 7.17599ZM477.73 25.608L478.625 27.3969L479.73 26.8441V25.608H477.73ZM444.802 26.184H442.802V28.184H444.802V26.184ZM444.802 13.8V11.8H442.802V13.8H444.802ZM479.554 15.528L480.968 14.1138L480.968 14.1138L479.554 15.528ZM477.73 25.512L476.933 23.6779L475.73 24.2007V25.512H477.73ZM489.32 5.66578C485.695 2.04074 480.68 -0.200005 475.138 -0.200005V3.8C479.58 3.8 483.589 5.59126 486.492 8.49421L489.32 5.66578ZM475.138 -0.200005H432.802V3.8H475.138V-0.200005ZM430.802 1.8V69H434.802V1.8H430.802ZM432.802 71H444.802V67H432.802V71ZM446.802 69V38.088H442.802V69H446.802ZM444.802 40.088H476.962V36.088H444.802V40.088ZM478.962 38.088V37.992H474.962V38.088H478.962ZM476.962 39.992C476.963 39.992 476.963 39.992 476.963 39.992C476.964 39.992 476.964 39.992 476.965 39.992C476.965 39.992 476.965 39.992 476.966 39.992C476.966 39.992 476.966 39.992 476.967 39.992C476.967 39.992 476.968 39.992 476.968 39.992C476.968 39.992 476.969 39.992 476.969 39.992C476.969 39.992 476.97 39.992 476.97 39.992C476.971 39.992 476.971 39.992 476.971 39.992C476.972 39.992 476.972 39.992 476.972 39.992C476.973 39.992 476.973 39.992 476.974 39.992C476.974 39.992 476.974 39.992 476.975 39.992C476.975 39.992 476.975 39.992 476.976 39.992C476.976 39.992 476.977 39.992 476.977 39.992C476.977 39.992 476.978 39.992 476.978 39.992C476.978 39.992 476.979 39.992 476.979 39.992C476.98 39.992 476.98 39.992 476.98 39.992C476.981 39.992 476.981 39.992 476.981 39.992C476.982 39.992 476.982 39.992 476.983 39.992C476.983 39.992 476.983 39.992 476.984 39.992C476.984 39.992 476.984 39.992 476.985 39.992C476.985 39.992 476.986 39.992 476.986 39.992C476.986 39.992 476.987 39.992 476.987 39.992C476.987 39.992 476.988 39.992 476.988 39.992C476.989 39.992 476.989 39.992 476.989 39.992C476.99 39.992 476.99 39.992 476.99 39.992C476.991 39.992 476.991 39.992 476.992 39.992C476.992 39.992 476.992 39.992 476.993 39.992C476.993 39.992 476.993 39.992 476.994 39.992C476.994 39.992 476.995 39.992 476.995 39.992C476.995 39.992 476.996 39.992 476.996 39.992C476.996 39.992 476.997 39.992 476.997 39.992C476.998 39.992 476.998 39.992 476.998 39.992C476.999 39.992 476.999 39.992 476.999 39.992C477 39.992 477 39.992 477.001 39.992C477.001 39.992 477.001 39.992 477.002 39.992C477.002 39.992 477.002 39.992 477.003 39.992C477.003 39.992 477.004 39.992 477.004 39.992C477.004 39.992 477.005 39.992 477.005 39.992C477.005 39.992 477.006 39.992 477.006 39.992C477.007 39.992 477.007 39.992 477.007 39.992C477.008 39.992 477.008 39.992 477.008 39.992C477.009 39.992 477.009 39.992 477.01 39.992C477.01 39.992 477.01 39.992 477.011 39.992C477.011 39.992 477.011 39.992 477.012 39.992C477.012 39.992 477.013 39.992 477.013 39.992C477.013 39.992 477.014 39.992 477.014 39.992C477.014 39.992 477.015 39.992 477.015 39.992C477.016 39.992 477.016 39.992 477.016 39.992C477.017 39.992 477.017 39.992 477.017 39.992C477.018 39.992 477.018 39.992 477.019 39.992C477.019 39.992 477.019 39.992 477.02 39.992C477.02 39.992 477.02 39.992 477.021 39.992C477.021 39.992 477.022 39.992 477.022 39.992C477.022 39.992 477.023 39.992 477.023 39.992C477.023 39.992 477.024 39.992 477.024 39.992C477.025 39.992 477.025 39.992 477.025 39.992C477.026 39.992 477.026 39.992 477.026 39.992C477.027 39.992 477.027 39.992 477.028 39.992C477.028 39.992 477.028 39.992 477.029 39.992C477.029 39.992 477.029 39.992 477.03 39.992C477.03 39.992 477.031 39.992 477.031 39.992C477.031 39.992 477.032 39.992 477.032 39.992C477.032 39.992 477.033 39.992 477.033 39.992C477.034 39.992 477.034 39.992 477.034 39.992C477.035 39.992 477.035 39.992 477.035 39.992C477.036 39.992 477.036 39.992 477.037 39.992C477.037 39.992 477.037 39.992 477.038 39.992C477.038 39.992 477.038 39.992 477.039 39.992C477.039 39.992 477.04 39.992 477.04 39.992C477.04 39.992 477.041 39.992 477.041 39.992C477.041 39.992 477.042 39.992 477.042 39.992C477.043 39.992 477.043 39.992 477.043 39.992C477.044 39.992 477.044 39.992 477.044 39.992C477.045 39.992 477.045 39.992 477.046 39.992C477.046 39.992 477.046 39.992 477.047 39.992C477.047 39.992 477.047 39.992 477.048 39.992C477.048 39.992 477.049 39.992 477.049 39.992C477.049 39.992 477.05 39.992 477.05 39.992C477.05 39.992 477.051 39.992 477.051 39.992C477.052 39.992 477.052 39.992 477.052 39.992C477.053 39.992 477.053 39.992 477.053 39.992C477.054 39.992 477.054 39.992 477.055 39.992C477.055 39.992 477.055 39.992 477.056 39.992C477.056 39.992 477.056 39.992 477.057 39.992C477.057 39.992 477.058 39.992 477.058 39.992C477.058 39.992 477.059 39.992 477.059 39.992C477.059 39.992 477.06 39.992 477.06 39.992C477.061 39.992 477.061 39.992 477.061 39.992C477.062 39.992 477.062 39.992 477.062 39.992C477.063 39.992 477.063 39.992 477.064 39.992C477.064 39.992 477.064 39.992 477.065 39.992C477.065 39.992 477.065 39.992 477.066 39.992C477.066 39.992 477.067 39.992 477.067 39.992C477.067 39.992 477.068 39.992 477.068 39.992C477.068 39.992 477.069 39.992 477.069 39.992C477.07 39.992 477.07 39.992 477.07 39.992C477.071 39.992 477.071 39.992 477.071 39.992C477.072 39.992 477.072 39.992 477.073 39.992C477.073 39.992 477.073 39.992 477.074 39.992C477.074 39.992 477.074 39.992 477.075 39.992C477.075 39.992 477.076 39.992 477.076 39.992C477.076 39.992 477.077 39.992 477.077 39.992C477.077 39.992 477.078 39.992 477.078 39.992C477.079 39.992 477.079 39.992 477.079 39.992C477.08 39.992 477.08 39.992 477.08 39.992C477.081 39.992 477.081 39.992 477.082 39.992C477.082 39.992 477.082 39.992 477.083 39.992C477.083 39.992 477.083 39.992 477.084 39.992C477.084 39.992 477.085 39.992 477.085 39.992C477.085 39.992 477.086 39.992 477.086 39.992C477.086 39.992 477.087 39.992 477.087 39.992C477.088 39.992 477.088 39.992 477.088 39.992C477.089 39.992 477.089 39.992 477.089 39.992C477.09 39.992 477.09 39.992 477.091 39.992C477.091 39.992 477.091 39.992 477.092 39.992C477.092 39.992 477.092 39.992 477.093 39.992C477.093 39.992 477.094 39.992 477.094 39.992C477.094 39.992 477.095 39.992 477.095 39.992C477.095 39.992 477.096 39.992 477.096 39.992C477.097 39.992 477.097 39.992 477.097 39.992C477.098 39.992 477.098 39.992 477.098 39.992C477.099 39.992 477.099 39.992 477.1 39.992C477.1 39.992 477.1 39.992 477.101 39.992C477.101 39.992 477.101 39.992 477.102 39.992C477.102 39.992 477.103 39.992 477.103 39.992C477.103 39.992 477.104 39.992 477.104 39.992C477.104 39.992 477.105 39.992 477.105 39.992C477.106 39.992 477.106 39.992 477.106 39.992C477.107 39.992 477.107 39.992 477.107 39.992C477.108 39.992 477.108 39.992 477.109 39.992C477.109 39.992 477.109 39.992 477.11 39.992C477.11 39.992 477.11 39.992 477.111 39.992C477.111 39.992 477.112 39.992 477.112 39.992C477.112 39.992 477.113 39.992 477.113 39.992C477.113 39.992 477.114 39.992 477.114 39.992C477.115 39.992 477.115 39.992 477.115 39.992C477.116 39.992 477.116 39.992 477.116 39.992C477.117 39.992 477.117 39.992 477.118 39.992C477.118 39.992 477.118 39.992 477.119 39.992C477.119 39.992 477.119 39.992 477.12 39.992C477.12 39.992 477.121 39.992 477.121 39.992C477.121 39.992 477.122 39.992 477.122 39.992C477.122 39.992 477.123 39.992 477.123 39.992C477.124 39.992 477.124 39.992 477.124 39.992C477.125 39.992 477.125 39.992 477.125 39.992C477.126 39.992 477.126 39.992 477.127 39.992C477.127 39.992 477.127 39.992 477.128 39.992C477.128 39.992 477.128 39.992 477.129 39.992C477.129 39.992 477.13 39.992 477.13 39.992C477.13 39.992 477.131 39.992 477.131 39.992C477.131 39.992 477.132 39.992 477.132 39.992C477.133 39.992 477.133 39.992 477.133 39.992C477.134 39.992 477.134 39.992 477.134 39.992C477.135 39.992 477.135 39.992 477.136 39.992C477.136 39.992 477.136 39.992 477.137 39.992C477.137 39.992 477.137 39.992 477.138 39.992C477.138 39.992 477.139 39.992 477.139 39.992C477.139 39.992 477.14 39.992 477.14 39.992C477.14 39.992 477.141 39.992 477.141 39.992C477.142 39.992 477.142 39.992 477.142 39.992C477.143 39.992 477.143 39.992 477.143 39.992C477.144 39.992 477.144 39.992 477.145 39.992C477.145 39.992 477.145 39.992 477.146 39.992C477.146 39.992 477.146 39.992 477.147 39.992C477.147 39.992 477.148 39.992 477.148 39.992C477.148 39.992 477.149 39.992 477.149 39.992C477.149 39.992 477.15 39.992 477.15 39.992C477.151 39.992 477.151 39.992 477.151 39.992C477.152 39.992 477.152 39.992 477.152 39.992C477.153 39.992 477.153 39.992 477.154 39.992C477.154 39.992 477.154 39.992 477.155 39.992C477.155 39.992 477.155 39.992 477.156 39.992C477.156 39.992 477.157 39.992 477.157 39.992C477.157 39.992 477.158 39.992 477.158 39.992C477.158 39.992 477.159 39.992 477.159 39.992C477.16 39.992 477.16 39.992 477.16 39.992C477.161 39.992 477.161 39.992 477.161 39.992C477.162 39.992 477.162 39.992 477.163 39.992C477.163 39.992 477.163 39.992 477.164 39.992C477.164 39.992 477.164 39.992 477.165 39.992C477.165 39.992 477.166 39.992 477.166 39.992C477.166 39.992 477.167 39.992 477.167 39.992C477.167 39.992 477.168 39.992 477.168 39.992C477.169 39.992 477.169 39.992 477.169 39.992C477.17 39.992 477.17 39.992 477.17 39.992C477.171 39.992 477.171 39.992 477.172 39.992C477.172 39.992 477.172 39.992 477.173 39.992C477.173 39.992 477.173 39.992 477.174 39.992C477.174 39.992 477.175 39.992 477.175 39.992C477.175 39.992 477.176 39.992 477.176 39.992C477.176 39.992 477.177 39.992 477.177 39.992C477.178 39.992 477.178 39.992 477.178 39.992C477.179 39.992 477.179 39.992 477.179 39.992C477.18 39.992 477.18 39.992 477.181 39.992C477.181 39.992 477.181 39.992 477.182 39.992C477.182 39.992 477.182 39.992 477.183 39.992C477.183 39.992 477.184 39.992 477.184 39.992C477.184 39.992 477.185 39.992 477.185 39.992C477.185 39.992 477.186 39.992 477.186 39.992C477.187 39.992 477.187 39.992 477.187 39.992C477.188 39.992 477.188 39.992 477.188 39.992C477.189 39.992 477.189 39.992 477.19 39.992C477.19 39.992 477.19 39.992 477.191 39.992C477.191 39.992 477.191 39.992 477.192 39.992C477.192 39.992 477.193 39.992 477.193 39.992C477.193 39.992 477.194 39.992 477.194 39.992C477.194 39.992 477.195 39.992 477.195 39.992C477.196 39.992 477.196 39.992 477.196 39.992C477.197 39.992 477.197 39.992 477.197 39.992C477.198 39.992 477.198 39.992 477.199 39.992C477.199 39.992 477.199 39.992 477.2 39.992C477.2 39.992 477.2 39.992 477.201 39.992C477.201 39.992 477.202 39.992 477.202 39.992C477.202 39.992 477.203 39.992 477.203 39.992C477.203 39.992 477.204 39.992 477.204 39.992C477.205 39.992 477.205 39.992 477.205 39.992C477.206 39.992 477.206 39.992 477.206 39.992C477.207 39.992 477.207 39.992 477.208 39.992C477.208 39.992 477.208 39.992 477.209 39.992C477.209 39.992 477.209 39.992 477.21 39.992C477.21 39.992 477.211 39.992 477.211 39.992C477.211 39.992 477.212 39.992 477.212 39.992C477.212 39.992 477.213 39.992 477.213 39.992C477.214 39.992 477.214 39.992 477.214 39.992C477.215 39.992 477.215 39.992 477.215 39.992C477.216 39.992 477.216 39.992 477.217 39.992C477.217 39.992 477.217 39.992 477.218 39.992C477.218 39.992 477.218 39.992 477.219 39.992C477.219 39.992 477.22 39.992 477.22 39.992C477.22 39.992 477.221 39.992 477.221 39.992C477.221 39.992 477.222 39.992 477.222 39.992C477.223 39.992 477.223 39.992 477.223 39.992C477.224 39.992 477.224 39.992 477.224 39.992C477.225 39.992 477.225 39.992 477.226 39.992C477.226 39.992 477.226 39.992 477.227 39.992C477.227 39.992 477.227 39.992 477.228 39.992C477.228 39.992 477.229 39.992 477.229 39.992C477.229 39.992 477.23 39.992 477.23 39.992C477.23 39.992 477.231 39.992 477.231 39.992C477.232 39.992 477.232 39.992 477.232 39.992C477.233 39.992 477.233 39.992 477.233 39.992C477.234 39.992 477.234 39.992 477.235 39.992C477.235 39.992 477.235 39.992 477.236 39.992C477.236 39.992 477.236 39.992 477.237 39.992C477.237 39.992 477.238 39.992 477.238 39.992C477.238 39.992 477.239 39.992 477.239 39.992C477.239 39.992 477.24 39.992 477.24 39.992C477.241 39.992 477.241 39.992 477.241 39.992C477.242 39.992 477.242 39.992 477.242 39.992C477.243 39.992 477.243 39.992 477.244 39.992C477.244 39.992 477.244 39.992 477.245 39.992C477.245 39.992 477.245 39.992 477.246 39.992C477.246 39.992 477.247 39.992 477.247 39.992C477.247 39.992 477.248 39.992 477.248 39.992C477.248 39.992 477.249 39.992 477.249 39.992C477.25 39.992 477.25 39.992 477.25 39.992C477.251 39.992 477.251 39.992 477.251 39.992C477.252 39.992 477.252 39.992 477.253 39.992C477.253 39.992 477.253 39.992 477.254 39.992C477.254 39.992 477.254 39.992 477.255 39.992C477.255 39.992 477.256 39.992 477.256 39.992C477.256 39.992 477.257 39.992 477.257 39.992C477.257 39.992 477.258 39.992 477.258 39.992C477.259 39.992 477.259 39.992 477.259 39.992C477.26 39.992 477.26 39.992 477.26 39.992C477.261 39.992 477.261 39.992 477.262 39.992C477.262 39.992 477.262 39.992 477.263 39.992C477.263 39.992 477.263 39.992 477.264 39.992C477.264 39.992 477.265 39.992 477.265 39.992C477.265 39.992 477.266 39.992 477.266 39.992C477.266 39.992 477.267 39.992 477.267 39.992C477.268 39.992 477.268 39.992 477.268 39.992C477.269 39.992 477.269 39.992 477.269 39.992C477.27 39.992 477.27 39.992 477.271 39.992C477.271 39.992 477.271 39.992 477.272 39.992C477.272 39.992 477.272 39.992 477.273 39.992C477.273 39.992 477.274 39.992 477.274 39.992C477.274 39.992 477.275 39.992 477.275 39.992C477.275 39.992 477.276 39.992 477.276 39.992C477.277 39.992 477.277 39.992 477.277 39.992C477.278 39.992 477.278 39.992 477.278 39.992C477.279 39.992 477.279 39.992 477.28 39.992C477.28 39.992 477.28 39.992 477.281 39.992C477.281 39.992 477.281 39.992 477.282 39.992C477.282 39.992 477.283 39.992 477.283 39.992C477.283 39.992 477.284 39.992 477.284 39.992C477.284 39.992 477.285 39.992 477.285 39.992C477.286 39.992 477.286 39.992 477.286 39.992C477.287 39.992 477.287 39.992 477.287 39.992C477.288 39.992 477.288 39.992 477.289 39.992C477.289 39.992 477.289 39.992 477.29 39.992C477.29 39.992 477.29 39.992 477.291 39.992C477.291 39.992 477.292 39.992 477.292 39.992C477.292 39.992 477.293 39.992 477.293 39.992C477.293 39.992 477.294 39.992 477.294 39.992C477.295 39.992 477.295 39.992 477.295 39.992C477.296 39.992 477.296 39.992 477.296 39.992C477.297 39.992 477.297 39.992 477.298 39.992C477.298 39.992 477.298 39.992 477.299 39.992C477.299 39.992 477.299 39.992 477.3 39.992C477.3 39.992 477.301 39.992 477.301 39.992C477.301 39.992 477.302 39.992 477.302 39.992C477.302 39.992 477.303 39.992 477.303 39.992C477.304 39.992 477.304 39.992 477.304 39.992C477.305 39.992 477.305 39.992 477.305 39.992C477.306 39.992 477.306 39.992 477.307 39.992C477.307 39.992 477.307 39.992 477.308 39.992C477.308 39.992 477.308 39.992 477.309 39.992C477.309 39.992 477.31 39.992 477.31 39.992C477.31 39.992 477.311 39.992 477.311 39.992C477.311 39.992 477.312 39.992 477.312 39.992C477.313 39.992 477.313 39.992 477.313 39.992C477.314 39.992 477.314 39.992 477.314 39.992C477.315 39.992 477.315 39.992 477.316 39.992C477.316 39.992 477.316 39.992 477.317 39.992C477.317 39.992 477.317 39.992 477.318 39.992C477.318 39.992 477.319 39.992 477.319 39.992C477.319 39.992 477.32 39.992 477.32 39.992C477.32 39.992 477.321 39.992 477.321 39.992C477.322 39.992 477.322 39.992 477.322 39.992C477.323 39.992 477.323 39.992 477.323 39.992C477.324 39.992 477.324 39.992 477.325 39.992C477.325 39.992 477.325 39.992 477.326 39.992C477.326 39.992 477.326 39.992 477.327 39.992C477.327 39.992 477.328 39.992 477.328 39.992C477.328 39.992 477.329 39.992 477.329 39.992C477.329 39.992 477.33 39.992 477.33 39.992C477.331 39.992 477.331 39.992 477.331 39.992C477.332 39.992 477.332 39.992 477.332 39.992C477.333 39.992 477.333 39.992 477.334 39.992C477.334 39.992 477.334 39.992 477.335 39.992C477.335 39.992 477.335 39.992 477.336 39.992C477.336 39.992 477.337 39.992 477.337 39.992C477.337 39.992 477.338 39.992 477.338 39.992C477.338 39.992 477.339 39.992 477.339 39.992C477.34 39.992 477.34 39.992 477.34 39.992C477.341 39.992 477.341 39.992 477.341 39.992C477.342 39.992 477.342 39.992 477.343 39.992C477.343 39.992 477.343 39.992 477.344 39.992C477.344 39.992 477.344 39.992 477.345 39.992C477.345 39.992 477.346 39.992 477.346 39.992C477.346 39.992 477.347 39.992 477.347 39.992C477.347 39.992 477.348 39.992 477.348 39.992C477.349 39.992 477.349 39.992 477.349 39.992C477.35 39.992 477.35 39.992 477.35 39.992C477.351 39.992 477.351 39.992 477.352 39.992C477.352 39.992 477.352 39.992 477.353 39.992C477.353 39.992 477.353 39.992 477.354 39.992C477.354 39.992 477.355 39.992 477.355 39.992C477.355 39.992 477.356 39.992 477.356 39.992C477.356 39.992 477.357 39.992 477.357 39.992C477.358 39.992 477.358 39.992 477.358 39.992C477.359 39.992 477.359 39.992 477.359 39.992C477.36 39.992 477.36 39.992 477.361 39.992C477.361 39.992 477.361 39.992 477.362 39.992C477.362 39.992 477.362 39.992 477.363 39.992C477.363 39.992 477.364 39.992 477.364 39.992C477.364 39.992 477.365 39.992 477.365 39.992C477.365 39.992 477.366 39.992 477.366 39.992C477.367 39.992 477.367 39.992 477.367 39.992C477.368 39.992 477.368 39.992 477.368 39.992C477.369 39.992 477.369 39.992 477.37 39.992C477.37 39.992 477.37 39.992 477.371 39.992C477.371 39.992 477.371 39.992 477.372 39.992C477.372 39.992 477.373 39.992 477.373 39.992C477.373 39.992 477.374 39.992 477.374 39.992C477.374 39.992 477.375 39.992 477.375 39.992C477.376 39.992 477.376 39.992 477.376 39.992C477.377 39.992 477.377 39.992 477.377 39.992C477.378 39.992 477.378 39.992 477.379 39.992C477.379 39.992 477.379 39.992 477.38 39.992C477.38 39.992 477.38 39.992 477.381 39.992C477.381 39.992 477.382 39.992 477.382 39.992C477.382 39.992 477.383 39.992 477.383 39.992C477.383 39.992 477.384 39.992 477.384 39.992C477.385 39.992 477.385 39.992 477.385 39.992C477.386 39.992 477.386 39.992 477.386 39.992C477.387 39.992 477.387 39.992 477.388 39.992C477.388 39.992 477.388 39.992 477.389 39.992C477.389 39.992 477.389 39.992 477.39 39.992C477.39 39.992 477.391 39.992 477.391 39.992C477.391 39.992 477.392 39.992 477.392 39.992C477.392 39.992 477.393 39.992 477.393 39.992C477.394 39.992 477.394 39.992 477.394 39.992C477.395 39.992 477.395 39.992 477.395 39.992C477.396 39.992 477.396 39.992 477.397 39.992C477.397 39.992 477.397 39.992 477.398 39.992C477.398 39.992 477.398 39.992 477.399 39.992C477.399 39.992 477.4 39.992 477.4 39.992C477.4 39.992 477.401 39.992 477.401 39.992C477.401 39.992 477.402 39.992 477.402 39.992C477.403 39.992 477.403 39.992 477.403 39.992C477.404 39.992 477.404 39.992 477.404 39.992C477.405 39.992 477.405 39.992 477.406 39.992C477.406 39.992 477.406 39.992 477.407 39.992C477.407 39.992 477.407 39.992 477.408 39.992C477.408 39.992 477.409 39.992 477.409 39.992C477.409 39.992 477.41 39.992 477.41 39.992C477.41 39.992 477.411 39.992 477.411 39.992C477.412 39.992 477.412 39.992 477.412 39.992C477.413 39.992 477.413 39.992 477.413 39.992C477.414 39.992 477.414 39.992 477.415 39.992C477.415 39.992 477.415 39.992 477.416 39.992C477.416 39.992 477.416 39.992 477.417 39.992C477.417 39.992 477.418 39.992 477.418 39.992C477.418 39.992 477.419 39.992 477.419 39.992C477.419 39.992 477.42 39.992 477.42 39.992C477.421 39.992 477.421 39.992 477.421 39.992C477.422 39.992 477.422 39.992 477.422 39.992C477.423 39.992 477.423 39.992 477.424 39.992C477.424 39.992 477.424 39.992 477.425 39.992C477.425 39.992 477.425 39.992 477.426 39.992C477.426 39.992 477.427 39.992 477.427 39.992C477.427 39.992 477.428 39.992 477.428 39.992C477.428 39.992 477.429 39.992 477.429 39.992C477.43 39.992 477.43 39.992 477.43 39.992C477.431 39.992 477.431 39.992 477.431 39.992C477.432 39.992 477.432 39.992 477.433 39.992C477.433 39.992 477.433 39.992 477.434 39.992C477.434 39.992 477.434 39.992 477.435 39.992C477.435 39.992 477.436 39.992 477.436 39.992C477.436 39.992 477.437 39.992 477.437 39.992C477.437 39.992 477.438 39.992 477.438 39.992C477.439 39.992 477.439 39.992 477.439 39.992C477.44 39.992 477.44 39.992 477.44 39.992C477.441 39.992 477.441 39.992 477.442 39.992C477.442 39.992 477.442 39.992 477.443 39.992C477.443 39.992 477.443 39.992 477.444 39.992C477.444 39.992 477.445 39.992 477.445 39.992C477.445 39.992 477.446 39.992 477.446 39.992C477.446 39.992 477.447 39.992 477.447 39.992C477.448 39.992 477.448 39.992 477.448 39.992C477.449 39.992 477.449 39.992 477.449 39.992C477.45 39.992 477.45 39.992 477.451 39.992C477.451 39.992 477.451 39.992 477.452 39.992C477.452 39.992 477.452 39.992 477.453 39.992C477.453 39.992 477.454 39.992 477.454 39.992C477.454 39.992 477.455 39.992 477.455 39.992C477.455 39.992 477.456 39.992 477.456 39.992C477.457 39.992 477.457 39.992 477.457 39.992C477.458 39.992 477.458 39.992 477.458 39.992C477.459 39.992 477.459 39.992 477.46 39.992C477.46 39.992 477.46 39.992 477.461 39.992C477.461 39.992 477.461 39.992 477.462 39.992C477.462 39.992 477.463 39.992 477.463 39.992C477.463 39.992 477.464 39.992 477.464 39.992C477.464 39.992 477.465 39.992 477.465 39.992C477.466 39.992 477.466 39.992 477.466 39.992C477.467 39.992 477.467 39.992 477.467 39.992C477.468 39.992 477.468 39.992 477.469 39.992C477.469 39.992 477.469 39.992 477.47 39.992C477.47 39.992 477.47 39.992 477.471 39.992C477.471 39.992 477.472 39.992 477.472 39.992C477.472 39.992 477.473 39.992 477.473 39.992C477.473 39.992 477.474 39.992 477.474 39.992C477.475 39.992 477.475 39.992 477.475 39.992C477.476 39.992 477.476 39.992 477.476 39.992C477.477 39.992 477.477 39.992 477.478 39.992C477.478 39.992 477.478 39.992 477.479 39.992C477.479 39.992 477.479 39.992 477.48 39.992C477.48 39.992 477.481 39.992 477.481 39.992C477.481 39.992 477.482 39.992 477.482 39.992C477.482 39.992 477.483 39.992 477.483 39.992C477.484 39.992 477.484 39.992 477.484 39.992C477.485 39.992 477.485 39.992 477.485 39.992C477.486 39.992 477.486 39.992 477.487 39.992C477.487 39.992 477.487 39.992 477.488 39.992C477.488 39.992 477.488 39.992 477.489 39.992C477.489 39.992 477.49 39.992 477.49 39.992C477.49 39.992 477.491 39.992 477.491 39.992C477.491 39.992 477.492 39.992 477.492 39.992C477.493 39.992 477.493 39.992 477.493 39.992C477.494 39.992 477.494 39.992 477.494 39.992C477.495 39.992 477.495 39.992 477.496 39.992C477.496 39.992 477.496 39.992 477.497 39.992C477.497 39.992 477.497 39.992 477.498 39.992C477.498 39.992 477.499 39.992 477.499 39.992C477.499 39.992 477.5 39.992 477.5 39.992C477.5 39.992 477.501 39.992 477.501 39.992C477.502 39.992 477.502 39.992 477.502 39.992C477.503 39.992 477.503 39.992 477.503 39.992C477.504 39.992 477.504 39.992 477.505 39.992C477.505 39.992 477.505 39.992 477.506 39.992C477.506 39.992 477.506 39.992 477.507 39.992C477.507 39.992 477.508 39.992 477.508 39.992C477.508 39.992 477.509 39.992 477.509 39.992C477.509 39.992 477.51 39.992 477.51 39.992C477.511 39.992 477.511 39.992 477.511 39.992C477.512 39.992 477.512 39.992 477.512 39.992C477.513 39.992 477.513 39.992 477.514 39.992C477.514 39.992 477.514 39.992 477.515 39.992C477.515 39.992 477.515 39.992 477.516 39.992C477.516 39.992 477.517 39.992 477.517 39.992C477.517 39.992 477.518 39.992 477.518 39.992C477.518 39.992 477.519 39.992 477.519 39.992C477.52 39.992 477.52 39.992 477.52 39.992C477.521 39.992 477.521 39.992 477.521 39.992C477.522 39.992 477.522 39.992 477.523 39.992C477.523 39.992 477.523 39.992 477.524 39.992C477.524 39.992 477.524 39.992 477.525 39.992C477.525 39.992 477.526 39.992 477.526 39.992C477.526 39.992 477.527 39.992 477.527 39.992C477.527 39.992 477.528 39.992 477.528 39.992C477.529 39.992 477.529 39.992 477.529 39.992C477.53 39.992 477.53 39.992 477.53 39.992C477.531 39.992 477.531 39.992 477.532 39.992C477.532 39.992 477.532 39.992 477.533 39.992C477.533 39.992 477.533 39.992 477.534 39.992C477.534 39.992 477.535 39.992 477.535 39.992C477.535 39.992 477.536 39.992 477.536 39.992C477.536 39.992 477.537 39.992 477.537 39.992C477.538 39.992 477.538 39.992 477.538 39.992V35.992C477.538 35.992 477.538 35.992 477.537 35.992C477.537 35.992 477.536 35.992 477.536 35.992C477.536 35.992 477.535 35.992 477.535 35.992C477.535 35.992 477.534 35.992 477.534 35.992C477.533 35.992 477.533 35.992 477.533 35.992C477.532 35.992 477.532 35.992 477.532 35.992C477.531 35.992 477.531 35.992 477.53 35.992C477.53 35.992 477.53 35.992 477.529 35.992C477.529 35.992 477.529 35.992 477.528 35.992C477.528 35.992 477.527 35.992 477.527 35.992C477.527 35.992 477.526 35.992 477.526 35.992C477.526 35.992 477.525 35.992 477.525 35.992C477.524 35.992 477.524 35.992 477.524 35.992C477.523 35.992 477.523 35.992 477.523 35.992C477.522 35.992 477.522 35.992 477.521 35.992C477.521 35.992 477.521 35.992 477.52 35.992C477.52 35.992 477.52 35.992 477.519 35.992C477.519 35.992 477.518 35.992 477.518 35.992C477.518 35.992 477.517 35.992 477.517 35.992C477.517 35.992 477.516 35.992 477.516 35.992C477.515 35.992 477.515 35.992 477.515 35.992C477.514 35.992 477.514 35.992 477.514 35.992C477.513 35.992 477.513 35.992 477.512 35.992C477.512 35.992 477.512 35.992 477.511 35.992C477.511 35.992 477.511 35.992 477.51 35.992C477.51 35.992 477.509 35.992 477.509 35.992C477.509 35.992 477.508 35.992 477.508 35.992C477.508 35.992 477.507 35.992 477.507 35.992C477.506 35.992 477.506 35.992 477.506 35.992C477.505 35.992 477.505 35.992 477.505 35.992C477.504 35.992 477.504 35.992 477.503 35.992C477.503 35.992 477.503 35.992 477.502 35.992C477.502 35.992 477.502 35.992 477.501 35.992C477.501 35.992 477.5 35.992 477.5 35.992C477.5 35.992 477.499 35.992 477.499 35.992C477.499 35.992 477.498 35.992 477.498 35.992C477.497 35.992 477.497 35.992 477.497 35.992C477.496 35.992 477.496 35.992 477.496 35.992C477.495 35.992 477.495 35.992 477.494 35.992C477.494 35.992 477.494 35.992 477.493 35.992C477.493 35.992 477.493 35.992 477.492 35.992C477.492 35.992 477.491 35.992 477.491 35.992C477.491 35.992 477.49 35.992 477.49 35.992C477.49 35.992 477.489 35.992 477.489 35.992C477.488 35.992 477.488 35.992 477.488 35.992C477.487 35.992 477.487 35.992 477.487 35.992C477.486 35.992 477.486 35.992 477.485 35.992C477.485 35.992 477.485 35.992 477.484 35.992C477.484 35.992 477.484 35.992 477.483 35.992C477.483 35.992 477.482 35.992 477.482 35.992C477.482 35.992 477.481 35.992 477.481 35.992C477.481 35.992 477.48 35.992 477.48 35.992C477.479 35.992 477.479 35.992 477.479 35.992C477.478 35.992 477.478 35.992 477.478 35.992C477.477 35.992 477.477 35.992 477.476 35.992C477.476 35.992 477.476 35.992 477.475 35.992C477.475 35.992 477.475 35.992 477.474 35.992C477.474 35.992 477.473 35.992 477.473 35.992C477.473 35.992 477.472 35.992 477.472 35.992C477.472 35.992 477.471 35.992 477.471 35.992C477.47 35.992 477.47 35.992 477.47 35.992C477.469 35.992 477.469 35.992 477.469 35.992C477.468 35.992 477.468 35.992 477.467 35.992C477.467 35.992 477.467 35.992 477.466 35.992C477.466 35.992 477.466 35.992 477.465 35.992C477.465 35.992 477.464 35.992 477.464 35.992C477.464 35.992 477.463 35.992 477.463 35.992C477.463 35.992 477.462 35.992 477.462 35.992C477.461 35.992 477.461 35.992 477.461 35.992C477.46 35.992 477.46 35.992 477.46 35.992C477.459 35.992 477.459 35.992 477.458 35.992C477.458 35.992 477.458 35.992 477.457 35.992C477.457 35.992 477.457 35.992 477.456 35.992C477.456 35.992 477.455 35.992 477.455 35.992C477.455 35.992 477.454 35.992 477.454 35.992C477.454 35.992 477.453 35.992 477.453 35.992C477.452 35.992 477.452 35.992 477.452 35.992C477.451 35.992 477.451 35.992 477.451 35.992C477.45 35.992 477.45 35.992 477.449 35.992C477.449 35.992 477.449 35.992 477.448 35.992C477.448 35.992 477.448 35.992 477.447 35.992C477.447 35.992 477.446 35.992 477.446 35.992C477.446 35.992 477.445 35.992 477.445 35.992C477.445 35.992 477.444 35.992 477.444 35.992C477.443 35.992 477.443 35.992 477.443 35.992C477.442 35.992 477.442 35.992 477.442 35.992C477.441 35.992 477.441 35.992 477.44 35.992C477.44 35.992 477.44 35.992 477.439 35.992C477.439 35.992 477.439 35.992 477.438 35.992C477.438 35.992 477.437 35.992 477.437 35.992C477.437 35.992 477.436 35.992 477.436 35.992C477.436 35.992 477.435 35.992 477.435 35.992C477.434 35.992 477.434 35.992 477.434 35.992C477.433 35.992 477.433 35.992 477.433 35.992C477.432 35.992 477.432 35.992 477.431 35.992C477.431 35.992 477.431 35.992 477.43 35.992C477.43 35.992 477.43 35.992 477.429 35.992C477.429 35.992 477.428 35.992 477.428 35.992C477.428 35.992 477.427 35.992 477.427 35.992C477.427 35.992 477.426 35.992 477.426 35.992C477.425 35.992 477.425 35.992 477.425 35.992C477.424 35.992 477.424 35.992 477.424 35.992C477.423 35.992 477.423 35.992 477.422 35.992C477.422 35.992 477.422 35.992 477.421 35.992C477.421 35.992 477.421 35.992 477.42 35.992C477.42 35.992 477.419 35.992 477.419 35.992C477.419 35.992 477.418 35.992 477.418 35.992C477.418 35.992 477.417 35.992 477.417 35.992C477.416 35.992 477.416 35.992 477.416 35.992C477.415 35.992 477.415 35.992 477.415 35.992C477.414 35.992 477.414 35.992 477.413 35.992C477.413 35.992 477.413 35.992 477.412 35.992C477.412 35.992 477.412 35.992 477.411 35.992C477.411 35.992 477.41 35.992 477.41 35.992C477.41 35.992 477.409 35.992 477.409 35.992C477.409 35.992 477.408 35.992 477.408 35.992C477.407 35.992 477.407 35.992 477.407 35.992C477.406 35.992 477.406 35.992 477.406 35.992C477.405 35.992 477.405 35.992 477.404 35.992C477.404 35.992 477.404 35.992 477.403 35.992C477.403 35.992 477.403 35.992 477.402 35.992C477.402 35.992 477.401 35.992 477.401 35.992C477.401 35.992 477.4 35.992 477.4 35.992C477.4 35.992 477.399 35.992 477.399 35.992C477.398 35.992 477.398 35.992 477.398 35.992C477.397 35.992 477.397 35.992 477.397 35.992C477.396 35.992 477.396 35.992 477.395 35.992C477.395 35.992 477.395 35.992 477.394 35.992C477.394 35.992 477.394 35.992 477.393 35.992C477.393 35.992 477.392 35.992 477.392 35.992C477.392 35.992 477.391 35.992 477.391 35.992C477.391 35.992 477.39 35.992 477.39 35.992C477.389 35.992 477.389 35.992 477.389 35.992C477.388 35.992 477.388 35.992 477.388 35.992C477.387 35.992 477.387 35.992 477.386 35.992C477.386 35.992 477.386 35.992 477.385 35.992C477.385 35.992 477.385 35.992 477.384 35.992C477.384 35.992 477.383 35.992 477.383 35.992C477.383 35.992 477.382 35.992 477.382 35.992C477.382 35.992 477.381 35.992 477.381 35.992C477.38 35.992 477.38 35.992 477.38 35.992C477.379 35.992 477.379 35.992 477.379 35.992C477.378 35.992 477.378 35.992 477.377 35.992C477.377 35.992 477.377 35.992 477.376 35.992C477.376 35.992 477.376 35.992 477.375 35.992C477.375 35.992 477.374 35.992 477.374 35.992C477.374 35.992 477.373 35.992 477.373 35.992C477.373 35.992 477.372 35.992 477.372 35.992C477.371 35.992 477.371 35.992 477.371 35.992C477.37 35.992 477.37 35.992 477.37 35.992C477.369 35.992 477.369 35.992 477.368 35.992C477.368 35.992 477.368 35.992 477.367 35.992C477.367 35.992 477.367 35.992 477.366 35.992C477.366 35.992 477.365 35.992 477.365 35.992C477.365 35.992 477.364 35.992 477.364 35.992C477.364 35.992 477.363 35.992 477.363 35.992C477.362 35.992 477.362 35.992 477.362 35.992C477.361 35.992 477.361 35.992 477.361 35.992C477.36 35.992 477.36 35.992 477.359 35.992C477.359 35.992 477.359 35.992 477.358 35.992C477.358 35.992 477.358 35.992 477.357 35.992C477.357 35.992 477.356 35.992 477.356 35.992C477.356 35.992 477.355 35.992 477.355 35.992C477.355 35.992 477.354 35.992 477.354 35.992C477.353 35.992 477.353 35.992 477.353 35.992C477.352 35.992 477.352 35.992 477.352 35.992C477.351 35.992 477.351 35.992 477.35 35.992C477.35 35.992 477.35 35.992 477.349 35.992C477.349 35.992 477.349 35.992 477.348 35.992C477.348 35.992 477.347 35.992 477.347 35.992C477.347 35.992 477.346 35.992 477.346 35.992C477.346 35.992 477.345 35.992 477.345 35.992C477.344 35.992 477.344 35.992 477.344 35.992C477.343 35.992 477.343 35.992 477.343 35.992C477.342 35.992 477.342 35.992 477.341 35.992C477.341 35.992 477.341 35.992 477.34 35.992C477.34 35.992 477.34 35.992 477.339 35.992C477.339 35.992 477.338 35.992 477.338 35.992C477.338 35.992 477.337 35.992 477.337 35.992C477.337 35.992 477.336 35.992 477.336 35.992C477.335 35.992 477.335 35.992 477.335 35.992C477.334 35.992 477.334 35.992 477.334 35.992C477.333 35.992 477.333 35.992 477.332 35.992C477.332 35.992 477.332 35.992 477.331 35.992C477.331 35.992 477.331 35.992 477.33 35.992C477.33 35.992 477.329 35.992 477.329 35.992C477.329 35.992 477.328 35.992 477.328 35.992C477.328 35.992 477.327 35.992 477.327 35.992C477.326 35.992 477.326 35.992 477.326 35.992C477.325 35.992 477.325 35.992 477.325 35.992C477.324 35.992 477.324 35.992 477.323 35.992C477.323 35.992 477.323 35.992 477.322 35.992C477.322 35.992 477.322 35.992 477.321 35.992C477.321 35.992 477.32 35.992 477.32 35.992C477.32 35.992 477.319 35.992 477.319 35.992C477.319 35.992 477.318 35.992 477.318 35.992C477.317 35.992 477.317 35.992 477.317 35.992C477.316 35.992 477.316 35.992 477.316 35.992C477.315 35.992 477.315 35.992 477.314 35.992C477.314 35.992 477.314 35.992 477.313 35.992C477.313 35.992 477.313 35.992 477.312 35.992C477.312 35.992 477.311 35.992 477.311 35.992C477.311 35.992 477.31 35.992 477.31 35.992C477.31 35.992 477.309 35.992 477.309 35.992C477.308 35.992 477.308 35.992 477.308 35.992C477.307 35.992 477.307 35.992 477.307 35.992C477.306 35.992 477.306 35.992 477.305 35.992C477.305 35.992 477.305 35.992 477.304 35.992C477.304 35.992 477.304 35.992 477.303 35.992C477.303 35.992 477.302 35.992 477.302 35.992C477.302 35.992 477.301 35.992 477.301 35.992C477.301 35.992 477.3 35.992 477.3 35.992C477.299 35.992 477.299 35.992 477.299 35.992C477.298 35.992 477.298 35.992 477.298 35.992C477.297 35.992 477.297 35.992 477.296 35.992C477.296 35.992 477.296 35.992 477.295 35.992C477.295 35.992 477.295 35.992 477.294 35.992C477.294 35.992 477.293 35.992 477.293 35.992C477.293 35.992 477.292 35.992 477.292 35.992C477.292 35.992 477.291 35.992 477.291 35.992C477.29 35.992 477.29 35.992 477.29 35.992C477.289 35.992 477.289 35.992 477.289 35.992C477.288 35.992 477.288 35.992 477.287 35.992C477.287 35.992 477.287 35.992 477.286 35.992C477.286 35.992 477.286 35.992 477.285 35.992C477.285 35.992 477.284 35.992 477.284 35.992C477.284 35.992 477.283 35.992 477.283 35.992C477.283 35.992 477.282 35.992 477.282 35.992C477.281 35.992 477.281 35.992 477.281 35.992C477.28 35.992 477.28 35.992 477.28 35.992C477.279 35.992 477.279 35.992 477.278 35.992C477.278 35.992 477.278 35.992 477.277 35.992C477.277 35.992 477.277 35.992 477.276 35.992C477.276 35.992 477.275 35.992 477.275 35.992C477.275 35.992 477.274 35.992 477.274 35.992C477.274 35.992 477.273 35.992 477.273 35.992C477.272 35.992 477.272 35.992 477.272 35.992C477.271 35.992 477.271 35.992 477.271 35.992C477.27 35.992 477.27 35.992 477.269 35.992C477.269 35.992 477.269 35.992 477.268 35.992C477.268 35.992 477.268 35.992 477.267 35.992C477.267 35.992 477.266 35.992 477.266 35.992C477.266 35.992 477.265 35.992 477.265 35.992C477.265 35.992 477.264 35.992 477.264 35.992C477.263 35.992 477.263 35.992 477.263 35.992C477.262 35.992 477.262 35.992 477.262 35.992C477.261 35.992 477.261 35.992 477.26 35.992C477.26 35.992 477.26 35.992 477.259 35.992C477.259 35.992 477.259 35.992 477.258 35.992C477.258 35.992 477.257 35.992 477.257 35.992C477.257 35.992 477.256 35.992 477.256 35.992C477.256 35.992 477.255 35.992 477.255 35.992C477.254 35.992 477.254 35.992 477.254 35.992C477.253 35.992 477.253 35.992 477.253 35.992C477.252 35.992 477.252 35.992 477.251 35.992C477.251 35.992 477.251 35.992 477.25 35.992C477.25 35.992 477.25 35.992 477.249 35.992C477.249 35.992 477.248 35.992 477.248 35.992C477.248 35.992 477.247 35.992 477.247 35.992C477.247 35.992 477.246 35.992 477.246 35.992C477.245 35.992 477.245 35.992 477.245 35.992C477.244 35.992 477.244 35.992 477.244 35.992C477.243 35.992 477.243 35.992 477.242 35.992C477.242 35.992 477.242 35.992 477.241 35.992C477.241 35.992 477.241 35.992 477.24 35.992C477.24 35.992 477.239 35.992 477.239 35.992C477.239 35.992 477.238 35.992 477.238 35.992C477.238 35.992 477.237 35.992 477.237 35.992C477.236 35.992 477.236 35.992 477.236 35.992C477.235 35.992 477.235 35.992 477.235 35.992C477.234 35.992 477.234 35.992 477.233 35.992C477.233 35.992 477.233 35.992 477.232 35.992C477.232 35.992 477.232 35.992 477.231 35.992C477.231 35.992 477.23 35.992 477.23 35.992C477.23 35.992 477.229 35.992 477.229 35.992C477.229 35.992 477.228 35.992 477.228 35.992C477.227 35.992 477.227 35.992 477.227 35.992C477.226 35.992 477.226 35.992 477.226 35.992C477.225 35.992 477.225 35.992 477.224 35.992C477.224 35.992 477.224 35.992 477.223 35.992C477.223 35.992 477.223 35.992 477.222 35.992C477.222 35.992 477.221 35.992 477.221 35.992C477.221 35.992 477.22 35.992 477.22 35.992C477.22 35.992 477.219 35.992 477.219 35.992C477.218 35.992 477.218 35.992 477.218 35.992C477.217 35.992 477.217 35.992 477.217 35.992C477.216 35.992 477.216 35.992 477.215 35.992C477.215 35.992 477.215 35.992 477.214 35.992C477.214 35.992 477.214 35.992 477.213 35.992C477.213 35.992 477.212 35.992 477.212 35.992C477.212 35.992 477.211 35.992 477.211 35.992C477.211 35.992 477.21 35.992 477.21 35.992C477.209 35.992 477.209 35.992 477.209 35.992C477.208 35.992 477.208 35.992 477.208 35.992C477.207 35.992 477.207 35.992 477.206 35.992C477.206 35.992 477.206 35.992 477.205 35.992C477.205 35.992 477.205 35.992 477.204 35.992C477.204 35.992 477.203 35.992 477.203 35.992C477.203 35.992 477.202 35.992 477.202 35.992C477.202 35.992 477.201 35.992 477.201 35.992C477.2 35.992 477.2 35.992 477.2 35.992C477.199 35.992 477.199 35.992 477.199 35.992C477.198 35.992 477.198 35.992 477.197 35.992C477.197 35.992 477.197 35.992 477.196 35.992C477.196 35.992 477.196 35.992 477.195 35.992C477.195 35.992 477.194 35.992 477.194 35.992C477.194 35.992 477.193 35.992 477.193 35.992C477.193 35.992 477.192 35.992 477.192 35.992C477.191 35.992 477.191 35.992 477.191 35.992C477.19 35.992 477.19 35.992 477.19 35.992C477.189 35.992 477.189 35.992 477.188 35.992C477.188 35.992 477.188 35.992 477.187 35.992C477.187 35.992 477.187 35.992 477.186 35.992C477.186 35.992 477.185 35.992 477.185 35.992C477.185 35.992 477.184 35.992 477.184 35.992C477.184 35.992 477.183 35.992 477.183 35.992C477.182 35.992 477.182 35.992 477.182 35.992C477.181 35.992 477.181 35.992 477.181 35.992C477.18 35.992 477.18 35.992 477.179 35.992C477.179 35.992 477.179 35.992 477.178 35.992C477.178 35.992 477.178 35.992 477.177 35.992C477.177 35.992 477.176 35.992 477.176 35.992C477.176 35.992 477.175 35.992 477.175 35.992C477.175 35.992 477.174 35.992 477.174 35.992C477.173 35.992 477.173 35.992 477.173 35.992C477.172 35.992 477.172 35.992 477.172 35.992C477.171 35.992 477.171 35.992 477.17 35.992C477.17 35.992 477.17 35.992 477.169 35.992C477.169 35.992 477.169 35.992 477.168 35.992C477.168 35.992 477.167 35.992 477.167 35.992C477.167 35.992 477.166 35.992 477.166 35.992C477.166 35.992 477.165 35.992 477.165 35.992C477.164 35.992 477.164 35.992 477.164 35.992C477.163 35.992 477.163 35.992 477.163 35.992C477.162 35.992 477.162 35.992 477.161 35.992C477.161 35.992 477.161 35.992 477.16 35.992C477.16 35.992 477.16 35.992 477.159 35.992C477.159 35.992 477.158 35.992 477.158 35.992C477.158 35.992 477.157 35.992 477.157 35.992C477.157 35.992 477.156 35.992 477.156 35.992C477.155 35.992 477.155 35.992 477.155 35.992C477.154 35.992 477.154 35.992 477.154 35.992C477.153 35.992 477.153 35.992 477.152 35.992C477.152 35.992 477.152 35.992 477.151 35.992C477.151 35.992 477.151 35.992 477.15 35.992C477.15 35.992 477.149 35.992 477.149 35.992C477.149 35.992 477.148 35.992 477.148 35.992C477.148 35.992 477.147 35.992 477.147 35.992C477.146 35.992 477.146 35.992 477.146 35.992C477.145 35.992 477.145 35.992 477.145 35.992C477.144 35.992 477.144 35.992 477.143 35.992C477.143 35.992 477.143 35.992 477.142 35.992C477.142 35.992 477.142 35.992 477.141 35.992C477.141 35.992 477.14 35.992 477.14 35.992C477.14 35.992 477.139 35.992 477.139 35.992C477.139 35.992 477.138 35.992 477.138 35.992C477.137 35.992 477.137 35.992 477.137 35.992C477.136 35.992 477.136 35.992 477.136 35.992C477.135 35.992 477.135 35.992 477.134 35.992C477.134 35.992 477.134 35.992 477.133 35.992C477.133 35.992 477.133 35.992 477.132 35.992C477.132 35.992 477.131 35.992 477.131 35.992C477.131 35.992 477.13 35.992 477.13 35.992C477.13 35.992 477.129 35.992 477.129 35.992C477.128 35.992 477.128 35.992 477.128 35.992C477.127 35.992 477.127 35.992 477.127 35.992C477.126 35.992 477.126 35.992 477.125 35.992C477.125 35.992 477.125 35.992 477.124 35.992C477.124 35.992 477.124 35.992 477.123 35.992C477.123 35.992 477.122 35.992 477.122 35.992C477.122 35.992 477.121 35.992 477.121 35.992C477.121 35.992 477.12 35.992 477.12 35.992C477.119 35.992 477.119 35.992 477.119 35.992C477.118 35.992 477.118 35.992 477.118 35.992C477.117 35.992 477.117 35.992 477.116 35.992C477.116 35.992 477.116 35.992 477.115 35.992C477.115 35.992 477.115 35.992 477.114 35.992C477.114 35.992 477.113 35.992 477.113 35.992C477.113 35.992 477.112 35.992 477.112 35.992C477.112 35.992 477.111 35.992 477.111 35.992C477.11 35.992 477.11 35.992 477.11 35.992C477.109 35.992 477.109 35.992 477.109 35.992C477.108 35.992 477.108 35.992 477.107 35.992C477.107 35.992 477.107 35.992 477.106 35.992C477.106 35.992 477.106 35.992 477.105 35.992C477.105 35.992 477.104 35.992 477.104 35.992C477.104 35.992 477.103 35.992 477.103 35.992C477.103 35.992 477.102 35.992 477.102 35.992C477.101 35.992 477.101 35.992 477.101 35.992C477.1 35.992 477.1 35.992 477.1 35.992C477.099 35.992 477.099 35.992 477.098 35.992C477.098 35.992 477.098 35.992 477.097 35.992C477.097 35.992 477.097 35.992 477.096 35.992C477.096 35.992 477.095 35.992 477.095 35.992C477.095 35.992 477.094 35.992 477.094 35.992C477.094 35.992 477.093 35.992 477.093 35.992C477.092 35.992 477.092 35.992 477.092 35.992C477.091 35.992 477.091 35.992 477.091 35.992C477.09 35.992 477.09 35.992 477.089 35.992C477.089 35.992 477.089 35.992 477.088 35.992C477.088 35.992 477.088 35.992 477.087 35.992C477.087 35.992 477.086 35.992 477.086 35.992C477.086 35.992 477.085 35.992 477.085 35.992C477.085 35.992 477.084 35.992 477.084 35.992C477.083 35.992 477.083 35.992 477.083 35.992C477.082 35.992 477.082 35.992 477.082 35.992C477.081 35.992 477.081 35.992 477.08 35.992C477.08 35.992 477.08 35.992 477.079 35.992C477.079 35.992 477.079 35.992 477.078 35.992C477.078 35.992 477.077 35.992 477.077 35.992C477.077 35.992 477.076 35.992 477.076 35.992C477.076 35.992 477.075 35.992 477.075 35.992C477.074 35.992 477.074 35.992 477.074 35.992C477.073 35.992 477.073 35.992 477.073 35.992C477.072 35.992 477.072 35.992 477.071 35.992C477.071 35.992 477.071 35.992 477.07 35.992C477.07 35.992 477.07 35.992 477.069 35.992C477.069 35.992 477.068 35.992 477.068 35.992C477.068 35.992 477.067 35.992 477.067 35.992C477.067 35.992 477.066 35.992 477.066 35.992C477.065 35.992 477.065 35.992 477.065 35.992C477.064 35.992 477.064 35.992 477.064 35.992C477.063 35.992 477.063 35.992 477.062 35.992C477.062 35.992 477.062 35.992 477.061 35.992C477.061 35.992 477.061 35.992 477.06 35.992C477.06 35.992 477.059 35.992 477.059 35.992C477.059 35.992 477.058 35.992 477.058 35.992C477.058 35.992 477.057 35.992 477.057 35.992C477.056 35.992 477.056 35.992 477.056 35.992C477.055 35.992 477.055 35.992 477.055 35.992C477.054 35.992 477.054 35.992 477.053 35.992C477.053 35.992 477.053 35.992 477.052 35.992C477.052 35.992 477.052 35.992 477.051 35.992C477.051 35.992 477.05 35.992 477.05 35.992C477.05 35.992 477.049 35.992 477.049 35.992C477.049 35.992 477.048 35.992 477.048 35.992C477.047 35.992 477.047 35.992 477.047 35.992C477.046 35.992 477.046 35.992 477.046 35.992C477.045 35.992 477.045 35.992 477.044 35.992C477.044 35.992 477.044 35.992 477.043 35.992C477.043 35.992 477.043 35.992 477.042 35.992C477.042 35.992 477.041 35.992 477.041 35.992C477.041 35.992 477.04 35.992 477.04 35.992C477.04 35.992 477.039 35.992 477.039 35.992C477.038 35.992 477.038 35.992 477.038 35.992C477.037 35.992 477.037 35.992 477.037 35.992C477.036 35.992 477.036 35.992 477.035 35.992C477.035 35.992 477.035 35.992 477.034 35.992C477.034 35.992 477.034 35.992 477.033 35.992C477.033 35.992 477.032 35.992 477.032 35.992C477.032 35.992 477.031 35.992 477.031 35.992C477.031 35.992 477.03 35.992 477.03 35.992C477.029 35.992 477.029 35.992 477.029 35.992C477.028 35.992 477.028 35.992 477.028 35.992C477.027 35.992 477.027 35.992 477.026 35.992C477.026 35.992 477.026 35.992 477.025 35.992C477.025 35.992 477.025 35.992 477.024 35.992C477.024 35.992 477.023 35.992 477.023 35.992C477.023 35.992 477.022 35.992 477.022 35.992C477.022 35.992 477.021 35.992 477.021 35.992C477.02 35.992 477.02 35.992 477.02 35.992C477.019 35.992 477.019 35.992 477.019 35.992C477.018 35.992 477.018 35.992 477.017 35.992C477.017 35.992 477.017 35.992 477.016 35.992C477.016 35.992 477.016 35.992 477.015 35.992C477.015 35.992 477.014 35.992 477.014 35.992C477.014 35.992 477.013 35.992 477.013 35.992C477.013 35.992 477.012 35.992 477.012 35.992C477.011 35.992 477.011 35.992 477.011 35.992C477.01 35.992 477.01 35.992 477.01 35.992C477.009 35.992 477.009 35.992 477.008 35.992C477.008 35.992 477.008 35.992 477.007 35.992C477.007 35.992 477.007 35.992 477.006 35.992C477.006 35.992 477.005 35.992 477.005 35.992C477.005 35.992 477.004 35.992 477.004 35.992C477.004 35.992 477.003 35.992 477.003 35.992C477.002 35.992 477.002 35.992 477.002 35.992C477.001 35.992 477.001 35.992 477.001 35.992C477 35.992 477 35.992 476.999 35.992C476.999 35.992 476.999 35.992 476.998 35.992C476.998 35.992 476.998 35.992 476.997 35.992C476.997 35.992 476.996 35.992 476.996 35.992C476.996 35.992 476.995 35.992 476.995 35.992C476.995 35.992 476.994 35.992 476.994 35.992C476.993 35.992 476.993 35.992 476.993 35.992C476.992 35.992 476.992 35.992 476.992 35.992C476.991 35.992 476.991 35.992 476.99 35.992C476.99 35.992 476.99 35.992 476.989 35.992C476.989 35.992 476.989 35.992 476.988 35.992C476.988 35.992 476.987 35.992 476.987 35.992C476.987 35.992 476.986 35.992 476.986 35.992C476.986 35.992 476.985 35.992 476.985 35.992C476.984 35.992 476.984 35.992 476.984 35.992C476.983 35.992 476.983 35.992 476.983 35.992C476.982 35.992 476.982 35.992 476.981 35.992C476.981 35.992 476.981 35.992 476.98 35.992C476.98 35.992 476.98 35.992 476.979 35.992C476.979 35.992 476.978 35.992 476.978 35.992C476.978 35.992 476.977 35.992 476.977 35.992C476.977 35.992 476.976 35.992 476.976 35.992C476.975 35.992 476.975 35.992 476.975 35.992C476.974 35.992 476.974 35.992 476.974 35.992C476.973 35.992 476.973 35.992 476.972 35.992C476.972 35.992 476.972 35.992 476.971 35.992C476.971 35.992 476.971 35.992 476.97 35.992C476.97 35.992 476.969 35.992 476.969 35.992C476.969 35.992 476.968 35.992 476.968 35.992C476.968 35.992 476.967 35.992 476.967 35.992C476.966 35.992 476.966 35.992 476.966 35.992C476.965 35.992 476.965 35.992 476.965 35.992C476.964 35.992 476.964 35.992 476.963 35.992C476.963 35.992 476.963 35.992 476.962 35.992V39.992ZM477.748 39.981C479.79 39.766 481.736 39.2266 483.574 38.3616L481.871 34.7424C480.445 35.4134 478.934 35.834 477.329 36.003L477.748 39.981ZM483.56 38.3679C490.485 35.1718 495.282 28.1415 495.282 20.04H491.282C491.282 26.5305 487.439 32.1722 481.884 34.7361L483.56 38.3679ZM495.282 20.04C495.282 14.4934 493.039 9.49039 489.437 5.78242L486.568 8.56957C489.494 11.5816 491.282 15.6026 491.282 20.04H495.282ZM489.416 5.76174L489.32 5.66574L486.492 8.49425L486.588 8.59025L489.416 5.76174ZM476.836 23.8191C476.363 24.0557 475.808 24.184 475.234 24.184V28.184C476.389 28.184 477.562 27.9283 478.625 27.3969L476.836 23.8191ZM475.234 24.184H444.802V28.184H475.234V24.184ZM446.802 26.184V13.8H442.802V26.184H446.802ZM444.802 15.8H475.234V11.8H444.802V15.8ZM475.234 15.8C476.696 15.8 477.653 16.4549 478.14 16.9422L480.968 14.1138C479.92 13.0651 477.997 11.8 475.234 11.8V15.8ZM478.14 16.9422C478.594 17.3962 479.378 18.4535 479.378 19.944H483.378C483.378 17.0185 481.858 15.0038 480.968 14.1138L478.14 16.9422ZM479.378 19.944C479.378 21.5507 478.408 23.0365 476.933 23.6779L478.528 27.3461C481.469 26.0675 483.378 23.1373 483.378 19.944H479.378ZM475.73 25.512V25.608H479.73V25.512H475.73ZM520.953 38.4844H518.953V40.4844H520.953V38.4844ZM520.953 5.95312H522.953V3.95312H520.953V5.95312ZM508.578 5.95312H506.578V7.95312H508.578V5.95312ZM508.578 0.28125V-1.71875H506.578V0.28125H508.578ZM539.797 0.28125H541.797V-1.71875H539.797V0.28125ZM539.797 5.95312V7.95312H541.797V5.95312H539.797ZM527.328 5.95312V3.95312H525.328V5.95312H527.328ZM527.328 38.4844V40.4844H529.328V38.4844H527.328ZM544.062 38.4844H542.062V40.4844H544.062V38.4844ZM544.062 0.28125V-1.71875H542.062V0.28125H544.062ZM553.438 0.28125L555.344 -0.322134L554.902 -1.71875H553.438V0.28125ZM563.094 30.7969L561.187 31.4003L563.127 37.5305L565.006 31.3815L563.094 30.7969ZM572.422 0.28125V-1.71875H570.942L570.509 -0.303411L572.422 0.28125ZM581.609 0.28125H583.609V-1.71875H581.609V0.28125ZM581.609 38.4844V40.4844H583.609V38.4844H581.609ZM575.797 38.4844H573.797V40.4844H575.797V38.4844ZM575.797 6.42188H577.797L573.885 5.83488L575.797 6.42188ZM565.953 38.4844V40.4844H567.431L567.865 39.0714L565.953 38.4844ZM560.188 38.4844L558.28 39.0862L558.721 40.4844H560.188V38.4844ZM549.922 5.95312L551.829 5.35126L547.922 5.95312H549.922ZM549.922 38.4844V40.4844H551.922V38.4844H549.922ZM522.953 38.4844V5.95312H518.953V38.4844H522.953ZM520.953 3.95312H508.578V7.95312H520.953V3.95312ZM510.578 5.95312V0.28125H506.578V5.95312H510.578ZM508.578 2.28125H539.797V-1.71875H508.578V2.28125ZM537.797 0.28125V5.95312H541.797V0.28125H537.797ZM539.797 3.95312H527.328V7.95312H539.797V3.95312ZM525.328 5.95312V38.4844H529.328V5.95312H525.328ZM527.328 36.4844H520.953V40.4844H527.328V36.4844ZM546.062 38.4844V0.28125H542.062V38.4844H546.062ZM544.062 2.28125H553.438V-1.71875H544.062V2.28125ZM551.531 0.884634L561.187 31.4003L565.001 30.1935L555.344 -0.322134L551.531 0.884634ZM565.006 31.3815L574.335 0.865911L570.509 -0.303411L561.181 30.2122L565.006 31.3815ZM572.422 2.28125H581.609V-1.71875H572.422V2.28125ZM579.609 0.28125V38.4844H583.609V0.28125H579.609ZM581.609 36.4844H575.797V40.4844H581.609V36.4844ZM577.797 38.4844V6.42188H573.797V38.4844H577.797ZM573.885 5.83488L564.041 37.8974L567.865 39.0714L577.709 7.00887L573.885 5.83488ZM565.953 36.4844H560.188V40.4844H565.953V36.4844ZM562.095 37.8825L551.829 5.35126L548.015 6.55499L558.28 39.0862L562.095 37.8825ZM547.922 5.95312V38.4844H551.922V5.95312H547.922ZM549.922 36.4844H544.062V40.4844H549.922V36.4844Z" fill="#3399FF"/>
</svg>
