<svg id="visual" viewBox="0 0 900 600" width="900" height="600" xmlns="http://www.w3.org/2000/svg" xmlns:xlink="http://www.w3.org/1999/xlink" version="1.1"><g stroke-width="1" stroke-linejoin="bevel"><path d="M465 371.9L453 461.6L560 392.6Z" fill="#131922" stroke="#131922"></path><path d="M336 513.3L433 511.3L453 461.6Z" fill="#031d31" stroke="#031d31"></path><path d="M453 461.6L550 551.3L560 392.6Z" fill="#001d33" stroke="#001d33"></path><path d="M560 392.6L532 298.9L465 371.9Z" fill="#001d33" stroke="#001d33"></path><path d="M433 511.3L550 551.3L453 461.6Z" fill="#131922" stroke="#131922"></path><path d="M550 551.3L645 431.6L560 392.6Z" fill="#0b1b2b" stroke="#0b1b2b"></path><path d="M665 373.9L551 271.1L532 298.9Z" fill="#081c2d" stroke="#081c2d"></path><path d="M665 373.9L532 298.9L560 392.6Z" fill="#0b1b2b" stroke="#0b1b2b"></path><path d="M447 218.1L376 326.9L465 371.9Z" fill="#121a24" stroke="#121a24"></path><path d="M447 218.1L465 371.9L532 298.9Z" fill="#131922" stroke="#131922"></path><path d="M465 371.9L341 388.6L453 461.6Z" fill="#0b1b2b" stroke="#0b1b2b"></path><path d="M376 326.9L341 388.6L465 371.9Z" fill="#0b1b2b" stroke="#0b1b2b"></path><path d="M645 431.6L665 373.9L560 392.6Z" fill="#0f1b27" stroke="#0f1b27"></path><path d="M428 600L549 600L550 551.3Z" fill="#081c2d" stroke="#081c2d"></path><path d="M550 551.3L671 509.3L645 431.6Z" fill="#081c2d" stroke="#081c2d"></path><path d="M641 600L671 509.3L550 551.3Z" fill="#0f1b27" stroke="#0f1b27"></path><path d="M645 431.6L707 432.6L665 373.9Z" fill="#061c2f" stroke="#061c2f"></path><path d="M341 388.6L336 513.3L453 461.6Z" fill="#121a24" stroke="#121a24"></path><path d="M433 511.3L428 600L550 551.3Z" fill="#031d31" stroke="#031d31"></path><path d="M336 513.3L428 600L433 511.3Z" fill="#101a25" stroke="#101a25"></path><path d="M671 509.3L707 432.6L645 431.6Z" fill="#0b1b2b" stroke="#0b1b2b"></path><path d="M551 271.1L447 218.1L532 298.9Z" fill="#001d33" stroke="#001d33"></path><path d="M283 287.1L289 410.6L341 388.6Z" fill="#0d1b29" stroke="#0d1b29"></path><path d="M341 388.6L289 410.6L336 513.3Z" fill="#001d33" stroke="#001d33"></path><path d="M283 287.1L341 388.6L376 326.9Z" fill="#061c2f" stroke="#061c2f"></path><path d="M665 373.9L656 265.1L551 271.1Z" fill="#0f1b27" stroke="#0f1b27"></path><path d="M566 132.4L451 165.4L447 218.1Z" fill="#121a24" stroke="#121a24"></path><path d="M739 352.9L656 265.1L665 373.9Z" fill="#0f1b27" stroke="#0f1b27"></path><path d="M549 600L641 600L550 551.3Z" fill="#121a24" stroke="#121a24"></path><path d="M671 509.3L740 485.3L707 432.6Z" fill="#131922" stroke="#131922"></path><path d="M447 218.1L333 262.1L376 326.9Z" fill="#0f1b27" stroke="#0f1b27"></path><path d="M289 410.6L278 500.3L336 513.3Z" fill="#031d31" stroke="#031d31"></path><path d="M336 513.3L334 600L428 600Z" fill="#141920" stroke="#141920"></path><path d="M747 600L740 485.3L671 509.3Z" fill="#061c2f" stroke="#061c2f"></path><path d="M707 432.6L739 352.9L665 373.9Z" fill="#121a24" stroke="#121a24"></path><path d="M278 500.3L334 600L336 513.3Z" fill="#101a25" stroke="#101a25"></path><path d="M821 395.6L739 352.9L707 432.6Z" fill="#101a25" stroke="#101a25"></path><path d="M333 262.1L283 287.1L376 326.9Z" fill="#0f1b27" stroke="#0f1b27"></path><path d="M289 410.6L197 426.6L278 500.3Z" fill="#141920" stroke="#141920"></path><path d="M566 132.4L447 218.1L551 271.1Z" fill="#121a24" stroke="#121a24"></path><path d="M447 218.1L339 164.4L333 262.1Z" fill="#121a24" stroke="#121a24"></path><path d="M333 262.1L262 177.4L283 287.1Z" fill="#131922" stroke="#131922"></path><path d="M739 352.9L699 225.1L656 265.1Z" fill="#0d1b29" stroke="#0d1b29"></path><path d="M656 265.1L657 189.4L551 271.1Z" fill="#0b1b2b" stroke="#0b1b2b"></path><path d="M699 225.1L657 189.4L656 265.1Z" fill="#061c2f" stroke="#061c2f"></path><path d="M215 263.1L236 306.9L283 287.1Z" fill="#081c2d" stroke="#081c2d"></path><path d="M283 287.1L236 306.9L289 410.6Z" fill="#101a25" stroke="#101a25"></path><path d="M747 600L789 485.3L740 485.3Z" fill="#101a25" stroke="#101a25"></path><path d="M740 485.3L789 485.3L707 432.6Z" fill="#031d31" stroke="#031d31"></path><path d="M840 171.4L689 182.4L699 225.1Z" fill="#001d33" stroke="#001d33"></path><path d="M657 189.4L566 132.4L551 271.1Z" fill="#061c2f" stroke="#061c2f"></path><path d="M641 600L747 600L671 509.3Z" fill="#081c2d" stroke="#081c2d"></path><path d="M699 225.1L689 182.4L657 189.4Z" fill="#131922" stroke="#131922"></path><path d="M657 189.4L658 100.7L566 132.4Z" fill="#0d1b29" stroke="#0d1b29"></path><path d="M807 261.1L699 225.1L739 352.9Z" fill="#081c2d" stroke="#081c2d"></path><path d="M364 120.7L339 164.4L451 165.4Z" fill="#0d1b29" stroke="#0d1b29"></path><path d="M451 165.4L339 164.4L447 218.1Z" fill="#031d31" stroke="#031d31"></path><path d="M236 306.9L197 426.6L289 410.6Z" fill="#0d1b29" stroke="#0d1b29"></path><path d="M278 500.3L248 600L334 600Z" fill="#0b1b2b" stroke="#0b1b2b"></path><path d="M211 600L248 600L278 500.3Z" fill="#061c2f" stroke="#061c2f"></path><path d="M789 485.3L821 395.6L707 432.6Z" fill="#081c2d" stroke="#081c2d"></path><path d="M821 395.6L821 359.9L739 352.9Z" fill="#0f1b27" stroke="#0f1b27"></path><path d="M262 177.4L215 263.1L283 287.1Z" fill="#031d31" stroke="#031d31"></path><path d="M236 306.9L150 317.9L197 426.6Z" fill="#131922" stroke="#131922"></path><path d="M451 78.7L364 120.7L451 165.4Z" fill="#0b1b2b" stroke="#0b1b2b"></path><path d="M339 164.4L262 177.4L333 262.1Z" fill="#131922" stroke="#131922"></path><path d="M148 528.3L211 600L278 500.3Z" fill="#061c2f" stroke="#061c2f"></path><path d="M821 359.9L807 261.1L739 352.9Z" fill="#0d1b29" stroke="#0d1b29"></path><path d="M305 53.7L262 177.4L339 164.4Z" fill="#061c2f" stroke="#061c2f"></path><path d="M514 46.7L451 78.7L566 132.4Z" fill="#081c2d" stroke="#081c2d"></path><path d="M566 132.4L451 78.7L451 165.4Z" fill="#101a25" stroke="#101a25"></path><path d="M728 46.7L658 100.7L689 182.4Z" fill="#131922" stroke="#131922"></path><path d="M689 182.4L658 100.7L657 189.4Z" fill="#0d1b29" stroke="#0d1b29"></path><path d="M262 177.4L207 215.4L215 263.1Z" fill="#141920" stroke="#141920"></path><path d="M215 263.1L150 317.9L236 306.9Z" fill="#031d31" stroke="#031d31"></path><path d="M102 258.1L150 317.9L215 263.1Z" fill="#0f1b27" stroke="#0f1b27"></path><path d="M197 426.6L148 528.3L278 500.3Z" fill="#081c2d" stroke="#081c2d"></path><path d="M100 465.6L148 528.3L197 426.6Z" fill="#0d1b29" stroke="#0d1b29"></path><path d="M553 0L514 46.7L585 0Z" fill="#0f1b27" stroke="#0f1b27"></path><path d="M393 0L305 53.7L364 120.7Z" fill="#061c2f" stroke="#061c2f"></path><path d="M747 600L850 600L789 485.3Z" fill="#031d31" stroke="#031d31"></path><path d="M900 480.3L900 414.6L821 395.6Z" fill="#0b1b2b" stroke="#0b1b2b"></path><path d="M821 395.6L900 414.6L821 359.9Z" fill="#121a24" stroke="#121a24"></path><path d="M821 359.9L900 302.9L807 261.1Z" fill="#0d1b29" stroke="#0d1b29"></path><path d="M900 480.3L821 395.6L789 485.3Z" fill="#061c2f" stroke="#061c2f"></path><path d="M850 600L900 480.3L789 485.3Z" fill="#0b1b2b" stroke="#0b1b2b"></path><path d="M77 347.9L100 465.6L197 426.6Z" fill="#141920" stroke="#141920"></path><path d="M45 514.3L132 600L148 528.3Z" fill="#0f1b27" stroke="#0f1b27"></path><path d="M148 528.3L132 600L211 600Z" fill="#061c2f" stroke="#061c2f"></path><path d="M900 414.6L900 302.9L821 359.9Z" fill="#121a24" stroke="#121a24"></path><path d="M807 261.1L840 171.4L699 225.1Z" fill="#131922" stroke="#131922"></path><path d="M262 177.4L187 82.7L207 215.4Z" fill="#0d1b29" stroke="#0d1b29"></path><path d="M364 120.7L305 53.7L339 164.4Z" fill="#031d31" stroke="#031d31"></path><path d="M393 0L364 120.7L451 78.7Z" fill="#131922" stroke="#131922"></path><path d="M900 207.4L840 171.4L807 261.1Z" fill="#0f1b27" stroke="#0f1b27"></path><path d="M585 0L514 46.7L566 132.4Z" fill="#001d33" stroke="#001d33"></path><path d="M514 46.7L453 0L451 78.7Z" fill="#141920" stroke="#141920"></path><path d="M585 0L566 132.4L658 100.7Z" fill="#0b1b2b" stroke="#0b1b2b"></path><path d="M553 0L453 0L514 46.7Z" fill="#061c2f" stroke="#061c2f"></path><path d="M717 0L585 0L658 100.7Z" fill="#0f1b27" stroke="#0f1b27"></path><path d="M102 258.1L77 347.9L150 317.9Z" fill="#121a24" stroke="#121a24"></path><path d="M150 317.9L77 347.9L197 426.6Z" fill="#101a25" stroke="#101a25"></path><path d="M102 258.1L215 263.1L207 215.4Z" fill="#121a24" stroke="#121a24"></path><path d="M900 302.9L900 247.1L807 261.1Z" fill="#031d31" stroke="#031d31"></path><path d="M48 147.4L102 258.1L207 215.4Z" fill="#101a25" stroke="#101a25"></path><path d="M850 600L900 600L900 480.3Z" fill="#121a24" stroke="#121a24"></path><path d="M453 0L393 0L451 78.7Z" fill="#061c2f" stroke="#061c2f"></path><path d="M786 67.7L728 46.7L689 182.4Z" fill="#0b1b2b" stroke="#0b1b2b"></path><path d="M900 247.1L900 207.4L807 261.1Z" fill="#0f1b27" stroke="#0f1b27"></path><path d="M840 171.4L786 67.7L689 182.4Z" fill="#0d1b29" stroke="#0d1b29"></path><path d="M900 78.7L786 67.7L840 171.4Z" fill="#081c2d" stroke="#081c2d"></path><path d="M286 0L187 82.7L305 53.7Z" fill="#0b1b2b" stroke="#0b1b2b"></path><path d="M305 53.7L187 82.7L262 177.4Z" fill="#121a24" stroke="#121a24"></path><path d="M0 471.3L45 514.3L100 465.6Z" fill="#121a24" stroke="#121a24"></path><path d="M100 465.6L45 514.3L148 528.3Z" fill="#131922" stroke="#131922"></path><path d="M786 67.7L717 0L728 46.7Z" fill="#061c2f" stroke="#061c2f"></path><path d="M728 46.7L717 0L658 100.7Z" fill="#031d31" stroke="#031d31"></path><path d="M393 0L286 0L305 53.7Z" fill="#001d33" stroke="#001d33"></path><path d="M77 347.9L0 439.6L100 465.6Z" fill="#0f1b27" stroke="#0f1b27"></path><path d="M0 335.9L0 439.6L77 347.9Z" fill="#101a25" stroke="#101a25"></path><path d="M0 335.9L77 347.9L102 258.1Z" fill="#001d33" stroke="#001d33"></path><path d="M0 439.6L0 471.3L100 465.6Z" fill="#0f1b27" stroke="#0f1b27"></path><path d="M45 514.3L0 600L132 600Z" fill="#081c2d" stroke="#081c2d"></path><path d="M0 212.1L0 335.9L102 258.1Z" fill="#0b1b2b" stroke="#0b1b2b"></path><path d="M286 0L193 0L187 82.7Z" fill="#0d1b29" stroke="#0d1b29"></path><path d="M187 82.7L48 147.4L207 215.4Z" fill="#0b1b2b" stroke="#0b1b2b"></path><path d="M900 207.4L900 78.7L840 171.4Z" fill="#001d33" stroke="#001d33"></path><path d="M786 67.7L842 0L717 0Z" fill="#101a25" stroke="#101a25"></path><path d="M96 41.7L48 147.4L187 82.7Z" fill="#031d31" stroke="#031d31"></path><path d="M0 471.3L0 600L45 514.3Z" fill="#001d33" stroke="#001d33"></path><path d="M900 78.7L842 0L786 67.7Z" fill="#0b1b2b" stroke="#0b1b2b"></path><path d="M48 147.4L0 212.1L102 258.1Z" fill="#0d1b29" stroke="#0d1b29"></path><path d="M48 147.4L0 197.4L0 212.1Z" fill="#001d33" stroke="#001d33"></path><path d="M134 0L96 41.7L187 82.7Z" fill="#0b1b2b" stroke="#0b1b2b"></path><path d="M48 147.4L0 57.7L0 197.4Z" fill="#081c2d" stroke="#081c2d"></path><path d="M193 0L134 0L187 82.7Z" fill="#0d1b29" stroke="#0d1b29"></path><path d="M900 78.7L900 0L842 0Z" fill="#141920" stroke="#141920"></path><path d="M0 0L0 57.7L96 41.7Z" fill="#081c2d" stroke="#081c2d"></path><path d="M96 41.7L0 57.7L48 147.4Z" fill="#121a24" stroke="#121a24"></path><path d="M134 0L0 0L96 41.7Z" fill="#0f1b27" stroke="#0f1b27"></path></g></svg>