<svg version="1.1" xmlns="http://www.w3.org/2000/svg" xmlns:xlink="http://www.w3.org/1999/xlink" viewBox="0 0 172 172"><g fill="none" fill-rule="nonzero" stroke="none" stroke-width="1" stroke-linecap="butt" stroke-linejoin="miter" stroke-miterlimit="10" stroke-dasharray="" stroke-dashoffset="0" font-family="none" font-weight="none" font-size="none" text-anchor="none" style="mix-blend-mode: normal"><path d="M0,172v-172h172v172z" fill="none"></path><g fill="#fffce6"><path d="M18.8125,1.34375c-9.675,0 -17.46875,7.79375 -17.46875,17.46875v18.8125v115.5625c0,9.675 7.79375,17.46875 17.46875,17.46875h134.375c9.675,0 17.46875,-7.79375 17.46875,-17.46875v-134.375c0,-9.675 -7.79375,-17.46875 -17.46875,-17.46875zM18.8125,9.40625h134.375c5.24062,0 9.40625,4.16563 9.40625,9.40625v20.15625h-153.1875v-20.15625c0,-5.24062 4.16563,-9.40625 9.40625,-9.40625zM24.1875,20.15625c-2.28438,0 -4.03125,1.74687 -4.03125,4.03125c0,2.28438 1.74687,4.03125 4.03125,4.03125h5.375c2.28438,0 4.03125,-1.74687 4.03125,-4.03125c0,-2.28438 -1.74687,-4.03125 -4.03125,-4.03125zM45.6875,20.15625c-2.28438,0 -4.03125,1.74687 -4.03125,4.03125c0,2.28438 1.74687,4.03125 4.03125,4.03125h5.375c2.28438,0 4.03125,-1.74687 4.03125,-4.03125c0,-2.28438 -1.74687,-4.03125 -4.03125,-4.03125zM9.40625,47.03125h153.1875v106.15625c0,5.24062 -4.16563,9.40625 -9.40625,9.40625h-134.375c-5.24062,0 -9.40625,-4.16563 -9.40625,-9.40625zM86,73.23438c-8.19688,0 -14.78125,6.58437 -14.78125,14.78125v28.21875c0,8.19687 6.58437,14.78125 14.78125,14.78125c8.19687,0 14.78125,-6.58438 14.78125,-14.78125v-28.21875c0,-8.19688 -6.58438,-14.78125 -14.78125,-14.78125zM56.67896,73.27374c-1.60751,-0.0937 -3.04548,0.69917 -3.86853,2.11011l-18.8125,34.9375c-0.26875,0.5375 -0.40417,1.2099 -0.40417,1.88178v5.375c0,2.28437 1.74688,4.03125 4.03125,4.03125h14.78125v5.375c0,2.28438 1.74687,4.03125 4.03125,4.03125c2.28438,0 4.03125,-1.74687 4.03125,-4.03125v-5.375c2.28438,0 4.03125,-1.74688 4.03125,-4.03125c0,-2.28437 -1.74687,-4.03125 -4.03125,-4.03125v-36.28125c0,-1.88125 -1.21042,-3.49428 -3.09167,-3.8974c-0.23516,-0.05039 -0.46848,-0.0811 -0.69812,-0.09448zM130.62457,73.27374c-1.54321,-0.0937 -3.08485,0.69917 -3.9079,2.11011l-18.8125,34.9375c-0.26875,0.5375 -0.40417,1.2099 -0.40417,1.88178v5.375c0,2.28437 1.74688,4.03125 4.03125,4.03125h14.78125v5.375c0,2.28438 1.74687,4.03125 4.03125,4.03125c2.28438,0 4.03125,-1.74687 4.03125,-4.03125v-5.375c2.28438,0 4.03125,-1.74688 4.03125,-4.03125c0,-2.28437 -1.74687,-4.03125 -4.03125,-4.03125v-36.28125c0,-1.88125 -1.21042,-3.49428 -3.09167,-3.8974c-0.21836,-0.05039 -0.43829,-0.0811 -0.65875,-0.09448zM86,81.29688c3.7625,0 6.71875,2.95625 6.71875,6.71875v28.21875c0,3.7625 -2.95625,6.71875 -6.71875,6.71875c-3.7625,0 -6.71875,-2.95625 -6.71875,-6.71875v-28.21875c0,-3.7625 2.95625,-6.71875 6.71875,-6.71875zM52.40625,93.25678v20.2901h-10.75v-0.2677zM126.3125,93.25678v20.2901h-10.75v-0.2677z"></path></g></g></svg>